<?xml version="1.0" encoding="UTF-8"?>
<svg width="60.017" height="30.76" version="1.1" viewBox="0 0 15.879 8.1386" xmlns="http://www.w3.org/2000/svg" xmlns:cc="http://creativecommons.org/ns#" xmlns:dc="http://purl.org/dc/elements/1.1/" xmlns:rdf="http://www.w3.org/1999/02/22-rdf-syntax-ns#">
 <metadata>
  <rdf:RDF>
   <cc:Work rdf:about="">
    <dc:format>image/svg+xml</dc:format>
    <dc:type rdf:resource="http://purl.org/dc/dcmitype/StillImage"/>
    <dc:title/>
    <dc:date>27/09/2021</dc:date>
    <dc:creator>
     <cc:Agent>
      <dc:title>Wellington Terumi Uemura</dc:title>
     </cc:Agent>
    </dc:creator>
    <dc:rights>
     <cc:Agent>
      <dc:title>Wellington Terumi Uemura</dc:title>
     </cc:Agent>
    </dc:rights>
    <dc:source>https://mamedoc.readthedocs.io</dc:source>
    <cc:license rdf:resource="http://creativecommons.org/licenses/by/4.0/"/>
   </cc:Work>
   <cc:License rdf:about="http://creativecommons.org/licenses/by/4.0/">
    <cc:permits rdf:resource="http://creativecommons.org/ns#Reproduction"/>
    <cc:permits rdf:resource="http://creativecommons.org/ns#Distribution"/>
    <cc:requires rdf:resource="http://creativecommons.org/ns#Notice"/>
    <cc:requires rdf:resource="http://creativecommons.org/ns#Attribution"/>
    <cc:permits rdf:resource="http://creativecommons.org/ns#DerivativeWorks"/>
   </cc:License>
  </rdf:RDF>
 </metadata>
 <g stroke-width=".25041">
  <path d="m1.2539 0.12524h13.372c0.62527 0 1.1286 0.50511 1.1286 1.1325v5.6231c0 0.62741-0.50338 1.1325-1.1286 1.1325h-13.372c-0.62527 0-1.1286-0.50511-1.1286-1.1325v-5.6231c0-0.62741 0.50338-1.1325 1.1286-1.1325z" fill="#ddb" stop-color="#000000" stroke="#b3b366"/>
  <path d="m14.623 2.4114a1.1466 1.1505 0 0 1-1.1466 1.1505 1.1466 1.1505 0 0 1-1.1466-1.1505 1.1466 1.1505 0 0 1 1.1466-1.1505 1.1466 1.1505 0 0 1 1.1466 1.1505z" fill="#99000f" stop-color="#000000" stroke="#ff021b"/>
  <path d="m11.319 2.4114a1.1466 1.1505 0 0 1-1.1466 1.1505 1.1466 1.1505 0 0 1-1.1466-1.1505 1.1466 1.1505 0 0 1 1.1466-1.1505 1.1466 1.1505 0 0 1 1.1466 1.1505z" fill="#a39800" stop-color="#000000" stroke="#fe0"/>
  <path d="m8.0041 2.3994a1.1347 1.1386 0 0 1-1.1347 1.1386 1.1347 1.1386 0 0 1-1.1347-1.1386 1.1347 1.1386 0 0 1 1.1347-1.1386 1.1347 1.1386 0 0 1 1.1347 1.1386z" fill="#006599" stop-color="#000000" stroke="#008cd4"/>
 </g>
 <g fill="#ececec" stroke-width=".25041">
  <path d="m14.623 5.7261a1.1466 1.1505 0 0 1-1.1466 1.1505 1.1466 1.1505 0 0 1-1.1466-1.1505 1.1466 1.1505 0 0 1 1.1466-1.1505 1.1466 1.1505 0 0 1 1.1466 1.1505z" stop-color="#000000" stroke="#ff021b"/>
  <path d="m11.319 5.7261a1.1466 1.1505 0 0 1-1.1466 1.1505 1.1466 1.1505 0 0 1-1.1466-1.1505 1.1466 1.1505 0 0 1 1.1466-1.1505 1.1466 1.1505 0 0 1 1.1466 1.1505z" stop-color="#000000" stroke="#fe0"/>
  <path d="m8.0278 5.7261a1.1466 1.1505 0 0 1-1.1466 1.1505 1.1466 1.1505 0 0 1-1.1466-1.1505 1.1466 1.1505 0 0 1 1.1466-1.1505 1.1466 1.1505 0 0 1 1.1466 1.1505z" stop-color="#000000" stroke="#008cd4"/>
 </g>
 <rect x=".62628" y="1.7589" width="4.6196" height="4.6196" opacity=".5107" stroke-width=".92394"/>
 <path d="m4.2193 4.0687a1.2832 1.2832 0 0 1-1.2832 1.2832 1.2832 1.2832 0 0 1-1.2832-1.2832 1.2832 1.2832 0 0 1 1.2832-1.2832 1.2832 1.2832 0 0 1 1.2832 1.2832z" fill="#d40015" stop-color="#000000"/>
 <g fill="#ececec" stroke-width=".26458">
  <g aria-label="1">
   <path d="m6.5687 2.9127h0.27076v-0.86166q0-0.037042 0.00265-0.078493l-0.2249 0.19315q-0.011465 0.0097-0.02293 0.012347-0.011465 0.00176-0.021167 0-0.0097-0.00176-0.018521-0.00706-0.00794-0.00529-0.012347-0.011465l-0.049389-0.06791 0.37659-0.32544h0.12788v1.1465h0.2487v0.11994h-0.67733z" fill="#ececec" stroke-width=".26458"/>
  </g>
  <g aria-label="2">
   <path d="m10.189 1.7724q0.08026 0 0.14993 0.023813 0.06967 0.023812 0.12083 0.069674 0.05115 0.044979 0.08026 0.11024 0.0291 0.065264 0.0291 0.14817 0 0.070556-0.02117 0.13141-0.02117 0.059972-0.05733 0.11465-0.03616 0.05468-0.08378 0.10672-0.04674 0.052035-0.09966 0.10495l-0.33337 0.34043q0.035277-0.0097 0.071437-0.014993 0.03616-0.00617 0.06967-0.00617h0.42333q0.02558 0 0.04057 0.014993t0.01499 0.038806v0.09525h-0.84313v-0.053799q0-0.016757 0.00706-0.034396t0.022049-0.032632l0.40481-0.40658q0.05027-0.051153 0.09172-0.097896 0.04145-0.047625 0.07056-0.09525 0.0291-0.047625 0.04498-0.096132 0.01588-0.049389 0.01588-0.10495 0-0.055563-0.01764-0.097014-0.01764-0.042333-0.04851-0.069674-0.02999-0.02734-0.07144-0.040569-0.04145-0.014111-0.08908-0.014111-0.04851 0-0.08908 0.014111t-0.07232 0.039688q-0.030868 0.024694-0.052035 0.05909t-0.029986 0.075847q-0.010583 0.030868-0.029104 0.041451-0.017639 0.0097-0.050271 0.00529l-0.082015-0.014109q0.012347-0.086431 0.047625-0.15258 0.03616-0.067028 0.089958-0.11201 0.054681-0.044979 0.12435-0.06791 0.06967-0.023813 0.15081-0.023813z" fill="#ececec" stroke-width=".26458"/>
  </g>
  <g aria-label="3">
   <path d="m13.504 1.7654q0.08026 0 0.14817 0.02293 0.06791 0.022931 0.11642 0.065264 0.04939 0.042333 0.07673 0.10231 0.02734 0.059972 0.02734 0.13317 0 0.059972-0.01587 0.1076-0.01499 0.046743-0.0441 0.082903-0.02822 0.035278-0.06879 0.059972t-0.09084 0.039687q0.12347 0.032632 0.18521 0.10936 0.06262 0.076729 0.06262 0.19226 0 0.087313-0.03351 0.15699-0.03263 0.069674-0.08996 0.11906-0.05733 0.048507-0.13406 0.074965-0.07585 0.025576-0.16316 0.025576-0.10054 0-0.17198-0.024694-0.07144-0.025576-0.12083-0.069674-0.04939-0.044097-0.08114-0.10407-0.03175-0.060854-0.0538-0.13141l0.06791-0.028222q0.02646-0.011465 0.05115-0.00617 0.02558 0.00529 0.03704 0.029104 0.01146 0.024695 0.02822 0.05909 0.01764 0.034396 0.04763 0.066146t0.07585 0.053799q0.04674 0.022049 0.11818 0.022049 0.06615 0 0.11554-0.021167 0.05027-0.022049 0.0829-0.056445 0.03351-0.034396 0.05027-0.076729t0.01676-0.083785q0-0.051153-0.01323-0.093486t-0.04939-0.073202q-0.03616-0.030868-0.09966-0.048507-0.06262-0.017639-0.1614-0.017639v-0.11377q0.08114-8.819e-4 0.13758-0.017639 0.05733-0.016757 0.0926-0.045861 0.03616-0.029104 0.05204-0.069674 0.01676-0.040569 0.01676-0.089958 0-0.05468-0.01764-0.09525-0.01676-0.040569-0.04674-0.067028-0.02999-0.026458-0.07144-0.039688-0.04057-0.013229-0.0882-0.013229t-0.08908 0.014111q-0.04057 0.014111-0.07232 0.039687-0.03087 0.024695-0.05204 0.05909-0.02117 0.034396-0.02999 0.075847-0.01147 0.030868-0.0291 0.041451-0.01676 0.0097-0.04939 0.00529l-0.082013-0.014107q0.01235-0.086431 0.04763-0.15258 0.03528-0.067028 0.08908-0.11201 0.05468-0.044979 0.12435-0.06791 0.07056-0.023813 0.1517-0.023813z" fill="#ececec" stroke-width=".26458"/>
  </g>
 </g>
 <g fill="#333" stroke-width=".26458">
  <g aria-label="4">
   <path d="m7.1661 5.902h0.19138v0.089958q0 0.014111-0.00882 0.023813-0.00794 0.0097-0.025576 0.0097h-0.15699v0.33249h-0.13758v-0.33249h-0.56092q-0.017639 0-0.030868-0.0097-0.012347-0.010583-0.015875-0.025576l-0.015875-0.080259 0.61472-0.8158h0.1464zm-0.13758-0.52123q0-0.022931 8.819e-4 -0.049389 0.00176-0.02734 0.00617-0.055562l-0.46038 0.62618h0.45332z" fill="#333" stroke-width=".26458"/>
  </g>
  <g aria-label="5">
   <path d="m10.537 5.1559q0 0.033514-0.02117 0.055563-0.02029 0.021167-0.07056 0.021167h-0.39688l-0.058209 0.33161q0.050271-0.011465 0.094368-0.015875 0.04498-0.00529 0.08731-0.00529 0.09878 0 0.17462 0.029104 0.07585 0.029104 0.12612 0.080257 0.05115 0.051153 0.07673 0.12083 0.02646 0.069674 0.02646 0.15169 0 0.10054-0.03528 0.18168-0.0344 0.081139-0.09613 0.13935-0.06085 0.057326-0.14376 0.088195-0.0829 0.030868-0.17904 0.030868-0.05556 0-0.10672-0.011465-0.051153-0.010583-0.096132-0.029104-0.044097-0.018521-0.082021-0.042333-0.037924-0.023813-0.067028-0.050271l0.048507-0.067028q0.015875-0.022931 0.041451-0.022931 0.017639 0 0.039687 0.014111 0.022049 0.013229 0.053799 0.029986t0.074083 0.030868q0.04322 0.013229 0.10231 0.013229 0.06615 0 0.11906-0.021167 0.05292-0.021167 0.09084-0.059972 0.03792-0.039688 0.05821-0.094368 0.02028-0.054681 0.02028-0.12259 0-0.05909-0.01764-0.10672-0.01676-0.047625-0.05204-0.081139-0.0344-0.033514-0.08643-0.052035t-0.12171-0.018521q-0.04763 0-0.09966 0.00794-0.051153 0.00794-0.10495 0.025576l-0.098759-0.029108 0.10142-0.5909h0.59884z" fill="#333" stroke-width=".26458"/>
  </g>
  <g aria-label="6">
   <path d="m13.374 5.5607q-0.01764 0.021167-0.03263 0.041451-0.01499 0.020285-0.02999 0.039688 0.04498-0.030868 0.09878-0.047625 0.05468-0.017639 0.11818-0.017639 0.07673 0 0.14464 0.025576 0.06791 0.024694 0.11818 0.073201 0.05115 0.047625 0.08114 0.11818 0.02999 0.069674 0.02999 0.15963 0 0.087313-0.03175 0.16228-0.03175 0.074965-0.08908 0.13053-0.05645 0.055563-0.1367 0.087313-0.07938 0.03175-0.17551 0.03175-0.09525 0-0.17286-0.029986-0.07761-0.030868-0.13229-0.086431-0.0538-0.056444-0.08379-0.13582-0.0291-0.080257-0.0291-0.17903 0-0.082903 0.03616-0.17639 0.03704-0.094368 0.1173-0.20108l0.32103-0.43127q0.01235-0.015875 0.03351-0.026458 0.02205-0.011465 0.05027-0.011465h0.13935zm-0.17198 0.4004q0 0.060854 0.01764 0.11112t0.05115 0.086431q0.03439 0.03616 0.0829 0.056444 0.04939 0.019403 0.11201 0.019403 0.0635 0 0.11465-0.020285 0.05204-0.020285 0.08819-0.056445 0.03704-0.03616 0.05644-0.085549 0.02028-0.049389 0.02028-0.1076 0-0.061736-0.0194-0.11113-0.0194-0.050271-0.05556-0.084667-0.03528-0.035278-0.08467-0.053799t-0.10848-0.018521q-0.0635 0-0.11465 0.022049-0.05115 0.021167-0.08731 0.058208-0.03528 0.03616-0.05468 0.084667-0.01852 0.047625-0.01852 0.09966z" fill="#333" stroke-width=".26458"/>
  </g>
 </g>
</svg>
