<?xml version="1.0" encoding="UTF-8"?>
<svg width="384" height="224" version="1.1" viewBox="0 0 101.6 59.267" xmlns="http://www.w3.org/2000/svg" xmlns:cc="http://creativecommons.org/ns#" xmlns:dc="http://purl.org/dc/elements/1.1/" xmlns:rdf="http://www.w3.org/1999/02/22-rdf-syntax-ns#">
 <title>Resolução</title>
 <defs>
  <marker id="marker2005" overflow="visible" orient="auto">
   <path transform="scale(.6) rotate(180) translate(0)" d="m8.7186 4.0337-10.926-4.0177 10.926-4.0177c-1.7455 2.3721-1.7354 5.6175-6e-7 8.0354z" fill-rule="evenodd" stroke="#000" stroke-linejoin="round" stroke-width=".625"/>
  </marker>
  <marker id="marker1953" overflow="visible" orient="auto">
   <path transform="scale(.6) translate(0)" d="m8.7186 4.0337-10.926-4.0177 10.926-4.0177c-1.7455 2.3721-1.7354 5.6175-6e-7 8.0354z" fill-rule="evenodd" stroke="#000" stroke-linejoin="round" stroke-width=".625"/>
  </marker>
  <marker id="Arrow2Mend" overflow="visible" orient="auto">
   <path transform="scale(.6) rotate(180) translate(0)" d="m8.7186 4.0337-10.926-4.0177 10.926-4.0177c-1.7455 2.3721-1.7354 5.6175-6e-7 8.0354z" fill-rule="evenodd" stroke="#000" stroke-linejoin="round" stroke-width=".625"/>
  </marker>
  <marker id="Arrow2Mstart" overflow="visible" orient="auto">
   <path transform="scale(.6) translate(0)" d="m8.7186 4.0337-10.926-4.0177 10.926-4.0177c-1.7455 2.3721-1.7354 5.6175-6e-7 8.0354z" fill-rule="evenodd" stroke="#000" stroke-linejoin="round" stroke-width=".625"/>
  </marker>
 </defs>
 <metadata>
  <rdf:RDF>
   <cc:Work rdf:about="">
    <dc:format>image/svg+xml</dc:format>
    <dc:type rdf:resource="http://purl.org/dc/dcmitype/StillImage"/>
    <dc:title>Resolução</dc:title>
    <dc:date>29/09/2021</dc:date>
    <dc:creator>
     <cc:Agent>
      <dc:title>Wellington Terumi Uemura</dc:title>
     </cc:Agent>
    </dc:creator>
    <dc:rights>
     <cc:Agent>
      <dc:title>Wellington Terumi Uemura</dc:title>
     </cc:Agent>
    </dc:rights>
    <cc:license rdf:resource="http://creativecommons.org/licenses/by/4.0/"/>
   </cc:Work>
   <cc:License rdf:about="http://creativecommons.org/licenses/by/4.0/">
    <cc:permits rdf:resource="http://creativecommons.org/ns#Reproduction"/>
    <cc:permits rdf:resource="http://creativecommons.org/ns#Distribution"/>
    <cc:requires rdf:resource="http://creativecommons.org/ns#Notice"/>
    <cc:requires rdf:resource="http://creativecommons.org/ns#Attribution"/>
    <cc:permits rdf:resource="http://creativecommons.org/ns#DerivativeWorks"/>
   </cc:License>
  </rdf:RDF>
 </metadata>
 <path d="m11.112 53.196h79.375" fill="none" marker-end="url(#marker2005)" marker-start="url(#marker1953)" opacity=".994" stroke="#000" stroke-width=".3"/>
 <path d="m93.999 42.862v-26.458" fill="none" marker-end="url(#Arrow2Mend)" marker-start="url(#Arrow2Mstart)" opacity=".994" stroke="#000" stroke-width=".3"/>
 <g opacity=".994" stroke-width=".26458" aria-label="384">
  <path d="m46.72 43.995q0.32103 0 0.59267 0.09172 0.27164 0.09172 0.46567 0.26106 0.19756 0.16934 0.30692 0.40922 0.10936 0.23989 0.10936 0.5327 0 0.23989-0.0635 0.43039-0.05997 0.18697-0.17639 0.33161-0.11289 0.14111-0.27517 0.23989-0.16228 0.09878-0.36336 0.15875 0.49389 0.13053 0.74084 0.43745 0.25047 0.30692 0.25047 0.76906 0 0.34925-0.13406 0.62795-0.13053 0.2787-0.35984 0.47625-0.22931 0.19403-0.53622 0.29986-0.30339 0.10231-0.65264 0.10231-0.40217 0-0.68792-0.09878-0.28575-0.10231-0.48331-0.2787t-0.32456-0.41628q-0.127-0.24342-0.2152-0.52564l0.27164-0.11289q0.10583-0.04586 0.20461-0.0247 0.10231 0.02117 0.14817 0.11642 0.04586 0.09878 0.11289 0.23636 0.07056 0.13758 0.1905 0.26458 0.11994 0.127 0.30339 0.2152 0.18697 0.08819 0.47272 0.08819 0.26458 0 0.46214-0.08467 0.20108-0.08819 0.33161-0.22578 0.13406-0.13758 0.20108-0.30692 0.06703-0.16933 0.06703-0.33514 0-0.20461-0.05292-0.37395-0.05292-0.16933-0.19756-0.29281-0.14464-0.12347-0.39864-0.19403-0.25047-0.07056-0.64559-0.07056v-0.45509q0.32456-0.0035 0.55034-0.07056 0.22931-0.06703 0.37042-0.18345 0.14464-0.11642 0.20814-0.2787 0.06703-0.16228 0.06703-0.35984 0-0.21872-0.07056-0.381-0.06703-0.16228-0.18697-0.26811-0.11994-0.10583-0.28575-0.15875-0.16228-0.05292-0.35278-0.05292t-0.35631 0.05644q-0.16228 0.05644-0.28928 0.15875-0.12347 0.09878-0.20814 0.23636-0.08467 0.13758-0.11995 0.30339-0.04586 0.12347-0.11642 0.16581-0.06703 0.0388-0.19756 0.02117l-0.32808-0.05644q0.04939-0.34572 0.1905-0.61031 0.14111-0.26811 0.35631-0.44803 0.21872-0.17992 0.49742-0.27164 0.28222-0.09525 0.60678-0.09525z"/>
  <path d="m50.749 49.164q-0.37747 0-0.69145-0.09878-0.31397-0.10231-0.53975-0.28928-0.22578-0.18697-0.34925-0.45156-0.12347-0.26811-0.12347-0.59973 0-0.48684 0.254-0.80081 0.254-0.3175 0.72673-0.45156-0.39864-0.14817-0.60325-0.44098-0.20108-0.29634-0.20108-0.70556 0-0.2787 0.10936-0.52211 0.10936-0.24342 0.31045-0.42334 0.20108-0.17992 0.47978-0.28222 0.28222-0.10231 0.62795-0.10231 0.3422 0 0.62442 0.10231 0.28222 0.10231 0.48331 0.28222 0.20108 0.17992 0.31045 0.42334 0.10936 0.24342 0.10936 0.52211 0 0.40922-0.20461 0.70556-0.20461 0.29281-0.59973 0.44098 0.47273 0.13406 0.72673 0.45156 0.254 0.31397 0.254 0.80081 0 0.33161-0.127 0.59973-0.12347 0.26458-0.34925 0.45156-0.22225 0.18697-0.53623 0.28928-0.31397 0.09878-0.69145 0.09878zm0-0.50095q0.24695 0 0.44098-0.06703 0.19756-0.07056 0.33161-0.19403 0.13758-0.127 0.20814-0.29986 0.07408-0.17639 0.07408-0.38806 0-0.26106-0.08819-0.4445-0.08467-0.18697-0.23284-0.30339-0.14464-0.11642-0.33514-0.16933-0.1905-0.05645-0.39864-0.05645-0.20814 0-0.39864 0.05645-0.1905 0.05292-0.33867 0.16933-0.14464 0.11642-0.23284 0.30339-0.08467 0.18345-0.08467 0.4445 0 0.21167 0.07056 0.38806 0.07408 0.17286 0.20814 0.29986 0.13758 0.12347 0.33161 0.19403 0.19756 0.06703 0.4445 0.06703zm0-2.4271q0.24695 0 0.41981-0.07408 0.17639-0.07761 0.28575-0.20108 0.10936-0.127 0.15875-0.28928 0.04939-0.16228 0.04939-0.33514 0-0.17639-0.05997-0.33161-0.05645-0.15522-0.17286-0.27164-0.11289-0.11642-0.28575-0.18345-0.16933-0.06703-0.39511-0.06703-0.22578 0-0.39864 0.06703-0.16933 0.06703-0.28575 0.18345-0.11289 0.11642-0.17286 0.27164-0.05644 0.15522-0.05644 0.33161 0 0.17286 0.04939 0.33514 0.04939 0.16228 0.15875 0.28928 0.10936 0.12347 0.28222 0.20108 0.17639 0.07408 0.42334 0.07408z"/>
  <path d="m55.921 47.283h0.76553v0.35984q0 0.05645-0.03528 0.09525-0.03175 0.03881-0.10231 0.03881h-0.62795v1.33h-0.55034v-1.33h-2.2437q-0.07056 0-0.12347-0.03881-0.04939-0.04233-0.0635-0.10231l-0.0635-0.32103 2.4589-3.2632h0.58562zm-0.55034-2.0849q0-0.09172 0.0035-0.19756 0.0071-0.10936 0.02469-0.22225l-1.8415 2.5047h1.8133z"/>
 </g>
 <g opacity=".994" stroke-width=".26458" aria-label="224">
  <path d="m78.445 27.077q0.32103 0 0.59973 0.09525 0.2787 0.09525 0.48331 0.2787 0.20461 0.17992 0.32103 0.44098 0.11642 0.26106 0.11642 0.59267 0 0.28222-0.08467 0.52564-0.08467 0.23989-0.22931 0.45861-0.14464 0.21872-0.33514 0.42686-0.18697 0.20814-0.39864 0.41981l-1.3335 1.3617q0.14111-0.03881 0.28575-0.05997 0.14464-0.02469 0.2787-0.02469h1.6933q0.10231 0 0.16228 0.05997 0.05997 0.05997 0.05997 0.15522v0.381h-3.3726v-0.2152q0-0.06703 0.02822-0.13758 0.02822-0.07056 0.08819-0.13053l1.6193-1.6263q0.20108-0.20461 0.36689-0.39159 0.16581-0.1905 0.28222-0.381 0.11642-0.1905 0.17992-0.38453 0.0635-0.19756 0.0635-0.41981 0-0.22225-0.07056-0.38806-0.07056-0.16934-0.19403-0.2787-0.11994-0.10936-0.28575-0.16228-0.16581-0.05645-0.35631-0.05645-0.19403 0-0.35631 0.05645-0.16228 0.05645-0.28928 0.15875-0.12347 0.09878-0.20814 0.23636-0.08467 0.13758-0.11994 0.30339-0.04233 0.12347-0.11642 0.16581-0.07056 0.03881-0.20108 0.02117l-0.32809-0.05645q0.04939-0.34572 0.1905-0.61031 0.14464-0.26811 0.35984-0.44803 0.21872-0.17992 0.49742-0.27164 0.2787-0.09525 0.60325-0.09525z"/>
  <path d="m82.538 27.077q0.32103 0 0.59973 0.09525t0.48331 0.2787q0.20461 0.17992 0.32103 0.44098 0.11642 0.26106 0.11642 0.59267 0 0.28222-0.08467 0.52564-0.08467 0.23989-0.22931 0.45861-0.14464 0.21872-0.33514 0.42686-0.18697 0.20814-0.39864 0.41981l-1.3335 1.3617q0.14111-0.03881 0.28575-0.05997 0.14464-0.02469 0.2787-0.02469h1.6933q0.10231 0 0.16228 0.05997 0.05997 0.05997 0.05997 0.15522v0.381h-3.3726v-0.2152q0-0.06703 0.02822-0.13758 0.02822-0.07056 0.08819-0.13053l1.6193-1.6263q0.20108-0.20461 0.36689-0.39159 0.16581-0.1905 0.28222-0.381 0.11642-0.1905 0.17992-0.38453 0.0635-0.19756 0.0635-0.41981 0-0.22225-0.07056-0.38806-0.07056-0.16934-0.19403-0.2787-0.11995-0.10936-0.28575-0.16228-0.16581-0.05645-0.35631-0.05645-0.19403 0-0.35631 0.05645t-0.28928 0.15875q-0.12347 0.09878-0.20814 0.23636-0.08467 0.13758-0.11994 0.30339-0.04233 0.12347-0.11642 0.16581-0.07056 0.03881-0.20108 0.02117l-0.32808-0.05645q0.04939-0.34572 0.1905-0.61031 0.14464-0.26811 0.35984-0.44803 0.21872-0.17992 0.49742-0.27164 0.2787-0.09525 0.60325-0.09525z"/>
  <path d="m87.671 30.365h0.76553v0.35984q0 0.05645-0.03528 0.09525-0.03175 0.0388-0.10231 0.0388h-0.62795v1.33h-0.55034v-1.33h-2.2437q-0.07056 0-0.12347-0.0388-0.04939-0.04233-0.0635-0.10231l-0.0635-0.32103 2.4589-3.2632h0.58562zm-0.55034-2.0849q0-0.09172 0.0035-0.19756 0.0071-0.10936 0.02469-0.22225l-1.8415 2.5047h1.8133z"/>
 </g>
 <path d="m4.1693 1.1457h93.261c1.716 0 3.0975 1.3815 3.0975 3.0975v50.781c0 1.716-1.3815 3.0975-3.0975 3.0975h-93.261c-1.716 0-3.0975-1.3815-3.0975-3.0975v-50.781c0-1.716 1.3815-3.0975 3.0975-3.0975z" fill="none" stroke="#008cff" stroke-linecap="round" stroke-linejoin="round" stroke-opacity=".99608" stroke-width="1.2673"/>
</svg>
