<?xml version="1.0" encoding="UTF-8" standalone="no"?>
<svg
   width="480.35699"
   height="303.90399"
   version="1.1"
   viewBox="0 0 127.09445 80.408383"
   id="svg34"
   sodipodi:docname="screen_size.svg"
   inkscape:version="1.1.1 (3bf5ae0d25, 2021-09-20)"
   xmlns:inkscape="http://www.inkscape.org/namespaces/inkscape"
   xmlns:sodipodi="http://sodipodi.sourceforge.net/DTD/sodipodi-0.dtd"
   xmlns:xlink="http://www.w3.org/1999/xlink"
   xmlns="http://www.w3.org/2000/svg"
   xmlns:svg="http://www.w3.org/2000/svg"
   xmlns:rdf="http://www.w3.org/1999/02/22-rdf-syntax-ns#"
   xmlns:cc="http://creativecommons.org/ns#"
   xmlns:dc="http://purl.org/dc/elements/1.1/">
  <sodipodi:namedview
     id="namedview36"
     pagecolor="#ffffff"
     bordercolor="#666666"
     borderopacity="1.0"
     inkscape:pageshadow="2"
     inkscape:pageopacity="0.0"
     inkscape:pagecheckerboard="0"
     showgrid="false"
     inkscape:zoom="2.2696865"
     inkscape:cx="201.34939"
     inkscape:cy="193.85937"
     inkscape:current-layer="svg34"
     inkscape:snap-bbox="true"
     inkscape:bbox-paths="true"
     inkscape:snap-bbox-edge-midpoints="true" />
  <title
     id="title2">Resolução</title>
  <defs
     id="defs16">
    <marker
       id="marker2005"
       overflow="visible"
       orient="auto">
      <path
         transform="scale(-0.6)"
         d="M 8.7186,4.0337 -2.2074,0.016 8.7186,-4.0017 c -1.7455,2.3721 -1.7354,5.6175 0,8.0354 z"
         fill-rule="evenodd"
         stroke="#000000"
         stroke-linejoin="round"
         stroke-width="0.625"
         id="path4" />
    </marker>
    <marker
       id="marker1953"
       overflow="visible"
       orient="auto">
      <path
         transform="scale(0.6)"
         d="M 8.7186,4.0337 -2.2074,0.016 8.7186,-4.0017 c -1.7455,2.3721 -1.7354,5.6175 0,8.0354 z"
         fill-rule="evenodd"
         stroke="#000000"
         stroke-linejoin="round"
         stroke-width="0.625"
         id="path7" />
    </marker>
    <marker
       id="Arrow2Mend"
       overflow="visible"
       orient="auto">
      <path
         transform="scale(-0.6)"
         d="M 8.7186,4.0337 -2.2074,0.016 8.7186,-4.0017 c -1.7455,2.3721 -1.7354,5.6175 0,8.0354 z"
         fill-rule="evenodd"
         stroke="#000000"
         stroke-linejoin="round"
         stroke-width="0.625"
         id="path10" />
    </marker>
    <marker
       id="Arrow2Mstart"
       overflow="visible"
       orient="auto">
      <path
         transform="scale(0.6)"
         d="M 8.7186,4.0337 -2.2074,0.016 8.7186,-4.0017 c -1.7455,2.3721 -1.7354,5.6175 0,8.0354 z"
         fill-rule="evenodd"
         stroke="#000000"
         stroke-linejoin="round"
         stroke-width="0.625"
         id="path13" />
    </marker>
    <linearGradient
       id="linearGradient40875">
      <stop
         stop-color="#e5e5e5"
         offset="0"
         id="stop11393" />
      <stop
         stop-color="#b2b2b2"
         stop-opacity="0"
         offset="1"
         id="stop11395" />
    </linearGradient>
    <linearGradient
       id="linearGradient40877"
       x1="214.42"
       x2="214.42"
       y1="330.19"
       y2="386.26001"
       gradientUnits="userSpaceOnUse"
       xlink:href="#linearGradient40875"
       gradientTransform="translate(-281.3862,263.23303)" />
    <linearGradient
       inkscape:collect="always"
       xlink:href="#linearGradient40875"
       id="linearGradient12173"
       gradientUnits="userSpaceOnUse"
       gradientTransform="matrix(3.3810417,0,0,3.3810417,-2175.3888,-1060.3511)"
       x1="214.42"
       y1="330.19"
       x2="214.42"
       y2="386.26001" />
    <linearGradient
       inkscape:collect="always"
       xlink:href="#linearGradient40875"
       id="linearGradient12175"
       gradientUnits="userSpaceOnUse"
       gradientTransform="matrix(3.3810417,0,0,3.3810417,-2175.3888,-1060.3511)"
       x1="214.42"
       y1="330.19"
       x2="214.42"
       y2="386.26001" />
    <linearGradient
       inkscape:collect="always"
       xlink:href="#linearGradient40875"
       id="linearGradient12177"
       gradientUnits="userSpaceOnUse"
       gradientTransform="matrix(3.3810417,0,0,3.3810417,-2175.3888,-1060.3511)"
       x1="214.42"
       y1="330.19"
       x2="214.42"
       y2="386.26001" />
    <linearGradient
       inkscape:collect="always"
       xlink:href="#linearGradient40875"
       id="linearGradient12179"
       gradientUnits="userSpaceOnUse"
       gradientTransform="matrix(3.3810417,0,0,3.3810417,-2175.3888,-1060.3511)"
       x1="214.42"
       y1="330.19"
       x2="214.42"
       y2="386.26001" />
    <linearGradient
       inkscape:collect="always"
       xlink:href="#linearGradient40875"
       id="linearGradient12181"
       gradientUnits="userSpaceOnUse"
       gradientTransform="matrix(3.3810417,0,0,3.3810417,-2175.3888,-1060.3511)"
       x1="214.42"
       y1="330.19"
       x2="214.42"
       y2="386.26001" />
    <linearGradient
       inkscape:collect="always"
       xlink:href="#linearGradient40875"
       id="linearGradient12183"
       gradientUnits="userSpaceOnUse"
       gradientTransform="matrix(3.3810417,0,0,3.3810417,-2175.3888,-1060.3511)"
       x1="214.42"
       y1="330.19"
       x2="214.42"
       y2="386.26001" />
    <linearGradient
       inkscape:collect="always"
       xlink:href="#linearGradient40875"
       id="linearGradient12185"
       gradientUnits="userSpaceOnUse"
       gradientTransform="matrix(3.3810417,0,0,3.3810417,-2175.3888,-1060.3511)"
       x1="214.42"
       y1="330.19"
       x2="214.42"
       y2="386.26001" />
    <linearGradient
       inkscape:collect="always"
       xlink:href="#linearGradient40875"
       id="linearGradient12187"
       gradientUnits="userSpaceOnUse"
       gradientTransform="matrix(3.3810417,0,0,3.3810417,-2175.3888,-1060.3511)"
       x1="214.42"
       y1="330.19"
       x2="214.42"
       y2="386.26001" />
    <linearGradient
       inkscape:collect="always"
       xlink:href="#linearGradient40875"
       id="linearGradient12189"
       gradientUnits="userSpaceOnUse"
       gradientTransform="matrix(3.3810417,0,0,3.3810417,-2175.3888,-1060.3511)"
       x1="214.42"
       y1="330.19"
       x2="214.42"
       y2="386.26001" />
    <linearGradient
       inkscape:collect="always"
       xlink:href="#linearGradient40875"
       id="linearGradient12191"
       gradientUnits="userSpaceOnUse"
       gradientTransform="matrix(3.3810417,0,0,3.3810417,-2175.3888,-1060.3511)"
       x1="214.42"
       y1="330.19"
       x2="214.42"
       y2="386.26001" />
    <linearGradient
       inkscape:collect="always"
       xlink:href="#linearGradient40875"
       id="linearGradient12193"
       gradientUnits="userSpaceOnUse"
       gradientTransform="matrix(3.3810417,0,0,3.3810417,-2175.3888,-1060.3511)"
       x1="214.42"
       y1="330.19"
       x2="214.42"
       y2="386.26001" />
    <linearGradient
       inkscape:collect="always"
       xlink:href="#linearGradient40875"
       id="linearGradient12195"
       gradientUnits="userSpaceOnUse"
       gradientTransform="matrix(3.3810417,0,0,3.3810417,-2175.3888,-1060.3511)"
       x1="214.42"
       y1="330.19"
       x2="214.42"
       y2="386.26001" />
    <linearGradient
       inkscape:collect="always"
       xlink:href="#linearGradient40875"
       id="linearGradient12197"
       gradientUnits="userSpaceOnUse"
       gradientTransform="matrix(3.3810417,0,0,3.3810417,-2175.3888,-1060.3511)"
       x1="214.42"
       y1="330.19"
       x2="214.42"
       y2="386.26001" />
  </defs>
  <metadata
     id="metadata18">
    <rdf:RDF>
      <cc:Work
         rdf:about="">
        <dc:format>image/svg+xml</dc:format>
        <dc:type
           rdf:resource="http://purl.org/dc/dcmitype/StillImage" />
        <dc:title>Resolução</dc:title>
        <dc:date>29/09/2021</dc:date>
        <dc:creator>
          <cc:Agent>
            <dc:title>Wellington Terumi Uemura</dc:title>
          </cc:Agent>
        </dc:creator>
        <dc:rights>
          <cc:Agent>
            <dc:title>Wellington Terumi Uemura</dc:title>
          </cc:Agent>
        </dc:rights>
        <cc:license
           rdf:resource="http://creativecommons.org/licenses/by/4.0/" />
      </cc:Work>
      <cc:License
         rdf:about="http://creativecommons.org/licenses/by/4.0/">
        <cc:permits
           rdf:resource="http://creativecommons.org/ns#Reproduction" />
        <cc:permits
           rdf:resource="http://creativecommons.org/ns#Distribution" />
        <cc:requires
           rdf:resource="http://creativecommons.org/ns#Notice" />
        <cc:requires
           rdf:resource="http://creativecommons.org/ns#Attribution" />
        <cc:permits
           rdf:resource="http://creativecommons.org/ns#DerivativeWorks" />
      </cc:License>
    </rdf:RDF>
  </metadata>
  <path
     d="m 4.7625,58.487696 h 79.375"
     fill="none"
     marker-end="url(#marker2005)"
     marker-start="url(#marker1953)"
     opacity="0.994"
     stroke="#000000"
     stroke-width="0.3"
     id="path20" />
  <path
     d="M 83.415608,42.862 V 16.404"
     fill="none"
     marker-end="url(#Arrow2Mend)"
     marker-start="url(#Arrow2Mstart)"
     opacity="0.994"
     stroke="#000000"
     stroke-width="0.3"
     id="path22" />
  <g
     aria-label="336"
     id="text26"
     style="font-size:3.175px;line-height:1.25;font-family:Lato;opacity:0.994;stroke-width:0.26458">
    <path
       d="m 40.423017,50.874553 q 0.32103,0 0.592671,0.09172 0.27164,0.09172 0.465669,0.261057 0.197557,0.169335 0.306919,0.409225 0.109362,0.239891 0.109362,0.532698 0,0.23989 -0.0635,0.430392 -0.05997,0.186973 -0.17639,0.331613 -0.112889,0.141112 -0.275168,0.23989 -0.162279,0.09878 -0.363364,0.158751 0.493892,0.130529 0.740838,0.437448 0.250474,0.306918 0.250474,0.76906 0,0.349252 -0.134056,0.627948 -0.130529,0.278697 -0.359836,0.476253 -0.229307,0.194029 -0.536225,0.299863 -0.303391,0.102307 -0.652644,0.102307 -0.402169,0 -0.687921,-0.09878 -0.285751,-0.102306 -0.483308,-0.278696 -0.197557,-0.17639 -0.324558,-0.41628 -0.127001,-0.243419 -0.215196,-0.525643 l 0.271641,-0.112889 q 0.105834,-0.04586 0.204612,-0.0247 0.102307,0.02117 0.148168,0.116418 0.04586,0.09878 0.11289,0.236362 0.07056,0.137584 0.190501,0.264585 0.119945,0.127001 0.303391,0.215196 0.186973,0.08819 0.472725,0.08819 0.264585,0 0.462142,-0.08467 0.201084,-0.0882 0.331613,-0.225779 0.134056,-0.137585 0.201085,-0.306919 0.06703,-0.169334 0.06703,-0.335141 0,-0.204612 -0.05292,-0.373947 -0.05292,-0.169334 -0.197557,-0.292807 -0.14464,-0.123473 -0.398642,-0.194029 -0.250473,-0.07056 -0.645587,-0.07056 v -0.455087 q 0.324558,-0.0035 0.550337,-0.07056 0.229307,-0.06703 0.370419,-0.183445 0.14464,-0.116418 0.20814,-0.278696 0.06703,-0.162279 0.06703,-0.359836 0,-0.218724 -0.07056,-0.381002 -0.06703,-0.162279 -0.186973,-0.268113 -0.119945,-0.105834 -0.285752,-0.158751 -0.162279,-0.05292 -0.35278,-0.05292 -0.190501,0 -0.356308,0.05644 -0.162279,0.05644 -0.289279,0.158751 -0.123473,0.09878 -0.208141,0.236362 -0.08467,0.137584 -0.119945,0.303391 -0.04586,0.123473 -0.116417,0.165807 -0.06703,0.03881 -0.197557,0.02117 l -0.328085,-0.05644 q 0.04939,-0.345725 0.190501,-0.61031 0.141112,-0.268113 0.356308,-0.44803 0.218723,-0.179918 0.497419,-0.271641 0.282224,-0.09525 0.606782,-0.09525 z"
       style="font-size:7.0556px"
       id="path15868" />
    <path
       d="m 44.515265,50.874553 q 0.321029,0 0.59267,0.09172 0.271641,0.09172 0.46567,0.261057 0.197556,0.169335 0.306918,0.409225 0.109362,0.239891 0.109362,0.532698 0,0.23989 -0.0635,0.430392 -0.05997,0.186973 -0.17639,0.331613 -0.11289,0.141112 -0.275169,0.23989 -0.162279,0.09878 -0.363363,0.158751 0.493892,0.130529 0.740838,0.437448 0.250474,0.306918 0.250474,0.76906 0,0.349252 -0.134057,0.627948 -0.130528,0.278697 -0.359835,0.476253 -0.229307,0.194029 -0.536226,0.299863 -0.303391,0.102307 -0.652643,0.102307 -0.402169,0 -0.687921,-0.09878 -0.285752,-0.102306 -0.483309,-0.278696 -0.197556,-0.17639 -0.324557,-0.41628 -0.127001,-0.243419 -0.215196,-0.525643 l 0.271641,-0.112889 q 0.105834,-0.04586 0.204612,-0.0247 0.102306,0.02117 0.148168,0.116418 0.04586,0.09878 0.112889,0.236362 0.07056,0.137584 0.190501,0.264585 0.119946,0.127001 0.303391,0.215196 0.186974,0.08819 0.472725,0.08819 0.264585,0 0.462142,-0.08467 0.201085,-0.0882 0.331613,-0.225779 0.134057,-0.137585 0.201085,-0.306919 0.06703,-0.169334 0.06703,-0.335141 0,-0.204612 -0.05292,-0.373947 -0.05292,-0.169334 -0.197557,-0.292807 -0.144639,-0.123473 -0.398641,-0.194029 -0.250474,-0.07056 -0.645587,-0.07056 v -0.455087 q 0.324557,-0.0035 0.550336,-0.07056 0.229307,-0.06703 0.370419,-0.183445 0.14464,-0.116418 0.208141,-0.278696 0.06703,-0.162279 0.06703,-0.359836 0,-0.218724 -0.07056,-0.381002 -0.06703,-0.162279 -0.186974,-0.268113 -0.119945,-0.105834 -0.285751,-0.158751 -0.162279,-0.05292 -0.35278,-0.05292 -0.190502,0 -0.356308,0.05644 -0.162279,0.05644 -0.28928,0.158751 -0.123473,0.09878 -0.20814,0.236362 -0.08467,0.137584 -0.119945,0.303391 -0.04586,0.123473 -0.116418,0.165807 -0.06703,0.03881 -0.197556,0.02117 l -0.328086,-0.05644 q 0.04939,-0.345725 0.190501,-0.61031 0.141112,-0.268113 0.356308,-0.44803 0.218724,-0.179918 0.49742,-0.271641 0.282224,-0.09525 0.606782,-0.09525 z"
       style="font-size:7.0556px"
       id="path15870" />
    <path
       d="m 48.170065,52.825427 q -0.07056,0.08467 -0.130529,0.165806 -0.05997,0.08114 -0.119945,0.158751 0.179918,-0.123473 0.395114,-0.190501 0.218723,-0.07056 0.472725,-0.07056 0.306918,0 0.578559,0.102306 0.271641,0.09878 0.472725,0.292808 0.204613,0.190501 0.324558,0.472725 0.119945,0.278696 0.119945,0.638532 0,0.349252 -0.127001,0.649115 -0.127001,0.299863 -0.356308,0.522115 -0.225779,0.222251 -0.546809,0.349252 -0.317502,0.127001 -0.702032,0.127001 -0.381002,0 -0.691449,-0.119946 -0.310446,-0.123473 -0.52917,-0.345724 -0.215195,-0.225779 -0.335141,-0.543281 -0.116417,-0.32103 -0.116417,-0.716144 0,-0.331613 0.14464,-0.70556 0.148167,-0.377474 0.469197,-0.804338 l 1.284119,-1.725094 q 0.04939,-0.0635 0.134057,-0.105834 0.08819,-0.04586 0.201084,-0.04586 h 0.557393 z m -0.687921,1.601621 q 0,0.243418 0.07056,0.444503 0.07056,0.201085 0.204612,0.345724 0.137584,0.14464 0.331613,0.22578 0.197557,0.07761 0.448031,0.07761 0.254002,0 0.458614,-0.08114 0.20814,-0.08114 0.35278,-0.225779 0.148168,-0.14464 0.225779,-0.342197 0.08114,-0.197557 0.08114,-0.430392 0,-0.246946 -0.07761,-0.444502 -0.07761,-0.201085 -0.222251,-0.338669 -0.141112,-0.141112 -0.338669,-0.215196 -0.197557,-0.07408 -0.43392,-0.07408 -0.254001,0 -0.458614,0.08819 -0.204612,0.08467 -0.349252,0.232835 -0.141112,0.14464 -0.218723,0.338669 -0.07408,0.190501 -0.07408,0.398641 z"
       style="font-size:7.0556px"
       id="path15872" />
  </g>
  <g
     aria-label="240"
     id="text30"
     style="font-size:3.175px;line-height:1.25;font-family:Lato;opacity:0.994;stroke-width:0.26458">
    <path
       d="m 71.028419,27.077427 q 0.32103,0 0.599726,0.09525 0.278696,0.09525 0.483309,0.278696 0.204612,0.179918 0.321029,0.440975 0.116418,0.261058 0.116418,0.592671 0,0.282224 -0.08467,0.525642 -0.08467,0.239891 -0.229307,0.458614 -0.14464,0.218724 -0.335141,0.426864 -0.186974,0.20814 -0.398642,0.419808 l -1.333508,1.361731 q 0.141112,-0.03881 0.285752,-0.05997 0.144639,-0.02469 0.278696,-0.02469 h 1.693344 q 0.102306,0 0.162279,0.05997 0.05997,0.05997 0.05997,0.155224 v 0.381002 h -3.372577 v -0.215196 q 0,-0.06703 0.02822,-0.137584 0.02822,-0.07056 0.08819,-0.130529 l 1.61926,-1.626315 q 0.201085,-0.204613 0.366891,-0.391586 0.165807,-0.190501 0.282224,-0.381003 0.116418,-0.190501 0.179918,-0.38453 0.0635,-0.197557 0.0635,-0.419808 0,-0.222252 -0.07056,-0.388058 -0.07056,-0.169335 -0.194029,-0.278696 -0.119945,-0.109362 -0.285751,-0.162279 -0.165807,-0.05645 -0.356308,-0.05645 -0.194029,0 -0.356308,0.05645 -0.162279,0.05645 -0.28928,0.158751 -0.123473,0.09878 -0.20814,0.236362 -0.08467,0.137585 -0.119945,0.303391 -0.04233,0.123473 -0.116418,0.165807 -0.07056,0.03881 -0.201084,0.02117 l -0.328086,-0.05645 q 0.04939,-0.345725 0.190502,-0.61031 0.144639,-0.268112 0.359835,-0.44803 0.218724,-0.179918 0.49742,-0.271641 0.278696,-0.09525 0.603254,-0.09525 z"
       style="font-size:7.0556px"
       id="path15893" />
    <path
       d="M 76.161367,30.365336 H 76.9269 v 0.359836 q 0,0.05645 -0.03528,0.09525 -0.03175,0.0388 -0.102306,0.0388 h -0.627949 v 1.329981 H 75.611031 V 30.859228 H 73.36735 q -0.07056,0 -0.123473,-0.0388 -0.04939,-0.04233 -0.0635,-0.102307 l -0.0635,-0.321029 2.458877,-3.263216 h 0.585614 z m -0.550336,-2.08493 q 0,-0.09172 0.0035,-0.197556 0.0071,-0.109362 0.02469,-0.222252 l -1.841512,2.504738 h 1.81329 z"
       style="font-size:7.0556px"
       id="path15895" />
    <path
       d="m 81.008564,29.663304 q 0,0.663227 -0.14464,1.150063 -0.141112,0.483309 -0.388058,0.800811 -0.246946,0.317502 -0.585614,0.472725 -0.335141,0.155223 -0.719672,0.155223 -0.388058,0 -0.723199,-0.155223 -0.331613,-0.155223 -0.578559,-0.472725 -0.246946,-0.317502 -0.388058,-0.800811 -0.141112,-0.486836 -0.141112,-1.150063 0,-0.663226 0.141112,-1.150063 0.141112,-0.486836 0.388058,-0.804338 0.246946,-0.32103 0.578559,-0.476253 0.335141,-0.155223 0.723199,-0.155223 0.384531,0 0.719672,0.155223 0.338668,0.155223 0.585614,0.476253 0.246946,0.317502 0.388058,0.804338 0.14464,0.486837 0.14464,1.150063 z m -0.652643,0 q 0,-0.578559 -0.09878,-0.970145 -0.09525,-0.395114 -0.261057,-0.635004 -0.162279,-0.23989 -0.377475,-0.342197 -0.215196,-0.105834 -0.448031,-0.105834 -0.232835,0 -0.44803,0.105834 -0.215196,0.102307 -0.377475,0.342197 -0.162279,0.23989 -0.261057,0.635004 -0.09525,0.391586 -0.09525,0.970145 0,0.578559 0.09525,0.970145 0.09878,0.391586 0.261057,0.631476 0.162279,0.239891 0.377475,0.345725 0.215195,0.102306 0.44803,0.102306 0.232835,0 0.448031,-0.102306 0.215196,-0.105834 0.377475,-0.345725 0.165806,-0.23989 0.261057,-0.631476 0.09878,-0.391586 0.09878,-0.970145 z"
       style="font-size:7.0556px"
       id="path15897" />
  </g>
  <g
     id="g33095">
    <path
       id="rect32"
       style="fill:none;stroke:#008cff;stroke-width:1.24367;stroke-linecap:round;stroke-linejoin:round;stroke-opacity:0.99608"
       d="M 3.7190852,0.62183499 H 85.180922 c 1.716015,0 3.097501,1.38148501 3.097501,3.09750011 V 59.781026 c 0,1.716015 -1.381486,3.0975 -3.097501,3.0975 H 3.7190852 c -1.7160151,0 -3.09750013,-1.381485 -3.09750013,-3.0975 V 3.7193351 c 0,-1.7160151 1.38148503,-3.09750011 3.09750013,-3.09750011 z" />
    <g
       id="g12171"
       transform="matrix(0.07825542,0,0,0.07825542,-1.7413588e-4,63.644714)">
      <g
         stroke-opacity="0"
         id="g11941">
        <path
           d="m 1084.4,44.981 h 39.257 c 6.8538,0 12.372,5.5177 12.372,12.371 v 39.257 c 0,6.8538 -5.5177,12.371 -12.372,12.371 H 1084.4 c -6.8538,0 -12.372,-5.5177 -12.372,-12.371 V 57.352 c 0,-6.8538 5.5177,-12.371 12.372,-12.371 z"
           fill="#cc0000"
           stop-color="#000000"
           style="paint-order:markers fill stroke"
           id="path11877" />
        <path
           d="m 1087.4,47.961 h 33.296 c 6.8538,0 12.371,5.5177 12.371,12.371 v 33.296 c 0,6.8538 -5.5176,12.371 -12.371,12.371 H 1087.4 c -6.8538,0 -12.372,-5.5177 -12.372,-12.371 V 60.332 c 0,-6.8538 5.5177,-12.371 12.372,-12.371 z"
           fill="#ff3333"
           stop-color="#000000"
           style="paint-order:markers fill stroke"
           id="path11879" />
        <path
           d="m 252.37,44.98 h 39.257 c 6.8538,0 12.371,5.5177 12.371,12.371 v 39.257 c 0,6.8538 -5.5177,12.371 -12.371,12.371 H 252.37 c -6.8538,0 -12.371,-5.5177 -12.371,-12.371 V 57.351 c 0,-6.8538 5.5177,-12.371 12.371,-12.371 z"
           fill="#cccccc"
           stop-color="#000000"
           style="paint-order:markers fill stroke"
           id="path11881" />
        <path
           d="m 255.35,47.96 h 33.296 c 6.8538,0 12.371,5.5177 12.371,12.371 v 33.296 c 0,6.8538 -5.5177,12.371 -12.371,12.371 H 255.35 c -6.8538,0 -12.371,-5.5177 -12.371,-12.371 V 60.331 c 0,-6.8538 5.5177,-12.371 12.371,-12.371 z"
           fill="#e5e5e5"
           stop-color="#000000"
           style="paint-order:markers fill stroke"
           id="path11883" />
        <path
           d="m 255.35,47.96 h 33.296 c 6.8538,0 12.371,5.5177 12.371,12.371 v 33.296 c 0,6.8538 -5.5177,12.371 -12.371,12.371 H 255.35 c -6.8538,0 -12.371,-5.5177 -12.371,-12.371 V 60.331 c 0,-6.8538 5.5177,-12.371 12.371,-12.371 z"
           fill="url(#linearGradient40877)"
           stop-color="#000000"
           style="fill:url(#linearGradient12173);paint-order:markers fill stroke"
           id="path11885" />
        <path
           d="m 332.37,44.98 h 39.257 c 6.8538,0 12.371,5.5177 12.371,12.371 v 39.257 c 0,6.8538 -5.5177,12.371 -12.371,12.371 H 332.37 c -6.8538,0 -12.371,-5.5177 -12.371,-12.371 V 57.351 c 0,-6.8538 5.5177,-12.371 12.371,-12.371 z"
           fill="#cccccc"
           stop-color="#000000"
           style="paint-order:markers fill stroke"
           id="path11887" />
        <path
           d="m 335.35,47.96 h 33.296 c 6.8538,0 12.371,5.5177 12.371,12.371 v 33.296 c 0,6.8538 -5.5177,12.371 -12.371,12.371 H 335.35 c -6.8538,0 -12.371,-5.5177 -12.371,-12.371 V 60.331 c 0,-6.8538 5.5177,-12.371 12.371,-12.371 z"
           fill="#e5e5e5"
           stop-color="#000000"
           style="paint-order:markers fill stroke"
           id="path11889" />
        <path
           d="m 335.35,47.96 h 33.296 c 6.8538,0 12.371,5.5177 12.371,12.371 v 33.296 c 0,6.8538 -5.5177,12.371 -12.371,12.371 H 335.35 c -6.8538,0 -12.371,-5.5177 -12.371,-12.371 V 60.331 c 0,-6.8538 5.5177,-12.371 12.371,-12.371 z"
           fill="url(#linearGradient40877)"
           stop-color="#000000"
           style="fill:url(#linearGradient12175);paint-order:markers fill stroke"
           id="path11891" />
        <path
           d="m 412.37,44.98 h 39.257 c 6.8538,0 12.371,5.5177 12.371,12.371 v 39.257 c 0,6.8538 -5.5177,12.371 -12.371,12.371 H 412.37 c -6.8538,0 -12.371,-5.5177 -12.371,-12.371 V 57.351 c 0,-6.8538 5.5177,-12.371 12.371,-12.371 z"
           fill="#cccccc"
           stop-color="#000000"
           style="paint-order:markers fill stroke"
           id="path11893" />
        <path
           d="m 415.35,47.96 h 33.296 c 6.8538,0 12.371,5.5177 12.371,12.371 v 33.296 c 0,6.8538 -5.5177,12.371 -12.371,12.371 H 415.35 c -6.8538,0 -12.371,-5.5177 -12.371,-12.371 V 60.331 c 0,-6.8538 5.5177,-12.371 12.371,-12.371 z"
           fill="#e5e5e5"
           stop-color="#000000"
           style="paint-order:markers fill stroke"
           id="path11895" />
        <path
           d="m 415.35,47.96 h 33.296 c 6.8538,0 12.371,5.5177 12.371,12.371 v 33.296 c 0,6.8538 -5.5177,12.371 -12.371,12.371 H 415.35 c -6.8538,0 -12.371,-5.5177 -12.371,-12.371 V 60.331 c 0,-6.8538 5.5177,-12.371 12.371,-12.371 z"
           fill="url(#linearGradient40877)"
           stop-color="#000000"
           style="fill:url(#linearGradient12177);paint-order:markers fill stroke"
           id="path11897" />
        <path
           d="m 492.37,44.98 h 39.257 c 6.8538,0 12.371,5.5177 12.371,12.371 v 39.257 c 0,6.8538 -5.5177,12.371 -12.371,12.371 H 492.37 c -6.8538,0 -12.371,-5.5177 -12.371,-12.371 V 57.351 c 0,-6.8538 5.5177,-12.371 12.371,-12.371 z"
           fill="#cccccc"
           stop-color="#000000"
           style="paint-order:markers fill stroke"
           id="path11899" />
        <path
           d="m 495.35,47.96 h 33.296 c 6.8538,0 12.371,5.5177 12.371,12.371 v 33.296 c 0,6.8538 -5.5177,12.371 -12.371,12.371 H 495.35 c -6.8538,0 -12.371,-5.5177 -12.371,-12.371 V 60.331 c 0,-6.8538 5.5177,-12.371 12.371,-12.371 z"
           fill="#e5e5e5"
           stop-color="#000000"
           style="paint-order:markers fill stroke"
           id="path11901" />
        <path
           d="m 495.35,47.96 h 33.296 c 6.8538,0 12.371,5.5177 12.371,12.371 v 33.296 c 0,6.8538 -5.5177,12.371 -12.371,12.371 H 495.35 c -6.8538,0 -12.371,-5.5177 -12.371,-12.371 V 60.331 c 0,-6.8538 5.5177,-12.371 12.371,-12.371 z"
           fill="url(#linearGradient40877)"
           stop-color="#000000"
           style="fill:url(#linearGradient12179);paint-order:markers fill stroke"
           id="path11903" />
        <path
           d="m 572.37,44.98 h 39.257 c 6.8538,0 12.371,5.5177 12.371,12.371 v 39.257 c 0,6.8538 -5.5177,12.371 -12.371,12.371 H 572.37 c -6.8538,0 -12.371,-5.5177 -12.371,-12.371 V 57.351 c 0,-6.8538 5.5177,-12.371 12.371,-12.371 z"
           fill="#cccccc"
           stop-color="#000000"
           style="paint-order:markers fill stroke"
           id="path11905" />
        <path
           d="m 575.35,47.96 h 33.296 c 6.8538,0 12.371,5.5177 12.371,12.371 v 33.296 c 0,6.8538 -5.5177,12.371 -12.371,12.371 H 575.35 c -6.8538,0 -12.371,-5.5177 -12.371,-12.371 V 60.331 c 0,-6.8538 5.5177,-12.371 12.371,-12.371 z"
           fill="#e5e5e5"
           stop-color="#000000"
           style="paint-order:markers fill stroke"
           id="path11907" />
        <path
           d="m 575.35,47.96 h 33.296 c 6.8538,0 12.371,5.5177 12.371,12.371 v 33.296 c 0,6.8538 -5.5177,12.371 -12.371,12.371 H 575.35 c -6.8538,0 -12.371,-5.5177 -12.371,-12.371 V 60.331 c 0,-6.8538 5.5177,-12.371 12.371,-12.371 z"
           fill="url(#linearGradient40877)"
           stop-color="#000000"
           style="fill:url(#linearGradient12181);paint-order:markers fill stroke"
           id="path11909" />
        <path
           d="m 652.37,44.98 h 39.257 c 6.8538,0 12.371,5.5177 12.371,12.371 v 39.257 c 0,6.8538 -5.5177,12.371 -12.371,12.371 H 652.37 c -6.8538,0 -12.371,-5.5177 -12.371,-12.371 V 57.351 c 0,-6.8538 5.5177,-12.371 12.371,-12.371 z"
           fill="#cccccc"
           stop-color="#000000"
           style="paint-order:markers fill stroke"
           id="path11911" />
        <path
           d="m 655.35,47.96 h 33.296 c 6.8538,0 12.371,5.5177 12.371,12.371 v 33.296 c 0,6.8538 -5.5177,12.371 -12.371,12.371 H 655.35 c -6.8538,0 -12.371,-5.5177 -12.371,-12.371 V 60.331 c 0,-6.8538 5.5177,-12.371 12.371,-12.371 z"
           fill="#e5e5e5"
           stop-color="#000000"
           style="paint-order:markers fill stroke"
           id="path11913" />
        <path
           d="m 655.35,47.96 h 33.296 c 6.8538,0 12.371,5.5177 12.371,12.371 v 33.296 c 0,6.8538 -5.5177,12.371 -12.371,12.371 H 655.35 c -6.8538,0 -12.371,-5.5177 -12.371,-12.371 V 60.331 c 0,-6.8538 5.5177,-12.371 12.371,-12.371 z"
           fill="url(#linearGradient40877)"
           stop-color="#000000"
           style="fill:url(#linearGradient12183);paint-order:markers fill stroke"
           id="path11915" />
        <path
           d="m 732.37,44.98 h 39.257 c 6.8538,0 12.371,5.5177 12.371,12.371 v 39.257 c 0,6.8538 -5.5177,12.371 -12.371,12.371 H 732.37 c -6.8538,0 -12.371,-5.5177 -12.371,-12.371 V 57.351 c 0,-6.8538 5.5177,-12.371 12.371,-12.371 z"
           fill="#cccccc"
           stop-color="#000000"
           style="paint-order:markers fill stroke"
           id="path11917" />
        <path
           d="m 735.35,47.96 h 33.296 c 6.8538,0 12.371,5.5177 12.371,12.371 v 33.296 c 0,6.8538 -5.5177,12.371 -12.371,12.371 H 735.35 c -6.8538,0 -12.371,-5.5177 -12.371,-12.371 V 60.331 c 0,-6.8538 5.5177,-12.371 12.371,-12.371 z"
           fill="#e5e5e5"
           stop-color="#000000"
           style="paint-order:markers fill stroke"
           id="path11919" />
        <path
           d="m 735.35,47.96 h 33.296 c 6.8538,0 12.371,5.5177 12.371,12.371 v 33.296 c 0,6.8538 -5.5177,12.371 -12.371,12.371 H 735.35 c -6.8538,0 -12.371,-5.5177 -12.371,-12.371 V 60.331 c 0,-6.8538 5.5177,-12.371 12.371,-12.371 z"
           fill="url(#linearGradient40877)"
           stop-color="#000000"
           style="fill:url(#linearGradient12185);paint-order:markers fill stroke"
           id="path11921" />
        <path
           d="m 812.37,44.98 h 39.257 c 6.8538,0 12.371,5.5177 12.371,12.371 v 39.257 c 0,6.8538 -5.5177,12.371 -12.371,12.371 H 812.37 c -6.8538,0 -12.371,-5.5177 -12.371,-12.371 V 57.351 c 0,-6.8538 5.5177,-12.371 12.371,-12.371 z"
           fill="#cccccc"
           stop-color="#000000"
           style="paint-order:markers fill stroke"
           id="path11923" />
        <path
           d="m 815.35,47.96 h 33.296 c 6.8538,0 12.371,5.5177 12.371,12.371 v 33.296 c 0,6.8538 -5.5177,12.371 -12.371,12.371 H 815.35 c -6.8538,0 -12.371,-5.5177 -12.371,-12.371 V 60.331 c 0,-6.8538 5.5177,-12.371 12.371,-12.371 z"
           fill="#e5e5e5"
           stop-color="#000000"
           style="paint-order:markers fill stroke"
           id="path11925" />
        <path
           d="m 815.35,47.96 h 33.296 c 6.8538,0 12.371,5.5177 12.371,12.371 v 33.296 c 0,6.8538 -5.5177,12.371 -12.371,12.371 H 815.35 c -6.8538,0 -12.371,-5.5177 -12.371,-12.371 V 60.331 c 0,-6.8538 5.5177,-12.371 12.371,-12.371 z"
           fill="url(#linearGradient40877)"
           stop-color="#000000"
           style="fill:url(#linearGradient12187);paint-order:markers fill stroke"
           id="path11927" />
        <path
           d="m 892.37,44.98 h 39.257 c 6.8538,0 12.371,5.5177 12.371,12.371 v 39.257 c 0,6.8538 -5.5177,12.371 -12.371,12.371 H 892.37 c -6.8538,0 -12.371,-5.5177 -12.371,-12.371 V 57.351 c 0,-6.8538 5.5177,-12.371 12.371,-12.371 z"
           fill="#cccccc"
           stop-color="#000000"
           style="paint-order:markers fill stroke"
           id="path11929" />
        <path
           d="m 895.35,47.96 h 33.296 c 6.8538,0 12.371,5.5177 12.371,12.371 v 33.296 c 0,6.8538 -5.5177,12.371 -12.371,12.371 H 895.35 c -6.8538,0 -12.371,-5.5177 -12.371,-12.371 V 60.331 c 0,-6.8538 5.5177,-12.371 12.371,-12.371 z"
           fill="#e5e5e5"
           stop-color="#000000"
           style="paint-order:markers fill stroke"
           id="path11931" />
        <path
           d="m 895.35,47.96 h 33.296 c 6.8538,0 12.371,5.5177 12.371,12.371 v 33.296 c 0,6.8538 -5.5177,12.371 -12.371,12.371 H 895.35 c -6.8538,0 -12.371,-5.5177 -12.371,-12.371 V 60.331 c 0,-6.8538 5.5177,-12.371 12.371,-12.371 z"
           fill="url(#linearGradient40877)"
           stop-color="#000000"
           style="fill:url(#linearGradient12189);paint-order:markers fill stroke"
           id="path11933" />
        <path
           d="m 972.37,44.98 h 39.257 c 6.8538,0 12.371,5.5177 12.371,12.371 v 39.257 c 0,6.8538 -5.5177,12.371 -12.371,12.371 H 972.37 c -6.8538,0 -12.371,-5.5177 -12.371,-12.371 V 57.351 c 0,-6.8538 5.5177,-12.371 12.371,-12.371 z"
           fill="#cccccc"
           stop-color="#000000"
           style="paint-order:markers fill stroke"
           id="path11935" />
        <path
           d="m 975.35,47.96 h 33.296 c 6.8538,0 12.371,5.5177 12.371,12.371 v 33.296 c 0,6.8538 -5.5177,12.371 -12.371,12.371 H 975.35 c -6.8538,0 -12.371,-5.5177 -12.371,-12.371 V 60.331 c 0,-6.8538 5.5177,-12.371 12.371,-12.371 z"
           fill="#e5e5e5"
           stop-color="#000000"
           style="paint-order:markers fill stroke"
           id="path11937" />
        <path
           d="m 975.35,47.96 h 33.296 c 6.8538,0 12.371,5.5177 12.371,12.371 v 33.296 c 0,6.8538 -5.5177,12.371 -12.371,12.371 H 975.35 c -6.8538,0 -12.371,-5.5177 -12.371,-12.371 V 60.331 c 0,-6.8538 5.5177,-12.371 12.371,-12.371 z"
           fill="url(#linearGradient40877)"
           stop-color="#000000"
           style="fill:url(#linearGradient12191);paint-order:markers fill stroke"
           id="path11939" />
      </g>
      <path
         d="m 266.23,67.45 v 18.979 h 2.875 q 4.9167,0 7.5,-2.4375 2.6042,-2.4375 2.6042,-7.0833 0,-4.625 -2.5833,-7.0417 -2.5833,-2.4167 -7.5208,-2.4167 z m -8.0208,-6.0625 h 8.4583 q 7.0833,0 10.542,1.0208 3.4792,1 5.9583,3.4167 2.1875,2.1042 3.25,4.8542 1.0625,2.75 1.0625,6.2292 0,3.5208 -1.0625,6.2917 -1.0625,2.75 -3.25,4.8542 -2.5,2.4167 -6,3.4375 -3.5,1 -10.5,1 h -8.4583 z"
         id="path11943" />
      <path
         d="m 341.34,61.387 h 21.646 v 6.0625 h -13.625 v 5.7917 h 12.813 v 6.0625 h -12.813 v 7.125 h 14.083 v 6.0625 H 341.34 Z"
         id="path11945" />
      <path
         d="m 421.34,61.387 h 21.646 v 6.0625 h -13.625 v 5.7917 h 12.813 v 6.0625 h -12.813 v 13.188 h -8.0208 z"
         id="path11947" />
      <path
         d="m 526.36,90.179 q -3,1.4583 -6.2292,2.1875 -3.2292,0.72917 -6.6667,0.72917 -7.7708,0 -12.313,-4.3333 -4.5417,-4.3542 -4.5417,-11.792 0,-7.5208 4.625,-11.833 4.625,-4.3125 12.667,-4.3125 3.1042,0 5.9375,0.58333 2.8542,0.58333 5.375,1.7292 v 6.4375 q -2.6042,-1.4792 -5.1875,-2.2083 -2.5625,-0.72917 -5.1458,-0.72917 -4.7917,0 -7.3958,2.6875 -2.5833,2.6667 -2.5833,7.6458 0,4.9375 2.5,7.625 2.5,2.6875 7.1042,2.6875 1.25,0 2.3125,-0.14583 1.0833,-0.16667 1.9375,-0.5 v -6.0417 h -4.8958 v -5.375 h 12.5 z"
         id="path11949" />
      <path
         d="m 578.06,61.387 h 8.0208 v 11.854 h 11.833 V 61.387 h 8.0208 v 31.104 h -8.0208 V 79.303 h -11.833 V 92.491 H 578.06 Z"
         id="path11951" />
      <path
         d="m 667.98,61.387 h 8.0208 V 92.491 H 667.98 Z"
         id="path11953" />
      <path
         d="m 819.39,61.387 h 8.0208 v 11.354 l 11.563,-11.354 h 9.3125 l -14.979,14.729 16.521,16.375 h -10.042 l -12.375,-12.25 v 12.25 h -8.0208 z"
         id="path11955" />
      <path
         d="m 902.32,61.387 h 8.0208 v 25.042 h 14.083 v 6.0625 h -22.104 z"
         id="path11957" />
      <path
         d="m 974.69,61.387 h 10.208 l 7.0833,16.646 7.125,-16.646 h 10.188 v 31.104 h -7.5834 v -22.75 l -7.1666,16.771 h -5.0833 l -7.1667,-16.771 v 22.75 h -7.6042 z"
         id="path11959" />
      <path
         d="m 1090.1,61.387 h 8.9583 l 11.312,21.333 V 61.387 h 7.6042 v 31.104 h -8.9583 l -11.312,-21.333 V 92.491 H 1090.1 Z"
         id="path11961" />
      <g
         stroke-opacity="0"
         id="g11971">
        <path
           d="m 52.37,156.98 h 39.257 c 6.8538,0 12.371,5.5177 12.371,12.371 v 39.257 c 0,6.8538 -5.5177,12.371 -12.371,12.371 H 52.37 c -6.8538,0 -12.371,-5.5177 -12.371,-12.371 v -39.257 c 0,-6.8538 5.5177,-12.371 12.371,-12.371 z"
           fill="#cccc00"
           stop-color="#000000"
           style="paint-order:markers fill stroke"
           id="path11963" />
        <path
           d="m 55.351,159.96 h 33.296 c 6.8538,0 12.371,5.5177 12.371,12.371 v 33.296 c 0,6.8538 -5.5177,12.371 -12.371,12.371 H 55.351 c -6.8538,0 -12.371,-5.5177 -12.371,-12.371 v -33.296 c 0,-6.8538 5.5177,-12.371 12.371,-12.371 z"
           fill="#ffff33"
           stop-color="#000000"
           style="paint-order:markers fill stroke"
           id="path11965" />
        <path
           d="m 132.37,156.98 h 39.257 c 6.8538,0 12.371,5.5177 12.371,12.371 v 39.257 c 0,6.8538 -5.5177,12.371 -12.371,12.371 H 132.37 c -6.8538,0 -12.371,-5.5177 -12.371,-12.371 v -39.257 c 0,-6.8538 5.5177,-12.371 12.371,-12.371 z"
           fill="#cccc00"
           stop-color="#000000"
           style="paint-order:markers fill stroke"
           id="path11967" />
        <path
           d="m 135.35,159.96 h 33.296 c 6.8538,0 12.371,5.5177 12.371,12.371 v 33.296 c 0,6.8538 -5.5177,12.371 -12.371,12.371 H 135.35 c -6.8538,0 -12.371,-5.5177 -12.371,-12.371 v -33.296 c 0,-6.8538 5.5177,-12.371 12.371,-12.371 z"
           fill="#ffff33"
           stop-color="#000000"
           style="paint-order:markers fill stroke"
           id="path11969" />
      </g>
      <path
         d="m 56.615,184.41 v 2.0573 q -0.80078,-0.35807 -1.5625,-0.54037 -0.76172,-0.18229 -1.4388,-0.18229 -0.89844,0 -1.3281,0.2474 -0.42969,0.24739 -0.42969,0.76823 0,0.39062 0.28646,0.61197 0.29297,0.21485 1.0547,0.3711 l 1.0677,0.21484 q 1.6211,0.32552 2.3047,0.98958 0.68359,0.66406 0.68359,1.888 0,1.6081 -0.95703,2.3958 -0.95052,0.78125 -2.9101,0.78125 -0.92448,0 -1.8555,-0.17578 -0.93099,-0.17578 -1.862,-0.52083 v -2.1159 q 0.93099,0.49479 1.7969,0.7487 0.87239,0.24739 1.6797,0.24739 0.82031,0 1.2565,-0.27344 0.4362,-0.27343 0.4362,-0.78124 0,-0.45573 -0.29948,-0.70313 -0.29297,-0.24739 -1.1784,-0.4427 l -0.97005,-0.21485 q -1.4583,-0.3125 -2.1354,-0.99609 -0.67057,-0.68359 -0.67057,-1.8424 0,-1.4518 0.9375,-2.2331 0.9375,-0.78125 2.6953,-0.78125 0.80078,0 1.6471,0.1237 0.84635,0.11719 1.7513,0.35807 z"
         id="path11973" />
      <path
         d="m 58.295,184.11 h 8.9583 v 1.8945 h -3.2226 v 7.8255 h -2.5065 v -7.8255 H 58.295 Z"
         id="path11975" />
      <path
         d="m 73.409,192.06 h -3.9193 l -0.61849,1.7708 h -2.5195 l 3.6002,-9.72 h 2.9883 l 3.6002,9.72 h -2.5195 z m -3.2943,-1.8034 h 2.6628 l -1.3281,-3.8672 z"
         id="path11977" />
      <path
         d="m 81.389,188.42 q 0.78776,0 1.1263,-0.29297 0.34505,-0.29297 0.34505,-0.96354 0,-0.66406 -0.34505,-0.95052 -0.33854,-0.28646 -1.1263,-0.28646 h -1.0547 v 2.4935 z m -1.0547,1.7318 v 3.6784 h -2.5065 v -9.72 h 3.8281 q 1.9206,0 2.8125,0.64453 0.89843,0.64453 0.89843,2.0378 0,0.96354 -0.46875,1.582 -0.46223,0.61849 -1.3997,0.91146 0.51432,0.11719 0.91796,0.53385 0.41016,0.41016 0.82683,1.25 l 1.3607,2.7604 h -2.6693 l -1.1849,-2.4154 q -0.35807,-0.72916 -0.72916,-0.99609 -0.36459,-0.26693 -0.97656,-0.26693 z"
         id="path11979" />
      <path
         d="m 86.339,184.11 h 8.9583 v 1.8945 h -3.2226 v 7.8255 h -2.5065 v -7.8255 H 86.339 Z"
         id="path11981" />
      <path
         d="m 142.93,187.87 q 0.59244,0 0.89843,-0.26041 0.30599,-0.26042 0.30599,-0.76823 0,-0.5013 -0.30599,-0.76172 -0.30599,-0.26692 -0.89843,-0.26692 h -1.3867 v 2.0573 z m 0.0846,4.2513 q 0.75521,0 1.1328,-0.31901 0.38412,-0.31901 0.38412,-0.96354 0,-0.63151 -0.37761,-0.94401 -0.3776,-0.31901 -1.1393,-0.31901 h -1.4714 v 2.5456 z m 2.3307,-3.4961 q 0.80729,0.23437 1.25,0.86588 0.44271,0.63151 0.44271,1.5495 0,1.4062 -0.95052,2.0964 -0.95052,0.6902 -2.8906,0.6901 h -4.1601 v -9.72 h 3.763 q 2.0247,0 2.9297,0.61198 0.91146,0.61198 0.91146,1.9596 0,0.70963 -0.33203,1.2109 -0.33203,0.49479 -0.96354,0.73567 z"
         id="path11983" />
      <path
         d="m 149.2,184.11 h 6.7643 v 1.8945 h -4.2578 v 1.8099 h 4.0039 v 1.8945 h -4.0039 v 2.2266 h 4.401 V 193.83 H 149.2 Z"
         id="path11985" />
      <path
         d="m 157.15,184.11 h 8.9583 v 1.8945 h -3.2226 v 7.8255 h -2.5065 v -7.8255 H 157.15 Z"
         id="path11987" />
      <g
         fill="#cccccc"
         id="g12007">
        <g
           stroke-width="0.19643"
           id="g11997">
          <path
             d="m 54.774,140.78 q -2.881,6.4168 -8.9048,9.8378 l 0.13095,0.27828 q 3.8467,-0.93304 7.4971,-4.5507 2.0462,1.8661 2.9464,3.8304 0.39286,0.81847 1.2604,0.81847 0.4256,0 0.72025,-0.32739 0.29464,-0.34375 0.29464,-0.94941 0,-1.064 -2.3409,-2.6355 -0.91668,-0.65476 -2.5536,-1.1458 1.2604,-1.6533 2.6355,-3.9777 0.18006,-0.34375 0.3765,-0.49108 0.58929,-0.19643 0.58929,-0.54018 0,-0.39286 -0.72025,-1.1295 -0.78572,-0.72025 -1.1295,-0.72025 -0.2619,0 -0.75298,0.44197 -0.22918,0.16369 -0.54018,0.18006 -2.1607,0.19643 -4.6324,0.44197 -0.50744,0.0655 -0.81846,0.0655 -0.39286,0 -1.0149,-0.81846 -0.22918,0 -0.40922,0.22917 0,0.60565 0.13095,1.1295 1.1458,1.3423 1.5551,1.3423 0.19643,0 1.1949,-0.42561 1.6369,-0.72025 4.3543,-1.0149 z"
             id="path11989" />
          <path
             d="m 64.24,138.59 q 0.39286,0.2619 0.76936,0.58929 l 0.08185,0.29464 q -0.70387,3.634 -4.1087,7.3007 l 0.19643,0.22917 q 1.7024,-0.96579 3.5194,-2.8645 1.0476,0.50744 1.3914,1.7351 0.21279,0.78572 0.81846,0.78572 0.40922,0 0.65476,-0.29465 0.2619,-0.27828 0.2619,-0.81846 0,-0.68751 -0.70387,-1.3259 -0.6384,-0.50743 -2.0134,-0.67114 0.57293,-0.70387 1.3586,-2.0297 0.36012,0.42561 0.55654,0.42561 0.22918,0 1.6042,-0.2619 1.1949,-0.24554 1.5714,-0.24554 l 0.11458,0.18006 q -1.8824,6.4659 -8.4137,9.9034 l 0.18006,0.24554 q 7.5954,-2.1116 9.9525,-8.9539 0.06548,-0.24554 0.21279,-0.3765 0.50744,-0.40922 0.50744,-0.75297 0,-0.32739 -0.76936,-1.0476 -0.88394,-0.73662 -1.1949,-0.73662 -0.21279,0 -0.72025,0.45833 -0.19643,0.14733 -0.55655,0.19643 -1.244,0.14733 -2.7172,0.24554 l 0.19643,-0.55654 q 0.04911,-0.18007 0.18006,-0.34376 0.29464,-0.19643 0.29464,-0.4256 0,-0.40922 -1.9971,-1.3259 -0.57293,0 -1.0149,0.0818 -0.21279,0.0655 -0.21279,0.36012 z"
             id="path11991" />
          <path
             d="m 74.755,145.07 q 0.93304,1.0967 1.2441,1.0967 0.2619,0 0.75298,-0.21279 0.76936,-0.34376 2.4391,-0.39286 2.3409,-0.0655 3.994,-0.0655 1.4405,0 2.6355,0.0982 1.1131,0.0655 1.5878,0.0655 0.60565,0 0.60565,-0.60565 0,-0.62204 -0.62204,-0.94941 -0.54018,-0.27828 -1.0313,-0.27828 -0.50744,0 -0.98215,0.13096 -0.47471,0.11458 -1.1458,0.14732 -2.5045,0 -8.4956,0.0982 -0.31101,0 -0.80208,-0.70387 -0.2619,0 -0.36012,0.1637 -0.13095,0.32739 -0.13095,0.72025 0,0.21279 0.31101,0.6875 z"
             id="path11993" />
          <path
             d="m 90.546,138.02 q -0.16369,0.14732 -0.16369,0.39286 0.44197,0.29465 0.9003,0.6384 l 0.13095,0.21279 v 8.3155 q 0,0.96579 -0.16369,1.686 -0.13095,0.45833 -0.13095,0.72025 0,0.54018 0.49108,1.1949 0.40922,0.52382 0.75298,0.52382 0.39286,0 0.60565,-0.2619 0.24554,-0.31101 0.24554,-1.244 -0.06548,-0.99851 -0.06548,-2.4717 v -4.2396 q 1.5387,0.70387 3.0284,3.0447 0.44197,0.67114 1.0149,0.67114 0.44197,0 0.6875,-0.29464 0.24554,-0.29465 0.24554,-0.76936 0,-1.0804 -1.5387,-2.1444 -1.2768,-0.80208 -3.4375,-1.2277 0.03274,-1.9806 0.2619,-2.6027 0.19643,-0.47471 0.19643,-0.81847 0,-0.52382 -1.9971,-1.375 -0.6875,0 -1.064,0.0491 z"
             id="path11995" />
        </g>
        <g
           stroke-width="0.23129"
           id="g12005">
          <path
             d="m 130.58,143.29 q -0.32767,0 -0.40476,0.32767 0,0.59749 0.28911,1.2528 1.4456,1.5227 2.0238,1.5227 0.48185,0 1.3685,-1.9467 1.0986,-2.4286 2.1972,-3.7198 0.32767,-0.38549 0.61678,-0.38549 0.21202,0 0.46258,0.30838 0.5204,0.63605 1.9274,2.3129 3.1802,3.7393 5.0884,4.8957 0.94443,0.57823 1.3106,0.57823 1.1564,0 1.1564,-1.2914 0,-0.61678 -0.32767,-1.0022 -0.38549,-0.46258 -1.7154,-1.195 -2.1587,-1.1564 -4.2789,-3.1416 -2.043,-1.8889 -2.4672,-2.3129 -0.40476,-0.38549 -1.1564,-0.38549 -0.44331,0 -1.0022,0.46258 -2.3129,2.178 -3.5658,3.7777 -0.40476,0.46258 -0.73242,0.46258 -0.40476,0 -0.79025,-0.5204 z m 9.8106,-4.5872 q 1.0022,0.9059 1.3492,1.8503 0.25056,0.69387 0.84807,0.69387 0.30838,0 0.61678,-0.38549 0.1542,-0.19274 0.1542,-0.53967 0,-0.6746 -0.73243,-1.195 -1.0601,-0.63605 -2.1009,-0.71314 z m 2.3515,-1.3106 -0.15419,0.38549 q 1.0408,0.86734 1.3106,1.6961 0.23129,0.69387 0.69387,0.69387 0.34693,0 0.61678,-0.30838 0.23129,-0.26984 0.23129,-0.61678 0,-1.4456 -2.6985,-1.8503 z"
             id="path11999" />
          <path
             d="m 150.53,142.09 q -0.17347,0 -0.17347,0.23129 0.80952,1.195 1.0215,3.161 0.0964,0.92516 0.82878,0.92516 0.46258,0 0.79025,-0.38549 0.28911,-0.32767 0.28911,-0.7517 0,-1.0986 -0.71313,-1.8696 -0.7517,-0.86734 -2.0431,-1.3106 z m 1.9852,8.9433 0.0771,0.34693 q 6.3605,-1.195 7.9409,-7.3434 0.0386,-0.19275 0.19275,-0.3855 0.3662,-0.30837 0.3662,-0.59749 0,-0.65531 -1.6383,-1.8889 -0.50114,-0.1542 -1.0408,-0.1542 -0.21202,0.0964 -0.21202,0.34694 0.34693,0.46258 0.65531,0.84807 v 0.30838 q -1.2528,6.4953 -6.3413,8.5191 z m 1.195,-9.849 q -0.19275,0 -0.19275,0.21201 0.94443,1.1757 1.1564,2.8911 0.11565,1.0408 0.82879,1.0408 0.46258,0 0.79024,-0.40476 0.25056,-0.32767 0.25056,-0.82878 0,-0.90589 -0.79025,-1.7347 -0.82878,-0.82879 -2.043,-1.1757 z"
             id="path12001" />
          <path
             d="m 164.9,135.65 q -0.19274,0.17346 -0.19274,0.46258 0.5204,0.34693 1.0601,0.75169 l 0.15419,0.25056 v 9.7912 q 0,1.1372 -0.19274,1.9852 -0.15419,0.53967 -0.15419,0.84807 0,0.63605 0.57822,1.407 0.48185,0.61679 0.88661,0.61679 0.46258,0 0.71313,-0.30838 0.28912,-0.36621 0.28912,-1.4648 -0.0771,-1.1757 -0.0771,-2.9103 v -4.9919 q 1.8118,0.82878 3.5658,3.585 0.5204,0.79025 1.195,0.79025 0.52041,0 0.80952,-0.34694 0.28911,-0.34693 0.28911,-0.90589 0,-1.2721 -1.8118,-2.525 -1.5034,-0.94443 -4.0476,-1.4456 0.0385,-2.3321 0.30838,-3.0646 0.23129,-0.55896 0.23129,-0.96372 0,-0.61678 -2.3515,-1.619 -0.80952,0 -1.2528,0.0578 z"
             id="path12003" />
        </g>
      </g>
      <path
         d="m 751.27,60.108 h 6.8091 v 23.841 q 0,4.9345 -2.6883,7.375 -2.6706,2.4407 -8.1,2.4407 h -1.3795 V 88.618 h 1.0612 q 2.1224,0 3.2012,-1.185 1.0966,-1.185 1.0966,-3.4842 z"
         stroke-width="0.56596"
         id="path12009" />
      <g
         transform="translate(-40)"
         stroke-opacity="0"
         id="g12041">
        <g
           transform="translate(-240.01,-83.019)"
           id="g12015">
          <path
             d="m 652.37,240 h 39.257 c 6.8538,0 12.371,5.5177 12.371,12.371 v 39.257 c 0,6.8538 -5.5177,12.371 -12.371,12.371 H 652.37 c -6.8538,0 -12.371,-5.5177 -12.371,-12.371 v -39.257 c 0,-6.8538 5.5177,-12.371 12.371,-12.371 z"
             fill="#00cc66"
             stop-color="#000000"
             style="paint-order:markers fill stroke"
             id="path12011" />
          <path
             d="m 655.35,242.98 h 33.296 c 6.8538,0 12.371,5.5177 12.371,12.371 v 33.296 c 0,6.8538 -5.5177,12.371 -12.371,12.371 H 655.35 c -6.8538,0 -12.371,-5.5177 -12.371,-12.371 v -33.296 c 0,-6.8538 5.5177,-12.371 12.371,-12.371 z"
             fill="#33ff99"
             stop-color="#000000"
             style="paint-order:markers fill stroke"
             id="path12013" />
        </g>
        <g
           transform="translate(-160.01,-83.019)"
           id="g12021">
          <path
             d="m 652.37,240 h 39.257 c 6.8538,0 12.371,5.5177 12.371,12.371 v 39.257 c 0,6.8538 -5.5177,12.371 -12.371,12.371 H 652.37 c -6.8538,0 -12.371,-5.5177 -12.371,-12.371 v -39.257 c 0,-6.8538 5.5177,-12.371 12.371,-12.371 z"
             fill="#00cc66"
             stop-color="#000000"
             style="paint-order:markers fill stroke"
             id="path12017" />
          <path
             d="m 655.35,242.98 h 33.296 c 6.8538,0 12.371,5.5177 12.371,12.371 v 33.296 c 0,6.8538 -5.5177,12.371 -12.371,12.371 H 655.35 c -6.8538,0 -12.371,-5.5177 -12.371,-12.371 v -33.296 c 0,-6.8538 5.5177,-12.371 12.371,-12.371 z"
             fill="#33ff99"
             stop-color="#000000"
             style="paint-order:markers fill stroke"
             id="path12019" />
        </g>
        <g
           transform="translate(-80.014,-83.019)"
           id="g12027">
          <path
             d="m 652.37,240 h 39.257 c 6.8538,0 12.371,5.5177 12.371,12.371 v 39.257 c 0,6.8538 -5.5177,12.371 -12.371,12.371 H 652.37 c -6.8538,0 -12.371,-5.5177 -12.371,-12.371 v -39.257 c 0,-6.8538 5.5177,-12.371 12.371,-12.371 z"
             fill="#00cc66"
             stop-color="#000000"
             style="paint-order:markers fill stroke"
             id="path12023" />
          <path
             d="m 655.35,242.98 h 33.296 c 6.8538,0 12.371,5.5177 12.371,12.371 v 33.296 c 0,6.8538 -5.5177,12.371 -12.371,12.371 H 655.35 c -6.8538,0 -12.371,-5.5177 -12.371,-12.371 v -33.296 c 0,-6.8538 5.5177,-12.371 12.371,-12.371 z"
             fill="#33ff99"
             stop-color="#000000"
             style="paint-order:markers fill stroke"
             id="path12025" />
        </g>
        <g
           transform="translate(-0.014,-83.019)"
           id="g12033">
          <path
             d="m 652.37,240 h 39.257 c 6.8538,0 12.371,5.5177 12.371,12.371 v 39.257 c 0,6.8538 -5.5177,12.371 -12.371,12.371 H 652.37 c -6.8538,0 -12.371,-5.5177 -12.371,-12.371 v -39.257 c 0,-6.8538 5.5177,-12.371 12.371,-12.371 z"
             fill="#00cc66"
             stop-color="#000000"
             style="paint-order:markers fill stroke"
             id="path12029" />
          <path
             d="m 655.35,242.98 h 33.296 c 6.8538,0 12.371,5.5177 12.371,12.371 v 33.296 c 0,6.8538 -5.5177,12.371 -12.371,12.371 H 655.35 c -6.8538,0 -12.371,-5.5177 -12.371,-12.371 v -33.296 c 0,-6.8538 5.5177,-12.371 12.371,-12.371 z"
             fill="#33ff99"
             stop-color="#000000"
             style="paint-order:markers fill stroke"
             id="path12031" />
        </g>
        <g
           transform="translate(-320.01,-83.019)"
           id="g12039">
          <path
             d="m 1084.4,240 h 39.257 c 6.8538,0 12.372,5.5177 12.372,12.371 v 39.257 c 0,6.8538 -5.5177,12.371 -12.372,12.371 H 1084.4 c -6.8538,0 -12.372,-5.5177 -12.372,-12.371 v -39.257 c 0,-6.8538 5.5177,-12.371 12.372,-12.371 z"
             fill="#cc6600"
             stop-color="#000000"
             style="paint-order:markers fill stroke"
             id="path12035" />
          <path
             d="m 1087.4,242.98 h 33.296 c 6.8538,0 12.371,5.5177 12.371,12.371 v 33.296 c 0,6.8538 -5.5176,12.371 -12.371,12.371 H 1087.4 c -6.8538,0 -12.372,-5.5177 -12.372,-12.371 v -33.296 c 0,-6.8538 5.5177,-12.371 12.372,-12.371 z"
             fill="#ff9933"
             stop-color="#000000"
             style="paint-order:markers fill stroke"
             id="path12037" />
        </g>
      </g>
      <path
         d="m 377.31,184.11 h 2.5065 v 3.5482 l 3.6133,-3.5482 h 2.9102 l -4.681,4.6029 5.1628,5.1172 h -3.138 l -3.8672,-3.8281 v 3.8281 h -2.5065 z"
         id="path12043" />
      <path
         d="m 393.54,192.06 h -3.9193 l -0.61848,1.7708 h -2.5195 l 3.6002,-9.72 h 2.9883 l 3.6002,9.72 h -2.5195 z m -3.2943,-1.8034 h 2.6628 l -1.3281,-3.8672 z"
         id="path12045" />
      <path
         d="m 397.96,184.11 h 2.7995 l 3.5352,6.6666 V 184.11 h 2.3763 v 9.72 h -2.7995 l -3.5352,-6.6666 V 193.83 H 397.96 Z"
         id="path12047" />
      <path
         d="m 457.08,184.11 h 4.1602 q 1.8555,0 2.845,0.82682 0.9961,0.82031 0.9961,2.3438 0,1.5299 -0.9961,2.3568 -0.98958,0.82031 -2.845,0.82031 h -1.6536 v 3.3724 h -2.5065 z m 2.5065,1.8164 v 2.7148 h 1.3867 q 0.72917,0 1.1263,-0.35156 0.39714,-0.35807 0.39714,-1.0091 0,-0.65103 -0.39714,-1.0026 -0.39713,-0.35157 -1.1263,-0.35157 z"
         id="path12049" />
      <path
         d="m 471.29,185.75 q -1.1458,0 -1.7773,0.84636 -0.63151,0.84635 -0.63151,2.3828 0,1.53 0.63151,2.3763 0.63151,0.8463 1.7773,0.84635 1.1523,0 1.7838,-0.84635 0.6315,-0.84635 0.63151,-2.3763 0,-1.5364 -0.63151,-2.3828 Q 472.44229,185.75 471.29,185.75 Z m 0,-1.8164 q 2.3437,0 3.6719,1.3411 1.3281,1.3412 1.3281,3.7044 0,2.3568 -1.3281,3.6979 -1.3281,1.3411 -3.6719,1.3411 -2.3372,0 -3.6719,-1.3411 -1.3281,-1.3411 -1.3281,-3.6979 0,-2.3633 1.3281,-3.7044 1.3346,-1.3411 3.6719,-1.3411 z"
         id="path12051" />
      <path
         d="m 478.19,184.11 h 2.7995 l 3.5352,6.6666 V 184.11 h 2.3763 v 9.72 h -2.7995 l -3.5351,-6.6666 v 6.6666 h -2.3763 z"
         id="path12053" />
      <path
         d="m 547.97,193.29 q -0.6901,0.35807 -1.4388,0.54036 -0.7487,0.18229 -1.5625,0.18229 -2.4284,0 -3.8476,-1.3542 -1.4193,-1.3607 -1.4193,-3.6849 0,-2.3307 1.4193,-3.6849 1.4193,-1.3607 3.8476,-1.3607 0.8138,0 1.5625,0.18229 0.7487,0.18229 1.4388,0.54037 v 2.0117 q -0.69661,-0.47526 -1.3737,-0.69661 -0.67708,-0.22136 -1.4258,-0.22136 -1.3412,0 -2.1094,0.85938 -0.76823,0.85937 -0.76823,2.3698 0,1.5039 0.76823,2.3633 0.76822,0.85937 2.1094,0.85937 0.74869,0 1.4258,-0.22135 0.67709,-0.22136 1.3737,-0.69662 z"
         id="path12055" />
      <path
         d="m 550.05,184.11 h 2.5065 v 3.7044 h 3.6979 V 184.11 h 2.5065 v 9.72 h -2.5065 v -4.1211 h -3.6979 V 193.83 H 550.05 Z"
         id="path12057" />
      <path
         d="m 561.21,184.11 h 2.5065 v 9.72 H 561.21 Z"
         id="path12059" />
      <path
         d="m 611.46,188.42 q 0.78776,0 1.1263,-0.29297 0.34505,-0.29297 0.34505,-0.96354 0,-0.66406 -0.34505,-0.95052 -0.33854,-0.28646 -1.1263,-0.28646 h -1.0547 v 2.4935 z m -1.0547,1.7318 v 3.6784 h -2.5065 v -9.72 h 3.8281 q 1.9206,0 2.8125,0.64453 0.89843,0.64453 0.89843,2.0378 0,0.96354 -0.46875,1.582 -0.46223,0.61849 -1.3997,0.91146 0.51432,0.11719 0.91796,0.53385 0.41016,0.41016 0.82682,1.25 l 1.3607,2.7604 h -2.6693 l -1.1849,-2.4154 q -0.35807,-0.72916 -0.72916,-0.99609 -0.36459,-0.26693 -0.97656,-0.26693 z"
         id="path12061" />
      <path
         d="m 618.16,184.11 h 6.7643 v 1.8945 h -4.2578 v 1.8099 h 4.0039 v 1.8945 h -4.0039 v 2.2266 h 4.401 V 193.83 H 618.16 Z"
         id="path12063" />
      <path
         d="m 633.17,192.06 h -3.9193 l -0.61849,1.7708 h -2.5195 l 3.6002,-9.72 h 2.9883 l 3.6002,9.72 h -2.5195 z m -3.2943,-1.8034 h 2.6628 l -1.3281,-3.8672 z"
         id="path12065" />
      <path
         d="m 645.29,193.29 q -0.6901,0.35807 -1.4388,0.54036 -0.7487,0.18229 -1.5625,0.18229 -2.4284,0 -3.8477,-1.3542 -1.4193,-1.3607 -1.4193,-3.6849 0,-2.3307 1.4193,-3.6849 1.4193,-1.3607 3.8477,-1.3607 0.8138,0 1.5625,0.18229 0.7487,0.18229 1.4388,0.54037 v 2.0117 q -0.6967,-0.47526 -1.3737,-0.69661 -0.6771,-0.22136 -1.4258,-0.22136 -1.3412,0 -2.1094,0.85938 -0.76821,0.85937 -0.76821,2.3698 0,1.5039 0.76821,2.3633 0.7682,0.85937 2.1094,0.85937 0.7487,0 1.4258,-0.22135 0.677,-0.22136 1.3737,-0.69662 z"
         id="path12067" />
      <path
         d="m 647.39,184.11 h 2.5065 v 3.7044 h 3.6979 V 184.11 h 2.5065 v 9.72 h -2.5065 v -4.1211 h -3.6979 V 193.83 H 647.39 Z"
         id="path12069" />
      <path
         d="m 732.39,188.42 q 0.7877,0 1.1263,-0.29297 0.345,-0.29297 0.345,-0.96354 0,-0.66406 -0.345,-0.95052 -0.3386,-0.28646 -1.1263,-0.28646 h -1.0547 v 2.4935 z m -1.0547,1.7318 v 3.6784 h -2.5065 v -9.72 h 3.8281 q 1.9206,0 2.8125,0.64453 0.8984,0.64453 0.8984,2.0378 0,0.96354 -0.4687,1.582 -0.4623,0.61849 -1.3998,0.91146 0.5144,0.11719 0.918,0.53385 0.4102,0.41016 0.8268,1.25 l 1.3607,2.7604 h -2.6693 l -1.1848,-2.4154 q -0.3581,-0.72916 -0.7292,-0.99609 -0.3646,-0.26693 -0.9766,-0.26693 z"
         id="path12071" />
      <path
         d="m 743.59,185.75 q -1.1458,0 -1.7774,0.84636 -0.6315,0.84635 -0.6315,2.3828 0,1.53 0.6315,2.3763 0.6316,0.84635 1.7774,0.84635 1.1523,0 1.7838,-0.84635 0.6315,-0.84635 0.6315,-2.3763 0,-1.5364 -0.6315,-2.3828 Q 744.7423,185.75 743.59,185.75 Z m 0,-1.8164 q 2.3437,0 3.6718,1.3411 1.3282,1.3412 1.3282,3.7044 0,2.3568 -1.3282,3.6979 -1.3281,1.3411 -3.6718,1.3411 -2.3373,0 -3.6719,-1.3411 -1.3281,-1.3411 -1.3281,-3.6979 0,-2.3633 1.3281,-3.7044 1.3346,-1.3411 3.6719,-1.3411 z"
         id="path12073" />
      <path
         d="m 750.39,184.11 h 2.7995 l 3.5351,6.6666 V 184.11 h 2.3763 v 9.72 h -2.7995 l -3.5351,-6.6666 V 193.83 H 750.39 Z"
         id="path12075" />
      <g
         transform="translate(-40)"
         fill="#cccccc"
         id="g12109">
        <g
           transform="matrix(0.39921,0,0,0.39921,152.07,170.64)"
           aria-label="カン"
           id="g12081">
          <path
             d="m 671.37,-78.781 q -4.5,22.125 -19.875,30.438 l 0.5,1.0625 q 22.125,-7.1875 26.562,-32.562 7.3125,-0.75 12.688,-1 1.0625,0 1.0625,1.4375 0,4 -1.5,11.312 -1.0625,5.5625 -3,9.125 -1.5,2.625 -2.375,2.625 -0.9375,0 -3.4375,-1.1875 l -7.0625,-3.5 -0.5625,1 q 4.125,3.625 6.1875,5.9375 1.1875,1.3125 1.1875,4.3125 0.8125,1.5625 2.9375,1.5625 5.125,0 8.1875,-5.3125 3.25,-5.6875 6.125,-22.25 0.125,-1.4375 0.5625,-2 1.875,-1.875 1.875,-3.125 0,-1.25 -2.8125,-3.75 -2.75,-2.125 -3.75,-2.125 -0.875,0 -3.0625,1.5 -0.5625,0.375 -1.4375,0.4375 l -11,0.875 0.5,-4.25 q 0.125,-1.0625 0.5625,-1.6875 1.1875,-1.6875 1.1875,-2.625 0,-1.9375 -8.4375,-5.25 -1.8125,0 -3.1875,0.3125 -0.625,0.6875 -0.625,1.6875 2,1.25 3.3125,2.4375 l 0.3125,1 q -0.1875,4.875 -0.875,9 l -9.4375,1.0625 q -2.3125,0.25 -3.9375,0.25 -1.375,0 -4.125,-2.8125 -0.8125,0 -1.3125,0.875 0,2.0625 0.8125,4.1875 4.25,4.5625 5.5625,4.5625 0.625,0 2,-0.625 2.9375,-1.5625 9.6875,-2.9375 z"
             id="path12077" />
          <path
             d="m 706.44,-92.406 q 6.6875,3.5 9.375,9.375 1.5,2.75 3.6875,2.75 2.1875,0 3.125,-1.3125 0.8125,-1.1875 0.8125,-3.125 0,-2.4375 -3.1875,-5.25 -4.375,-3.625 -13.25,-4 -0.5625,0.4375 -0.5625,1.5625 z m -0.75,34 q 0,2.1875 0.8125,4.3125 5.5,6.1875 7.1875,6.1875 1,0 1.9375,-1.375 0.5625,-0.8125 1.375,-1.0625 22.5,-9.5625 33.875,-32.562 L 749.94,-83.593 q -12.938,17.375 -33.188,25.438 -4.625,1.8125 -5.9375,1.8125 -1,0 -3.5,-3.0625 -1.25,0 -1.625,1 z"
             id="path12079" />
        </g>
        <g
           transform="matrix(0.42701,0,0,0.41874,207.55,187.58)"
           aria-label="ポン"
           id="g12087">
          <path
             d="m 701.88,-133.76 q 0,2.5 1.75,4.25 1.75,1.75 4.25,1.75 2.5,0 4.25,-1.75 1.75,-1.75 1.75,-4.25 0,-2.5 -1.75,-4.25 -1.75,-1.75 -4.25,-1.75 -2.5,0 -4.25,1.75 -1.75,1.75 -1.75,4.25 z m 6,3.75 q -1.625,0 -2.75,-1.25 -1,-1.125 -1,-2.5 0,-1.4375 1,-2.5 1.125,-1.25 2.75,-1.25 1.625,0 2.75,1.25 1,1.0625 1,2.5 0,1.375 -1,2.5 -1.125,1.25 -2.75,1.25 z m -35.062,18.438 q -2.9375,6.4375 -9.5625,10.688 -2.625,1.6875 -2.625,3.6875 0,3.875 4.25,3.875 2.1875,0 4.5,-2.875 3.5,-4.875 4.75,-14.562 -0.125,-0.8125 -1.3125,-0.8125 z m 24.812,-2.0625 q -1,0 -1,1 6.125,6.1875 7.25,15.75 0.5,4 3.375,4 1.8125,0 3,-1.6875 0.875,-1.625 0.875,-3.5625 0,-8.5 -13.5,-15.5 z m -30.75,-7.625 q -1.8125,0 -4.4375,-2.9375 -0.9375,0 -1.3125,0.6875 0,2.125 0.8125,4.4375 4.5,4.25 6.4375,4.25 0.5625,0 3.5,-1.1875 3.375,-1.5 11.75,-2.375 v 24.687 q -2.25,-0.4375 -9.4375,-3.625 l -0.5,1.0625 q 5.625,3.4375 6.4375,4.9375 1.1875,2.3125 1.1875,4.5625 0,1.25 2.625,1.25 2,0 4.0625,-1.9375 2.1875,-2.0625 2.1875,-5.75 -0.3125,-5.6875 -0.3125,-9.75 v -15.938 q 5.75,-0.375 8.875,-0.375 2.875,0 6.25,0.3125 3.125,0.4375 5.125,0.4375 2,0 2,-2.25 0,-1.1875 -3.9375,-3.6875 -2.375,-1.5625 -2.9375,-1.5625 -0.875,0 -3.5625,1.625 -1.875,0.9375 -3.625,1 -2.5625,0 -8,0.375 0,-2.375 0.4375,-5.5 1.1875,-1.3125 1.1875,-2.25 0,-1.75 -8.375,-4.9375 -2.1875,0 -3.625,0.5625 -0.5625,0.5 -0.5625,1.5 2.5,1.4375 4,2.625 l 0.5,0.75 v 7.6875 q -4.8125,0.5 -9.5,0.9375 -3,0.375 -7.25,0.375 z"
             id="path12083" />
          <path
             d="m 720.88,-131.64 q 6.6875,3.5 9.375,9.375 1.5,2.75 3.6875,2.75 2.1875,0 3.125,-1.3125 0.8125,-1.1875 0.8125,-3.125 0,-2.4375 -3.1875,-5.25 -4.375,-3.625 -13.25,-4 -0.5625,0.4375 -0.5625,1.5625 z m -0.75,34 q 0,2.1875 0.8125,4.3125 5.5,6.1875 7.1875,6.1875 1,0 1.9375,-1.375 0.5625,-0.8125 1.375,-1.0625 22.5,-9.5625 33.875,-32.562 l -0.9375,-0.6875 q -12.938,17.375 -33.188,25.437 -4.625,1.8125 -5.9375,1.8125 -1,0 -3.5,-3.0625 -1.25,0 -1.625,1 z"
             id="path12085" />
        </g>
        <g
           transform="matrix(0.41818,0,0,0.44229,214.4,164.36)"
           aria-label="チー"
           id="g12093">
          <path
             d="m 874.11,-58.968 q -6.25,0.625 -12.188,1.375 -3.4375,0.375 -7.3125,0.375 -1.8125,0 -3.9375,-2.75 -1,0 -1.3125,0.875 0,2.6875 0.875,4.1875 5.25,4.5625 7.0625,4.5625 0.5625,0 2.8125,-1.125 4.3125,-2.375 14.125,-3.5 -0.25,6.0625 -3.5625,12.875 -4.3125,8.0625 -13.625,12.75 l 0.75,0.875 q 11.938,-2.625 17.938,-10.25 4.875,-6.3125 5.125,-16.625 4.0625,-0.25 7.75,-0.25 3.375,0 6.625,0.375 2.9375,0.625 4.6875,0.625 2.25,0 2.25,-2.125 0,-1.25 -3.5625,-4 -2.125,-1.375 -3.4375,-1.375 -0.5625,0 -2.125,1.25 -0.75,0.25 -2.125,0.375 l -9.75,1.0625 q 0.25,-4.75 0.25,-5.875 0.8125,-1 0.8125,-1.625 0,-0.8125 -2.8125,-2.25 5,-0.75 8.125,-2.125 2.6875,-1.0625 2.6875,-1.9375 0,-2.125 -4,-4.8125 -2.4375,-1.4375 -6,-1.9375 -1.1875,0 -1.5,0.9375 1.25,0.8125 2.3125,1.9375 v 0.625 q -8.875,4.3125 -25.812,8.9375 l 0.3125,1.125 q 9.25,-0.4375 17.062,-1.6875 1.375,0.3125 1.5,1.25 z"
             id="path12089" />
          <path
             d="m 905.92,-53.656 q 3.5625,4.1875 4.75,4.1875 1,0 2.875,-0.8125 2.9375,-1.3125 9.3125,-1.5 8.9375,-0.25 15.25,-0.25 5.5,0 10.062,0.375 4.25,0.25 6.0625,0.25 2.3125,0 2.3125,-2.3125 0,-2.375 -2.375,-3.625 -2.0625,-1.0625 -3.9375,-1.0625 -1.9375,0 -3.75,0.5 -1.8125,0.4375 -4.375,0.5625 -9.5625,0 -32.438,0.375 -1.1875,0 -3.0625,-2.6875 -1,0 -1.375,0.625 -0.5,1.25 -0.5,2.75 0,0.8125 1.1875,2.625 z"
             id="path12091" />
        </g>
        <g
           transform="matrix(0.404,0,0,0.404,347.74,168.94)"
           aria-label="リーチ"
           id="g12101">
          <path
             d="m 736.02,-90.006 q -2.5,-0.5 -4.8125,-0.5 -0.5625,0.4375 -0.5625,1.25 1.6875,1.125 3.125,2.9375 l 0.375,1.0625 v 16 q -0.625,3.1875 -0.625,4.1875 0,1.4375 1.1875,3.3125 1.375,2 2.75,2 1.625,0 2.5625,-0.9375 1,-1 1,-4.75 -0.3125,-3.125 -0.3125,-4 v -9.9375 q 0,-1.8125 0.4375,-3 0.375,-0.875 0.375,-2.125 0,-1.75 -5.5,-5.5 z m 20,2.3125 v 15.312 q 0,20.812 -17,28.625 l 0.5625,1 q 12.438,-2.5625 18.375,-10.812 5.3125,-7.1875 5.3125,-21.375 v -7.125 q 0,-1.375 0.4375,-2.4375 1.0625,-1.5 1.0625,-3 0,-1.8125 -7.1875,-5.375 -2.6875,-0.4375 -5.375,-0.4375 -0.5,0.5625 -0.5,1.5625 2.0625,1.4375 3.8125,3.125 z"
             id="path12095" />
          <path
             d="m 768.33,-67.694 q 3.5625,4.1875 4.75,4.1875 1,0 2.875,-0.8125 2.9375,-1.3125 9.3125,-1.5 8.9375,-0.25 15.25,-0.25 5.5,0 10.062,0.375 4.25,0.25 6.0625,0.25 2.3125,0 2.3125,-2.3125 0,-2.375 -2.375,-3.625 -2.0625,-1.0625 -3.9375,-1.0625 -1.9375,0 -3.75,0.5 -1.8125,0.4375 -4.375,0.5625 -9.5625,0 -32.438,0.375 -1.1875,0 -3.0625,-2.6875 -1,0 -1.375,0.625 -0.5,1.25 -0.5,2.75 0,0.8125 1.1875,2.625 z"
             id="path12097" />
          <path
             d="m 846.52,-73.006 q -6.25,0.625 -12.188,1.375 -3.4375,0.375 -7.3125,0.375 -1.8125,0 -3.9375,-2.75 -1,0 -1.3125,0.875 0,2.6875 0.875,4.1875 5.25,4.5625 7.0625,4.5625 0.5625,0 2.8125,-1.125 4.3125,-2.375 14.125,-3.5 -0.25,6.0625 -3.5625,12.875 -4.3125,8.0625 -13.625,12.75 l 0.75,0.875 q 11.938,-2.625 17.938,-10.25 4.875,-6.3125 5.125,-16.625 4.0625,-0.25 7.75,-0.25 3.375,0 6.625,0.375 2.9375,0.625 4.6875,0.625 2.25,0 2.25,-2.125 0,-1.25 -3.5625,-4 -2.125,-1.375 -3.4375,-1.375 -0.5625,0 -2.125,1.25 -0.75,0.25 -2.125,0.375 l -9.75,1.0625 q 0.25,-4.75 0.25,-5.875 0.8125,-1 0.8125,-1.625 0,-0.8125 -2.8125,-2.25 5,-0.75 8.125,-2.125 2.6875,-1.0625 2.6875,-1.9375 0,-2.125 -4,-4.8125 -2.4375,-1.4375 -6,-1.9375 -1.1875,0 -1.5,0.9375 1.25,0.8125 2.3125,1.9375 v 0.625 q -8.875,4.3125 -25.812,8.9375 l 0.3125,1.125 q 9.25,-0.4375 17.062,-1.6875 1.375,0.3125 1.5,1.25 z"
             id="path12099" />
        </g>
        <g
           transform="matrix(0.41952,0,0,0.43766,531.07,227.58)"
           aria-label="ロン"
           id="g12107">
          <path
             d="m 555.97,-215.58 -0.375,1.0625 q 3.125,2.375 3.4375,3.1875 l 0.4375,7.75 v 16.375 q 0,1.5625 -0.75,4.6875 0,1.5625 1.25,3.8125 1.3125,2.125 2.5625,2.125 1.5625,0 2.6875,-1.75 0.625,-1.125 0.8125,-1.9375 12.75,-1.3125 16.562,-1.3125 2.625,0 6.0625,0.1875 3.5625,0.375 6,0.375 2.5,0 2.5,-2.8125 -0.8125,-1.6875 -3.0625,-2.125 1.6875,-9.5 3.75,-19.938 0.125,-0.8125 0.5,-1.5625 1.5,-1.4375 1.5,-2.4375 0,-1.75 -2.9375,-3.875 -3.125,-2.125 -4.25,-2.125 -0.6875,0 -3,1.8125 -0.5,0.25 -1.3125,0.25 -12.625,0.875 -23.125,2 -2.5,-2.625 -6.375,-4.1875 -1.375,0 -2.875,0.4375 z m 9.9375,30.812 v -23.938 q 0.5625,0.5 1.8125,1 0.6875,0 9.75,-1.4375 8.0625,-1 11.438,-1 1.5625,0 1.5625,1.125 -0.9375,15.938 -2.75,22.625 -10.062,0 -21.812,1.625 z"
             id="path12103" />
          <path
             d="m 605.72,-217.71 q 6.6875,3.5 9.375,9.375 1.5,2.75 3.6875,2.75 2.1875,0 3.125,-1.3125 0.8125,-1.1875 0.8125,-3.125 0,-2.4375 -3.1875,-5.25 -4.375,-3.625 -13.25,-4 -0.5625,0.4375 -0.5625,1.5625 z m -0.75,34 q 0,2.1875 0.8125,4.3125 5.5,6.1875 7.1875,6.1875 1,0 1.9375,-1.375 0.5625,-0.8125 1.375,-1.0625 22.5,-9.5625 33.875,-32.562 l -0.9375,-0.6875 q -12.938,17.375 -33.188,25.438 -4.625,1.8125 -5.9375,1.8125 -1,0 -3.5,-3.0625 -1.25,0 -1.625,1 z"
             id="path12105" />
        </g>
      </g>
      <g
         stroke-opacity="0"
         id="g12123">
        <path
           d="m 172.37,44.98 h 39.257 c 6.8538,0 12.371,5.5177 12.371,12.371 v 39.257 c 0,6.8538 -5.5177,12.371 -12.371,12.371 H 172.37 c -6.8538,0 -12.371,-5.5177 -12.371,-12.371 V 57.351 c 0,-6.8538 5.5177,-12.371 12.371,-12.371 z"
           fill="#cccccc"
           stop-color="#000000"
           style="paint-order:markers fill stroke"
           id="path12111" />
        <path
           d="m 175.35,47.96 h 33.296 c 6.8538,0 12.371,5.5177 12.371,12.371 v 33.296 c 0,6.8538 -5.5177,12.371 -12.371,12.371 H 175.35 c -6.8538,0 -12.371,-5.5177 -12.371,-12.371 V 60.331 c 0,-6.8538 5.5177,-12.371 12.371,-12.371 z"
           fill="#e5e5e5"
           stop-color="#000000"
           style="paint-order:markers fill stroke"
           id="path12113" />
        <path
           d="m 175.35,47.96 h 33.296 c 6.8538,0 12.371,5.5177 12.371,12.371 v 33.296 c 0,6.8538 -5.5177,12.371 -12.371,12.371 H 175.35 c -6.8538,0 -12.371,-5.5177 -12.371,-12.371 V 60.331 c 0,-6.8538 5.5177,-12.371 12.371,-12.371 z"
           fill="url(#linearGradient40877)"
           stop-color="#000000"
           style="fill:url(#linearGradient12193);paint-order:markers fill stroke"
           id="path12115" />
        <path
           d="m 12.37,44.98 h 39.257 c 6.8538,0 12.371,5.5177 12.371,12.371 v 39.257 c 0,6.8538 -5.5177,12.371 -12.371,12.371 H 12.37 c -6.8538,0 -12.371,-5.5177 -12.371,-12.371 V 57.351 c 0,-6.8538 5.5177,-12.371 12.371,-12.371 z"
           fill="#cccccc"
           stop-color="#000000"
           style="paint-order:markers fill stroke"
           id="path12117" />
        <path
           d="m 15.35,47.96 h 33.296 c 6.8538,0 12.371,5.5177 12.371,12.371 v 33.296 c 0,6.8538 -5.5177,12.371 -12.371,12.371 H 15.35 c -6.8538,0 -12.371,-5.5177 -12.371,-12.371 V 60.331 C 2.979,53.4772 8.4967,47.96 15.35,47.96 Z"
           fill="#e5e5e5"
           stop-color="#000000"
           style="paint-order:markers fill stroke"
           id="path12119" />
        <path
           d="m 15.35,47.96 h 33.296 c 6.8538,0 12.371,5.5177 12.371,12.371 v 33.296 c 0,6.8538 -5.5177,12.371 -12.371,12.371 H 15.35 c -6.8538,0 -12.371,-5.5177 -12.371,-12.371 V 60.331 C 2.979,53.4772 8.4967,47.96 15.35,47.96 Z"
           fill="url(#linearGradient40877)"
           stop-color="#000000"
           style="fill:url(#linearGradient12195);paint-order:markers fill stroke"
           id="path12121" />
      </g>
      <path
         d="M 38.281,86.825 H 25.739 l -1.9792,5.6667 h -8.0625 l 11.521,-31.104 h 9.5625 l 11.521,31.104 H 40.2393 Z M 27.739,81.0542 h 8.5208 l -4.25,-12.375 z"
         id="path12125" />
      <g
         stroke-opacity="0"
         id="g12133">
        <path
           d="m 92.37,44.98 h 39.257 c 6.8538,0 12.371,5.5177 12.371,12.371 v 39.257 c 0,6.8538 -5.5177,12.371 -12.371,12.371 H 92.37 c -6.8538,0 -12.371,-5.5177 -12.371,-12.371 V 57.351 c 0,-6.8538 5.5177,-12.371 12.371,-12.371 z"
           fill="#cccccc"
           stop-color="#000000"
           style="paint-order:markers fill stroke"
           id="path12127" />
        <path
           d="m 95.35,47.96 h 33.296 c 6.8538,0 12.371,5.5177 12.371,12.371 v 33.296 c 0,6.8538 -5.5177,12.371 -12.371,12.371 H 95.35 c -6.8538,0 -12.371,-5.5177 -12.371,-12.371 V 60.331 c 0,-6.8538 5.5177,-12.371 12.371,-12.371 z"
           fill="#e5e5e5"
           stop-color="#000000"
           style="paint-order:markers fill stroke"
           id="path12129" />
        <path
           d="m 95.35,47.96 h 33.296 c 6.8538,0 12.371,5.5177 12.371,12.371 v 33.296 c 0,6.8538 -5.5177,12.371 -12.371,12.371 H 95.35 c -6.8538,0 -12.371,-5.5177 -12.371,-12.371 V 60.331 c 0,-6.8538 5.5177,-12.371 12.371,-12.371 z"
           fill="url(#linearGradient40877)"
           stop-color="#000000"
           style="fill:url(#linearGradient12197);paint-order:markers fill stroke"
           id="path12131" />
      </g>
      <path
         d="m 112.11,73.429 q 1.8958,0 2.875,-0.83333 0.97916,-0.83333 0.97916,-2.4583 0,-1.6042 -0.97916,-2.4375 -0.97917,-0.85417 -2.875,-0.85417 h -4.4375 v 6.5833 z m 0.27084,13.604 q 2.4167,0 3.625,-1.0208 1.2292,-1.0208 1.2292,-3.0833 0,-2.0208 -1.2083,-3.0208 -1.2083,-1.0208 -3.6458,-1.0208 h -4.7083 v 8.1458 z m 7.4583,-11.188 q 2.5833,0.75 4,2.7708 1.4167,2.0208 1.4167,4.9583 0,4.5 -3.0417,6.7083 -3.0417,2.2083 -9.25,2.2083 h -13.313 v -31.104 h 12.042 q 6.4792,0 9.375,1.9583 2.9167,1.9583 2.9167,6.2708 0,2.2708 -1.0625,3.875 -1.0625,1.5833 -3.0833,2.3542 z"
         id="path12135" />
      <path
         d="m 204.93,90.783 q -2.2083,1.1458 -4.6042,1.7292 -2.3958,0.58333 -5,0.58333 -7.7708,0 -12.313,-4.3333 -4.5417,-4.3542 -4.5417,-11.792 0,-7.4583 4.5417,-11.792 4.5417,-4.3542 12.313,-4.3542 2.6042,0 5,0.58333 2.3958,0.58333 4.6042,1.7292 v 6.4375 q -2.2292,-1.5208 -4.3958,-2.2292 -2.1667,-0.70833 -4.5625,-0.70833 -4.2917,0 -6.75,2.75 -2.4583,2.75 -2.4583,7.5833 0,4.8125 2.4583,7.5625 2.4583,2.75 6.75,2.75 2.3958,0 4.5625,-0.70833 2.1667,-0.70833 4.3958,-2.2292 z"
         id="path12137" />
      <g
         fill="#cccccc"
         id="g12169">
        <g
           transform="matrix(0.8377,0,0,0.8377,5.1937,44.663)"
           aria-label="一"
           id="g12141">
          <path
             d="m 12.375,-13.483 q -2.5,-1 -3.4375,-1 -0.8125,0 -0.8125,0.9375 0,2 2.0625,4 4.875,3.375 8.125,3.375 1.8125,0 6.375,-1.25 9.4375,-2.75 20.312,-3.0625 -2.1875,2.125 -6.4375,4.625 8.3125,-1.125 12.5,-3.75 1.1875,0.1875 2.375,0.1875 2.4375,0 2.4375,-2.4375 0,-2.5625 -2.5,-4.3125 -2.75,-1.6875 -6.25,-1.6875 -10.25,0 -34.75,4.375 z"
             fill="#cccccc"
             id="path12139" />
        </g>
        <g
           transform="matrix(0.78624,0,0,0.78624,23.941,44.361)"
           aria-label="二"
           id="g12145">
          <path
             d="m 97.25,-38.546 q 0,0.9375 1.6875,2.125 4,2.6875 7.375,2.6875 0.9375,0 2.8125,-0.1875 -4.3125,3.9375 -9.875,7.3125 13.312,-4 22.75,-10.062 4,-1.1875 4,-2.6875 0,-1.375 -2.4375,-2.8125 -2.625,-1.125 -4.125,-1.125 -1.0625,0 -5.125,1.5 -6.3125,2 -13.812,2.9375 -1.3125,-0.75 -1.875,-0.75 -1.375,0 -1.375,1.0625 z m -10.688,27.5 q 0,1.125 3.125,2.75 4.1875,2.4375 6.75,2.4375 1.3125,0 6.4375,-1.875 7.875,-2.25 13,-2.25 4.9375,0 11.312,0.1875 4.25,0.375 7,0.375 3.25,0 3.25,-3.25 0,-1.9375 -3.8125,-3.75 -3.4375,-1.75 -4.75,-1.75 -1.25,0 -3.125,1.5625 -18.562,1.3125 -36.062,4.9375 -1.3125,-0.6875 -2.0625,-0.6875 -1.0625,0 -1.0625,1.3125 z"
             fill="#cccccc"
             id="path12143" />
        </g>
        <g
           transform="matrix(0.74419,0,0,0.74419,49.116,44.115)"
           aria-label="三"
           id="g12149">
          <path
             d="m 178.56,-20.046 q 5.75,-1 20.625,-7.875 4.4375,-0.9375 4.4375,-2.9375 0,-2.875 -6.625,-4.3125 -2.1875,0 -5.9375,2.125 -4.5625,1.1875 -10.312,1.875 l -3.25,-0.4375 q -1,0 -1,1.1875 0,0.9375 2.5625,3 1.6875,1.125 4,1.125 h 5.625 q -4.375,3.3125 -10.125,6.25 z m -2.25,-27.938 q -0.875,0.25 -0.875,1.125 0,1.0625 2.5,2.5 3.0625,1.5625 5.5,1.5625 l 3.75,-0.3125 q -4.5,3 -8.875,5.4375 6.4375,-1.125 18.688,-6.3125 l 5.9375,-1.9375 q 2.875,-0.9375 2.875,-3.25 0,-2.25 -6.375,-3.5 -1.5625,0 -6.8125,2.1875 -6.75,1.9375 -13.5,3 z m -7.75,35.688 q -1.3125,-1.6875 -2.375,-1.6875 -1.0625,0 -1.0625,1.4375 0,4.8125 8.1875,6.6875 1.5625,0 7.375,-2 9,-3.0625 14.562,-3.0625 4.125,0 19.438,1.875 4.1875,0 4.1875,-3.4375 0,-2.9375 -4.75,-5.9375 -2.875,-1.375 -3.9375,-1.375 -1.4375,0 -4.75,2.5 -17.875,1.3125 -36.875,5 z"
             fill="#cccccc"
             id="path12147" />
        </g>
        <path
           d="m 271.84,33.461 q 8.2098,-7.4348 8.2098,-9.5781 0,-1.2771 -2.9646,-3.6944 3.9681,-0.31927 7.9361,-0.31927 -1.2315,6.4766 -4.0593,12.953 -0.9122,-0.82098 -1.7788,-0.82098 -0.54732,0 -3.1015,1.1402 z m -5.9293,-10.582 q 3.9225,-1.2315 7.7077,-2.0981 l 1.1859,1.2771 q -2.0068,5.8381 -5.6556,11.676 l -1.3683,0.31927 q 1.0034,-1.0946 1.0034,-2.5998 v -1.9156 l 2.0524,-7.1608 -3.4664,4.7434 z m 1.6876,11.22 q -2.6454,0.54732 -5.7469,1.1402 -0.59293,0 -1.0034,-0.36488 l -2.8734,-9.943 q 1.0946,-0.59293 1.8244,-0.68415 2.8278,-0.41049 3.9681,-0.72976 -0.72976,2.919 -0.72976,3.9225 0.18244,2.3261 1.642,4.7434 1.2315,1.9156 2.919,1.9156 z m 24.402,-12.68 q 0,-1.3683 -2.0981,-3.4208 -2.4173,-2.1437 -4.0137,-2.1437 -1.4139,0 -3.2839,0.63854 -22.166,2.0068 -26.044,6.5678 -1.4595,-1.049 -2.4629,-2.5998 -0.72976,-1.5964 -1.2315,-1.5964 -0.86659,0 -0.86659,1.0946 0.0456,7.3888 3.2839,14.823 2.3261,4.9715 4.9259,4.9715 1.4595,0 1.642,-1.5507 l -0.13683,-1.0034 q 1.3683,1.0946 2.2349,1.0946 1.0946,0 3.8312,-0.77537 3.4664,-0.77537 5.61,-0.77537 l 6.5678,0.22805 q 0.50171,1.5051 1.642,1.5051 2.7366,0 4.5154,-3.1015 2.5086,-4.2417 4.6066,-11.676 1.2315,-1.0034 1.2771,-2.2805 z"
           stroke-width="0.72976"
           id="path12151" />
        <path
           d="m 346.05,33.491 q 2.4161,-4.8322 5.1902,-9.8882 2.5056,-0.58166 5.1454,-0.58166 -2.5951,6.0403 -8.3669,10.246 z m -11.946,2.4609 q -1.0291,-0.80537 -1.4765,-0.80537 -0.6264,0 -0.6264,0.85011 0,1.2528 1.9239,2.5951 1.9687,1.1633 2.9978,1.1633 0.9396,0 2.5951,-0.67114 6.2192,-2.953 14.899,-2.953 3.8926,0 8.5906,0.67114 4.519,0.71588 6.8009,0.71588 2.1924,0 2.1924,-2.3266 0,-1.6555 -1.6107,-2.7741 -2.7293,-1.8792 -4.2953,-1.8792 -0.89485,0 -2.5503,1.9687 l -9.7987,0.08949 q 3.5794,-2.4609 8.1432,-6.9351 2.1476,-0.80537 2.1476,-2.2371 0,-1.2975 -1.6107,-2.8188 -2.3266,-2.1029 -3.4452,-2.1029 -0.76063,0 -3.5794,0.98434 l -2.1477,0.40268 q 1.9687,-4.2506 5.6376,-8.3222 2.0134,-1.0738 2.0134,-2.1924 0,-1.0738 -1.2081,-2.1924 -1.7002,-1.4318 -3.1767,-1.4318 -0.98434,0 -3.132,1.7897 -4.0716,1.7897 -7.8747,2.5056 -1.2975,-0.49217 -1.9239,-0.49217 -0.85012,0 -0.85012,0.71588 0,0.9396 2.6846,2.5056 2.5951,1.4318 4.1163,1.4318 0.89486,0 2.5503,-0.49217 -1.8344,3.6242 -3.8031,7.2931 -3.2215,1.387 -7.3826,3.2662 -2.2371,1.4765 -2.2371,2.9083 0,0.40268 0.40269,0.40268 0.31319,0 2.2371,-0.6264 1.1186,-0.04474 1.7002,-0.13423 0.67114,-0.08949 3.3557,-1.4318 -1.566,3.4899 -3.2662,6.8904 -1.4765,-0.67114 -2.953,-2.0582 1.0291,2.1924 2.2819,4.0268 -4.1611,0.80537 -8.3222,1.7002 z"
           stroke-width="0.71588"
           id="path12153" />
        <path
           d="m 437.89,25.823 q -1.2457,0 -1.2457,0.87659 0,0.64591 1.338,1.5225 2.3068,2.722 4.8904,6.9204 -1.4764,1.7532 -3.5525,2.6298 1.5686,0.41523 5.8132,0.41523 1.1995,1.2918 2.3991,1.2918 1.8454,0 2.0761,-3.3218 0,-3.737 -1.6609,-5.5364 -5.5825,-4.5675 -10.058,-4.7982 z M 424.603,15.534 q 1.7993,-0.09227 7.8432,-1.8916 1.3841,0.73818 2.353,0.73818 1.6609,0 2.1684,-3.0911 0,-2.6298 -2.9989,-4.7982 -1.338,-1.015 -3.1834,-1.015 -4.3368,0.18454 -4.3368,1.7993 0,0.83045 1.1996,1.338 1.6609,0.87659 2.6759,2.1684 -2.4452,2.1223 -5.7209,4.752 z m -5.2595,13.01 q -1.5686,0 -2.1223,4.3368 0,1.1534 0.69205,2.6298 2.9527,4.2445 5.8593,4.2445 2.5375,0 2.8604,-2.3529 0,-0.73818 -0.18455,-1.2457 2.03,-4.4291 5.0289,-9.3195 -4.6598,3.5986 -8.4433,5.9977 -1.6609,-1.2918 -2.9527,-2.722 -0.18454,-1.5686 -0.73818,-1.5686 z m -6.5975,-8.9969 q -0.73818,0 -0.73818,1.015 0,1.3841 2.03,2.8143 2.9527,1.707 4.7059,1.707 1.6609,0 5.3979,-1.707 8.5348,-3.5986 15.548,-3.5986 3.2295,0 8.8124,0.13841 3.5064,0 3.5064,-2.2145 0,-2.3991 -2.4914,-3.6448 -2.5836,-1.1073 -3.9216,-1.1073 -0.69205,0 -2.9066,2.2607 -17.163,2.6298 -27.959,5.2595 -1.338,-0.92272 -1.9839,-0.92272 z"
           stroke-width="0.73818"
           id="path12155" />
        <path
           d="m 507.14,21.224 q -6.6055,1.5138 -12.477,3.0734 -0.91743,-0.68807 -1.422,-0.68807 -1.2385,0 -1.2385,1.1927 0,0.91742 1.6055,2.0642 3.0275,2.1559 4.4495,2.1559 2.156,0 4.0367,-0.82568 2.156,-1.1927 5.0917,-2.3394 0,9.2198 5.2752,12.293 3.2569,1.6055 8.3948,1.6055 4.0367,0 5.7339,-0.41284 2.2018,-0.68807 2.2018,-3.211 0,-1.1009 -1.5596,-2.1101 -2.5688,-1.6055 -3.6238,-1.6055 -0.87155,0 -3.5321,1.6972 -2.156,0.41284 -3.2569,0.41284 -1.1926,0 -3.0734,-0.36697 -2.477,-0.55046 -2.477,-6.3761 0,-1.2844 0.3211,-3.578 5.0917,-1.1927 15.458,-1.1927 4.9541,0 4.9541,-2.5688 0,-2.5229 -4.5871,-3.8991 -4.6789,-2.477 -9.0825,-4.1284 4.266,3.0734 6.8807,5.8715 -6.6055,0.91742 -13.211,1.9266 1.055,-7.2018 1.055,-8.2568 0,-1.8348 -1.789,-2.9358 -2.0642,-1.2385 -3.0734,-2.8899 -0.22936,-0.73394 -0.82569,-0.73394 -0.68807,0 -1.2844,1.0092 -0.36697,0.6422 -0.36697,1.422 0,1.0092 1.422,3.0275 0.13761,1.1009 0.13761,3.8532 0,2.7981 -0.13761,6.5137 z"
           stroke-width="0.73394"
           id="path12157" />
        <path
           d="m 590.77,17.738 q 0,0.52631 2.0175,2.1491 6.3158,6.1403 12.763,14.737 -2.6316,1.3158 -5.3508,1.8421 2.6754,0.65789 7.3249,1.7982 1.5351,1.4912 2.5,1.4912 1.8421,0 1.9737,-4.0351 0,-2.1491 -1.6228,-5.4824 -4.8245,-7.3249 -15.044,-12.281 -2.3684,-1.0088 -3.3333,-1.0088 -1.2281,0 -1.2281,0.78947 z m -8.2456,5 q -2.8508,7.3249 -7.2364,12.719 -1.0965,1.1842 -2.5877,2.1052 -0.70175,0.35088 -0.70175,0.87719 0,0.65789 0.92104,0.65789 1.4474,0 4.9122,-1.5789 3.9035,-2.5 8.9473,-10.307 1.3596,-2.193 1.3596,-2.9824 0,-1.3596 -2.1491,-3.3772 -1.4035,-1.0965 -2.5877,-1.0965 -2.0175,0.17544 -2.0175,1.0088 0,0.52631 1.1404,1.9737 z"
           stroke-width="0.70175"
           id="path12159" />
        <path
           d="m 983.89,34.618 q -0.86692,0.86692 -2.4402,0.86692 -0.35319,0 -1.0917,-0.28897 -0.73849,-0.28897 -0.73849,-0.8027 0,-0.51373 1.5733,-0.51373 1.4128,0 2.6971,0.73849 z m -7.0956,-9.4398 q 0,0.73849 0.57795,0.73849 0.4174,0 1.1559,-0.48162 1.3806,-0.73849 5.3942,-1.8623 0.22476,7.0956 0.22476,8.1231 -0.8027,-0.22476 -1.5412,-0.22476 -2.5686,0 -3.8209,0.96324 -1.1559,0.89903 -1.1559,2.0549 0,1.0917 1.2522,2.1191 1.7017,1.4128 4.142,1.4128 2.3439,0 3.4035,-1.7659 0.99535,0.54584 2.3118,1.4128 0.48163,0.32108 0.99536,0.32108 1.1238,0 1.1238,-0.99535 0,-1.3164 -1.0596,-2.4723 -1.2522,-1.2522 -2.7292,-1.8623 -0.28897,-7.7378 -0.28897,-9.5682 1.6696,-0.57795 2.7613,-1.2201 0.64216,-0.3853 0.64216,-1.3164 0,-0.7706 -0.73849,-1.1238 -1.4128,-0.57795 -1.7338,-0.8027 -0.22475,-0.19265 -0.67427,-0.73849 -0.28897,-0.64216 -0.67427,-1.2201 -0.19265,-0.32108 -0.73848,-0.32108 -1.1238,0 -1.5091,0.7706 -0.38529,0.86692 -0.38529,2.0228 0,0.54584 0.0642,1.3806 -2.8255,1.0917 -5.2015,2.7934 -1.7981,1.4449 -1.7981,1.8623 z m -5.6829,8.6692 q -0.0963,-1.6375 -0.0963,-2.4081 0,-1.3485 0.25686,-2.5365 0.3853,-1.5412 2.087,-6.7751 0.25686,-0.8027 0.25686,-1.5412 0,-2.0549 -1.798,-4.1741 -0.35319,-0.44951 -0.86692,-0.44951 -0.8027,0 -0.8027,0.70638 0,0.3853 0.44951,1.4449 -1.1238,5.2339 -1.7017,9.0221 -0.48162,2.8897 -0.48162,4.752 0,2.8255 0.86692,6.1329 0.48162,1.7338 1.5412,1.7338 1.6054,0 1.6054,-1.8623 0,-0.44951 -0.0321,-1.4449 0.3853,-1.7338 1.7338,-7.6741 l -0.16054,-0.06422 q -1.7017,3.3392 -2.8576,5.1373 z"
           stroke-width="0.51373"
           id="path12161" />
        <path
           d="m 1011.8,29.256 q -0.61,1.8944 -2.7613,3.9814 l 0.096,0.16054 q 2.0549,-0.8027 3.7887,-1.5091 0.3532,0.35319 0.8669,0.35319 0.6422,0 1.3165,-0.93114 0.4495,-0.83481 0.4495,-2.7613 0,-2.5365 -3.4035,-5.7476 -2.6971,-2.0549 -4.2704,-2.0549 -0.899,0 -0.899,0.67427 0,0.67427 1.477,1.3485 2.376,3.4035 3.3392,6.4858 z m -8.9584,-3.0503 q -2.1833,3.7888 -4.0777,4.9447 -1.8623,-2.0549 -2.2797,-5.3942 -0.25687,-2.1834 -0.61006,-3.275 -1.0917,-2.7292 -2.2797,-2.7292 -0.80271,0 -0.80271,0.8027 0,0.57795 0.57795,1.6696 0,3.1145 0.22476,5.5868 0.32108,3.275 2.087,6.1966 1.6054,2.3118 3.6924,2.3118 1.60536,0 1.60536,-0.99535 0,-0.67427 -0.1605,-1.5412 1.0596,-3.1787 2.1833,-7.5133 z"
           stroke-width="0.51373"
           id="path12163" />
        <path
           d="m 1101.1,29.516 q -0.6628,1.7769 -3.0002,3.7345 l 0.1046,0.15058 q 2.2328,-0.75292 4.1167,-1.4155 0.3837,0.33129 0.9419,0.33129 0.6977,0 1.4304,-0.87339 0.4884,-0.78304 0.4884,-2.5901 0,-2.3792 -3.698,-5.3912 -2.9305,-1.9275 -4.64,-1.9275 -0.9768,0 -0.9768,0.63246 0,0.63245 1.6048,1.2649 2.5816,3.1924 3.6282,6.0836 z m -9.7337,-2.8611 q -2.3723,3.5538 -4.4306,4.638 -2.0235,-1.9275 -2.477,-5.0596 -0.2791,-2.0479 -0.6628,-3.0719 -1.1862,-2.5599 -2.477,-2.5599 -0.8722,0 -0.8722,0.75292 0,0.5421 0.628,1.5661 0,2.9213 0.2442,5.2403 0.3489,3.0719 2.2676,5.8123 1.7444,2.1684 4.012,2.1684 1.7444,0 1.7444,-0.93362 0,-0.63246 -0.1745,-1.4456 1.1513,-2.9816 2.3723,-7.0473 z"
           stroke-width="0.51863"
           id="path12165" />
        <path
           d="m 1112.9,21.414 q 4.1864,-0.84327 6.8378,-1.5962 2.7212,0 2.7212,-1.0842 0,-1.1746 -1.9188,-1.8974 -1.2211,-0.3614 -4.1516,-0.3614 -1.2908,-0.51199 -1.849,-0.51199 -0.4884,0 -0.4884,0.5421 0,1.8672 2.4421,2.6202 -0.4186,0.42164 -3.6631,2.1383 z m 4.291,3.7044 q -3.1398,3.855 -7.8844,8.0111 -1.3606,0.33129 -2.163,1.2348 -0.6628,0.84327 -0.6628,1.807 0,1.7769 1.5699,1.7769 0.8373,0 2.0932,-1.295 1.6746,-1.6564 3.6631,-3.7345 1.5001,-1.5661 2.2328,-1.5661 0.9768,0 0.9768,1.536 0,4.0055 1.0466,5.0895 1.7792,1.7769 6.4192,1.7769 1.221,0 2.2676,-0.3614 0.8024,-0.27105 0.8024,-1.3854 0,-0.81316 -0.9768,-1.5962 -0.9419,-0.78304 -1.9537,-0.78304 -0.5233,0 -1.535,0.45175 -0.8373,0 -2.0932,-0.06023 -1.0117,-0.06023 -1.0466,-2.0479 -0.07,-1.9877 -0.2791,-3.0117 -0.2093,-1.5962 -2.5467,-1.5962 2.1978,-1.9576 4.5004,-4.0658 1.7443,-0.66257 1.7443,-1.6263 0,-0.60234 -0.6628,-1.2047 -0.9769,-1.024 -1.849,-1.024 -0.5582,0 -1.7793,0.78304 -4.012,0.87339 -7.8146,1.8672 -0.8024,-0.66257 -1.3955,-0.66257 -0.2791,0 -0.5582,0.30117 -0.2791,0.30117 -0.2791,0.7228 0,0.84327 1.1164,1.8974 0.9419,0.84327 1.5001,0.84327 1.0815,0 5.547,-2.0781 z"
           stroke-width="0.51863"
           id="path12167" />
      </g>
    </g>
  </g>
  <path
     d="M 97.368194,79.9541 V 0.45428337"
     fill="none"
     marker-end="url(#marker2005)"
     marker-start="url(#marker1953)"
     opacity="0.994"
     stroke="#000000"
     stroke-width="0.300236"
     id="path15937" />
  <text
     xml:space="preserve"
     style="font-weight:bold;font-size:7.0556px;line-height:1.25;font-family:'EPSON 太明朝体Ｂ';-inkscape-font-specification:'EPSON 太明朝体Ｂ Bold';stroke-width:0.264585"
     x="100.91152"
     y="42.282066"
     id="text17481"><tspan
       sodipodi:role="line"
       id="tspan17479"
       style="font-style:normal;font-variant:normal;font-weight:normal;font-stretch:normal;font-size:7.0556px;font-family:Lato;-inkscape-font-specification:Lato;stroke-width:0.264585"
       x="100.91152"
       y="42.282066">305,904</tspan></text>
</svg>
