<?xml version="1.0" encoding="UTF-8"?>
<svg width="334.08" height="307" version="1.1" viewBox="0 0 334.08 307" xmlns="http://www.w3.org/2000/svg" xmlns:cc="http://creativecommons.org/ns#" xmlns:dc="http://purl.org/dc/elements/1.1/" xmlns:rdf="http://www.w3.org/1999/02/22-rdf-syntax-ns#">
 <title>Joystick Map</title>
 <metadata>
  <rdf:RDF>
   <cc:Work rdf:about="">
    <dc:format>image/svg+xml</dc:format>
    <dc:type rdf:resource="http://purl.org/dc/dcmitype/StillImage"/>
    <dc:title>Joystick Map</dc:title>
    <dc:date>19/07/2020</dc:date>
    <dc:creator>
     <cc:Agent>
      <dc:title>Wellington Terumi Uemura</dc:title>
     </cc:Agent>
    </dc:creator>
    <dc:rights>
     <cc:Agent>
      <dc:title>CC0</dc:title>
     </cc:Agent>
    </dc:rights>
    <dc:language>Brazilian Portuguese</dc:language>
    <dc:description>Joystick map for mamedoc</dc:description>
    <cc:license rdf:resource="http://creativecommons.org/publicdomain/zero/1.0/"/>
   </cc:Work>
   <cc:License rdf:about="http://creativecommons.org/publicdomain/zero/1.0/">
    <cc:permits rdf:resource="http://creativecommons.org/ns#Reproduction"/>
    <cc:permits rdf:resource="http://creativecommons.org/ns#Distribution"/>
    <cc:permits rdf:resource="http://creativecommons.org/ns#DerivativeWorks"/>
   </cc:License>
  </rdf:RDF>
 </metadata>
 <g>
  <path d="m0.42906 0.42236h333.28v306.08h-333.28z" fill="#f3f6f6" opacity=".6" stroke="#e2e4e5" stroke-linecap="square" stroke-linejoin="round" stroke-width=".8"/>
 </g>
 <g opacity=".5">
  <g fill="none" stroke="#969899" stroke-linecap="round" stroke-width="2">
   <path d="m119.22 281.32-0.04906-254.1"/>
   <path d="m214.97 281.32-0.04906-254.1"/>
   <path d="m31.58 107.67 270.98-0.0491" opacity="1"/>
   <path d="m31.58 199.31 270.98-0.0491" opacity="1"/>
  </g>
 </g>
 <g>
  <path d="m222.09 24.614h81.46v74.412h-81.46z" fill="#f3f6f6" stroke="#e2e4e5" stroke-linecap="square" stroke-linejoin="round" stroke-width=".20165"/>
  <g aria-label="S">
   <path d="m270.02 52.627q-0.168 0.28-0.37334 0.42933-0.18666 0.13067-0.46666 0.13067-0.31734 0-0.74667-0.31733t-1.0827-0.69067q-0.63467-0.392-1.5493-0.70933-0.896-0.31733-2.184-0.31733-1.2133 0-2.1467 0.336-0.91467 0.31733-1.5493 0.87733-0.616 0.56-0.93333 1.3253-0.31734 0.74667-0.31734 1.624 0 1.12 0.54134 1.8667 0.56 0.728 1.456 1.2507 0.91467 0.52267 2.0533 0.91467 1.1573 0.37333 2.352 0.784 1.2133 0.41067 2.352 0.93333 1.1573 0.504 2.0533 1.288 0.91467 0.784 1.456 1.9227 0.56 1.1387 0.56 2.8 0 1.7547-0.59733 3.304-0.59733 1.5307-1.7547 2.6693-1.1387 1.1387-2.8187 1.792-1.6613 0.65333-3.7893 0.65333-2.6133 0-4.7413-0.93333-2.128-0.952-3.64-2.5573l1.0453-1.7173q0.14933-0.20533 0.35466-0.336 0.224-0.14933 0.48534-0.14933 0.24266 0 0.54133 0.20533 0.31733 0.18667 0.70933 0.48533t0.896 0.65333q0.504 0.35467 1.1387 0.65333 0.65333 0.29867 1.4747 0.504 0.82133 0.18667 1.848 0.18667 1.288 0 2.296-0.35467 1.008-0.35467 1.6987-0.98933 0.70934-0.65333 1.0827-1.5493t0.37333-1.9973q0-1.2133-0.56-1.9787-0.54133-0.784-1.4373-1.3067-0.896-0.52267-2.0533-0.87733-1.1573-0.37333-2.352-0.74667-1.1947-0.392-2.352-0.896-1.1573-0.504-2.0533-1.3067t-1.456-1.9973q-0.54133-1.2133-0.54133-2.9867 0-1.4187 0.54133-2.744 0.56-1.3253 1.6053-2.352 1.064-1.0267 2.5947-1.6427 1.5493-0.616 3.5467-0.616 2.24 0 4.0693 0.70933 1.848 0.70933 3.248 2.0533z"/>
  </g>
 </g>
 <path d="m126.34 24.614h81.46v74.412h-81.46z" fill="#f3f6f6" stroke="#e2e4e5" stroke-linecap="square" stroke-linejoin="round" stroke-width=".20165"/>
 <g aria-label="CIMA">
  <path d="m149.61 64.343q0.096 0 0.168 0.078l0.462 0.498q-0.528 0.612-1.284 0.954-0.75 0.342-1.818 0.342-0.924 0-1.68-0.318-0.756-0.324-1.29-0.9-0.534-0.582-0.828-1.392t-0.294-1.782 0.306-1.782 0.858-1.392q0.558-0.582 1.332-0.9 0.774-0.324 1.71-0.324 0.918 0 1.62 0.294t1.236 0.798l-0.384 0.534q-0.036 0.06-0.096 0.102-0.054 0.036-0.15 0.036-0.108 0-0.264-0.114-0.156-0.12-0.408-0.264t-0.63-0.258q-0.378-0.12-0.93-0.12-0.666 0-1.218 0.234-0.552 0.228-0.954 0.666-0.396 0.438-0.618 1.068t-0.222 1.422q0 0.804 0.228 1.434 0.234 0.63 0.63 1.068 0.402 0.432 0.942 0.66 0.546 0.228 1.176 0.228 0.384 0 0.69-0.042 0.312-0.048 0.57-0.144 0.264-0.096 0.486-0.24 0.228-0.15 0.45-0.354 0.102-0.09 0.204-0.09z"/>
  <path d="m158.76 66.119h-1.164v-8.598h1.164z"/>
  <path d="m171.18 63.011q0.072 0.144 0.138 0.306 0.066 0.156 0.132 0.312 0.06-0.162 0.126-0.318 0.066-0.162 0.144-0.306l2.916-5.286q0.072-0.138 0.156-0.168 0.09-0.03 0.246-0.03h0.858v8.598h-1.02v-6.318q0-0.126 6e-3 -0.27t0.018-0.294l-2.946 5.376q-0.138 0.27-0.42 0.27h-0.168q-0.282 0-0.42-0.27l-3.012-5.394q0.018 0.156 0.024 0.306 0.012 0.15 0.012 0.276v6.318h-1.02v-8.598h0.858q0.156 0 0.24 0.03t0.162 0.168l2.97 5.292z"/>
  <path d="m191.09 66.119h-0.9q-0.156 0-0.252-0.078t-0.144-0.198l-0.804-2.076h-3.858l-0.804 2.076q-0.036 0.108-0.138 0.192t-0.252 0.084h-0.9l3.438-8.598h1.176zm-5.634-3.192h3.21l-1.35-3.498q-0.066-0.156-0.132-0.36-0.06-0.204-0.126-0.438-0.06 0.234-0.126 0.444-0.06 0.204-0.126 0.36z"/>
 </g>
 <g>
  <path d="m30.584 24.614h81.46v74.412h-81.46z" fill="#f3f6f6" stroke="#e2e4e5" stroke-linecap="square" stroke-linejoin="round" stroke-width=".20165"/>
  <g aria-label="S">
   <path d="m78.509 52.627q-0.168 0.28-0.37333 0.42933-0.18667 0.13067-0.46667 0.13067-0.31733 0-0.74667-0.31733t-1.0827-0.69067q-0.63467-0.392-1.5493-0.70933-0.896-0.31733-2.184-0.31733-1.2133 0-2.1467 0.336-0.91467 0.31733-1.5493 0.87733-0.616 0.56-0.93333 1.3253-0.31733 0.74667-0.31733 1.624 0 1.12 0.54133 1.8667 0.56 0.728 1.456 1.2507 0.91466 0.52267 2.0533 0.91467 1.1573 0.37333 2.352 0.784 1.2133 0.41067 2.352 0.93333 1.1573 0.504 2.0533 1.288 0.91467 0.784 1.456 1.9227 0.56 1.1387 0.56 2.8 0 1.7547-0.59733 3.304-0.59733 1.5307-1.7547 2.6693-1.1387 1.1387-2.8187 1.792-1.6613 0.65333-3.7893 0.65333-2.6133 0-4.7413-0.93333-2.128-0.952-3.64-2.5573l1.0453-1.7173q0.14933-0.20533 0.35467-0.336 0.224-0.14933 0.48533-0.14933 0.24267 0 0.54133 0.20533 0.31733 0.18667 0.70933 0.48533 0.392 0.29867 0.896 0.65333 0.504 0.35467 1.1387 0.65333 0.65333 0.29867 1.4747 0.504 0.82133 0.18667 1.848 0.18667 1.288 0 2.296-0.35467 1.008-0.35467 1.6987-0.98933 0.70933-0.65333 1.0827-1.5493t0.37333-1.9973q0-1.2133-0.56-1.9787-0.54133-0.784-1.4373-1.3067-0.896-0.52267-2.0533-0.87733-1.1573-0.37333-2.352-0.74667-1.1947-0.392-2.352-0.896-1.1573-0.504-2.0533-1.3067t-1.456-1.9973q-0.54133-1.2133-0.54133-2.9867 0-1.4187 0.54133-2.744 0.56-1.3253 1.6053-2.352 1.064-1.0267 2.5947-1.6427 1.5493-0.616 3.5467-0.616 2.24 0 4.0693 0.70933 1.848 0.70933 3.248 2.0533z"/>
  </g>
  <path d="m222.09 116.26h81.46v74.412h-81.46z" fill="#f3f6f6" stroke="#e2e4e5" stroke-linecap="square" stroke-linejoin="round" stroke-width=".20165"/>
  <g aria-label="DIREITA">
   <path d="m248.51 154.42q0 0.966-0.306 1.758t-0.864 1.356-1.344 0.876q-0.78 0.306-1.728 0.306h-3.21v-8.598h3.21q0.948 0 1.728 0.312 0.786 0.306 1.344 0.876 0.558 0.564 0.864 1.356t0.306 1.758zm-1.194 0q0-0.792-0.216-1.416t-0.612-1.056-0.96-0.66-1.26-0.228h-2.046v6.714h2.046q0.696 0 1.26-0.228t0.96-0.654q0.396-0.432 0.612-1.056t0.216-1.416z"/>
   <path d="m251.35 158.72h-1.164v-8.598h1.164z"/>
   <path d="m254.7 155.13v3.588h-1.158v-8.598h2.43q0.816 0 1.41 0.168 0.594 0.162 0.978 0.474 0.39 0.312 0.576 0.756 0.186 0.438 0.186 0.984 0 0.456-0.144 0.852t-0.42 0.714q-0.27 0.312-0.666 0.54-0.39 0.222-0.888 0.33 0.228 0.144 0.384 0.366l2.508 3.414h-1.032q-0.318 0-0.468-0.246l-2.232-3.072q-0.102-0.144-0.222-0.204-0.114-0.066-0.36-0.066zm0-0.846h1.224q0.504 0 0.888-0.12 0.39-0.126 0.648-0.348 0.264-0.228 0.396-0.54t0.132-0.69q0-0.768-0.504-1.158t-1.512-0.39h-1.272z"/>
   <path d="m266.36 150.12v0.948h-4.134v2.856h3.348v0.912h-3.348v2.934h4.14l-6e-3 0.948h-5.298v-8.598z"/>
   <path d="m269.16 158.72h-1.164v-8.598h1.164z"/>
   <path d="m277.17 150.12v0.978h-2.784v7.62h-1.158v-7.62h-2.79v-0.978z"/>
   <path d="m284.59 158.72h-0.9q-0.156 0-0.252-0.078t-0.144-0.198l-0.804-2.076h-3.858l-0.804 2.076q-0.036 0.108-0.138 0.192t-0.252 0.084h-0.9l3.438-8.598h1.176zm-5.634-3.192h3.21l-1.35-3.498q-0.066-0.156-0.132-0.36-0.06-0.204-0.126-0.438-0.06 0.234-0.126 0.444-0.06 0.204-0.126 0.36z"/>
  </g>
  <path d="m126.34 116.26h81.46v74.412h-81.46z" fill="#f3f6f6" stroke="#e2e4e5" stroke-linecap="square" stroke-linejoin="round" stroke-width=".20165"/>
  <g aria-label="NEUTRO">
   <path d="m136.29 147.73q0.104 0 0.176 0.016 0.072 8e-3 0.128 0.04 0.056 0.024 0.112 0.08 0.056 0.048 0.12 0.128l6.632 8.632q-0.016-0.208-0.032-0.4-8e-3 -0.2-8e-3 -0.376v-8.12h1.36v11.464h-0.776q-0.184 0-0.312-0.064-0.12-0.064-0.24-0.216l-6.632-8.632q0.016 0.2 0.024 0.392t8e-3 0.352v8.168h-1.36v-11.464h0.8z"/>
   <path d="m154.77 147.73v1.264h-5.512v3.808h4.464v1.216h-4.464v3.912h5.52l-8e-3 1.264h-7.064v-11.464z"/>
   <path d="m161.37 157.96q0.712 0 1.272-0.24t0.944-0.672q0.392-0.432 0.592-1.032 0.208-0.6 0.208-1.32v-6.968h1.544v6.968q0 0.992-0.32 1.84-0.312 0.848-0.904 1.472-0.584 0.616-1.432 0.968t-1.904 0.352-1.904-0.352-1.44-0.968q-0.592-0.624-0.912-1.472-0.312-0.848-0.312-1.84v-6.968h1.544v6.96q0 0.72 0.2 1.32 0.208 0.6 0.592 1.032 0.392 0.432 0.952 0.68 0.568 0.24 1.28 0.24z"/>
   <path d="m176.47 147.73v1.304h-3.712v10.16h-1.544v-10.16h-3.72v-1.304z"/>
   <path d="m179.71 154.41v4.784h-1.544v-11.464h3.24q1.088 0 1.88 0.224 0.792 0.216 1.304 0.632 0.52 0.416 0.768 1.008 0.248 0.584 0.248 1.312 0 0.608-0.192 1.136t-0.56 0.952q-0.36 0.416-0.888 0.72-0.52 0.296-1.184 0.44 0.304 0.192 0.512 0.488l3.344 4.552h-1.376q-0.424 0-0.624-0.328l-2.976-4.096q-0.136-0.192-0.296-0.272-0.152-0.088-0.48-0.088zm0-1.128h1.632q0.672 0 1.184-0.16 0.52-0.168 0.864-0.464 0.352-0.304 0.528-0.72t0.176-0.92q0-1.024-0.672-1.544t-2.016-0.52h-1.696z"/>
   <path d="m198.64 153.46q0 1.288-0.408 2.368-0.408 1.072-1.152 1.848t-1.792 1.208q-1.04 0.424-2.304 0.424t-2.304-0.424q-1.04-0.432-1.784-1.208t-1.152-1.848q-0.408-1.08-0.408-2.368t0.408-2.36q0.408-1.08 1.152-1.856 0.744-0.784 1.784-1.216t2.304-0.432 2.304 0.432q1.048 0.432 1.792 1.216 0.744 0.776 1.152 1.856 0.408 1.072 0.408 2.36zm-1.592 0q0-1.056-0.288-1.896t-0.816-1.416q-0.528-0.584-1.28-0.896t-1.68-0.312q-0.92 0-1.672 0.312t-1.288 0.896q-0.528 0.576-0.816 1.416t-0.288 1.896 0.288 1.896q0.288 0.832 0.816 1.416 0.536 0.576 1.288 0.888 0.752 0.304 1.672 0.304 0.928 0 1.68-0.304 0.752-0.312 1.28-0.888 0.528-0.584 0.816-1.416 0.288-0.84 0.288-1.896z"/>
  </g>
  <path d="m30.584 116.26h81.46v74.412h-81.46z" fill="#f3f6f6" stroke="#e2e4e5" stroke-linecap="square" stroke-linejoin="round" stroke-width=".20165"/>
  <g aria-label="ESQUERDA">
   <path d="m45.511 148.71v0.948h-4.134v2.856h3.348v0.912h-3.348v2.934h4.14l-6e-3 0.948h-5.298v-8.598z"/>
   <path d="m51.541 150.05q-0.054 0.09-0.12 0.138-0.06 0.042-0.15 0.042-0.102 0-0.24-0.102t-0.348-0.222q-0.204-0.126-0.498-0.228-0.288-0.102-0.702-0.102-0.39 0-0.69 0.108-0.294 0.102-0.498 0.282-0.198 0.18-0.3 0.426-0.102 0.24-0.102 0.522 0 0.36 0.174 0.6 0.18 0.234 0.468 0.402 0.294 0.168 0.66 0.294 0.372 0.12 0.756 0.252 0.39 0.132 0.756 0.3 0.372 0.162 0.66 0.414 0.294 0.252 0.468 0.618 0.18 0.366 0.18 0.9 0 0.564-0.192 1.062-0.192 0.492-0.564 0.858-0.366 0.366-0.906 0.576-0.534 0.21-1.218 0.21-0.84 0-1.524-0.3-0.684-0.306-1.17-0.822l0.336-0.552q0.048-0.066 0.114-0.108 0.072-0.048 0.156-0.048 0.078 0 0.174 0.066 0.102 0.06 0.228 0.156t0.288 0.21 0.366 0.21q0.21 0.096 0.474 0.162 0.264 0.06 0.594 0.06 0.414 0 0.738-0.114t0.546-0.318q0.228-0.21 0.348-0.498t0.12-0.642q0-0.39-0.18-0.636-0.174-0.252-0.462-0.42t-0.66-0.282q-0.372-0.12-0.756-0.24-0.384-0.126-0.756-0.288t-0.66-0.42-0.468-0.642q-0.174-0.39-0.174-0.96 0-0.456 0.174-0.882 0.18-0.426 0.516-0.756 0.342-0.33 0.834-0.528 0.498-0.198 1.14-0.198 0.72 0 1.308 0.228 0.594 0.228 1.044 0.66z"/>
   <path d="m61.603 153.01q0 0.606-0.126 1.158-0.12 0.546-0.354 1.014t-0.57 0.852-0.756 0.666l2.202 2.382h-0.96q-0.216 0-0.384-0.06t-0.306-0.21l-1.506-1.644q-0.342 0.108-0.714 0.168-0.366 0.06-0.768 0.06-0.948 0-1.728-0.318-0.78-0.324-1.338-0.906t-0.864-1.386q-0.306-0.81-0.306-1.776t0.306-1.77q0.306-0.81 0.864-1.392 0.558-0.588 1.338-0.912t1.728-0.324 1.728 0.324q0.786 0.324 1.344 0.912 0.558 0.582 0.864 1.392 0.306 0.804 0.306 1.77zm-1.194 0q0-0.792-0.216-1.422t-0.612-1.062q-0.396-0.438-0.96-0.672t-1.26-0.234q-0.69 0-1.254 0.234t-0.966 0.672q-0.396 0.432-0.612 1.062t-0.216 1.422 0.216 1.422q0.216 0.624 0.612 1.062 0.402 0.432 0.966 0.666 0.564 0.228 1.254 0.228 0.696 0 1.26-0.228 0.564-0.234 0.96-0.666 0.396-0.438 0.612-1.062 0.216-0.63 0.216-1.422z"/>
   <path d="m66.576 156.38q0.534 0 0.954-0.18t0.708-0.504q0.294-0.324 0.444-0.774 0.156-0.45 0.156-0.99v-5.226h1.158v5.226q0 0.744-0.24 1.38-0.234 0.636-0.678 1.104-0.438 0.462-1.074 0.726t-1.428 0.264-1.428-0.264-1.08-0.726q-0.444-0.468-0.684-1.104-0.234-0.636-0.234-1.38v-5.226h1.158v5.22q0 0.54 0.15 0.99 0.156 0.45 0.444 0.774 0.294 0.324 0.714 0.51 0.426 0.18 0.96 0.18z"/>
   <path d="m77.382 148.71v0.948h-4.134v2.856h3.348v0.912h-3.348v2.934h4.14l-6e-3 0.948h-5.298v-8.598z"/>
   <path d="m80.172 153.72v3.588h-1.158v-8.598h2.43q0.816 0 1.41 0.168 0.594 0.162 0.978 0.474 0.39 0.312 0.576 0.756 0.186 0.438 0.186 0.984 0 0.456-0.144 0.852t-0.42 0.714q-0.27 0.312-0.666 0.54-0.39 0.222-0.888 0.33 0.228 0.144 0.384 0.366l2.508 3.414h-1.032q-0.318 0-0.468-0.246l-2.232-3.072q-0.102-0.144-0.222-0.204-0.114-0.066-0.36-0.066zm0-0.846h1.224q0.504 0 0.888-0.12 0.39-0.126 0.648-0.348 0.264-0.228 0.396-0.54t0.132-0.69q0-0.768-0.504-1.158t-1.512-0.39h-1.272z"/>
   <path d="m93.984 153.01q0 0.966-0.306 1.758t-0.864 1.356-1.344 0.876q-0.78 0.306-1.728 0.306h-3.21v-8.598h3.21q0.948 0 1.728 0.312 0.786 0.306 1.344 0.876 0.558 0.564 0.864 1.356t0.306 1.758zm-1.194 0q0-0.792-0.216-1.416t-0.612-1.056-0.96-0.66-1.26-0.228h-2.046v6.714h2.046q0.696 0 1.26-0.228t0.96-0.654q0.396-0.432 0.612-1.056t0.216-1.416z"/>
   <path d="m102.41 157.3h-0.9q-0.156 0-0.252-0.078t-0.144-0.198l-0.804-2.076h-3.858l-0.804 2.076q-0.036 0.108-0.138 0.192t-0.252 0.084h-0.9l3.438-8.598h1.176zm-5.634-3.192h3.21l-1.35-3.498q-0.066-0.156-0.132-0.36-0.06-0.204-0.126-0.438-0.06 0.234-0.126 0.444-0.06 0.204-0.126 0.36z"/>
  </g>
  <path d="m222.09 207.9h81.46v74.412h-81.46z" fill="#f3f6f6" stroke="#e2e4e5" stroke-linecap="square" stroke-linejoin="round" stroke-width=".20165"/>
  <g aria-label="S">
   <path d="m270.02 235.91q-0.168 0.28-0.37334 0.42933-0.18666 0.13067-0.46666 0.13067-0.31734 0-0.74667-0.31734-0.42933-0.31733-1.0827-0.69066-0.63467-0.392-1.5493-0.70934-0.896-0.31733-2.184-0.31733-1.2133 0-2.1467 0.336-0.91467 0.31733-1.5493 0.87733-0.616 0.56-0.93333 1.3253-0.31734 0.74666-0.31734 1.624 0 1.12 0.54134 1.8667 0.56 0.728 1.456 1.2507 0.91467 0.52267 2.0533 0.91467 1.1573 0.37333 2.352 0.784 1.2133 0.41067 2.352 0.93333 1.1573 0.504 2.0533 1.288 0.91467 0.784 1.456 1.9227 0.56 1.1387 0.56 2.8 0 1.7547-0.59733 3.304-0.59733 1.5307-1.7547 2.6693-1.1387 1.1387-2.8187 1.792-1.6613 0.65333-3.7893 0.65333-2.6133 0-4.7413-0.93333-2.128-0.952-3.64-2.5573l1.0453-1.7173q0.14933-0.20534 0.35466-0.336 0.224-0.14934 0.48534-0.14934 0.24266 0 0.54133 0.20534 0.31733 0.18666 0.70933 0.48533t0.896 0.65333q0.504 0.35467 1.1387 0.65334 0.65333 0.29866 1.4747 0.504 0.82133 0.18666 1.848 0.18666 1.288 0 2.296-0.35466 1.008-0.35467 1.6987-0.98934 0.70934-0.65333 1.0827-1.5493t0.37333-1.9973q0-1.2133-0.56-1.9787-0.54133-0.78399-1.4373-1.3067t-2.0533-0.87733q-1.1573-0.37334-2.352-0.74667-1.1947-0.392-2.352-0.896-1.1573-0.504-2.0533-1.3067-0.896-0.80267-1.456-1.9973-0.54133-1.2133-0.54133-2.9867 0-1.4187 0.54133-2.744 0.56-1.3253 1.6053-2.352 1.064-1.0267 2.5947-1.6427 1.5493-0.616 3.5467-0.616 2.24 0 4.0693 0.70933 1.848 0.70934 3.248 2.0533z"/>
  </g>
  <path d="m126.34 207.9h81.46v74.412h-81.46z" fill="#f3f6f6" stroke="#e2e4e5" stroke-linecap="square" stroke-linejoin="round" stroke-width=".20165"/>
  <g aria-label="BAIXO">
   <path d="m137.82 249.41v-8.598h2.742q0.792 0 1.362 0.156 0.576 0.156 0.942 0.444 0.372 0.288 0.546 0.708 0.174 0.414 0.174 0.936 0 0.318-0.102 0.612-0.096 0.294-0.294 0.546t-0.504 0.45q-0.3 0.198-0.708 0.324 0.942 0.186 1.422 0.678t0.48 1.296q0 0.546-0.204 0.996-0.198 0.45-0.588 0.774-0.384 0.324-0.948 0.504-0.564 0.174-1.284 0.174zm1.158-3.918v2.994h1.86q0.498 0 0.858-0.114t0.588-0.318q0.234-0.21 0.342-0.492 0.108-0.288 0.108-0.63 0-0.666-0.474-1.05-0.474-0.39-1.422-0.39zm0-0.828h1.536q0.492 0 0.852-0.108 0.366-0.108 0.6-0.3 0.24-0.192 0.354-0.462 0.114-0.276 0.114-0.6 0-0.762-0.456-1.11-0.456-0.354-1.416-0.354h-1.584z"/>
   <path d="m158.44 249.41h-0.9q-0.156 0-0.252-0.078t-0.144-0.198l-0.804-2.076h-3.858l-0.804 2.076q-0.036 0.108-0.138 0.192t-0.252 0.084h-0.9l3.438-8.598h1.176zm-5.634-3.192h3.21l-1.35-3.498q-0.066-0.156-0.132-0.36-0.06-0.204-0.126-0.438-0.06 0.234-0.126 0.444-0.06 0.204-0.126 0.36z"/>
   <path d="m166.74 249.41h-1.164v-8.598h1.164z"/>
   <path d="m176.92 244.99-2.838-4.182h1.158q0.126 0 0.186 0.042t0.108 0.12l2.244 3.444q0.042-0.126 0.126-0.276l2.118-3.144q0.048-0.084 0.114-0.132 0.066-0.054 0.156-0.054h1.11l-2.85 4.128 2.946 4.47h-1.152q-0.132 0-0.21-0.066-0.072-0.072-0.12-0.156l-2.304-3.606q-0.042 0.126-0.108 0.24l-2.244 3.366q-0.06 0.084-0.132 0.156-0.066 0.066-0.186 0.066h-1.08z"/>
   <path d="m196.32 245.11q0 0.966-0.306 1.776-0.306 0.804-0.864 1.386t-1.344 0.906q-0.78 0.318-1.728 0.318t-1.728-0.318q-0.78-0.324-1.338-0.906t-0.864-1.386q-0.306-0.81-0.306-1.776t0.306-1.77q0.306-0.81 0.864-1.392 0.558-0.588 1.338-0.912t1.728-0.324 1.728 0.324q0.786 0.324 1.344 0.912 0.558 0.582 0.864 1.392 0.306 0.804 0.306 1.77zm-1.194 0q0-0.792-0.216-1.422t-0.612-1.062q-0.396-0.438-0.96-0.672t-1.26-0.234q-0.69 0-1.254 0.234t-0.966 0.672q-0.396 0.432-0.612 1.062t-0.216 1.422 0.216 1.422q0.216 0.624 0.612 1.062 0.402 0.432 0.966 0.666 0.564 0.228 1.254 0.228 0.696 0 1.26-0.228 0.564-0.234 0.96-0.666 0.396-0.438 0.612-1.062 0.216-0.63 0.216-1.422z"/>
  </g>
  <path d="m30.584 207.9h81.46v74.412h-81.46z" fill="#f3f6f6" stroke="#e2e4e5" stroke-linecap="square" stroke-linejoin="round" stroke-width=".20165"/>
  <text x="147.92969" y="236.98828" font-family="lato" font-size="18.667px" letter-spacing="0px" word-spacing="0px" style="line-height:1.25" xml:space="preserve"><tspan x="147.92969" y="236.98828"/></text>
  <g aria-label="S">
   <path d="m78.509 235.91q-0.168 0.28-0.37333 0.42933-0.18667 0.13067-0.46667 0.13067-0.31733 0-0.74667-0.31734-0.42933-0.31733-1.0827-0.69066-0.63467-0.392-1.5493-0.70934-0.896-0.31733-2.184-0.31733-1.2133 0-2.1467 0.336-0.91467 0.31733-1.5493 0.87733-0.616 0.56-0.93333 1.3253-0.31733 0.74666-0.31733 1.624 0 1.12 0.54133 1.8667 0.56 0.728 1.456 1.2507 0.91466 0.52267 2.0533 0.91467 1.1573 0.37333 2.352 0.784 1.2133 0.41067 2.352 0.93333 1.1573 0.504 2.0533 1.288 0.91467 0.784 1.456 1.9227 0.56 1.1387 0.56 2.8 0 1.7547-0.59733 3.304-0.59733 1.5307-1.7547 2.6693-1.1387 1.1387-2.8187 1.792-1.6613 0.65333-3.7893 0.65333-2.6133 0-4.7413-0.93333-2.128-0.952-3.64-2.5573l1.0453-1.7173q0.14933-0.20534 0.35467-0.336 0.224-0.14934 0.48533-0.14934 0.24267 0 0.54133 0.20534 0.31733 0.18666 0.70933 0.48533 0.392 0.29867 0.896 0.65333 0.504 0.35467 1.1387 0.65334 0.65333 0.29866 1.4747 0.504 0.82133 0.18666 1.848 0.18666 1.288 0 2.296-0.35466 1.008-0.35467 1.6987-0.98934 0.70933-0.65333 1.0827-1.5493t0.37333-1.9973q0-1.2133-0.56-1.9787-0.54133-0.78399-1.4373-1.3067t-2.0533-0.87733q-1.1573-0.37334-2.352-0.74667-1.1947-0.392-2.352-0.896-1.1573-0.504-2.0533-1.3067-0.896-0.80267-1.456-1.9973-0.54133-1.2133-0.54133-2.9867 0-1.4187 0.54133-2.744 0.56-1.3253 1.6053-2.352 1.064-1.0267 2.5947-1.6427 1.5493-0.616 3.5467-0.616 2.24 0 4.0693 0.70933 1.848 0.70934 3.248 2.0533z"/>
  </g>
 </g>
 <path transform="matrix(.7272 -.68643 .7272 .68643 0 0)" d="m-82.17 130.3h170.52c6.1439 0 11.09 4.9462 11.09 11.09v170.52c0 6.1439-4.9462 11.09-11.09 11.09h-170.52c-6.1439 0-11.09-4.9462-11.09-11.09v-170.52c0-6.1439 4.9462-11.09 11.09-11.09z" fill="none" stroke="#969899" stroke-linecap="round" stroke-linejoin="round" stroke-width="1.8741"/>
</svg>
