<?xml version="1.0" encoding="UTF-8"?>
<svg width="334.08" height="307" version="1.1" viewBox="0 0 334.08 307" xmlns="http://www.w3.org/2000/svg" xmlns:cc="http://creativecommons.org/ns#" xmlns:dc="http://purl.org/dc/elements/1.1/" xmlns:rdf="http://www.w3.org/1999/02/22-rdf-syntax-ns#">
 <title>Joystick Map</title>
 <metadata>
  <rdf:RDF>
   <cc:Work rdf:about="">
    <dc:format>image/svg+xml</dc:format>
    <dc:type rdf:resource="http://purl.org/dc/dcmitype/StillImage"/>
    <dc:title>Joystick Map</dc:title>
    <dc:date>19/07/2020</dc:date>
    <dc:creator>
     <cc:Agent>
      <dc:title>Wellington Terumi Uemura</dc:title>
     </cc:Agent>
    </dc:creator>
    <dc:rights>
     <cc:Agent>
      <dc:title>CC0</dc:title>
     </cc:Agent>
    </dc:rights>
    <dc:language>Brazilian Portuguese</dc:language>
    <dc:description>Joystick map for mamedoc</dc:description>
    <cc:license rdf:resource="http://creativecommons.org/publicdomain/zero/1.0/"/>
   </cc:Work>
   <cc:License rdf:about="http://creativecommons.org/publicdomain/zero/1.0/">
    <cc:permits rdf:resource="http://creativecommons.org/ns#Reproduction"/>
    <cc:permits rdf:resource="http://creativecommons.org/ns#Distribution"/>
    <cc:permits rdf:resource="http://creativecommons.org/ns#DerivativeWorks"/>
   </cc:License>
  </rdf:RDF>
 </metadata>
 <g>
  <path d="m0.42906 0.42236h333.28v306.08h-333.28z" fill="#f3f6f6" opacity=".6" stroke="#e2e4e5" stroke-linecap="square" stroke-linejoin="round" stroke-width=".8"/>
 </g>
 <g opacity=".5">
  <g fill="none" stroke="#969899" stroke-linecap="round" stroke-width="2">
   <path d="m119.22 281.32-0.04906-254.1"/>
   <path d="m214.97 281.32-0.04906-254.1"/>
   <path d="m31.58 107.67 270.98-0.0491" opacity="1"/>
   <path d="m31.58 199.31 270.98-0.0491" opacity="1"/>
  </g>
 </g>
 <g>
  <path d="m222.09 24.614h81.46v74.412h-81.46z" fill="#f3f6f6" stroke="#e2e4e5" stroke-linecap="square" stroke-linejoin="round" stroke-width=".20165"/>
  <g aria-label="CANTO SUPERIOR DIREITO">
   <path d="m247.45 47.96q0.10667 0 0.18667 0.08667l0.51333 0.55333q-0.58667 0.68-1.4267 1.06-0.83334 0.38-2.02 0.38-1.0267 0-1.8667-0.35333-0.84-0.36-1.4333-1-0.59333-0.64666-0.92-1.5467-0.32666-0.9-0.32666-1.98 0-1.08 0.33999-1.98 0.34-0.9 0.95334-1.5467 0.61999-0.64666 1.48-1 0.86-0.36 1.9-0.36 1.02 0 1.8 0.32667t1.3733 0.88666l-0.42666 0.59333q-0.04 0.06667-0.10667 0.11333-0.06 0.04-0.16667 0.04-0.12 0-0.29333-0.12667-0.17333-0.13333-0.45333-0.29333-0.28-0.16-0.7-0.28667-0.42-0.13333-1.0333-0.13333-0.74 0-1.3533 0.26-0.61333 0.25333-1.06 0.74-0.44 0.48666-0.68666 1.1867-0.24667 0.7-0.24667 1.58 0 0.89333 0.25333 1.5933 0.26 0.7 0.7 1.1867 0.44667 0.48 1.0467 0.73333 0.60666 0.25333 1.3067 0.25333 0.42667 0 0.76667-0.04667 0.34666-0.05333 0.63333-0.16 0.29333-0.10667 0.54-0.26667 0.25333-0.16667 0.49999-0.39333 0.11334-0.1 0.22667-0.1z"/>
   <path d="m257.42 49.933h-1q-0.17333 0-0.27999-0.08667-0.10667-0.08667-0.16-0.22l-0.89334-2.3067h-4.2866l-0.89333 2.3067q-0.04 0.12-0.15334 0.21333-0.11333 0.09333-0.27999 0.09333h-1l3.82-9.5533h1.3067zm-6.26-3.5467h3.5667l-1.5-3.8867q-0.0733-0.17333-0.14667-0.4-0.0667-0.22667-0.14-0.48666-0.0667 0.26-0.14 0.49333-0.0667 0.22667-0.14 0.4z"/>
   <path d="m259.34 40.38q0.0867 0 0.14667 0.01333 0.06 0.0067 0.10666 0.03333 0.0467 0.02 0.0933 0.06667 0.0467 0.04 0.1 0.10667l5.5266 7.1933q-0.0133-0.17333-0.0267-0.33333-7e-3 -0.16667-7e-3 -0.31333v-6.7666h1.1333v9.5533h-0.64667q-0.15333 0-0.26-0.05333-0.1-0.05333-0.2-0.18l-5.5266-7.1933q0.0133 0.16667 0.02 0.32667 7e-3 0.16 7e-3 0.29333v6.8066h-1.1333v-9.5533h0.66667z"/>
   <path d="m275.32 40.38v1.0867h-3.0933v8.4666h-1.2867v-8.4666h-3.1v-1.0867z"/>
   <path d="m285.13 45.16q0 1.0733-0.33999 1.9733-0.34 0.89333-0.96 1.54t-1.4933 1.0067q-0.86667 0.35333-1.92 0.35333t-1.92-0.35333q-0.86667-0.36-1.4867-1.0067-0.62-0.64666-0.96-1.54-0.34-0.9-0.34-1.9733 0-1.0733 0.34-1.9667 0.34-0.9 0.96-1.5467 0.61999-0.65333 1.4867-1.0133 0.86666-0.36 1.92-0.36t1.92 0.36q0.87333 0.36 1.4933 1.0133 0.62 0.64666 0.96 1.5467 0.33999 0.89333 0.33999 1.9667zm-1.3267 0q0-0.88-0.24-1.58-0.24-0.7-0.68-1.18-0.44-0.48666-1.0667-0.74666-0.62667-0.26-1.4-0.26-0.76666 0-1.3933 0.26-0.62666 0.26-1.0733 0.74666-0.44 0.48-0.68 1.18-0.23999 0.7-0.23999 1.58 0 0.88 0.23999 1.58 0.24 0.69333 0.68 1.18 0.44667 0.48 1.0733 0.74 0.62667 0.25333 1.3933 0.25333 0.77333 0 1.4-0.25333 0.62666-0.26 1.0667-0.74 0.44-0.48667 0.68-1.18 0.24-0.7 0.24-1.58z"/>
   <path d="m236.82 58.54q-0.06 0.1-0.13333 0.15333-0.0667 0.04667-0.16667 0.04667-0.11333 0-0.26666-0.11333t-0.38667-0.24667q-0.22666-0.14-0.55333-0.25333-0.32-0.11333-0.78-0.11333-0.43333 0-0.76666 0.12-0.32667 0.11333-0.55333 0.31333-0.22 0.2-0.33334 0.47333-0.11333 0.26667-0.11333 0.58 0 0.4 0.19333 0.66666 0.2 0.26 0.52 0.44667 0.32667 0.18667 0.73333 0.32667 0.41334 0.13333 0.84 0.28 0.43333 0.14667 0.84 0.33333 0.41333 0.18 0.73333 0.46 0.32667 0.28 0.52 0.68666 0.2 0.40667 0.2 1 0 0.62666-0.21333 1.18-0.21334 0.54666-0.62667 0.95333-0.40666 0.40666-1.0067 0.64-0.59334 0.23333-1.3533 0.23333-0.93333 0-1.6933-0.33333-0.76-0.34-1.3-0.91333l0.37333-0.61333q0.0533-0.07333 0.12667-0.12 0.08-0.05333 0.17333-0.05333 0.0867 0 0.19334 0.07333 0.11333 0.06667 0.25333 0.17333 0.14 0.10667 0.32 0.23333 0.18 0.12667 0.40666 0.23333 0.23334 0.10667 0.52667 0.18 0.29333 0.06667 0.66 0.06667 0.46 0 0.81999-0.12667 0.36-0.12667 0.60667-0.35333 0.25333-0.23333 0.38667-0.55333 0.13333-0.32 0.13333-0.71333 0-0.43333-0.2-0.70666-0.19333-0.28-0.51333-0.46667-0.32-0.18667-0.73333-0.31333-0.41334-0.13333-0.84-0.26667-0.42667-0.14-0.84-0.32-0.41333-0.18-0.73333-0.46667t-0.52-0.71333q-0.19333-0.43333-0.19333-1.0667 0-0.50667 0.19333-0.98 0.2-0.47333 0.57333-0.84 0.38-0.36666 0.92667-0.58666 0.55333-0.22 1.2667-0.22 0.8 0 1.4533 0.25333 0.66 0.25333 1.16 0.73333z"/>
   <path d="m242.85 65.573q0.59333 0 1.06-0.2 0.46667-0.2 0.78667-0.56 0.32666-0.36 0.49333-0.86 0.17333-0.5 0.17333-1.1v-5.8067h1.2867v5.8067q0 0.82666-0.26667 1.5333-0.26 0.70666-0.75333 1.2267-0.48667 0.51333-1.1933 0.80666-0.70667 0.29333-1.5867 0.29333-0.88 0-1.5867-0.29333-0.70666-0.29333-1.2-0.80666-0.49334-0.52-0.76-1.2267-0.26-0.70666-0.26-1.5333v-5.8067h1.2867v5.8q0 0.6 0.16667 1.1 0.17333 0.5 0.49333 0.86 0.32667 0.36 0.79333 0.56666 0.47333 0.2 1.0667 0.2z"/>
   <path d="m250.26 63.027v3.5733h-1.2867v-9.5533h2.82q0.90666 0 1.5733 0.21333 0.67333 0.20667 1.1133 0.59333 0.44 0.38666 0.65333 0.93333 0.22 0.54666 0.22 1.22 0 0.66666-0.23333 1.22-0.23333 0.55333-0.68667 0.95333-0.44666 0.4-1.1133 0.62667-0.66 0.22-1.5267 0.22zm0-1.0267h1.5333q0.55333 0 0.97333-0.14667 0.42667-0.14667 0.71333-0.40667 0.29334-0.26667 0.44-0.63333 0.14667-0.36666 0.14667-0.80666 0-0.91333-0.56667-1.4267-0.56-0.51333-1.7067-0.51333h-1.5333z"/>
   <path d="m262.86 57.047v1.0533h-4.5933v3.1733h3.72v1.0133h-3.72v3.26h4.6l-7e-3 1.0533h-5.8866v-9.5533z"/>
   <path d="m265.96 62.613v3.9867h-1.2867v-9.5533h2.7q0.90666 0 1.5667 0.18667 0.66 0.18 1.0867 0.52667 0.43334 0.34666 0.64 0.84 0.20667 0.48666 0.20667 1.0933 0 0.50666-0.16 0.94666t-0.46667 0.79333q-0.3 0.34666-0.74 0.6-0.43333 0.24667-0.98666 0.36667 0.25333 0.16 0.42667 0.40667l2.7867 3.7933h-1.1467q-0.35333 0-0.52-0.27333l-2.48-3.4133q-0.11333-0.16-0.24667-0.22667-0.12666-0.07333-0.4-0.07333zm0-0.94h1.36q0.56 0 0.98667-0.13333 0.43333-0.14 0.72-0.38667 0.29333-0.25333 0.43999-0.6 0.14667-0.34667 0.14667-0.76666 0-0.85333-0.56-1.2867t-1.68-0.43333h-1.4133z"/>
   <path d="m274.32 66.6h-1.2933v-9.5533h1.2933z"/>
   <path d="m285.59 61.827q0 1.0733-0.34 1.9733-0.34 0.89333-0.96 1.54-0.62 0.64667-1.4933 1.0067-0.86666 0.35333-1.92 0.35333-1.0533 0-1.92-0.35333-0.86666-0.36-1.4867-1.0067-0.62-0.64666-0.96-1.54-0.34-0.9-0.34-1.9733t0.34-1.9667q0.34-0.9 0.96-1.5467 0.62-0.65333 1.4867-1.0133t1.92-0.36q1.0533 0 1.92 0.36 0.87333 0.36 1.4933 1.0133 0.62 0.64666 0.96 1.5467 0.34 0.89333 0.34 1.9667zm-1.3267 0q0-0.88-0.24-1.58t-0.67999-1.18q-0.44-0.48666-1.0667-0.74666-0.62666-0.26-1.4-0.26-0.76667 0-1.3933 0.26-0.62667 0.26-1.0733 0.74666-0.44 0.48-0.68 1.18t-0.24 1.58 0.24 1.58q0.24 0.69333 0.68 1.18 0.44666 0.48 1.0733 0.74 0.62666 0.25333 1.3933 0.25333 0.77333 0 1.4-0.25333 0.62667-0.26 1.0667-0.74 0.43999-0.48666 0.67999-1.18 0.24-0.7 0.24-1.58z"/>
   <path d="m288.72 62.613v3.9867h-1.2867v-9.5533h2.7q0.90666 0 1.5667 0.18667 0.66 0.18 1.0867 0.52667 0.43333 0.34666 0.64 0.84 0.20667 0.48666 0.20667 1.0933 0 0.50666-0.16 0.94666t-0.46667 0.79333q-0.3 0.34666-0.74 0.6-0.43333 0.24667-0.98666 0.36667 0.25333 0.16 0.42667 0.40667l2.7867 3.7933h-1.1467q-0.35333 0-0.52-0.27333l-2.48-3.4133q-0.11333-0.16-0.24667-0.22667-0.12666-0.07333-0.4-0.07333zm0-0.94h1.36q0.56 0 0.98667-0.13333 0.43333-0.14 0.72-0.38667 0.29333-0.25333 0.43999-0.6 0.14667-0.34667 0.14667-0.76666 0-0.85333-0.56-1.2867t-1.68-0.43333h-1.4133z"/>
   <path d="m246.25 78.493q0 1.0733-0.34 1.9533t-0.96 1.5067q-0.61999 0.62666-1.4933 0.97333-0.86666 0.34-1.92 0.34h-3.5667v-9.5533h3.5667q1.0533 0 1.92 0.34666 0.87334 0.34 1.4933 0.97333 0.62 0.62666 0.96 1.5067t0.34 1.9533zm-1.3267 0q0-0.88-0.24-1.5733-0.24-0.69333-0.68-1.1733t-1.0667-0.73333q-0.62667-0.25333-1.4-0.25333h-2.2733v7.46h2.2733q0.77333 0 1.4-0.25333 0.62666-0.25333 1.0667-0.72666 0.44-0.48 0.68-1.1733t0.24-1.5733z"/>
   <path d="m249.4 83.267h-1.2933v-9.5533h1.2933z"/>
   <path d="m253.13 79.28v3.9867h-1.2867v-9.5533h2.7q0.90666 0 1.5667 0.18667 0.66 0.18 1.0867 0.52666 0.43334 0.34667 0.64 0.84 0.20667 0.48667 0.20667 1.0933 0 0.50666-0.16 0.94666t-0.46667 0.79333q-0.3 0.34667-0.74 0.6-0.43333 0.24667-0.98666 0.36666 0.25333 0.16 0.42667 0.40667l2.7867 3.7933h-1.1467q-0.35333 0-0.52-0.27333l-2.48-3.4133q-0.11333-0.16-0.24667-0.22667-0.12666-0.07333-0.4-0.07333zm0-0.94h1.36q0.56 0 0.98667-0.13333 0.43333-0.14 0.72-0.38667 0.29333-0.25333 0.43999-0.6 0.14667-0.34666 0.14667-0.76666 0-0.85333-0.56-1.2867-0.56-0.43333-1.68-0.43333h-1.4133z"/>
   <path d="m266.08 73.713v1.0533h-4.5933v3.1733h3.72v1.0133h-3.72v3.26h4.6l-7e-3 1.0533h-5.8867v-9.5533z"/>
   <path d="m269.19 83.267h-1.2933v-9.5533h1.2933z"/>
   <path d="m278.09 73.713v1.0867h-3.0933v8.4666h-1.2867v-8.4666h-3.1v-1.0867z"/>
   <path d="m287.9 78.493q0 1.0733-0.34 1.9733-0.33999 0.89333-0.95999 1.54t-1.4933 1.0067q-0.86667 0.35333-1.92 0.35333t-1.92-0.35333q-0.86667-0.36-1.4867-1.0067-0.61999-0.64666-0.95999-1.54-0.34-0.9-0.34-1.9733 0-1.0733 0.34-1.9667 0.34-0.9 0.95999-1.5467 0.62-0.65333 1.4867-1.0133 0.86666-0.36 1.92-0.36t1.92 0.36q0.87333 0.36 1.4933 1.0133 0.62 0.64666 0.95999 1.5467 0.34 0.89333 0.34 1.9667zm-1.3267 0q0-0.88-0.24-1.58-0.24-0.7-0.68-1.18-0.44-0.48667-1.0667-0.74666-0.62667-0.26-1.4-0.26-0.76666 0-1.3933 0.26-0.62666 0.26-1.0733 0.74666-0.44 0.48-0.68 1.18-0.24 0.7-0.24 1.58 0 0.88 0.24 1.58 0.24 0.69333 0.68 1.18 0.44667 0.48 1.0733 0.74 0.62667 0.25333 1.3933 0.25333 0.77333 0 1.4-0.25333 0.62666-0.26 1.0667-0.74 0.44-0.48667 0.68-1.18 0.24-0.7 0.24-1.58z"/>
  </g>
 </g>
 <path d="m126.34 24.614h81.46v74.412h-81.46z" fill="#f3f6f6" stroke="#e2e4e5" stroke-linecap="square" stroke-linejoin="round" stroke-width=".20165"/>
 <g aria-label="CIMA">
  <path d="m147.74 64.904q0.11734 0 0.20534 0.09533l0.56466 0.60867q-0.64533 0.748-1.5693 1.166-0.91667 0.418-2.222 0.418-1.1293 0-2.0533-0.38867-0.924-0.396-1.5767-1.1-0.65266-0.71134-1.012-1.7013-0.35933-0.99-0.35933-2.178t0.374-2.178 1.0487-1.7013q0.682-0.71134 1.628-1.1 0.946-0.396 2.09-0.396 1.122 0 1.98 0.35933t1.5107 0.97534l-0.46933 0.65267q-0.044 0.07333-0.11734 0.12467-0.066 0.044-0.18333 0.044-0.132 0-0.32267-0.13933-0.19067-0.14667-0.49867-0.32267t-0.77-0.31533q-0.462-0.14667-1.1367-0.14667-0.814 0-1.4887 0.286-0.67467 0.27867-1.166 0.814-0.484 0.53534-0.75534 1.3053-0.27133 0.77-0.27133 1.738 0 0.98267 0.27867 1.7527 0.286 0.77 0.77 1.3053 0.49133 0.528 1.1513 0.80667 0.66733 0.27867 1.4373 0.27867 0.46934 0 0.84334-0.05133 0.38133-0.05867 0.69667-0.176 0.32266-0.11733 0.594-0.29333 0.27866-0.18333 0.55-0.43267 0.12466-0.11 0.24933-0.11z"/>
  <path d="m157.58 67.074h-1.4227v-10.509h1.4227z"/>
  <path d="m171.43 63.276q0.088 0.176 0.16866 0.374 0.0807 0.19067 0.16134 0.38133 0.0733-0.198 0.154-0.38867 0.0807-0.198 0.176-0.374l3.564-6.4607q0.088-0.16867 0.19066-0.20533 0.11-0.03667 0.30067-0.03667h1.0487v10.509h-1.2467v-7.722q0-0.154 7e-3 -0.33t0.022-0.35933l-3.6007 6.5707q-0.16867 0.33-0.51334 0.33h-0.20533q-0.34467 0-0.51333-0.33l-3.6814-6.5927q0.022 0.19067 0.0293 0.374 0.0147 0.18333 0.0147 0.33733v7.722h-1.2467v-10.509h1.0487q0.19067 0 0.29334 0.03667 0.10266 0.03667 0.198 0.20533l3.63 6.468z"/>
  <path d="m194.42 67.074h-1.1q-0.19066 0-0.308-0.09533-0.11733-0.09533-0.176-0.242l-0.98267-2.5373h-4.7153l-0.98267 2.5373q-0.044 0.132-0.16867 0.23467-0.12466 0.10267-0.308 0.10267h-1.1l4.202-10.509h1.4373zm-6.886-3.9013h3.9233l-1.65-4.2753q-0.0807-0.19067-0.16133-0.44-0.0733-0.24933-0.154-0.53534-0.0733 0.286-0.154 0.54267-0.0733 0.24933-0.15401 0.44z"/>
 </g>
 <g>
  <path d="m30.584 24.614h81.46v74.412h-81.46z" fill="#f3f6f6" stroke="#e2e4e5" stroke-linecap="square" stroke-linejoin="round" stroke-width=".20165"/>
  <g aria-label="CANTO SUPERIOR ESQUERDO">
   <path d="m55.827 47.023q0.10667 0 0.18667 0.08667l0.51333 0.55333q-0.58666 0.68-1.4267 1.06-0.83333 0.38-2.02 0.38-1.0267 0-1.8667-0.35333-0.84-0.36-1.4333-1-0.59333-0.64666-0.92-1.5467t-0.32667-1.98 0.34-1.98q0.34-0.9 0.95333-1.5467 0.62-0.64666 1.48-1 0.86-0.36 1.9-0.36 1.02 0 1.8 0.32666 0.78 0.32667 1.3733 0.88666l-0.42666 0.59333q-0.04 0.06667-0.10667 0.11333-0.06 0.04-0.16667 0.04-0.12 0-0.29333-0.12667-0.17333-0.13333-0.45333-0.29333-0.28-0.16-0.7-0.28667-0.42-0.13333-1.0333-0.13333-0.74 0-1.3533 0.26-0.61333 0.25333-1.06 0.74-0.44 0.48667-0.68666 1.1867t-0.24667 1.58q0 0.89333 0.25333 1.5933 0.26 0.7 0.7 1.1867 0.44666 0.48 1.0467 0.73333 0.60666 0.25333 1.3067 0.25333 0.42667 0 0.76666-0.04667 0.34667-0.05333 0.63333-0.16 0.29333-0.10667 0.54-0.26667 0.25333-0.16667 0.5-0.39333 0.11333-0.1 0.22667-0.1z"/>
   <path d="m65.794 48.997h-1q-0.17333 0-0.28-0.08667-0.10667-0.08667-0.16-0.22l-0.89333-2.3067h-4.2867l-0.89333 2.3067q-0.04 0.12-0.15333 0.21333-0.11333 0.09333-0.28 0.09333h-1l3.82-9.5533h1.3067zm-6.26-3.5467h3.5667l-1.5-3.8867q-0.07333-0.17333-0.14667-0.4-0.06667-0.22667-0.14-0.48667-0.06667 0.26-0.14 0.49333-0.06667 0.22667-0.14 0.4z"/>
   <path d="m67.72 39.443q0.08667 0 0.14667 0.01333 0.06 0.0067 0.10667 0.03333 0.04667 0.02 0.09333 0.06667 0.04667 0.04 0.1 0.10667l5.5267 7.1933q-0.01333-0.17333-0.02667-0.33333-0.0067-0.16667-0.0067-0.31333v-6.7666h1.1333v9.5533h-0.64666q-0.15333 0-0.26-0.05333-0.1-0.05333-0.2-0.18l-5.5267-7.1933q0.01333 0.16667 0.02 0.32667 0.0067 0.16 0.0067 0.29333v6.8066h-1.1333v-9.5533h0.66666z"/>
   <path d="m83.693 39.443v1.0867h-3.0933v8.4666h-1.2867v-8.4666h-3.1v-1.0867z"/>
   <path d="m93.507 44.223q0 1.0733-0.34 1.9733-0.34 0.89333-0.96 1.54-0.62 0.64666-1.4933 1.0067-0.86666 0.35333-1.92 0.35333t-1.92-0.35333q-0.86666-0.36-1.4867-1.0067-0.62-0.64666-0.96-1.54-0.34-0.9-0.34-1.9733t0.34-1.9667q0.34-0.9 0.96-1.5467 0.62-0.65333 1.4867-1.0133t1.92-0.36 1.92 0.36q0.87333 0.36 1.4933 1.0133 0.62 0.64666 0.96 1.5467 0.34 0.89333 0.34 1.9667zm-1.3267 0q0-0.88-0.24-1.58-0.24-0.7-0.68-1.18-0.44-0.48667-1.0667-0.74666t-1.4-0.26q-0.76666 0-1.3933 0.26t-1.0733 0.74666q-0.44 0.48-0.68 1.18-0.24 0.7-0.24 1.58t0.24 1.58q0.24 0.69333 0.68 1.18 0.44666 0.48 1.0733 0.74 0.62666 0.25333 1.3933 0.25333 0.77333 0 1.4-0.25333 0.62666-0.26 1.0667-0.74 0.44-0.48667 0.68-1.18 0.24-0.7 0.24-1.58z"/>
   <path d="m45.194 57.603q-0.06 0.1-0.13333 0.15333-0.06667 0.04667-0.16667 0.04667-0.11333 0-0.26667-0.11333-0.15333-0.11333-0.38667-0.24667-0.22667-0.14-0.55333-0.25333-0.32-0.11333-0.78-0.11333-0.43333 0-0.76666 0.12-0.32667 0.11333-0.55333 0.31333-0.22 0.2-0.33333 0.47333-0.11333 0.26667-0.11333 0.58 0 0.4 0.19333 0.66666 0.2 0.26 0.52 0.44666 0.32666 0.18667 0.73333 0.32667 0.41333 0.13333 0.84 0.28 0.43333 0.14667 0.84 0.33333 0.41333 0.18 0.73333 0.46 0.32667 0.28 0.52 0.68666 0.2 0.40666 0.2 1 0 0.62666-0.21333 1.18-0.21333 0.54666-0.62666 0.95333-0.40667 0.40667-1.0067 0.64-0.59333 0.23333-1.3533 0.23333-0.93333 0-1.6933-0.33333-0.76-0.34-1.3-0.91333l0.37333-0.61333q0.05333-0.07333 0.12667-0.12 0.08-0.05333 0.17333-0.05333 0.08667 0 0.19333 0.07333 0.11333 0.06667 0.25333 0.17333 0.14 0.10667 0.32 0.23333 0.18 0.12667 0.40667 0.23333 0.23333 0.10667 0.52666 0.18 0.29333 0.06667 0.66 0.06667 0.46 0 0.82-0.12667 0.36-0.12667 0.60667-0.35333 0.25333-0.23333 0.38666-0.55333t0.13333-0.71333q0-0.43333-0.2-0.70666-0.19333-0.28-0.51333-0.46666-0.32-0.18667-0.73333-0.31333-0.41333-0.13333-0.84-0.26667-0.42666-0.14-0.84-0.32-0.41333-0.18-0.73333-0.46666t-0.52-0.71333q-0.19333-0.43333-0.19333-1.0667 0-0.50666 0.19333-0.98 0.2-0.47333 0.57333-0.84 0.38-0.36667 0.92666-0.58666 0.55333-0.22 1.2667-0.22 0.8 0 1.4533 0.25333 0.66 0.25333 1.16 0.73333z"/>
   <path d="m51.227 64.637q0.59333 0 1.06-0.2 0.46667-0.2 0.78666-0.56 0.32667-0.36 0.49333-0.86 0.17333-0.5 0.17333-1.1v-5.8067h1.2867v5.8067q0 0.82666-0.26667 1.5333-0.26 0.70666-0.75333 1.2267-0.48667 0.51333-1.1933 0.80666-0.70666 0.29333-1.5867 0.29333t-1.5867-0.29333q-0.70666-0.29333-1.2-0.80666-0.49333-0.52-0.76-1.2267-0.26-0.70666-0.26-1.5333v-5.8067h1.2867v5.8q0 0.6 0.16667 1.1 0.17333 0.5 0.49333 0.86 0.32666 0.36 0.79333 0.56666 0.47333 0.2 1.0667 0.2z"/>
   <path d="m58.634 62.09v3.5733h-1.2867v-9.5533h2.82q0.90666 0 1.5733 0.21333 0.67333 0.20667 1.1133 0.59333t0.65333 0.93333q0.22 0.54666 0.22 1.22 0 0.66666-0.23333 1.22-0.23333 0.55333-0.68666 0.95333-0.44666 0.4-1.1133 0.62666-0.66 0.22-1.5267 0.22zm0-1.0267h1.5333q0.55333 0 0.97333-0.14667 0.42667-0.14667 0.71333-0.40667 0.29333-0.26667 0.44-0.63333 0.14667-0.36667 0.14667-0.80666 0-0.91333-0.56667-1.4267-0.56-0.51333-1.7067-0.51333h-1.5333z"/>
   <path d="m71.24 56.11v1.0533h-4.5933v3.1733h3.72v1.0133h-3.72v3.26h4.6l-0.0067 1.0533h-5.8867v-9.5533z"/>
   <path d="m74.34 61.677v3.9867h-1.2867v-9.5533h2.7q0.90666 0 1.5667 0.18667 0.66 0.18 1.0867 0.52666 0.43333 0.34667 0.64 0.84 0.20667 0.48666 0.20667 1.0933 0 0.50666-0.16 0.94666-0.16 0.44-0.46666 0.79333-0.3 0.34667-0.74 0.6-0.43333 0.24667-0.98666 0.36666 0.25333 0.16 0.42666 0.40667l2.7867 3.7933h-1.1467q-0.35333 0-0.52-0.27333l-2.48-3.4133q-0.11333-0.16-0.24667-0.22667-0.12667-0.07333-0.4-0.07333zm0-0.94h1.36q0.56 0 0.98666-0.13333 0.43333-0.14 0.72-0.38667 0.29333-0.25333 0.44-0.6 0.14667-0.34666 0.14667-0.76666 0-0.85333-0.56-1.2867-0.56-0.43333-1.68-0.43333h-1.4133z"/>
   <path d="m82.7 65.663h-1.2933v-9.5533h1.2933z"/>
   <path d="m93.967 60.89q0 1.0733-0.34 1.9733-0.34 0.89333-0.96 1.54-0.62 0.64666-1.4933 1.0067-0.86666 0.35333-1.92 0.35333-1.0533 0-1.92-0.35333-0.86666-0.36-1.4867-1.0067-0.62-0.64666-0.96-1.54-0.34-0.9-0.34-1.9733 0-1.0733 0.34-1.9667 0.34-0.9 0.96-1.5467 0.62-0.65333 1.4867-1.0133 0.86666-0.36 1.92-0.36 1.0533 0 1.92 0.36 0.87333 0.36 1.4933 1.0133 0.62 0.64666 0.96 1.5467 0.34 0.89333 0.34 1.9667zm-1.3267 0q0-0.88-0.24-1.58-0.24-0.7-0.68-1.18-0.44-0.48666-1.0667-0.74666-0.62666-0.26-1.4-0.26-0.76666 0-1.3933 0.26-0.62666 0.26-1.0733 0.74666-0.44 0.48-0.68 1.18-0.24 0.7-0.24 1.58 0 0.88 0.24 1.58 0.24 0.69333 0.68 1.18 0.44667 0.48 1.0733 0.74 0.62666 0.25333 1.3933 0.25333 0.77333 0 1.4-0.25333 0.62666-0.26 1.0667-0.74 0.44-0.48666 0.68-1.18 0.24-0.7 0.24-1.58z"/>
   <path d="m97.1 61.677v3.9867h-1.2867v-9.5533h2.7q0.90666 0 1.5667 0.18667 0.66 0.18 1.0867 0.52666 0.43334 0.34667 0.64 0.84 0.20667 0.48666 0.20667 1.0933 0 0.50666-0.16 0.94666t-0.46667 0.79333q-0.3 0.34667-0.73999 0.6-0.43334 0.24667-0.98667 0.36666 0.25333 0.16 0.42667 0.40667l2.7867 3.7933h-1.1467q-0.35333 0-0.52-0.27333l-2.48-3.4133q-0.11333-0.16-0.24667-0.22667-0.12667-0.07333-0.4-0.07333zm0-0.94h1.36q0.56 0 0.98666-0.13333 0.43333-0.14 0.72-0.38667 0.29333-0.25333 0.44-0.6 0.14666-0.34666 0.14666-0.76666 0-0.85333-0.56-1.2867-0.56-0.43333-1.68-0.43333h-1.4133z"/>
   <path d="m41.984 72.777v1.0533h-4.5933v3.1733h3.72v1.0133h-3.72v3.26h4.6l-0.0067 1.0533h-5.8866v-9.5533z"/>
   <path d="m48.684 74.27q-0.06 0.1-0.13333 0.15333-0.06667 0.04667-0.16667 0.04667-0.11333 0-0.26667-0.11333t-0.38667-0.24667q-0.22667-0.14-0.55333-0.25333-0.32-0.11333-0.78-0.11333-0.43333 0-0.76666 0.12-0.32666 0.11333-0.55333 0.31333-0.22 0.2-0.33333 0.47333-0.11333 0.26667-0.11333 0.58 0 0.4 0.19333 0.66666 0.2 0.26 0.52 0.44667 0.32667 0.18667 0.73333 0.32667 0.41333 0.13333 0.84 0.28 0.43333 0.14667 0.84 0.33333 0.41333 0.18 0.73333 0.46 0.32667 0.28 0.52 0.68666 0.2 0.40667 0.2 1 0 0.62666-0.21333 1.18-0.21333 0.54666-0.62666 0.95333-0.40667 0.40666-1.0067 0.64-0.59333 0.23333-1.3533 0.23333-0.93333 0-1.6933-0.33333-0.76-0.34-1.3-0.91333l0.37333-0.61333q0.05333-0.07333 0.12667-0.12 0.08-0.05333 0.17333-0.05333 0.08667 0 0.19333 0.07333 0.11333 0.06667 0.25333 0.17333 0.14 0.10667 0.32 0.23333 0.18 0.12667 0.40667 0.23333 0.23333 0.10667 0.52666 0.18 0.29333 0.06667 0.66 0.06667 0.46 0 0.82-0.12667 0.36-0.12667 0.60666-0.35333 0.25333-0.23333 0.38667-0.55333 0.13333-0.32 0.13333-0.71333 0-0.43333-0.2-0.70666-0.19333-0.28-0.51333-0.46667-0.32-0.18667-0.73333-0.31333-0.41333-0.13333-0.84-0.26667-0.42666-0.14-0.84-0.32-0.41333-0.18-0.73333-0.46667t-0.52-0.71333q-0.19333-0.43333-0.19333-1.0667 0-0.50667 0.19333-0.98 0.2-0.47333 0.57333-0.84 0.38-0.36666 0.92666-0.58666 0.55333-0.22 1.2667-0.22 0.8 0 1.4533 0.25333 0.66 0.25333 1.16 0.73333z"/>
   <path d="m59.864 77.557q0 0.67333-0.14 1.2867-0.13333 0.60667-0.39333 1.1267-0.26 0.52-0.63333 0.94666-0.37333 0.42666-0.84 0.74l2.4467 2.6467h-1.0667q-0.24 0-0.42667-0.06667-0.18667-0.06667-0.34-0.23333l-1.6733-1.8267q-0.38 0.12-0.79333 0.18667-0.40667 0.06667-0.85333 0.06667-1.0533 0-1.92-0.35333-0.86666-0.36-1.4867-1.0067-0.62-0.64666-0.96-1.54-0.34-0.9-0.34-1.9733t0.34-1.9667q0.34-0.9 0.96-1.5467 0.62-0.65333 1.4867-1.0133 0.86666-0.36 1.92-0.36 1.0533 0 1.92 0.36 0.87333 0.36 1.4933 1.0133 0.62 0.64666 0.96 1.5467 0.34 0.89333 0.34 1.9667zm-1.3267 0q0-0.88-0.24-1.58-0.24-0.7-0.68-1.18-0.44-0.48666-1.0667-0.74666-0.62666-0.26-1.4-0.26-0.76666 0-1.3933 0.26-0.62666 0.26-1.0733 0.74666-0.44 0.48-0.68 1.18t-0.24 1.58 0.24 1.58q0.24 0.69333 0.68 1.18 0.44667 0.48 1.0733 0.74 0.62666 0.25333 1.3933 0.25333 0.77333 0 1.4-0.25333 0.62666-0.26 1.0667-0.74 0.44-0.48666 0.68-1.18 0.24-0.7 0.24-1.58z"/>
   <path d="m65.39 81.303q0.59333 0 1.06-0.2 0.46666-0.2 0.78666-0.56 0.32666-0.36 0.49333-0.86 0.17333-0.5 0.17333-1.1v-5.8067h1.2867v5.8067q0 0.82666-0.26667 1.5333-0.26 0.70666-0.75333 1.2267-0.48667 0.51333-1.1933 0.80666-0.70666 0.29333-1.5867 0.29333-0.88 0-1.5867-0.29333-0.70666-0.29333-1.2-0.80666-0.49333-0.52-0.76-1.2267-0.26-0.70666-0.26-1.5333v-5.8067h1.2867v5.8q0 0.6 0.16667 1.1 0.17333 0.5 0.49333 0.86 0.32667 0.36 0.79333 0.56667 0.47333 0.2 1.0667 0.2z"/>
   <path d="m77.397 72.777v1.0533h-4.5933v3.1733h3.72v1.0133h-3.72v3.26h4.6l-0.0067 1.0533h-5.8866v-9.5533z"/>
   <path d="m80.497 78.343v3.9867h-1.2867v-9.5533h2.7q0.90666 0 1.5667 0.18667 0.66 0.18 1.0867 0.52667 0.43333 0.34666 0.64 0.84 0.20667 0.48667 0.20667 1.0933 0 0.50666-0.16 0.94666-0.16 0.44-0.46667 0.79333-0.3 0.34666-0.74 0.6-0.43333 0.24667-0.98666 0.36667 0.25333 0.16 0.42666 0.40667l2.7867 3.7933h-1.1467q-0.35333 0-0.52-0.27333l-2.48-3.4133q-0.11333-0.16-0.24667-0.22667-0.12667-0.07333-0.4-0.07333zm0-0.94h1.36q0.56 0 0.98666-0.13333 0.43333-0.14 0.72-0.38667 0.29333-0.25333 0.44-0.6t0.14667-0.76666q0-0.85333-0.56-1.2867-0.56-0.43333-1.68-0.43333h-1.4133z"/>
   <path d="m95.843 77.557q0 1.0733-0.34 1.9533-0.34 0.88-0.96 1.5067-0.62 0.62666-1.4933 0.97333-0.86666 0.34-1.92 0.34h-3.5667v-9.5533h3.5667q1.0533 0 1.92 0.34667 0.87333 0.34 1.4933 0.97333 0.62 0.62666 0.96 1.5067 0.34 0.88 0.34 1.9533zm-1.3267 0q0-0.88-0.24-1.5733-0.24-0.69333-0.68-1.1733t-1.0667-0.73333q-0.62666-0.25333-1.4-0.25333h-2.2733v7.46h2.2733q0.77333 0 1.4-0.25333 0.62666-0.25333 1.0667-0.72666 0.44-0.48 0.68-1.1733 0.24-0.69333 0.24-1.5733z"/>
   <path d="m106.53 77.557q0 1.0733-0.34 1.9733-0.34 0.89333-0.95999 1.54-0.62 0.64666-1.4933 1.0067-0.86667 0.35333-1.92 0.35333t-1.92-0.35333q-0.86666-0.36-1.4867-1.0067-0.62-0.64666-0.96-1.54-0.34-0.9-0.34-1.9733t0.34-1.9667q0.34-0.9 0.96-1.5467 0.62-0.65333 1.4867-1.0133t1.92-0.36 1.92 0.36q0.87333 0.36 1.4933 1.0133 0.61999 0.64666 0.95999 1.5467 0.34 0.89333 0.34 1.9667zm-1.3267 0q0-0.88-0.24-1.58t-0.68-1.18q-0.44-0.48666-1.0667-0.74666-0.62667-0.26-1.4-0.26-0.76666 0-1.3933 0.26-0.62666 0.26-1.0733 0.74666-0.44 0.48-0.68 1.18-0.24 0.7-0.24 1.58t0.24 1.58q0.24 0.69333 0.68 1.18 0.44667 0.48 1.0733 0.74 0.62667 0.25333 1.3933 0.25333 0.77333 0 1.4-0.25333 0.62666-0.26 1.0667-0.74 0.44-0.48666 0.68-1.18 0.24-0.7 0.24-1.58z"/>
  </g>
 </g>
 <path d="m222.09 116.26h81.46v74.412h-81.46z" fill="#f3f6f6" stroke="#e2e4e5" stroke-linecap="square" stroke-linejoin="round" stroke-width=".20165"/>
 <g aria-label="DIREITA">
  <path d="m246.92 153.46q0 1.0733-0.34 1.9533t-0.95999 1.5067q-0.62 0.62667-1.4933 0.97333-0.86667 0.34-1.92 0.34h-3.5667v-9.5533h3.5667q1.0533 0 1.92 0.34667 0.87333 0.34 1.4933 0.97333 0.61999 0.62666 0.95999 1.5067t0.34 1.9533zm-1.3267 0q0-0.88-0.24-1.5733t-0.68-1.1733-1.0667-0.73333q-0.62667-0.25333-1.4-0.25333h-2.2733v7.46h2.2733q0.77333 0 1.4-0.25334 0.62666-0.25333 1.0667-0.72666 0.44-0.48 0.68-1.1733t0.24-1.5733z"/>
  <path d="m250.07 158.24h-1.2933v-9.5533h1.2933z"/>
  <path d="m253.8 154.25v3.9867h-1.2867v-9.5533h2.7q0.90666 0 1.5667 0.18667 0.66 0.18 1.0867 0.52666 0.43334 0.34667 0.64 0.84 0.20667 0.48667 0.20667 1.0933 0 0.50667-0.16 0.94667t-0.46667 0.79333q-0.3 0.34666-0.73999 0.6-0.43334 0.24666-0.98667 0.36666 0.25333 0.16 0.42667 0.40667l2.7867 3.7933h-1.1467q-0.35333 0-0.52-0.27333l-2.48-3.4133q-0.11333-0.16-0.24667-0.22666-0.12666-0.0733-0.39999-0.0733zm0-0.93999h1.36q0.56 0 0.98667-0.13334 0.43333-0.14 0.72-0.38666 0.29333-0.25333 0.44-0.6 0.14666-0.34667 0.14666-0.76666 0-0.85334-0.56-1.2867-0.55999-0.43333-1.68-0.43333h-1.4133z"/>
  <path d="m266.75 148.68v1.0533h-4.5933v3.1733h3.72v1.0133h-3.72v3.26h4.6l-7e-3 1.0533h-5.8866v-9.5533z"/>
  <path d="m269.86 158.24h-1.2933v-9.5533h1.2933z"/>
  <path d="m278.76 148.68v1.0867h-3.0933v8.4666h-1.2867v-8.4666h-3.1v-1.0867z"/>
  <path d="m287.01 158.24h-0.99999q-0.17334 0-0.28-0.0867-0.10667-0.0867-0.16-0.21999l-0.89333-2.3067h-4.2867l-0.89333 2.3067q-0.04 0.12-0.15333 0.21333-0.11334 0.0933-0.28 0.0933h-1l3.82-9.5533h1.3067zm-6.26-3.5467h3.5667l-1.5-3.8866q-0.0733-0.17334-0.14667-0.4-0.0667-0.22667-0.14-0.48667-0.0667 0.26-0.13999 0.49333-0.0667 0.22667-0.14 0.4z"/>
 </g>
 <g>
  <path d="m126.34 116.26h81.46v74.412h-81.46z" fill="#f3f6f6" stroke="#e2e4e5" stroke-linecap="square" stroke-linejoin="round" stroke-width=".20165"/>
  <g aria-label="NEUTRO">
   <path d="m133.69 147.24q0.234 0 0.34667 0.052 0.12133 0.052 0.26866 0.25133l7.0807 9.178q-0.0173-0.234-0.0347-0.468-9e-3 -0.234-9e-3 -0.43334v-8.58h1.5687v12.437h-0.90133q-0.208 0-0.35534-0.0693-0.13866-0.078-0.27733-0.25133l-7.0893-9.178q0.0173 0.22533 0.026 0.45066 0.0173 0.21667 0.0173 0.40733v8.6406h-1.5687v-12.437h0.92733z"/>
   <path d="m153.72 147.24v1.456h-5.902v4.004h4.758v1.404h-4.758v4.1167h5.9107l-9e-3 1.456h-7.696v-12.437z"/>
   <path d="m160.86 158.25q0.754 0 1.3433-0.25134 0.598-0.26 1.0053-0.71933 0.41599-0.45933 0.63266-1.092 0.21667-0.64133 0.21667-1.4127v-7.5313h1.7853v7.5313q0 1.0833-0.34667 2.0107-0.34666 0.92733-0.988 1.6033-0.64133 0.676-1.5687 1.0573-0.92733 0.38134-2.08 0.38134-1.1613 0-2.0887-0.38134-0.91866-0.38133-1.5687-1.0573-0.64133-0.676-0.988-1.6033t-0.34667-2.0107v-7.5313h1.7853v7.5313q0 0.76266 0.21667 1.404 0.21667 0.63266 0.624 1.1007 0.416 0.45933 1.014 0.71933 0.598 0.25134 1.352 0.25134z"/>
   <path d="m177.26 147.24v1.4993h-3.978v10.937h-1.7853v-10.937h-3.9867v-1.4993z"/>
   <path d="m180.84 154.54v5.1306h-1.7853v-12.437h3.562q1.196 0 2.0627 0.24267 0.86666 0.24266 1.43 0.702 0.572 0.45066 0.84066 1.092 0.26867 0.64134 0.26867 1.43 0 0.65867-0.208 1.2307-0.19933 0.57199-0.58933 1.0313-0.38134 0.45066-0.94467 0.77999-0.55466 0.32934-1.2653 0.494 0.338 0.19934 0.58067 0.56334l3.5447 4.8706h-1.5947q-0.48533 0-0.71066-0.38133l-3.12-4.3593q-0.14733-0.208-0.32066-0.29467-0.17334-0.0953-0.52-0.0953zm0-1.3087h1.716q0.71933 0 1.2653-0.17333t0.91-0.494 0.546-0.754q0.19066-0.442 0.19066-0.97933 0-1.0833-0.71066-1.638-0.71067-0.55466-2.1407-0.55466h-1.7767z"/>
   <path d="m201.38 153.45q0 1.3953-0.45067 2.5653-0.442 1.17-1.248 2.0107-0.80599 0.84066-1.9413 1.3087-1.1353 0.468-2.5133 0.468-1.378 0-2.5133-0.468-1.1267-0.468-1.9413-1.3087-0.81467-0.84067-1.2653-2.0107-0.442-1.17-0.442-2.5653 0-1.3867 0.442-2.5567 0.45066-1.17 1.2653-2.0107 0.81466-0.84066 1.9413-1.3087 1.1353-0.47667 2.5133-0.47667 1.378 0 2.5133 0.47667 1.1353 0.468 1.9413 1.3087 0.806 0.84067 1.248 2.0107 0.45067 1.17 0.45067 2.5567zm-1.8287 0q0-1.118-0.30334-2.0107-0.30333-0.89267-0.87533-1.508-0.56333-0.624-1.3607-0.95333-0.79734-0.32934-1.7853-0.32934-0.988 0-1.794 0.32934-0.79733 0.32933-1.3693 0.95333-0.56333 0.61533-0.87533 1.508-0.30333 0.89266-0.30333 2.0107 0 1.1267 0.30333 2.0193 0.312 0.89266 0.87533 1.508 0.572 0.61533 1.3693 0.94466 0.806 0.32933 1.794 0.32933 0.98799 0 1.7853-0.32933 0.79733-0.32933 1.3607-0.94466 0.572-0.61534 0.87533-1.508 0.30334-0.89267 0.30334-2.0193z"/>
  </g>
 </g>
 <path d="m30.584 116.26h81.46v74.412h-81.46z" fill="#f3f6f6" stroke="#e2e4e5" stroke-linecap="square" stroke-linejoin="round" stroke-width=".20165"/>
 <g aria-label="ESQUERDA">
  <path d="m42.644 147.75v1.0533h-4.5933v3.1733h3.72v1.0133h-3.72v3.26h4.6l-0.0067 1.0533h-5.8867v-9.5533z"/>
  <path d="m49.344 149.24q-0.06 0.1-0.13333 0.15334-0.06667 0.0467-0.16667 0.0467-0.11333 0-0.26667-0.11333t-0.38667-0.24667q-0.22667-0.14-0.55333-0.25333-0.32-0.11333-0.78-0.11333-0.43333 0-0.76666 0.12-0.32667 0.11333-0.55333 0.31333-0.22 0.2-0.33333 0.47333-0.11333 0.26667-0.11333 0.58 0 0.4 0.19333 0.66667 0.2 0.25999 0.52 0.44666 0.32666 0.18667 0.73333 0.32667 0.41333 0.13333 0.84 0.28 0.43333 0.14666 0.84 0.33333 0.41333 0.18 0.73333 0.46 0.32667 0.28 0.52 0.68666 0.2 0.40667 0.2 1 0 0.62666-0.21333 1.18-0.21333 0.54666-0.62666 0.95333-0.40667 0.40666-1.0067 0.64-0.59333 0.23333-1.3533 0.23333-0.93333 0-1.6933-0.33333-0.76-0.34-1.3-0.91333l0.37333-0.61334q0.05333-0.0733 0.12667-0.12 0.08-0.0533 0.17333-0.0533 0.08667 0 0.19333 0.0733 0.11333 0.0667 0.25333 0.17334 0.14 0.10666 0.32 0.23333 0.18 0.12667 0.40667 0.23333 0.23333 0.10667 0.52666 0.18 0.29333 0.0667 0.66 0.0667 0.46 0 0.82-0.12667 0.36-0.12666 0.60667-0.35333 0.25333-0.23333 0.38666-0.55333t0.13333-0.71333q0-0.43334-0.2-0.70667-0.19333-0.28-0.51333-0.46666-0.32-0.18667-0.73333-0.31334-0.41333-0.13333-0.84-0.26666-0.42666-0.14-0.84-0.32-0.41333-0.18-0.73333-0.46667-0.32-0.28666-0.52-0.71333-0.19333-0.43333-0.19333-1.0667 0-0.50667 0.19333-0.98 0.2-0.47333 0.57333-0.84 0.38-0.36666 0.92666-0.58666 0.55333-0.22 1.2667-0.22 0.8 0 1.4533 0.25333 0.66 0.25333 1.16 0.73333z"/>
  <path d="m60.524 152.53q0 0.67333-0.14 1.2867-0.13333 0.60667-0.39333 1.1267-0.26 0.52-0.63333 0.94666-0.37333 0.42667-0.84 0.74l2.4467 2.6467h-1.0667q-0.24 0-0.42666-0.0667-0.18667-0.0667-0.34-0.23333l-1.6733-1.8267q-0.38 0.12-0.79333 0.18667-0.40667 0.0667-0.85333 0.0667-1.0533 0-1.92-0.35333-0.86666-0.36-1.4867-1.0067-0.62-0.64667-0.96-1.54-0.34-0.9-0.34-1.9733t0.34-1.9667q0.34-0.9 0.96-1.5467 0.62-0.65334 1.4867-1.0133 0.86666-0.36 1.92-0.36 1.0533 0 1.92 0.36 0.87333 0.35999 1.4933 1.0133 0.62 0.64666 0.96 1.5467 0.34 0.89333 0.34 1.9667zm-1.3267 0q0-0.88-0.24-1.58-0.24-0.69999-0.68-1.18-0.44-0.48667-1.0667-0.74667t-1.4-0.26q-0.76666 0-1.3933 0.26t-1.0733 0.74667q-0.44 0.48-0.68 1.18-0.24 0.7-0.24 1.58t0.24 1.58q0.24 0.69333 0.68 1.18 0.44667 0.48 1.0733 0.74 0.62666 0.25333 1.3933 0.25333 0.77333 0 1.4-0.25333 0.62666-0.26 1.0667-0.74 0.44-0.48666 0.68-1.18 0.24-0.7 0.24-1.58z"/>
  <path d="m66.05 156.28q0.59333 0 1.06-0.2 0.46667-0.2 0.78666-0.56 0.32667-0.36 0.49333-0.86 0.17333-0.5 0.17333-1.1v-5.8066h1.2867v5.8066q0 0.82667-0.26667 1.5333-0.26 0.70667-0.75333 1.2267-0.48667 0.51333-1.1933 0.80666-0.70666 0.29334-1.5867 0.29334-0.88 0-1.5867-0.29334-0.70666-0.29333-1.2-0.80666-0.49333-0.52-0.76-1.2267-0.26-0.70666-0.26-1.5333v-5.8066h1.2867v5.8q0 0.6 0.16667 1.1 0.17333 0.49999 0.49333 0.85999 0.32667 0.36 0.79333 0.56667 0.47333 0.2 1.0667 0.2z"/>
  <path d="m78.057 147.75v1.0533h-4.5933v3.1733h3.72v1.0133h-3.72v3.26h4.6l-0.0067 1.0533h-5.8867v-9.5533z"/>
  <path d="m81.157 153.32v3.9866h-1.2867v-9.5533h2.7q0.90666 0 1.5667 0.18667 0.66 0.18 1.0867 0.52666 0.43333 0.34667 0.64 0.84 0.20667 0.48667 0.20667 1.0933 0 0.50667-0.16 0.94667-0.16 0.44-0.46667 0.79333-0.3 0.34666-0.74 0.6-0.43333 0.24666-0.98666 0.36666 0.25333 0.16 0.42667 0.40667l2.7867 3.7933h-1.1467q-0.35333 0-0.52-0.27333l-2.48-3.4133q-0.11333-0.15999-0.24667-0.22666-0.12667-0.0733-0.4-0.0733zm0-0.94h1.36q0.56 0 0.98666-0.13334 0.43333-0.13999 0.72-0.38666 0.29333-0.25333 0.44-0.6 0.14667-0.34667 0.14667-0.76666 0-0.85334-0.56-1.2867t-1.68-0.43333h-1.4133z"/>
  <path d="m96.503 152.53q0 1.0733-0.34 1.9533t-0.96 1.5067q-0.62 0.62667-1.4933 0.97333-0.86666 0.34-1.92 0.34h-3.5667v-9.5533h3.5667q1.0533 0 1.92 0.34667 0.87333 0.34 1.4933 0.97333 0.62 0.62666 0.96 1.5067t0.34 1.9533zm-1.3267 0q0-0.88-0.24-1.5733-0.24-0.69333-0.68-1.1733t-1.0667-0.73333-1.4-0.25333h-2.2733v7.46h2.2733q0.77333 0 1.4-0.25333 0.62666-0.25334 1.0667-0.72667 0.44-0.48 0.68-1.1733 0.24-0.69333 0.24-1.5733z"/>
  <path d="m105.87 157.3h-1q-0.17333 0-0.28-0.0867-0.10666-0.0867-0.16-0.22l-0.89333-2.3067h-4.2867l-0.89333 2.3067q-0.04 0.12-0.15333 0.21333-0.11333 0.0933-0.28 0.0933h-1l3.82-9.5533h1.3067zm-6.26-3.5467h3.5667l-1.5-3.8866q-0.0733-0.17334-0.14667-0.4-0.0667-0.22667-0.14-0.48667-0.0667 0.26-0.14 0.49334-0.0667 0.22666-0.14 0.39999z"/>
 </g>
 <g>
  <path d="m222.09 207.9h81.46v74.412h-81.46z" fill="#f3f6f6" stroke="#e2e4e5" stroke-linecap="square" stroke-linejoin="round" stroke-width=".20165"/>
  <g aria-label="CANTO INFERIOR DIREITO">
   <path d="m247.06 231.24q0.10666 0 0.18666 0.0867l0.51333 0.55334q-0.58666 0.67999-1.4267 1.06-0.83333 0.38-2.02 0.38-1.0267 0-1.8667-0.35333-0.83999-0.36-1.4333-1-0.59333-0.64666-0.91999-1.5467-0.32667-0.9-0.32667-1.98 0-1.08 0.34-1.98t0.95333-1.5467q0.62-0.64667 1.48-1 0.86-0.36 1.9-0.36 1.02 0 1.8 0.32667 0.78 0.32666 1.3733 0.88666l-0.42667 0.59333q-0.04 0.0667-0.10666 0.11333-0.06 0.04-0.16667 0.04-0.12 0-0.29333-0.12666-0.17334-0.13333-0.45333-0.29333-0.28-0.16-0.7-0.28667-0.42-0.13333-1.0333-0.13333-0.74 0-1.3533 0.26-0.61334 0.25333-1.06 0.73999-0.44 0.48667-0.68667 1.1867-0.24666 0.7-0.24666 1.58 0 0.89334 0.25333 1.5933 0.26 0.7 0.7 1.1867 0.44666 0.48 1.0467 0.73333 0.60667 0.25333 1.3067 0.25333 0.42666 0 0.76666-0.0467 0.34667-0.0533 0.63333-0.15999 0.29334-0.10667 0.54-0.26667 0.25333-0.16667 0.5-0.39333 0.11333-0.1 0.22667-0.1z"/>
   <path d="m257.03 233.22h-1q-0.17333 0-0.28-0.0867t-0.16-0.22l-0.89333-2.3067h-4.2867l-0.89333 2.3067q-0.04 0.12-0.15333 0.21333-0.11333 0.0933-0.28 0.0933h-1l3.82-9.5533h1.3067zm-6.26-3.5467h3.5667l-1.5-3.8867q-0.0733-0.17333-0.14667-0.4-0.0667-0.22666-0.14-0.48666-0.0667 0.26-0.14 0.49333-0.0667 0.22666-0.14 0.4z"/>
   <path d="m258.95 223.66q0.0867 0 0.14666 0.0133 0.06 7e-3 0.10667 0.0333 0.0467 0.02 0.0933 0.0667 0.0467 0.04 0.1 0.10667l5.5266 7.1933q-0.0133-0.17333-0.0267-0.33333-7e-3 -0.16667-7e-3 -0.31333v-6.7666h1.1333v9.5533h-0.64666q-0.15334 0-0.26-0.0533-0.1-0.0533-0.2-0.18l-5.5267-7.1933q0.0133 0.16666 0.02 0.32666 7e-3 0.16 7e-3 0.29334v6.8066h-1.1333v-9.5533h0.66667z"/>
   <path d="m274.93 223.66v1.0867h-3.0933v8.4666h-1.2867v-8.4666h-3.1v-1.0867z"/>
   <path d="m284.74 228.44q0 1.0733-0.34 1.9733-0.34 0.89333-0.96 1.54-0.61999 0.64666-1.4933 1.0067-0.86666 0.35334-1.92 0.35334t-1.92-0.35334q-0.86666-0.36-1.4867-1.0067-0.62-0.64667-0.96-1.54-0.34-0.9-0.34-1.9733t0.34-1.9667q0.34-0.9 0.96-1.5467 0.62-0.65333 1.4867-1.0133 0.86667-0.36 1.92-0.36t1.92 0.36q0.87334 0.36 1.4933 1.0133 0.62 0.64666 0.96 1.5467 0.34 0.89333 0.34 1.9667zm-1.3267 0q0-0.87999-0.24-1.58t-0.68-1.18q-0.44-0.48666-1.0667-0.74666-0.62667-0.26-1.4-0.26-0.76667 0-1.3933 0.26-0.62667 0.26-1.0733 0.74666-0.44 0.48-0.68 1.18t-0.24 1.58q0 0.88 0.24 1.58 0.24 0.69333 0.68 1.18 0.44666 0.48 1.0733 0.74 0.62666 0.25333 1.3933 0.25333 0.77333 0 1.4-0.25333 0.62666-0.26 1.0667-0.74 0.44-0.48667 0.68-1.18 0.24-0.7 0.24-1.58z"/>
   <path d="m234.63 249.88h-1.2933v-9.5533h1.2933z"/>
   <path d="m237.74 240.33q0.0867 0 0.14667 0.0133 0.06 7e-3 0.10667 0.0333 0.0467 0.02 0.0933 0.0667 0.0467 0.04 0.1 0.10667l5.5266 7.1933q-0.0133-0.17334-0.0267-0.33334-7e-3 -0.16666-7e-3 -0.31333v-6.7666h1.1333v9.5533h-0.64667q-0.15333 0-0.25999-0.0533-0.1-0.0533-0.2-0.18l-5.5267-7.1933q0.0133 0.16667 0.02 0.32667 7e-3 0.16 7e-3 0.29333v6.8066h-1.1333v-9.5533h0.66666z"/>
   <path d="m253.14 240.33v1.0533h-4.5933v3.34h3.9267v1.0533h-3.9267v4.1067h-1.2933v-9.5533z"/>
   <path d="m260.68 240.33v1.0533h-4.5933v3.1733h3.72v1.0133h-3.72v3.26h4.6l-7e-3 1.0533h-5.8866v-9.5533z"/>
   <path d="m263.78 245.9v3.9867h-1.2867v-9.5533h2.7q0.90666 0 1.5667 0.18667 0.66 0.18 1.0867 0.52666 0.43333 0.34667 0.64 0.84 0.20667 0.48667 0.20667 1.0933 0 0.50667-0.16 0.94666-0.16 0.44-0.46667 0.79334-0.3 0.34666-0.74 0.59999-0.43333 0.24667-0.98666 0.36667 0.25333 0.16 0.42666 0.40667l2.7867 3.7933h-1.1467q-0.35333 0-0.52-0.27333l-2.48-3.4133q-0.11333-0.16-0.24667-0.22666-0.12666-0.0733-0.4-0.0733zm0-0.93999h1.36q0.56 0 0.98667-0.13334 0.43333-0.14 0.71999-0.38666 0.29334-0.25334 0.44-0.6 0.14667-0.34667 0.14667-0.76667 0-0.85333-0.56-1.2867t-1.68-0.43333h-1.4133z"/>
   <path d="m272.14 249.88h-1.2933v-9.5533h1.2933z"/>
   <path d="m283.4 245.11q0 1.0733-0.34 1.9733-0.34 0.89333-0.96 1.54-0.62 0.64667-1.4933 1.0067-0.86667 0.35333-1.92 0.35333t-1.92-0.35333q-0.86667-0.36-1.4867-1.0067-0.62-0.64666-0.96-1.54-0.34-0.9-0.34-1.9733t0.34-1.9667q0.34-0.9 0.96-1.5467 0.61999-0.65333 1.4867-1.0133 0.86666-0.36 1.92-0.36t1.92 0.36q0.87333 0.36 1.4933 1.0133 0.62 0.64667 0.96 1.5467 0.34 0.89333 0.34 1.9667zm-1.3267 0q0-0.88-0.24-1.58t-0.68-1.18q-0.43999-0.48667-1.0667-0.74667-0.62666-0.26-1.4-0.26-0.76666 0-1.3933 0.26-0.62666 0.26-1.0733 0.74667-0.44 0.47999-0.67999 1.18-0.24 0.7-0.24 1.58t0.24 1.58q0.23999 0.69334 0.67999 1.18 0.44667 0.48 1.0733 0.74 0.62667 0.25333 1.3933 0.25333 0.77334 0 1.4-0.25333 0.62667-0.26 1.0667-0.74 0.44-0.48666 0.68-1.18 0.24-0.69999 0.24-1.58z"/>
   <path d="m286.54 245.9v3.9867h-1.2867v-9.5533h2.7q0.90666 0 1.5667 0.18667 0.66 0.18 1.0867 0.52666 0.43333 0.34667 0.63999 0.84 0.20667 0.48667 0.20667 1.0933 0 0.50667-0.16 0.94666-0.16 0.44-0.46667 0.79334-0.29999 0.34666-0.73999 0.59999-0.43334 0.24667-0.98667 0.36667 0.25334 0.16 0.42667 0.40667l2.7867 3.7933h-1.1467q-0.35333 0-0.51999-0.27333l-2.48-3.4133q-0.11333-0.16-0.24666-0.22666-0.12667-0.0733-0.4-0.0733zm0-0.93999h1.36q0.55999 0 0.98666-0.13334 0.43333-0.14 0.72-0.38666 0.29333-0.25334 0.44-0.6 0.14666-0.34667 0.14666-0.76667 0-0.85333-0.56-1.2867-0.55999-0.43333-1.68-0.43333h-1.4133z"/>
   <path d="m245.86 261.78q0 1.0733-0.34 1.9533t-0.96 1.5067q-0.62 0.62667-1.4933 0.97334-0.86666 0.33999-1.92 0.33999h-3.5667v-9.5533h3.5667q1.0533 0 1.92 0.34666 0.87333 0.34 1.4933 0.97333 0.62 0.62667 0.96 1.5067 0.34 0.88 0.34 1.9533zm-1.3267 0q0-0.87999-0.24-1.5733-0.24-0.69333-0.67999-1.1733-0.44-0.48-1.0667-0.73333-0.62666-0.25333-1.4-0.25333h-2.2733v7.46h2.2733q0.77333 0 1.4-0.25333 0.62667-0.25333 1.0667-0.72667 0.43999-0.48 0.67999-1.1733t0.24-1.5733z"/>
   <path d="m249.01 266.55h-1.2933v-9.5533h1.2933z"/>
   <path d="m252.74 262.56v3.9866h-1.2867v-9.5533h2.7q0.90667 0 1.5667 0.18666 0.65999 0.18 1.0867 0.52667 0.43333 0.34666 0.64 0.83999 0.20666 0.48667 0.20666 1.0933 0 0.50666-0.16 0.94666t-0.46666 0.79333q-0.3 0.34667-0.74 0.6-0.43333 0.24667-0.98666 0.36667 0.25333 0.15999 0.42666 0.40666l2.7867 3.7933h-1.1467q-0.35333 0-0.52-0.27333l-2.48-3.4133q-0.11334-0.16-0.24667-0.22667-0.12667-0.0733-0.4-0.0733zm0-0.94h1.36q0.56 0 0.98666-0.13333 0.43334-0.14 0.72-0.38667 0.29333-0.25333 0.44-0.6 0.14667-0.34666 0.14667-0.76666 0-0.85333-0.56-1.2867-0.56-0.43333-1.68-0.43333h-1.4133z"/>
   <path d="m265.69 257v1.0533h-4.5933v3.1733h3.72v1.0133h-3.72v3.26h4.6l-7e-3 1.0533h-5.8866v-9.5533z"/>
   <path d="m268.8 266.55h-1.2933v-9.5533h1.2933z"/>
   <path d="m277.7 257v1.0867h-3.0933v8.4666h-1.2867v-8.4666h-3.1v-1.0867z"/>
   <path d="m287.51 261.78q0 1.0733-0.34 1.9733-0.34 0.89333-0.96 1.54-0.62 0.64666-1.4933 1.0067-0.86666 0.35333-1.92 0.35333t-1.92-0.35333q-0.86666-0.36-1.4867-1.0067-0.62-0.64667-0.96-1.54-0.34-0.9-0.34-1.9733t0.34-1.9667q0.34-0.9 0.96-1.5467 0.62-0.65333 1.4867-1.0133 0.86667-0.36 1.92-0.36t1.92 0.36q0.87333 0.36 1.4933 1.0133 0.62 0.64666 0.96 1.5467 0.34 0.89333 0.34 1.9667zm-1.3267 0q0-0.87999-0.24-1.58t-0.68-1.18q-0.44-0.48667-1.0667-0.74666-0.62666-0.26-1.4-0.26-0.76667 0-1.3933 0.26-0.62667 0.25999-1.0733 0.74666-0.44 0.48-0.68 1.18t-0.24 1.58q0 0.88 0.24 1.58 0.24 0.69333 0.68 1.18 0.44666 0.47999 1.0733 0.73999 0.62666 0.25334 1.3933 0.25334 0.77333 0 1.4-0.25334 0.62667-0.26 1.0667-0.73999 0.44-0.48667 0.68-1.18 0.24-0.7 0.24-1.58z"/>
  </g>
  <path d="m126.34 207.9h81.46v74.412h-81.46z" fill="#f3f6f6" stroke="#e2e4e5" stroke-linecap="square" stroke-linejoin="round" stroke-width=".20165"/>
  <g aria-label="BAIXO">
   <path d="m133.98 250.36v-10.509h3.3513q0.96801 0 1.6647 0.19066 0.70401 0.19067 1.1513 0.54267 0.45467 0.352 0.66734 0.86534 0.21266 0.506 0.21266 1.144 0 0.38867-0.12466 0.748-0.11734 0.35934-0.35934 0.66734t-0.616 0.55q-0.36667 0.242-0.86534 0.396 1.1513 0.22733 1.738 0.82867 0.58667 0.60133 0.58667 1.584 0 0.66734-0.24934 1.2173-0.242 0.55-0.71867 0.946-0.46933 0.396-1.1587 0.616-0.68934 0.21267-1.5693 0.21267zm1.4153-4.7887v3.6593h2.2733q0.60867 0 1.0487-0.13933t0.71867-0.38867q0.286-0.25667 0.418-0.60133 0.132-0.352 0.132-0.77 0-0.81401-0.57934-1.2833-0.57933-0.47667-1.738-0.47667zm0-1.012h1.8773q0.60133 0 1.0413-0.132 0.44734-0.132 0.73334-0.36667 0.29333-0.23467 0.43267-0.56467 0.13933-0.33733 0.13933-0.73333 0-0.93134-0.55734-1.3567-0.55733-0.43267-1.7307-0.43267h-1.936z"/>
   <path d="m157.86 250.36h-1.1q-0.19067 0-0.308-0.0953t-0.176-0.24201l-0.98267-2.5373h-4.7153l-0.98267 2.5373q-0.044 0.132-0.16867 0.23467t-0.308 0.10267h-1.1l4.202-10.509h1.4373zm-6.886-3.9013h3.9233l-1.65-4.2754q-0.0807-0.19066-0.16134-0.44-0.0733-0.24933-0.154-0.53533-0.0733 0.286-0.154 0.54267-0.0733 0.24933-0.154 0.44z"/>
   <path d="m166.67 250.36h-1.4227v-10.509h1.4227z"/>
   <path d="m177.77 244.96-3.4687-5.1113h1.4153q0.15401 0 0.22734 0.0513 0.0733 0.0513 0.132 0.14667l2.7427 4.2093q0.0513-0.154 0.154-0.33733l2.5887-3.8427q0.0587-0.10267 0.13934-0.16133 0.0807-0.066 0.19067-0.066h1.3567l-3.4834 5.0453 3.6007 5.4634h-1.408q-0.16134 0-0.25667-0.0807-0.088-0.088-0.14667-0.19067l-2.816-4.4073q-0.0513 0.154-0.13201 0.29334l-2.7427 4.114q-0.0733 0.10267-0.16133 0.19067-0.0807 0.0807-0.22734 0.0807h-1.32z"/>
   <path d="m200.16 245.11q0 1.1807-0.374 2.1707-0.374 0.98267-1.056 1.694-0.682 0.71133-1.6427 1.1073-0.95334 0.38867-2.112 0.38867-1.1587 0-2.112-0.38867-0.95333-0.396-1.6353-1.1073-0.682-0.71134-1.056-1.694-0.374-0.99-0.374-2.1707t0.374-2.1633q0.374-0.99 1.056-1.7013 0.68201-0.71866 1.6353-1.1147 0.95334-0.39601 2.112-0.39601 1.1587 0 2.112 0.39601 0.96067 0.396 1.6427 1.1147 0.682 0.71134 1.056 1.7013 0.374 0.98267 0.374 2.1633zm-1.4593 0q0-0.968-0.264-1.738-0.264-0.77001-0.748-1.298-0.48401-0.53533-1.1733-0.82133-0.68934-0.286-1.54-0.286-0.84334 0-1.5327 0.286-0.68934 0.286-1.1807 0.82133-0.48401 0.528-0.74801 1.298-0.264 0.77-0.264 1.738t0.264 1.738q0.264 0.76267 0.74801 1.298 0.49133 0.528 1.1807 0.814 0.68933 0.27867 1.5327 0.27867 0.85066 0 1.54-0.27867 0.68933-0.286 1.1733-0.814 0.484-0.53534 0.748-1.298 0.264-0.77 0.264-1.738z"/>
  </g>
  <path d="m30.584 207.9h81.46v74.412h-81.46z" fill="#f3f6f6" stroke="#e2e4e5" stroke-linecap="square" stroke-linejoin="round" stroke-width=".20165"/>
  <text x="147.92969" y="236.98828" font-family="lato" font-size="18.667px" letter-spacing="0px" word-spacing="0px" style="line-height:1.25" xml:space="preserve"><tspan x="147.92969" y="236.98828"/></text>
  <g aria-label="CANTO INFERIOR ESQUERDO">
   <path d="m55.827 230.31q0.10667 0 0.18667 0.0867l0.51333 0.55333q-0.58666 0.68-1.4267 1.06-0.83333 0.38-2.02 0.38-1.0267 0-1.8667-0.35333-0.84-0.36-1.4333-1-0.59333-0.64666-0.92-1.5467t-0.32667-1.98q0-1.08 0.34-1.98 0.34-0.9 0.95333-1.5467 0.62-0.64667 1.48-1 0.86-0.36 1.9-0.36 1.02 0 1.8 0.32666 0.78 0.32667 1.3733 0.88667l-0.42666 0.59333q-0.04 0.0667-0.10667 0.11333-0.06 0.04-0.16667 0.04-0.12 0-0.29333-0.12666-0.17333-0.13334-0.45333-0.29333-0.28-0.16-0.7-0.28667-0.42-0.13333-1.0333-0.13333-0.74 0-1.3533 0.26-0.61333 0.25333-1.06 0.73999-0.44 0.48667-0.68666 1.1867t-0.24667 1.58q0 0.89333 0.25333 1.5933 0.26 0.7 0.7 1.1867 0.44666 0.48 1.0467 0.73333 0.60666 0.25333 1.3067 0.25333 0.42667 0 0.76666-0.0467 0.34667-0.0533 0.63333-0.16 0.29333-0.10666 0.54-0.26666 0.25333-0.16667 0.5-0.39333 0.11333-0.1 0.22667-0.1z"/>
   <path d="m65.794 232.28h-1q-0.17333 0-0.28-0.0867-0.10667-0.0867-0.16-0.22l-0.89333-2.3067h-4.2867l-0.89333 2.3067q-0.04 0.12-0.15333 0.21333-0.11333 0.0933-0.28 0.0933h-1l3.82-9.5533h1.3067zm-6.26-3.5466h3.5667l-1.5-3.8867q-0.07333-0.17333-0.14667-0.4-0.06667-0.22667-0.14-0.48666-0.06667 0.25999-0.14 0.49333-0.06667 0.22666-0.14 0.4z"/>
   <path d="m67.72 222.73q0.08667 0 0.14667 0.0133 0.06 7e-3 0.10667 0.0333 0.04667 0.02 0.09333 0.0667 0.04667 0.04 0.1 0.10666l5.5267 7.1933q-0.01333-0.17333-0.02667-0.33333-0.0067-0.16667-0.0067-0.31334v-6.7666h1.1333v9.5533h-0.64666q-0.15333 0-0.26-0.0533-0.1-0.0533-0.2-0.18l-5.5267-7.1933q0.01333 0.16666 0.02 0.32666 0.0067 0.16 0.0067 0.29334v6.8066h-1.1333v-9.5533h0.66666z"/>
   <path d="m83.693 222.73v1.0867h-3.0933v8.4666h-1.2867v-8.4666h-3.1v-1.0867z"/>
   <path d="m93.507 227.51q0 1.0733-0.34 1.9733-0.34 0.89333-0.96 1.54-0.62 0.64666-1.4933 1.0067-0.86666 0.35333-1.92 0.35333t-1.92-0.35333q-0.86666-0.36-1.4867-1.0067-0.62-0.64667-0.96-1.54-0.34-0.9-0.34-1.9733t0.34-1.9667q0.34-0.9 0.96-1.5467 0.62-0.65333 1.4867-1.0133t1.92-0.36 1.92 0.36q0.87333 0.36 1.4933 1.0133 0.62 0.64666 0.96 1.5467 0.34 0.89333 0.34 1.9667zm-1.3267 0q0-0.87999-0.24-1.58-0.24-0.7-0.68-1.18-0.44-0.48667-1.0667-0.74666-0.62666-0.26-1.4-0.26-0.76666 0-1.3933 0.26-0.62666 0.25999-1.0733 0.74666-0.44 0.48-0.68 1.18-0.24 0.7-0.24 1.58 0 0.88 0.24 1.58 0.24 0.69333 0.68 1.18 0.44666 0.48 1.0733 0.73999 0.62666 0.25334 1.3933 0.25334 0.77333 0 1.4-0.25334 0.62666-0.25999 1.0667-0.73999 0.44-0.48667 0.68-1.18 0.24-0.7 0.24-1.58z"/>
   <path d="m43.397 248.95h-1.2933v-9.5533h1.2933z"/>
   <path d="m46.504 239.39q0.08667 0 0.14667 0.0133 0.06 7e-3 0.10667 0.0333 0.04667 0.02 0.09333 0.0667 0.04667 0.04 0.1 0.10667l5.5267 7.1933q-0.01333-0.17333-0.02667-0.33333-0.0067-0.16666-0.0067-0.31333v-6.7666h1.1333v9.5533h-0.64666q-0.15333 0-0.26-0.0533-0.1-0.0533-0.2-0.18l-5.5267-7.1933q0.01333 0.16667 0.02 0.32667 0.0067 0.16 0.0067 0.29333v6.8066h-1.1333v-9.5533h0.66666z"/>
   <path d="m61.904 239.39v1.0533h-4.5933v3.34h3.9267v1.0533h-3.9267v4.1067h-1.2933v-9.5533z"/>
   <path d="m69.443 239.39v1.0533h-4.5933v3.1733h3.72v1.0133h-3.72v3.26h4.6l-0.0067 1.0533h-5.8867v-9.5533z"/>
   <path d="m72.543 244.96v3.9867h-1.2867v-9.5533h2.7q0.90666 0 1.5667 0.18667 0.66 0.18 1.0867 0.52666 0.43333 0.34667 0.64 0.84 0.20667 0.48666 0.20667 1.0933 0 0.50667-0.16 0.94666-0.16 0.44-0.46666 0.79334-0.3 0.34666-0.74 0.59999-0.43333 0.24667-0.98666 0.36667 0.25333 0.16 0.42667 0.40667l2.7867 3.7933h-1.1467q-0.35333 0-0.52-0.27333l-2.48-3.4133q-0.11333-0.16-0.24667-0.22666-0.12667-0.0733-0.4-0.0733zm0-0.94h1.36q0.56 0 0.98666-0.13333 0.43333-0.14 0.72-0.38666 0.29333-0.25334 0.44-0.6 0.14667-0.34667 0.14667-0.76667 0-0.85333-0.56-1.2867-0.56-0.43333-1.68-0.43333h-1.4133z"/>
   <path d="m80.903 248.95h-1.2933v-9.5533h1.2933z"/>
   <path d="m92.17 244.17q0 1.0733-0.34 1.9733-0.34 0.89333-0.96 1.54-0.62 0.64667-1.4933 1.0067-0.86666 0.35333-1.92 0.35333-1.0533 0-1.92-0.35333-0.86666-0.36-1.4867-1.0067-0.62-0.64666-0.96-1.54-0.34-0.9-0.34-1.9733t0.34-1.9667q0.34-0.9 0.96-1.5467 0.62-0.65333 1.4867-1.0133 0.86666-0.36 1.92-0.36 1.0533 0 1.92 0.36 0.87333 0.36 1.4933 1.0133 0.62 0.64667 0.96 1.5467 0.34 0.89333 0.34 1.9667zm-1.3267 0q0-0.88-0.24-1.58t-0.68-1.18q-0.44-0.48666-1.0667-0.74666t-1.4-0.26q-0.76666 0-1.3933 0.26-0.62666 0.26-1.0733 0.74666-0.44 0.48-0.68 1.18-0.24 0.7-0.24 1.58t0.24 1.58q0.24 0.69334 0.68 1.18 0.44666 0.48 1.0733 0.74 0.62667 0.25333 1.3933 0.25333 0.77333 0 1.4-0.25333 0.62666-0.26 1.0667-0.74 0.44-0.48666 0.68-1.18 0.24-0.69999 0.24-1.58z"/>
   <path d="m95.303 244.96v3.9867h-1.2867v-9.5533h2.7q0.90666 0 1.5667 0.18667 0.66 0.18 1.0867 0.52666 0.43333 0.34667 0.64 0.84 0.20667 0.48666 0.20667 1.0933 0 0.50667-0.16 0.94666-0.16 0.44-0.46667 0.79334-0.3 0.34666-0.74 0.59999-0.43333 0.24667-0.98666 0.36667 0.25333 0.16 0.42667 0.40667l2.7867 3.7933h-1.1467q-0.35333 0-0.52-0.27333l-2.48-3.4133q-0.11333-0.16-0.24667-0.22666-0.12667-0.0733-0.4-0.0733zm0-0.94h1.36q0.56 0 0.98666-0.13333 0.43333-0.14 0.72-0.38666 0.29333-0.25334 0.44-0.6 0.14667-0.34667 0.14667-0.76667 0-0.85333-0.56-1.2867-0.56-0.43333-1.68-0.43333h-1.4133z"/>
   <path d="m41.984 256.06v1.0533h-4.5933v3.1733h3.72v1.0133h-3.72v3.26h4.6l-0.0067 1.0533h-5.8867v-9.5533z"/>
   <path d="m48.684 257.55q-0.06 0.1-0.13333 0.15334-0.06667 0.0467-0.16667 0.0467-0.11333 0-0.26667-0.11333t-0.38667-0.24667q-0.22667-0.14-0.55333-0.25333-0.32-0.11333-0.78-0.11333-0.43333 0-0.76666 0.12-0.32666 0.11333-0.55333 0.31333-0.22 0.2-0.33333 0.47333-0.11333 0.26667-0.11333 0.58 0 0.4 0.19333 0.66667 0.2 0.26 0.52 0.44666 0.32667 0.18667 0.73333 0.32667 0.41333 0.13333 0.84 0.28 0.43333 0.14666 0.84 0.33333 0.41333 0.18 0.73333 0.46 0.32667 0.28 0.52 0.68666 0.2 0.40667 0.2 1 0 0.62667-0.21333 1.18-0.21333 0.54666-0.62666 0.95333-0.40667 0.40666-1.0067 0.64-0.59333 0.23333-1.3533 0.23333-0.93333 0-1.6933-0.33333-0.76-0.34-1.3-0.91333l0.37333-0.61334q0.05333-0.0733 0.12667-0.11999 0.08-0.0533 0.17333-0.0533 0.08667 0 0.19333 0.0733 0.11333 0.0667 0.25333 0.17334 0.14 0.10666 0.32 0.23333 0.18 0.12667 0.40667 0.23333 0.23333 0.10667 0.52666 0.18 0.29333 0.0667 0.66 0.0667 0.46 0 0.82-0.12667 0.36-0.12666 0.60666-0.35333 0.25333-0.23333 0.38667-0.55333t0.13333-0.71333q0-0.43334-0.2-0.70667-0.19333-0.28-0.51333-0.46666-0.32-0.18667-0.73333-0.31334-0.41333-0.13333-0.84-0.26666-0.42666-0.14-0.84-0.32-0.41333-0.18-0.73333-0.46667-0.32-0.28666-0.52-0.71333-0.19333-0.43333-0.19333-1.0667 0-0.50667 0.19333-0.98 0.2-0.47333 0.57333-0.84 0.38-0.36666 0.92666-0.58666 0.55333-0.22 1.2667-0.22 0.8 0 1.4533 0.25333 0.66 0.25333 1.16 0.73333z"/>
   <path d="m59.864 260.84q0 0.67333-0.14 1.2867-0.13333 0.60666-0.39333 1.1267t-0.63333 0.94666q-0.37333 0.42667-0.84 0.74l2.4467 2.6467h-1.0667q-0.24 0-0.42667-0.0667-0.18667-0.0667-0.34-0.23334l-1.6733-1.8267q-0.38 0.12-0.79333 0.18667-0.40667 0.0667-0.85333 0.0667-1.0533 0-1.92-0.35333-0.86666-0.36-1.4867-1.0067-0.62-0.64667-0.96-1.54-0.34-0.9-0.34-1.9733t0.34-1.9667q0.34-0.9 0.96-1.5467 0.62-0.65333 1.4867-1.0133 0.86666-0.36 1.92-0.36 1.0533 0 1.92 0.36 0.87333 0.36 1.4933 1.0133 0.62 0.64666 0.96 1.5467 0.34 0.89333 0.34 1.9667zm-1.3267 0q0-0.88-0.24-1.58-0.24-0.7-0.68-1.18-0.44-0.48667-1.0667-0.74667-0.62666-0.25999-1.4-0.25999-0.76666 0-1.3933 0.25999-0.62666 0.26-1.0733 0.74667-0.44 0.48-0.68 1.18-0.24 0.69999-0.24 1.58t0.24 1.58q0.24 0.69333 0.68 1.18 0.44667 0.47999 1.0733 0.73999 0.62666 0.25334 1.3933 0.25334 0.77333 0 1.4-0.25334 0.62666-0.26 1.0667-0.73999 0.44-0.48667 0.68-1.18 0.24-0.7 0.24-1.58z"/>
   <path d="m65.39 264.59q0.59333 0 1.06-0.2 0.46666-0.2 0.78666-0.56 0.32666-0.36 0.49333-0.86 0.17333-0.5 0.17333-1.1v-5.8067h1.2867v5.8067q0 0.82666-0.26667 1.5333-0.26 0.70666-0.75333 1.2267-0.48667 0.51333-1.1933 0.80666-0.70666 0.29334-1.5867 0.29334-0.88 0-1.5867-0.29334-0.70666-0.29333-1.2-0.80666-0.49333-0.52-0.76-1.2267-0.26-0.70667-0.26-1.5333v-5.8067h1.2867v5.8q0 0.6 0.16667 1.1 0.17333 0.5 0.49333 0.85999 0.32667 0.36 0.79333 0.56667 0.47333 0.2 1.0667 0.2z"/>
   <path d="m77.397 256.06v1.0533h-4.5933v3.1733h3.72v1.0133h-3.72v3.26h4.6l-0.0067 1.0533h-5.8866v-9.5533z"/>
   <path d="m80.497 261.63v3.9866h-1.2867v-9.5533h2.7q0.90666 0 1.5667 0.18667 0.66 0.18 1.0867 0.52667 0.43333 0.34666 0.64 0.83999 0.20667 0.48667 0.20667 1.0933 0 0.50667-0.16 0.94667-0.16 0.44-0.46667 0.79333-0.3 0.34667-0.74 0.6-0.43333 0.24666-0.98666 0.36666 0.25333 0.16 0.42666 0.40667l2.7867 3.7933h-1.1467q-0.35333 0-0.52-0.27333l-2.48-3.4133q-0.11333-0.16-0.24667-0.22667-0.12667-0.0733-0.4-0.0733zm0-0.94h1.36q0.56 0 0.98666-0.13333 0.43333-0.14 0.72-0.38667 0.29333-0.25333 0.44-0.6 0.14667-0.34666 0.14667-0.76666 0-0.85333-0.56-1.2867-0.56-0.43333-1.68-0.43333h-1.4133z"/>
   <path d="m95.843 260.84q0 1.0733-0.34 1.9533t-0.96 1.5067q-0.62 0.62667-1.4933 0.97333-0.86666 0.34-1.92 0.34h-3.5667v-9.5533h3.5667q1.0533 0 1.92 0.34667 0.87333 0.34 1.4933 0.97333 0.62 0.62667 0.96 1.5067 0.34 0.88 0.34 1.9533zm-1.3267 0q0-0.88-0.24-1.5733-0.24-0.69333-0.68-1.1733t-1.0667-0.73333-1.4-0.25333h-2.2733v7.46h2.2733q0.77333 0 1.4-0.25333 0.62666-0.25334 1.0667-0.72667 0.44-0.48 0.68-1.1733 0.24-0.69333 0.24-1.5733z"/>
   <path d="m106.53 260.84q0 1.0733-0.34 1.9733-0.34 0.89333-0.95999 1.54-0.62 0.64666-1.4933 1.0067-0.86667 0.35333-1.92 0.35333t-1.92-0.35333q-0.86666-0.36-1.4867-1.0067-0.62-0.64667-0.96-1.54-0.34-0.9-0.34-1.9733t0.34-1.9667q0.34-0.9 0.96-1.5467 0.62-0.65333 1.4867-1.0133t1.92-0.36 1.92 0.36q0.87333 0.36 1.4933 1.0133 0.61999 0.64666 0.95999 1.5467 0.34 0.89333 0.34 1.9667zm-1.3267 0q0-0.88-0.24-1.58-0.24-0.7-0.68-1.18-0.44-0.48667-1.0667-0.74667-0.62667-0.25999-1.4-0.25999-0.76666 0-1.3933 0.25999-0.62666 0.26-1.0733 0.74667-0.44 0.48-0.68 1.18-0.24 0.69999-0.24 1.58t0.24 1.58q0.24 0.69333 0.68 1.18 0.44667 0.47999 1.0733 0.73999 0.62667 0.25334 1.3933 0.25334 0.77333 0 1.4-0.25334 0.62666-0.26 1.0667-0.73999 0.44-0.48667 0.68-1.18 0.24-0.7 0.24-1.58z"/>
  </g>
 </g>
</svg>
