<?xml version="1.0" encoding="UTF-8"?>
<svg id="svg-mahjong" width="1136" height="176" version="1.1" viewBox="0 0 1136 176" xmlns="http://www.w3.org/2000/svg" xmlns:cc="http://creativecommons.org/ns#" xmlns:dc="http://purl.org/dc/elements/1.1/" xmlns:rdf="http://www.w3.org/1999/02/22-rdf-syntax-ns#" xmlns:xlink="http://www.w3.org/1999/xlink">
 <defs>
  <linearGradient id="linearGradient40875">
   <stop stop-color="#e5e5e5" offset="0"/>
   <stop stop-color="#b2b2b2" stop-opacity="0" offset="1"/>
  </linearGradient>
  <linearGradient id="linearGradient40877" x1="214.42" x2="214.42" y1="330.19" y2="386.26" gradientTransform="translate(182.02 325.94)" gradientUnits="userSpaceOnUse" xlink:href="#linearGradient40875"/>
  <linearGradient id="linearGradient40877-3" x1="214.42" x2="214.42" y1="330.19" y2="386.26" gradientTransform="translate(102.02 325.94)" gradientUnits="userSpaceOnUse" xlink:href="#linearGradient40875"/>
  <linearGradient id="linearGradient41253" x1="214.42" x2="214.42" y1="330.19" y2="386.26" gradientTransform="translate(22.02 325.94)" gradientUnits="userSpaceOnUse" xlink:href="#linearGradient40875"/>
  <linearGradient id="linearGradient41263" x1="214.42" x2="214.42" y1="330.19" y2="386.26" gradientTransform="translate(-57.98 325.94)" gradientUnits="userSpaceOnUse" xlink:href="#linearGradient40875"/>
  <linearGradient id="linearGradient41273" x1="214.42" x2="214.42" y1="330.19" y2="386.26" gradientTransform="translate(-137.98 325.94)" gradientUnits="userSpaceOnUse" xlink:href="#linearGradient40875"/>
  <linearGradient id="linearGradient41283" x1="214.42" x2="214.42" y1="330.19" y2="386.26" gradientTransform="translate(-217.98 325.94)" gradientUnits="userSpaceOnUse" xlink:href="#linearGradient40875"/>
  <linearGradient id="linearGradient41293" x1="214.42" x2="214.42" y1="330.19" y2="386.26" gradientTransform="translate(-297.98 325.94)" gradientUnits="userSpaceOnUse" xlink:href="#linearGradient40875"/>
  <linearGradient id="linearGradient41303" x1="214.42" x2="214.42" y1="330.19" y2="386.26" gradientTransform="translate(-377.98 325.94)" gradientUnits="userSpaceOnUse" xlink:href="#linearGradient40875"/>
  <linearGradient id="linearGradient41313" x1="214.42" x2="214.42" y1="330.19" y2="386.26" gradientTransform="translate(-457.98 325.94)" gradientUnits="userSpaceOnUse" xlink:href="#linearGradient40875"/>
  <linearGradient id="linearGradient41323" x1="214.42" x2="214.42" y1="330.19" y2="386.26" gradientTransform="translate(-537.98 325.94)" gradientUnits="userSpaceOnUse" xlink:href="#linearGradient40875"/>
  <linearGradient id="linearGradient41333" x1="214.42" x2="214.42" y1="330.19" y2="386.26" gradientTransform="translate(-617.98 325.94)" gradientUnits="userSpaceOnUse" xlink:href="#linearGradient40875"/>
  <linearGradient id="linearGradient41343" x1="214.42" x2="214.42" y1="330.19" y2="386.26" gradientTransform="translate(-697.98 325.94)" gradientUnits="userSpaceOnUse" xlink:href="#linearGradient40875"/>
  <linearGradient id="linearGradient41353" x1="214.42" x2="214.42" y1="330.19" y2="386.26" gradientTransform="translate(-777.98 325.94)" gradientUnits="userSpaceOnUse" xlink:href="#linearGradient40875"/>
 </defs>
 <g transform="translate(-80,-112)" stroke-opacity="0">
  <rect x="1152" y="112" width="64" height="64" rx="12.371" ry="12.371" fill="#c00" stop-color="#000000" style="paint-order:markers fill stroke"/>
  <rect x="1155" y="114.98" width="58.039" height="58.039" rx="12.371" ry="12.371" fill="#f33" stop-color="#000000" style="paint-order:markers fill stroke"/>
 </g>
 <g transform="translate(0,-128)" stroke-opacity="0">
  <rect x="2.2852e-6" y="240" width="64" height="64" rx="12.371" ry="12.371" fill="#cc0" stop-color="#000000" style="paint-order:markers fill stroke"/>
  <rect x="2.9807" y="242.98" width="58.039" height="58.039" rx="12.371" ry="12.371" fill="#ff3" stop-color="#000000" style="paint-order:markers fill stroke"/>
 </g>
 <g transform="translate(80 -128)" stroke-opacity="0">
  <rect x="2.2852e-6" y="240" width="64" height="64" rx="12.371" ry="12.371" fill="#cc0" stop-color="#000000" style="paint-order:markers fill stroke"/>
  <rect x="2.9807" y="242.98" width="58.039" height="58.039" rx="12.371" ry="12.371" fill="#ff3" stop-color="#000000" style="paint-order:markers fill stroke"/>
 </g>
 <g transform="translate(160,-128)" stroke-opacity="0">
  <rect x="2.2852e-6" y="240" width="64" height="64" rx="12.371" ry="12.371" fill="#cc0" stop-color="#000000" style="paint-order:markers fill stroke"/>
  <rect x="2.9807" y="242.98" width="58.039" height="58.039" rx="12.371" ry="12.371" fill="#ff3" stop-color="#000000" style="paint-order:markers fill stroke"/>
 </g>
 <g transform="translate(0,-128)" stroke-opacity="0">
  <rect x="280" y="240" width="64" height="64" rx="12.371" ry="12.371" fill="#f0a" stop-color="#000000" style="paint-order:markers fill stroke"/>
  <rect x="282.98" y="242.98" width="58.039" height="58.039" rx="12.371" ry="12.371" fill="#f6c" stop-color="#000000" style="paint-order:markers fill stroke"/>
 </g>
 <g transform="translate(80,-128)" stroke-opacity="0">
  <rect x="280" y="240" width="64" height="64" rx="12.371" ry="12.371" fill="#f0a" stop-color="#000000" style="paint-order:markers fill stroke"/>
  <rect x="282.98" y="242.98" width="58.039" height="58.039" rx="12.371" ry="12.371" fill="#f6c" stop-color="#000000" style="paint-order:markers fill stroke"/>
 </g>
 <g transform="translate(160,-128)" stroke-opacity="0">
  <rect x="280" y="240" width="64" height="64" rx="12.371" ry="12.371" fill="#f0a" stop-color="#000000" style="paint-order:markers fill stroke"/>
  <rect x="282.98" y="242.98" width="58.039" height="58.039" rx="12.371" ry="12.371" fill="#f6c" stop-color="#000000" style="paint-order:markers fill stroke"/>
 </g>
 <g transform="translate(240,-128)" stroke-opacity="0">
  <rect x="280" y="240" width="64" height="64" rx="12.371" ry="12.371" fill="#f0a" stop-color="#000000" style="paint-order:markers fill stroke"/>
  <rect x="282.98" y="242.98" width="58.039" height="58.039" rx="12.371" ry="12.371" fill="#f6c" stop-color="#000000" style="paint-order:markers fill stroke"/>
 </g>
 <g transform="translate(0,-128)" stroke-opacity="0">
  <rect x="640" y="240" width="64" height="64" rx="12.371" ry="12.371" fill="#0c6" stop-color="#000000" style="paint-order:markers fill stroke"/>
  <rect x="642.98" y="242.98" width="58.039" height="58.039" rx="12.371" ry="12.371" fill="#3f9" stop-color="#000000" style="paint-order:markers fill stroke"/>
 </g>
 <g transform="translate(80,-128)" stroke-opacity="0">
  <rect x="640" y="240" width="64" height="64" rx="12.371" ry="12.371" fill="#0c6" stop-color="#000000" style="paint-order:markers fill stroke"/>
  <rect x="642.98" y="242.98" width="58.039" height="58.039" rx="12.371" ry="12.371" fill="#3f9" stop-color="#000000" style="paint-order:markers fill stroke"/>
 </g>
 <g transform="translate(160,-128)" stroke-opacity="0">
  <rect x="640" y="240" width="64" height="64" rx="12.371" ry="12.371" fill="#0c6" stop-color="#000000" style="paint-order:markers fill stroke"/>
  <rect x="642.98" y="242.98" width="58.039" height="58.039" rx="12.371" ry="12.371" fill="#3f9" stop-color="#000000" style="paint-order:markers fill stroke"/>
 </g>
 <g transform="translate(240,-128)" stroke-opacity="0">
  <rect x="640" y="240" width="64" height="64" rx="12.371" ry="12.371" fill="#0c6" stop-color="#000000" style="paint-order:markers fill stroke"/>
  <rect x="642.98" y="242.98" width="58.039" height="58.039" rx="12.371" ry="12.371" fill="#3f9" stop-color="#000000" style="paint-order:markers fill stroke"/>
 </g>
 <g transform="translate(320,-128)" stroke-opacity="0">
  <rect x="640" y="240" width="64" height="64" rx="12.371" ry="12.371" fill="#0c6" stop-color="#000000" style="paint-order:markers fill stroke"/>
  <rect x="642.98" y="242.98" width="58.039" height="58.039" rx="12.371" ry="12.371" fill="#3f9" stop-color="#000000" style="paint-order:markers fill stroke"/>
 </g>
 <g transform="translate(0,-128)" stroke-opacity="0">
  <rect x="1072" y="240" width="64" height="64" rx="12.371" ry="12.371" fill="#c60" stop-color="#000000" style="paint-order:markers fill stroke"/>
  <rect x="1075" y="242.98" width="58.039" height="58.039" rx="12.371" ry="12.371" fill="#f93" stop-color="#000000" style="paint-order:markers fill stroke"/>
 </g>
 <g transform="translate(-22.02 -325.94)" stroke-opacity="0">
  <rect x="182.02" y="325.94" width="64" height="64" rx="12.371" ry="12.371" fill="#ccc" stop-color="#000000" style="paint-order:markers fill stroke"/>
  <rect x="185" y="328.92" width="58.039" height="58.039" rx="12.371" ry="12.371" fill="#e5e5e5" stop-color="#000000" style="paint-order:markers fill stroke"/>
  <rect x="185" y="328.92" width="58.039" height="58.039" rx="12.371" ry="12.371" fill="url(#linearGradient41253)" stop-color="#000000" style="paint-order:markers fill stroke"/>
 </g>
 <g transform="translate(57.98 -325.94)" stroke-opacity="0">
  <rect x="182.02" y="325.94" width="64" height="64" rx="12.371" ry="12.371" fill="#ccc" stop-color="#000000" style="paint-order:markers fill stroke"/>
  <rect x="185" y="328.92" width="58.039" height="58.039" rx="12.371" ry="12.371" fill="#e5e5e5" stop-color="#000000" style="paint-order:markers fill stroke"/>
  <rect x="185" y="328.92" width="58.039" height="58.039" rx="12.371" ry="12.371" fill="url(#linearGradient41263)" stop-color="#000000" style="paint-order:markers fill stroke"/>
 </g>
 <g transform="translate(137.98 -325.94)" stroke-opacity="0">
  <rect x="182.02" y="325.94" width="64" height="64" rx="12.371" ry="12.371" fill="#ccc" stop-color="#000000" style="paint-order:markers fill stroke"/>
  <rect x="185" y="328.92" width="58.039" height="58.039" rx="12.371" ry="12.371" fill="#e5e5e5" stop-color="#000000" style="paint-order:markers fill stroke"/>
  <rect x="185" y="328.92" width="58.039" height="58.039" rx="12.371" ry="12.371" fill="url(#linearGradient41273)" stop-color="#000000" style="paint-order:markers fill stroke"/>
 </g>
 <g transform="translate(217.98 -325.94)" stroke-opacity="0">
  <rect x="182.02" y="325.94" width="64" height="64" rx="12.371" ry="12.371" fill="#ccc" stop-color="#000000" style="paint-order:markers fill stroke"/>
  <rect x="185" y="328.92" width="58.039" height="58.039" rx="12.371" ry="12.371" fill="#e5e5e5" stop-color="#000000" style="paint-order:markers fill stroke"/>
  <rect x="185" y="328.92" width="58.039" height="58.039" rx="12.371" ry="12.371" fill="url(#linearGradient41283)" stop-color="#000000" style="paint-order:markers fill stroke"/>
 </g>
 <g transform="translate(297.98 -325.94)" stroke-opacity="0">
  <rect x="182.02" y="325.94" width="64" height="64" rx="12.371" ry="12.371" fill="#ccc" stop-color="#000000" style="paint-order:markers fill stroke"/>
  <rect x="185" y="328.92" width="58.039" height="58.039" rx="12.371" ry="12.371" fill="#e5e5e5" stop-color="#000000" style="paint-order:markers fill stroke"/>
  <rect x="185" y="328.92" width="58.039" height="58.039" rx="12.371" ry="12.371" fill="url(#linearGradient41293)" stop-color="#000000" style="paint-order:markers fill stroke"/>
 </g>
 <g transform="translate(377.98 -325.94)" stroke-opacity="0">
  <rect x="182.02" y="325.94" width="64" height="64" rx="12.371" ry="12.371" fill="#ccc" stop-color="#000000" style="paint-order:markers fill stroke"/>
  <rect x="185" y="328.92" width="58.039" height="58.039" rx="12.371" ry="12.371" fill="#e5e5e5" stop-color="#000000" style="paint-order:markers fill stroke"/>
  <rect x="185" y="328.92" width="58.039" height="58.039" rx="12.371" ry="12.371" fill="url(#linearGradient41303)" stop-color="#000000" style="paint-order:markers fill stroke"/>
 </g>
 <g transform="translate(457.98 -325.94)" stroke-opacity="0">
  <rect x="182.02" y="325.94" width="64" height="64" rx="12.371" ry="12.371" fill="#ccc" stop-color="#000000" style="paint-order:markers fill stroke"/>
  <rect x="185" y="328.92" width="58.039" height="58.039" rx="12.371" ry="12.371" fill="#e5e5e5" stop-color="#000000" style="paint-order:markers fill stroke"/>
  <rect x="185" y="328.92" width="58.039" height="58.039" rx="12.371" ry="12.371" fill="url(#linearGradient41313)" stop-color="#000000" style="paint-order:markers fill stroke"/>
 </g>
 <g transform="translate(537.98 -325.94)" stroke-opacity="0">
  <rect x="182.02" y="325.94" width="64" height="64" rx="12.371" ry="12.371" fill="#ccc" stop-color="#000000" style="paint-order:markers fill stroke"/>
  <rect x="185" y="328.92" width="58.039" height="58.039" rx="12.371" ry="12.371" fill="#e5e5e5" stop-color="#000000" style="paint-order:markers fill stroke"/>
  <rect x="185" y="328.92" width="58.039" height="58.039" rx="12.371" ry="12.371" fill="url(#linearGradient41323)" stop-color="#000000" style="paint-order:markers fill stroke"/>
 </g>
 <g transform="translate(617.98 -325.94)" stroke-opacity="0">
  <rect x="182.02" y="325.94" width="64" height="64" rx="12.371" ry="12.371" fill="#ccc" stop-color="#000000" style="paint-order:markers fill stroke"/>
  <rect x="185" y="328.92" width="58.039" height="58.039" rx="12.371" ry="12.371" fill="#e5e5e5" stop-color="#000000" style="paint-order:markers fill stroke"/>
  <rect x="185" y="328.92" width="58.039" height="58.039" rx="12.371" ry="12.371" fill="url(#linearGradient41333)" stop-color="#000000" style="paint-order:markers fill stroke"/>
 </g>
 <g transform="translate(697.98 -325.94)" stroke-opacity="0">
  <rect x="182.02" y="325.94" width="64" height="64" rx="12.371" ry="12.371" fill="#ccc" stop-color="#000000" style="paint-order:markers fill stroke"/>
  <rect x="185" y="328.92" width="58.039" height="58.039" rx="12.371" ry="12.371" fill="#e5e5e5" stop-color="#000000" style="paint-order:markers fill stroke"/>
  <rect x="185" y="328.92" width="58.039" height="58.039" rx="12.371" ry="12.371" fill="url(#linearGradient41343)" stop-color="#000000" style="paint-order:markers fill stroke"/>
 </g>
 <g transform="translate(777.98 -325.94)" stroke-opacity="0">
  <rect x="182.02" y="325.94" width="64" height="64" rx="12.371" ry="12.371" fill="#ccc" stop-color="#000000" style="paint-order:markers fill stroke"/>
  <rect x="185" y="328.92" width="58.039" height="58.039" rx="12.371" ry="12.371" fill="#e5e5e5" stop-color="#000000" style="paint-order:markers fill stroke"/>
  <rect x="185" y="328.92" width="58.039" height="58.039" rx="12.371" ry="12.371" fill="url(#linearGradient41353)" stop-color="#000000" style="paint-order:markers fill stroke"/>
 </g>
 <g transform="translate(-182.02 -325.94)" stroke-opacity="0">
  <rect x="182.02" y="325.94" width="64" height="64" rx="12.371" ry="12.371" fill="#ccc" stop-color="#000000" style="paint-order:markers fill stroke"/>
  <rect x="185" y="328.92" width="58.039" height="58.039" rx="12.371" ry="12.371" fill="#e5e5e5" stop-color="#000000" style="paint-order:markers fill stroke"/>
  <rect x="185" y="328.92" width="58.039" height="58.039" rx="12.371" ry="12.371" fill="url(#linearGradient40877)" stop-color="#000000" style="paint-order:markers fill stroke"/>
 </g>
 <text id="label-a" x="32" y="47.510399" fill="#000000" font-family="sans-serif" font-size="42.667px" font-weight="bold" letter-spacing="0px" text-align="center" text-anchor="middle" word-spacing="0px" style="line-height:1.25" xml:space="preserve"><tspan x="32" y="47.510399">A</tspan></text>
 <g transform="translate(-102.02 -325.94)" stroke-opacity="0">
  <rect x="182.02" y="325.94" width="64" height="64" rx="12.371" ry="12.371" fill="#ccc" stop-color="#000000" style="paint-order:markers fill stroke"/>
  <rect x="185" y="328.92" width="58.039" height="58.039" rx="12.371" ry="12.371" fill="#e5e5e5" stop-color="#000000" style="paint-order:markers fill stroke"/>
  <rect x="185" y="328.92" width="58.039" height="58.039" rx="12.371" ry="12.371" fill="url(#linearGradient40877-3)" stop-color="#000000" style="paint-order:markers fill stroke"/>
 </g>
 <g fill="#000000" font-family="sans-serif" font-weight="bold" letter-spacing="0px" text-anchor="middle" word-spacing="0px">
  <g font-size="42.667px">
   <text id="label-b" x="112" y="47.510399" text-align="center" style="line-height:1.25" xml:space="preserve"><tspan x="112" y="47.510399">B</tspan></text>
   <text id="label-c" x="192" y="47.510399" text-align="center" style="line-height:1.25" xml:space="preserve"><tspan x="192" y="47.510399">C</tspan></text>
   <text id="label-d" x="272" y="47.510399" text-align="center" style="line-height:1.25" xml:space="preserve"><tspan x="272" y="47.510399">D</tspan></text>
   <text id="label-e" x="352" y="47.510399" text-align="center" style="line-height:1.25" xml:space="preserve"><tspan x="352" y="47.510399">E</tspan></text>
   <text id="label-f" x="432" y="47.510399" text-align="center" style="line-height:1.25" xml:space="preserve"><tspan x="432" y="47.510399">F</tspan></text>
   <text id="label-g" x="512" y="47.510399" text-align="center" style="line-height:1.25" xml:space="preserve"><tspan x="512" y="47.510399">G</tspan></text>
   <text id="label-h" x="592" y="47.510399" text-align="center" style="line-height:1.25" xml:space="preserve"><tspan x="592" y="47.510399">H</tspan></text>
   <text id="label-i" x="672" y="47.510399" text-align="center" style="line-height:1.25" xml:space="preserve"><tspan x="672" y="47.510399">I</tspan></text>
   <text id="label-k" x="832" y="47.510399" text-align="center" style="line-height:1.25" xml:space="preserve"><tspan x="832" y="47.510399">K</tspan></text>
   <text id="label-l" x="912" y="47.510399" text-align="center" style="line-height:1.25" xml:space="preserve"><tspan x="912" y="47.510399">L</tspan></text>
   <text id="label-m" x="992" y="47.510399" text-align="center" style="line-height:1.25" xml:space="preserve"><tspan x="992" y="47.510399">M</tspan></text>
   <text id="label-n" x="1104" y="47.510399" text-align="center" style="line-height:1.25" xml:space="preserve"><tspan x="1104" y="47.510399">N</tspan></text>
  </g>
  <g font-size="13.333px">
   <text id="label-flipflop" x="32" y="140.4128" text-align="center" style="line-height:1.25" xml:space="preserve"><tspan x="32" y="140.4128">FLIP</tspan><tspan x="32" y="157.1738">FLOP</tspan></text>
   <text id="label-start" x="112" y="148.84703" text-align="center" style="line-height:1.25" xml:space="preserve"><tspan x="112" y="148.84703">START</tspan></text>
   <text id="label-bet" x="192" y="148.84703" text-align="center" style="line-height:1.25" xml:space="preserve"><tspan x="192" y="148.84703">BET</tspan></text>
   <text id="label-take" x="312" y="140.4128" text-align="center" style="line-height:1.25" xml:space="preserve"><tspan x="312" y="140.4128">TAKE</tspan><tspan x="312" y="157.1738">SCORE</tspan></text>
  </g>
  <text id="label-dup" x="391.88235" y="140.64563" font-size="12.681px" stroke-width=".95106" text-align="center" style="line-height:1.25" xml:space="preserve"><tspan x="391.88235" y="140.64563">DOUBLE</tspan><tspan x="391.88235" y="156.58633">UP</tspan></text>
  <text id="label-big" x="472" y="148.84703" font-size="13.333px" text-align="center" style="line-height:1.25" xml:space="preserve"><tspan x="472" y="148.84703">BIG</tspan></text>
  <text id="label-small" x="552" y="148.84703" font-size="13.333px" text-align="center" style="line-height:1.25" xml:space="preserve"><tspan x="552" y="148.84703">SMALL</tspan></text>
  <text id="label-last" x="672.13922" y="140.85715" font-size="11.881px" stroke-width=".89108" text-align="center" style="line-height:1.25" xml:space="preserve"><tspan x="672.13922" y="140.85715">LAST</tspan><tspan x="672.13922" y="155.79263">CHANCE</tspan></text>
  <g font-size="13.333px">
   <text id="label-kan" x="752" y="148.84703" text-align="center" style="line-height:1.25" xml:space="preserve"><tspan x="752" y="148.84703">KAN</tspan></text>
   <text id="label-pon" x="832" y="148.84703" text-align="center" style="line-height:1.25" xml:space="preserve"><tspan x="832" y="148.84703">PON</tspan></text>
   <text id="label-chi" x="912" y="148.84703" text-align="center" style="line-height:1.25" xml:space="preserve"><tspan x="912" y="148.84703">CHI</tspan></text>
   <text id="label-reach" x="992" y="148.84703" text-align="center" style="line-height:1.25" xml:space="preserve"><tspan x="992" y="148.84703">REACH</tspan></text>
   <text id="label-ron" x="1104" y="148.84703" text-align="center" style="line-height:1.25" xml:space="preserve"><tspan x="1104" y="148.84703">RON</tspan></text>
  </g>
 </g>
 <g transform="matrix(.19643 0 0 .19643 130.8 117.02)" aria-label="スタート">
  <path d="m-183.4-108.01q-14.667 32.667-45.333 50.083l0.66666 1.4167q19.583-4.75 38.167-23.167 10.417 9.5 15 19.5 2 4.1667 6.4167 4.1667 2.1667 0 3.6667-1.6667 1.5-1.75 1.5-4.8333 0-5.4167-11.917-13.417-4.6667-3.3333-13-5.8333 6.4167-8.4167 13.417-20.25 0.91667-1.75 1.9167-2.5 3-1 3-2.75 0-2-3.6667-5.75-4-3.6667-5.75-3.6667-1.3333 0-3.8333 2.25-1.1667 0.83333-2.75 0.91667-11 1-23.583 2.25-2.5833 0.33333-4.1667 0.33333-2 0-5.1667-4.1667-1.1667 0-2.0833 1.1667 0 3.0833 0.66666 5.75 5.8333 6.8333 7.9167 6.8333 1 0 6.0833-2.1667 8.3333-3.6667 22.167-5.1667z"/>
  <path d="m-135.21-119.17q2 1.3333 3.9167 3l0.41667 1.5q-3.5833 18.5-20.917 37.167l1 1.1667q8.6667-4.9167 17.917-14.583 5.3333 2.5833 7.0833 8.8333 1.0833 4 4.1667 4 2.0833 0 3.3333-1.5 1.3333-1.4167 1.3333-4.1667 0-3.5-3.5833-6.75-3.25-2.5833-10.25-3.4167 2.9167-3.5833 6.9167-10.333 1.8333 2.1667 2.8333 2.1667 1.1667 0 8.1667-1.3333 6.0833-1.25 8-1.25l0.58333 0.91666q-9.5833 32.917-42.833 50.417l0.91666 1.25q38.667-10.75 50.667-45.583 0.33333-1.25 1.0833-1.9167 2.5833-2.0833 2.5833-3.8333 0-1.6667-3.9167-5.3333-4.5-3.75-6.0833-3.75-1.0833 0-3.6667 2.3333-1 0.75-2.8333 1-6.3333 0.75-13.833 1.25l1-2.8333q0.25-0.91667 0.91667-1.75 1.5-1 1.5-2.1667 0-2.0833-10.167-6.75-2.9167 0-5.1667 0.41667-1.0833 0.33333-1.0833 1.8333z"/>
  <path d="m-81.678-86.174q4.75 5.5833 6.3333 5.5833 1.3333 0 3.8333-1.0833 3.9167-1.75 12.417-2 11.917-0.33333 20.333-0.33333 7.3333 0 13.417 0.5 5.6667 0.33333 8.0833 0.33333 3.0833 0 3.0833-3.0833 0-3.1667-3.1667-4.8333-2.75-1.4167-5.25-1.4167-2.5833 0-5 0.66667-2.4167 0.58333-5.8333 0.75-12.75 0-43.25 0.5-1.5833 0-4.0833-3.5833-1.3333 0-1.8333 0.83333-0.66667 1.6667-0.66667 3.6667 0 1.0833 1.5833 3.5z"/>
  <path d="m-1.2885-122.09q-0.83333 0.75-0.83333 2 2.25 1.5 4.5833 3.25l0.66667 1.0833v42.333q0 4.9167-0.83333 8.5833-0.66667 2.3333-0.66667 3.6667 0 2.75 2.5 6.0833 2.0833 2.6667 3.8333 2.6667 2 0 3.0833-1.3333 1.25-1.5833 1.25-6.3333-0.33333-5.0833-0.33333-12.583v-21.583q7.8333 3.5833 15.417 15.5 2.25 3.4167 5.1667 3.4167 2.25 0 3.5-1.5 1.25-1.5 1.25-3.9167 0-5.5-7.8333-10.917-6.5-4.0833-17.5-6.25 0.16667-10.083 1.3333-13.25 1-2.4167 1-4.1667 0-2.6667-10.167-7-3.5 0-5.4167 0.25z"/>
 </g>
 <g transform="matrix(.23129 0 0 .23129 144.69 136.45)" aria-label="ベット">
  <path d="m111.93-159.77q-1.4167 0-1.75 1.4167 0 2.5833 1.25 5.4167 6.25 6.5833 8.75 6.5833 2.0833 0 5.9167-8.4167 4.75-10.5 9.5-16.083 1.4167-1.6667 2.6667-1.6667 0.91666 0 2 1.3333 2.25 2.75 8.3333 10 13.75 16.167 22 21.167 4.0833 2.5 5.6667 2.5 5 0 5-5.5833 0-2.6667-1.4167-4.3333-1.6667-2-7.4167-5.1667-9.3333-5-18.5-13.583-8.8333-8.1667-10.667-10-1.75-1.6667-5-1.6667-1.9167 0-4.3333 2-10 9.4167-15.417 16.333-1.75 2-3.1667 2-1.75 0-3.4167-2.25zm42.417-19.833q4.3333 3.9167 5.8333 8 1.0833 3 3.6667 3 1.3333 0 2.6667-1.6667 0.66666-0.83333 0.66666-2.3333 0-2.9167-3.1667-5.1667-4.5833-2.75-9.0833-3.0833zm10.167-5.6667-0.66667 1.6667q4.5 3.75 5.6667 7.3333 1 3 3 3 1.5 0 2.6667-1.3333 1-1.1667 1-2.6667 0-6.25-11.667-8z"/>
  <path d="m198.2-164.94q-0.75 0-0.75 1 3.5 5.1667 4.4167 13.667 0.41667 4 3.5833 4 2 0 3.4167-1.6667 1.25-1.4167 1.25-3.25 0-4.75-3.0833-8.0833-3.25-3.75-8.8333-5.6667zm8.5833 38.667 0.33333 1.5q27.5-5.1667 34.333-31.75 0.16667-0.83333 0.83333-1.6667 1.5833-1.3333 1.5833-2.5833 0-2.8333-7.0833-8.1667-2.1667-0.66666-4.5-0.66666-0.91667 0.41666-0.91667 1.5 1.5 2 2.8333 3.6667v1.3333q-5.4167 28.083-27.417 36.833zm5.1667-42.583q-0.83333 0-0.83333 0.91666 4.0833 5.0833 5 12.5 0.5 4.5 3.5833 4.5 2 0 3.4167-1.75 1.0833-1.4167 1.0833-3.5833 0-3.9167-3.4167-7.5-3.5833-3.5833-8.8333-5.0833z"/>
  <path d="m260.34-192.77q-0.83333 0.75-0.83333 2 2.25 1.5 4.5833 3.25l0.66667 1.0833v42.333q0 4.9167-0.83333 8.5833-0.66667 2.3333-0.66667 3.6667 0 2.75 2.5 6.0833 2.0833 2.6667 3.8333 2.6667 2 0 3.0833-1.3333 1.25-1.5833 1.25-6.3333-0.33333-5.0833-0.33333-12.583v-21.583q7.8333 3.5833 15.417 15.5 2.25 3.4167 5.1667 3.4167 2.25 0 3.5-1.5t1.25-3.9167q0-5.5-7.8333-10.917-6.5-4.0833-17.5-6.25 0.16666-10.083 1.3333-13.25 1-2.4167 1-4.1667 0-2.6667-10.167-7-3.5 0-5.4167 0.25z"/>
 </g>
 <g transform="matrix(.17945 0 0 .17945 242.49 104.18)" aria-label="テイク スコア">
  <path d="m304.44-87q8.25-0.33333 13.083-0.33333 3.5833 0 8.75 0.5 5.0833 0.91667 6.5 0.91667 2.4167 0 2.4167-2.9167 0-2.25-4.3333-4.9167-3.9167-2.3333-5.8333-2.3333-1.0833 0-4.5 2.25-0.66666 0.41667-1.25 0.5-21.25 1.3333-35.833 3.25-6.8333 1-7.6667 1-0.75 0-6.0833-3.5833-1.3333 0-1.5833 1.4167 0 2.5 1.0833 4.8333 7.1667 5.75 8.5 5.75 0.91666 0 4.1667-1.3333 7.1667-3 16.917-4.1667-1.4167 24-23.833 36.333l0.83333 1.3333q25.833-6.25 31.417-29.917 0.25-1.5 0.91666-2.3333 1.4167-1.75 1.4167-2.75 0-1.5-5.0833-3.5zm-25.25-24.75q-1 0-1.6667 0.91667 0 2.5 0.75 4.5 4.9167 4.3333 6.5833 4.3333 1.8333 0 18.25-1.5833 17.083-1.5 19.417-2.0833 1.3333-0.5 1.3333-2.4167 0-2.5-2.9167-4.1667-3.75-2.0833-4.75-2.0833t-3.9167 2.1667q-0.58334 0.5-1.75 0.66666-19.167 2.5-26.833 2.5-1.5 0-4.5-2.75z"/>
  <path d="m395.52-110.58q-13 22.167-43 37.75l0.91667 1.25q17.667-4.6667 30.667-13.917v22.5q0 2.8333-1.25 6.3333 0 2.4167 2.0833 6 1.4167 2.3333 3.6667 2.3333 2 0 3.1667-1.75 1.4167-2.25 1.4167-5.4167 0-2.5-0.25-7.5v-18.333q0-2.1667 0.75-5.5833-0.0833-2-2.9167-3.9167 9.0833-7.8333 13.917-13.75 3-2.3333 3-3.4167 0-2.8333-9.0833-8.3333-2.6667-0.66667-5-0.66667-1.5 0-1.5 1.9167 1.8333 1.6667 3.25 3.3333z"/>
  <path d="m443.19-74.666 0.91666 1.25q16.083-9.3333 24.75-25.25 2.8333 2.3333 3.5833 2.3333 0.83333 0 6.0833-1.3333 6.25-1.1667 9.0833-1.25l0.25 1.1667q-8.8333 31.833-39.917 47.833l0.83333 1.3333q35.583-9.75 48.583-43.917 0.5-1.75 1.25-2.3333 2.8333-1.6667 2.8333-3.25 0-2.3333-3.8333-5.5833-3.9167-3.1667-6-3.1667-1 0-3.75 2.0833-0.83334 0.66667-3.75 0.91667-5.3333 0.5-13.583 1.5 1.5-3.5833 2.1667-5.25 1.8333-1.9167 1.8333-2.9167 0-2.5-9.4167-6.0833-3.25 0-5.75 0.16667-0.91667 0.58333-1 1.75 2.4167 1.4167 4.6667 3l0.25 1.25q-0.16666 1.5-0.91666 3.6667-7.1667 20.667-19.167 32.083z"/>
  <path d="m313.27-28.322q-14.667 32.667-45.333 50.083l0.66667 1.4167q19.583-4.75 38.167-23.167 10.417 9.5 15 19.5 2 4.1667 6.4167 4.1667 2.1667 0 3.6667-1.6667 1.5-1.75 1.5-4.8333 0-5.4167-11.917-13.417-4.6667-3.3333-13-5.8333 6.4167-8.4167 13.417-20.25 0.91666-1.75 1.9167-2.5 3-1 3-2.75 0-2-3.6667-5.75-4-3.6667-5.75-3.6667-1.3333 0-3.8333 2.25-1.1667 0.83333-2.75 0.91667-11 1-23.583 2.25-2.5833 0.33333-4.1667 0.33333-2 0-5.1667-4.1667-1.1667 0-2.0833 1.1667 0 3.0833 0.66667 5.75 5.8333 6.8333 7.9167 6.8333 1 0 6.0833-2.1667 8.3333-3.6667 22.167-5.1667z"/>
  <path d="m359.52 7.5108q-1.5 0-1.9167 1.0833 0 2.8333 1.6667 6.3333 5.8333 5.6667 8.25 5.6667 1 0 3.5833-1.3333 9.5-4.0833 24.083-4.0833 4.5 0 8.25 0.58333 3.8333 0.66667 5.8333 0.66667 3.5 0 3.5-3.5 0-3.25-4.5-4.5 2.3333-11.333 6.1667-26 0.33333-1.5833 1-2.5 2.5833-2 2.5833-3.5 0-1.5833-4.1667-5.6667-4.5-3.75-5.9167-3.75-1.3333 0-4.6667 2.1667-0.83333 0.33333-2.0833 0.41667-20.5 1.75-35.333 3.0833-1.75 0-5.25-3.9167-1.3333 0-2.0833 1.25 0 2.8333 1 5.0833 5.8333 6.5 7.8333 6.5 1.3333 0 9.3333-2.25 11.583-3.3333 28.083-4.5833l0.5 0.58333q-2.8333 19.583-5.25 32.917-9.8333 0.33333-26.333 2.4167-4.1667 0.41667-8.25 0.41667-3 0-5.9167-3.5833z"/>
  <path d="m440.85-35.822q-1.5 0-1.8333 1.4167 0 3.75 1.1667 6.4167 6.3333 7 8.6667 7 0.83334 0 5.0833-1.8333 12.333-5.5 39.083-8.3333 1.1667 0 1.1667 0.91667 0 1.4167-6.6667 10.167-3.75 4.8333-9.8333 9.4167 1.1667-2.6667 1.1667-3.3333 0-3.5-10.75-7.3333-2.5 0-4.0833 0.33333-1.3333 0.33333-1.3333 2.1667 3.0833 2 5 3.6667l0.41666 1.25q-1.25 25.833-23.417 38l0.66666 1.4167q28.417-8.4167 32-33.5 15-6.5 21.833-12.917 1.75-1.9167 2.8333-1.9167 4.75 0 4.75-2.5 0-2.9167-4.3333-8.1667-5.0833-5.6667-6.9167-5.6667-1.25 0-4.6667 2.75-1.25 0.83333-2.6667 1-3.25 0.25-20.917 2-19.083 1.9167-20.667 1.9167-2.4167 0-5.75-4.3333z"/>
 </g>
 <g transform="matrix(.19523 0 0 .19523 325.04 36.005)" aria-label="ダブル アップ">
  <path d="m240.4 242.18q2 1.3333 3.9167 3l0.41667 1.5q-3.5833 18.5-20.917 37.167l1 1.1667q8.6667-4.9167 17.917-14.583 5.3333 2.5833 7.0833 8.8333 1.0833 4 4.1667 4 2.0833 0 3.3333-1.5 1.3333-1.4167 1.3333-4.1667 0-3.5-3.5833-6.75-3.25-2.5833-10.25-3.4167 2.9167-3.5833 6.9167-10.333 1.8333 2.1667 2.8333 2.1667 1.1667 0 8.1667-1.3333 6.0833-1.25 8-1.25l0.58333 0.91666q-9.5833 32.917-42.833 50.417l0.91666 1.25q38.667-10.75 50.667-45.583 0.33333-1.25 1.0833-1.9167 2.5833-2.0833 2.5833-3.8333 0-1.6667-3.9167-5.3333-4.5-3.75-6.0833-3.75-1.0833 0-3.6667 2.3333-1 0.75-2.8333 1-6.3333 0.75-13.833 1.25l1-2.8333q0.25-0.91667 0.91667-1.75 1.5-1 1.5-2.1667 0-2.0833-10.167-6.75-2.9167 0-5.1667 0.41667-1.0833 0.33333-1.0833 1.8333zm34.083-1.6667-0.33334 1q3.75 3 5.6667 7.6667 1.1667 2.6667 3 2.6667 3.3333 0 3.3333-3.3333 0-3.4167-3.3333-5.6667-3.0833-2.1667-8.3333-2.3333zm8.0833-4.1667-0.41667 0.83334q4.25 2.75 6 7.3333 1 2.6667 3 2.6667 3 0 3-3.6667 0-2.5-2.9167-5.0833-2.6667-2.0833-8.6667-2.0833z"/>
  <path d="m358.07 245.68q-1.25 0-4.4167 2.75-1.25 0.66667-19.75 1.9167-14.333 1.3333-17.25 1.3333-2.1667 0-6-4.4167-1.3333 0-1.75 1.1667 0 4.0833 1.3333 6.75 6.75 6.5 9.0833 6.5 1.4167 0 6.1667-2.0833 10.75-4.75 29.5-5.5833l0.58334 0.58334q-8.4167 30.25-39.75 49.917l0.75 1.4167q36.75-13.25 48.333-45.667 0.66666-2.25 2-3.1667 1.6667-1.1667 1.6667-2.4167 0-2-4.25-5.3333-4.5833-3.6667-6.25-3.6667zm1.6667-6.9167q4.9167 4.6667 5.8333 7.8333 1.0833 3.6667 2.6667 3.6667 4 0 4-3.5833 0-2.8333-2.5-5.1667-2.9167-2.75-9.4167-3.8333zm8.8333-4.3333-0.41666 1.0833q4.9167 4.1667 6.0833 7.9167 0.83333 2.3333 3 2.3333 2.8333 0 2.8333-3.3333 0-3.5-3.0833-5.6667-3.1667-1.9167-8.4167-2.3333z"/>
  <path d="m402.07 251.59q2.4167 1.1667 4.0833 2.8333l0.66667 0.91667q-0.25 34.667-16.917 49.25l0.83333 1.3333q23.75-12.583 24.833-45 0-1.1667 0.58334-2.5833 0.99999-1.3333 0.99999-2.3333 0-2.3333-9.8333-6.75-2.3333 0-4.5833 0.5-0.66666 0.75-0.66666 1.8333zm19.833-7.25q-0.5 0.91667-0.5 2 2.5 1.6667 4.6667 3.1667l0.83333 1.4167v40.667q0 1.1667-1.25 2.25-0.91667 1.0833-0.91667 2.1667 0 3.1667 3.3333 7.1667 2.0833 2 4 2 1.1667 0 2.25-1.5833 0.66667-1.0833 1.75-1.5833 18.583-9.5 27.583-36.167l-1.4167-0.66667q-11.917 18.167-26.833 25.917 0-34.083 1.1667-35.75 1.5833-2.1667 1.5833-3.3333 0-2.5-11.583-8.25-2.5 0-4.6667 0.58333z"/>
  <path d="m222.9 318.51q-1.5 0-1.8333 1.4167 0 3.75 1.1667 6.4167 6.3333 7 8.6667 7 0.83334 0 5.0833-1.8333 12.333-5.5 39.083-8.3333 1.1667 0 1.1667 0.91666 0 1.4167-6.6667 10.167-3.75 4.8333-9.8333 9.4167 1.1667-2.6667 1.1667-3.3333 0-3.5-10.75-7.3333-2.5 0-4.0833 0.33333-1.3333 0.33333-1.3333 2.1667 3.0833 2 5 3.6667l0.41666 1.25q-1.25 25.833-23.417 38l0.66666 1.4167q28.417-8.4167 32-33.5 15-6.5 21.833-12.917 1.75-1.9167 2.8333-1.9167 4.75 0 4.75-2.5 0-2.9167-4.3333-8.1667-5.0833-5.6667-6.9167-5.6667-1.25 0-4.6667 2.75-1.25 0.83333-2.6667 1-3.25 0.25-20.917 2-19.083 1.9167-20.667 1.9167-2.4167 0-5.75-4.3333z"/>
  <path d="m316.65 339.76q-0.75 0-0.75 1 3.5 5.1667 4.4167 13.667 0.41667 4 3.5833 4 2 0 3.4167-1.6667 1.25-1.4167 1.25-3.25 0-4.75-3.0833-8.0833-3.25-3.75-8.8333-5.6667zm8.5833 38.667 0.33333 1.5q27.5-5.1667 34.333-31.75 0.16667-0.83334 0.83333-1.6667 1.5833-1.3333 1.5833-2.5833 0-2.8333-7.0833-8.1667-2.1667-0.66666-4.5-0.66666-0.91667 0.41666-0.91667 1.5 1.5 2 2.8333 3.6667v1.3333q-5.4167 28.083-27.417 36.833zm5.1667-42.583q-0.83333 0-0.83333 0.91666 4.0833 5.0833 5 12.5 0.5 4.5 3.5833 4.5 2 0 3.4167-1.75 1.0833-1.4167 1.0833-3.5833 0-3.9167-3.4167-7.5-3.5833-3.5833-8.8333-5.0833z"/>
  <path d="m443.4 318.34q-1.25 0-4.4167 2.75-1.25 0.66667-19.75 1.9167-14.333 1.3333-17.25 1.3333-2.1667 0-6-4.4167-1.3333 0-1.75 1.1667 0 4.0833 1.3333 6.75 6.75 6.5 9.0833 6.5 1.4167 0 6.1667-2.0833 10.75-4.75 29.5-5.5833l0.58333 0.58334q-8.4167 30.25-39.75 49.917l0.75 1.4167q36.75-13.25 48.333-45.667 0.66667-2.25 2-3.1667 1.6667-1.1667 1.6667-2.4167 0-2-4.25-5.3333-4.5833-3.6667-6.25-3.6667zm5.5-2.3333q0 3.3333 2.3333 5.6667 2.3333 2.3333 5.6667 2.3333t5.6667-2.3333q2.3333-2.3333 2.3333-5.6667t-2.3333-5.6667-5.6667-2.3333-5.6667 2.3333q-2.3333 2.3333-2.3333 5.6667zm8 5q-2.1667 0-3.6667-1.6667-1.3333-1.5-1.3333-3.3333 0-1.9167 1.3333-3.3333 1.5-1.6667 3.6667-1.6667 2.1667 0 3.6667 1.6667 1.3333 1.4167 1.3333 3.3333 0 1.8333-1.3333 3.3333-1.5 1.6667-3.6667 1.6667z"/>
 </g>
 <g transform="matrix(.24848 0 0 .24848 394.73 37.287)" aria-label="ビッグ">
  <path d="m229.33 248.15v-7.4167q0-6.5833 1.25-8.75 1.1667-2.4167 1.1667-3.6667 0-2.3333-10.25-7-2.25 0-4.4167 0.5-0.83334 0.41667-0.83334 1.8333 2.5833 2.1667 3.8333 3.6667l0.58333 1.0833v38.583q0 8.75 6.6667 13 4.1667 2.5 17.333 2.5 18.5 0 23.75-1.3333 4.4167-1.5 4.4167-3.8333-0.16666-2.9167-7.6667-6h-0.91667q-9.1667 2.4167-12.917 2.4167-17.583 0-19.75-1.75-2.25-2-2.25-5.9167v-14.25q16.75-2.5 29.5-5.9167 7.25-2.1667 7.25-4 0-2.8333-5.9167-8.8333-3.8333-2-6.25-2.0833-0.91667 0.58333-0.91667 1.5 2.3333 2.3333 2.3333 3.25 0 1.4167-3.75 3.5-8.3333 4.5833-22.25 8.9167zm32-23.083q3.6667 2.5 5.3333 7 1.25 3.3333 3.3333 3.3333 1.1667 0 2.3333-1.3333 1-1.1667 1-3 0-5.9167-11-7.6667zm8.3333-4q4.4167 3.5 5.6667 7 0.91667 2.6667 2.6667 2.6667 3.3333 0 3.3333-3.6667 0-6.3333-11-7.6667z"/>
  <path d="m284.41 246.4q-0.75 0-0.75 1 3.5 5.1667 4.4167 13.667 0.41667 4 3.5833 4 2 0 3.4167-1.6667 1.25-1.4167 1.25-3.25 0-4.75-3.0833-8.0833-3.25-3.75-8.8333-5.6667zm8.5833 38.667 0.33334 1.5q27.5-5.1667 34.333-31.75 0.16666-0.83333 0.83333-1.6667 1.5833-1.3333 1.5833-2.5833 0-2.8333-7.0833-8.1667-2.1667-0.66667-4.5-0.66667-0.91666 0.41667-0.91666 1.5 1.5 2 2.8333 3.6667v1.3333q-5.4167 28.083-27.417 36.833zm5.1667-42.583q-0.83333 0-0.83333 0.91667 4.0833 5.0833 5 12.5 0.5 4.5 3.5833 4.5 2 0 3.4167-1.75 1.0833-1.4167 1.0833-3.5833 0-3.9167-3.4167-7.5-3.5833-3.5833-8.8333-5.0833z"/>
  <path d="m337.66 261.4 0.91667 1.25q16.083-9.3333 24.75-25.25 2.8333 2.3333 3.5833 2.3333 0.83333 0 6.0833-1.3333 6.25-1.1667 9.0833-1.25l0.25 1.1667q-8.8333 31.833-39.917 47.833l0.83333 1.3333q35.583-9.75 48.583-43.917 0.5-1.75 1.25-2.3333 2.8333-1.6667 2.8333-3.25 0-2.3333-3.8333-5.5833-3.9167-3.1667-6-3.1667-1 0-3.75 2.0833-0.83333 0.66667-3.75 0.91667-5.3333 0.5-13.583 1.5 1.5-3.5833 2.1667-5.25 1.8333-1.9167 1.8333-2.9167 0-2.5-9.4167-6.0833-3.25 0-5.75 0.16667-0.91667 0.58333-1 1.75 2.4167 1.4167 4.6667 3l0.25 1.25q-0.16667 1.5-0.91667 3.6667-7.1667 20.667-19.167 32.083zm48.333-39.667q4.6667 4.0833 6.6667 8.3333 1 2 2.3333 2t2.3333-1.3333q1-1.3333 1-3 0-2-2.6667-4.3333-2.5833-2.3333-9-2.6667zm7.6667-4.3333q4.5833 3.5833 6.3333 6.6667 1.5833 2.6667 2.6667 2.6667 1.5 0 2.3333-1.3333 0.66666-1.0833 0.66666-2.3333 0-2.5833-2.6667-4.6667-2.5-2-6-2-2.0833 0-2.6667 0.33333z"/>
 </g>
 <g transform="matrix(.2114 0 0 .2114 388.94 120.72)" aria-label="スモ-ル">
  <path d="m692.83-120.04q-14.667 32.667-45.333 50.083l0.66667 1.4167q19.583-4.75 38.167-23.167 10.417 9.5 15 19.5 2 4.1667 6.4167 4.1667 2.1667 0 3.6667-1.6667 1.5-1.75 1.5-4.8333 0-5.4167-11.917-13.417-4.6667-3.3333-13-5.8333 6.4167-8.4167 13.417-20.25 0.91666-1.75 1.9167-2.5 3-0.99999 3-2.75 0-2-3.6667-5.75-4-3.6667-5.75-3.6667-1.3333 0-3.8333 2.25-1.1667 0.83334-2.75 0.91667-11 1-23.583 2.25-2.5833 0.33333-4.1667 0.33333-2 0-5.1667-4.1667-1.1667 0-2.0833 1.1667 0 3.0833 0.66667 5.75 5.8333 6.8333 7.9167 6.8333 1 0 6.0833-2.1667 8.3333-3.6667 22.167-5.1667z"/>
  <path d="m716-105.87q-1.1667 0-1.75 1.4167 0 2.3333 1.0833 5 6.25 6 8.75 6 1.3333 0 4.25-1.3333 5.25-2.3333 11.5-3.5833v16.083q0 6.5833 3.6667 9.8333 4.8333 3.8333 15.167 3.8333 7.4167 0 12.583-0.91667 4.5-1 4.5-4.0833 0-3.6667-6.3333-6-0.91667 0-3.0833 1.1667-1.9167 0.66667-7.6667 0.66667-7.25 0-8.75-1.5-1.5-1.5833-1.5-4.75v-15.25q6.3333-0.75 10.417-0.75 4.1667 0 8.9167 0.16666 5.3333 0.25 8.4167 0.25 4 0 4-2.5 0-2-4.0833-4.9167-2.75-2-4.3333-2-0.91666 0-5.0833 2.6667-1 0.16666-7.0833 0.58333-4.5833 0.33333-11.083 0.91667v-7.6667q0-2 0.5-3 0.83333-0.91666 0.83333-1.5833 0-0.66666-1.9167-1.75 18.167-1.5 21.917-2.1667 2.5833-0.66667 2.5833-2.6667 0-1.8333-4.75-4.5-2.6667-1.25-4-1.25-1.0833 0-3.5833 2-1.5833 1-18.167 2.5833-12.917 0.83334-14.167 0.83334-1.1667 0-4.9167-3-1 0.0833-1.5833 1.1667 0 2.25 0.91667 4.5833 5.75 4.3333 6.9167 4.4167 1 0 4-0.33333 2.75-0.25 6.3333-0.58333 0.41667 1.4167 0.41667 5.6667v8.1667q-4.8333 0.41667-8.9167 0.91667-7 0.66667-9.0833 0.66667-1.5833 0-5.8333-3.5z"/>
  <path d="m820.58-102.29h-33.667v6.6667h33.667z"/>
  <path d="m833.58-121.79q2.4167 1.1667 4.0833 2.8333l0.66667 0.91667q-0.25 34.667-16.917 49.25l0.83333 1.3333q23.75-12.583 24.833-45 0-1.1667 0.58334-2.5833 1-1.3333 1-2.3333 0-2.3333-9.8333-6.75-2.3333 0-4.5833 0.5-0.66667 0.75-0.66667 1.8333zm19.833-7.25q-0.5 0.91667-0.5 2 2.5 1.6667 4.6667 3.1667l0.83333 1.4167v40.667q0 1.1667-1.25 2.25-0.91666 1.0833-0.91666 2.1667 0 3.1667 3.3333 7.1667 2.0833 2 4 2 1.1667 0 2.25-1.5833 0.66666-1.0833 1.75-1.5833 18.583-9.5 27.583-36.167l-1.4167-0.66667q-11.917 18.167-26.833 25.917 0-34.083 1.1667-35.75 1.5833-2.1667 1.5833-3.3333 0-2.5-11.583-8.25-2.5 0-4.6667 0.58333z"/>
 </g>
 <g transform="matrix(.19082 0 0 .19082 580.74 125.85)" aria-label="ラスト チャンス">
  <path d="m384.66-216.15q-1.25 0-1.75 0.91667 0 3.25 1 6.25 5.8333 6.3333 8.5 6.3333 0.91667 0 7.25-2.5 10.75-4.25 31-4.9167-10.083 24.417-37.25 39.917l0.41667 1.5q32.417-10.167 45-34.417 1.4167-2.9167 2.5-3.3333 1.9167-0.75 1.9167-2.5t-3.1667-5.0833q-5-4.3333-6.5-4.3333-1.0833 0-3.75 2.4167-1.8333 0.58333-3.6667 0.75-15.667 0.91667-26.5 2.1667-7.5 0.58333-10.167 0.58333-2.5 0-4.8333-3.75zm47.583-11.75q1.0833-0.83334 1.0833-2.6667 0-1.9167-2.8333-3.5-2.8333-1.4167-4.0833-1.4167-0.83333 0-3.5 1.5-1.3333 0.5-11.583 2.0833-12 1.3333-14.167 1.3333-1.0833 0-5.4167-2.4167-0.91667 0-1.3333 1.1667 0 1.3333 2.5833 4.6667 4.1667 3.0833 5.3333 3.0833 3.0833 0 20.917-1.75 11.833-1.3333 13-2.0833z"/>
  <path d="m490.95-222.9q-14.667 32.667-45.333 50.083l0.66667 1.4167q19.583-4.75 38.167-23.167 10.417 9.5 15 19.5 2 4.1667 6.4167 4.1667 2.1667 0 3.6667-1.6667 1.5-1.75 1.5-4.8333 0-5.4167-11.917-13.417-4.6667-3.3333-13-5.8333 6.4167-8.4167 13.417-20.25 0.91667-1.75 1.9167-2.5 3-1 3-2.75 0-2-3.6667-5.75-4-3.6667-5.75-3.6667-1.3333 0-3.8333 2.25-1.1667 0.83333-2.75 0.91667-11 1-23.583 2.25-2.5833 0.33334-4.1667 0.33334-2 0-5.1667-4.1667-1.1667 0-2.0833 1.1667 0 3.0833 0.66667 5.75 5.8333 6.8333 7.9167 6.8333 1 0 6.0833-2.1667 8.3333-3.6667 22.167-5.1667z"/>
  <path d="m528.17-236.98q-0.83334 0.75-0.83334 2 2.25 1.5 4.5833 3.25l0.66667 1.0833v42.333q0 4.9167-0.83333 8.5833-0.66667 2.3333-0.66667 3.6667 0 2.75 2.5 6.0833 2.0833 2.6667 3.8333 2.6667 2 0 3.0833-1.3333 1.25-1.5833 1.25-6.3333-0.33333-5.0833-0.33333-12.583v-21.583q7.8333 3.5833 15.417 15.5 2.25 3.4167 5.1667 3.4167 2.25 0 3.5-1.5t1.25-3.9167q0-5.5-7.8333-10.917-6.5-4.0833-17.5-6.25 0.16667-10.083 1.3333-13.25 1-2.4167 1-4.1667 0-2.6667-10.167-7-3.5 0-5.4167 0.25z"/>
  <path d="m378.58-127q-8.3333 0.83333-16.25 1.8333-4.5833 0.5-9.75 0.5-2.4167 0-5.25-3.6667-1.3333 0-1.75 1.1667 0 3.5833 1.1667 5.5833 7 6.0833 9.4167 6.0833 0.75 0 3.75-1.5 5.75-3.1667 18.833-4.6667-0.33333 8.0833-4.75 17.167-5.75 10.75-18.167 17l1 1.1667q15.917-3.5 23.917-13.667 6.5-8.4167 6.8333-22.167 5.4167-0.33333 10.333-0.33333 4.5 0 8.8333 0.5 3.9167 0.83333 6.25 0.83333 3 0 3-2.8333 0-1.6667-4.75-5.3333-2.8333-1.8333-4.5833-1.8333-0.75 0-2.8333 1.6667-1 0.33333-2.8333 0.5l-13 1.4167q0.33333-6.3333 0.33333-7.8333 1.0833-1.3333 1.0833-2.1667 0-1.0833-3.75-3 6.6667-1 10.833-2.8333 3.5833-1.4167 3.5833-2.5833 0-2.8333-5.3333-6.4167-3.25-1.9167-8-2.5833-1.5833 0-2 1.25 1.6667 1.0833 3.0833 2.5833v0.83334q-11.833 5.75-34.417 11.917l0.41667 1.5q12.333-0.58334 22.75-2.25 1.8333 0.41666 2 1.6667z"/>
  <path d="m443.73-122.5q-3.25 1-6.0833 1.5833-3.25 0.75-5.6667 0.75-1.3333 0-4-2-0.91667 0-1.5833 1.0833 0 2 1.0833 4.1667 5.3333 5 6.25 5 0.83333 0 4-1.9167 3.0833-1.9167 7.25-3.4167 0.83334 3.1667 1.8333 9 2 10.667 2.4167 14.75 0.83333 6.1667 5 6.1667 1.4167 0 2.5833-1.6667 1.3333-2.1667 1.3333-5.5-1-3.9167-2.25-8.0833-0.83333-3-2.4167-9.6667-0.75-3.25-1.3333-7.3333 9.25-2.5833 16.5-3.8333-4.1667 9.5-10.333 16.167l1.1667 1q8.1667-4.8333 15.333-11.25 1.25-1.25 2.4167-1.5833 1.9167-0.5 1.9167-2.0833 0-2.0833-3.5-5.5833-3.3333-3.1667-5.1667-3.1667-0.83333 0-2.4167 2-1 0.58334-16.75 3.5-0.75-3.9167-0.75-5.25 0-1.5 0.58334-3.6667 0-2-7.6667-4.5833-4 0-6.0833 0.25-0.83333 0.75-0.83333 2.0833 2.75 1 4.3333 1.6667l0.33333 0.75q0.91667 3.8333 2.5 10.667z"/>
  <path d="m487.6-148.5q8.9167 4.6667 12.5 12.5 2 3.6667 4.9167 3.6667t4.1667-1.75q1.0833-1.5833 1.0833-4.1667 0-3.25-4.25-7-5.8333-4.8333-17.667-5.3333-0.75 0.58333-0.75 2.0833zm-1 45.333q0 2.9167 1.0833 5.75 7.3333 8.25 9.5833 8.25 1.3333 0 2.5833-1.8333 0.75-1.0833 1.8333-1.4167 30-12.75 45.167-43.417l-1.25-0.91667q-17.25 23.167-44.25 33.917-6.1667 2.4167-7.9167 2.4167-1.3333 0-4.6667-4.0833-1.6667 0-2.1667 1.3333z"/>
  <path d="m590.9-141.75q-14.667 32.667-45.333 50.083l0.66667 1.4167q19.583-4.75 38.167-23.167 10.417 9.5 15 19.5 2 4.1667 6.4167 4.1667 2.1667 0 3.6667-1.6667 1.5-1.75 1.5-4.8333 0-5.4167-11.917-13.417-4.6667-3.3333-13-5.8333 6.4167-8.4167 13.417-20.25 0.91667-1.75 1.9167-2.5 3-1 3-2.75 0-2-3.6667-5.75-4-3.6667-5.75-3.6667-1.3333 0-3.8333 2.25-1.1667 0.83333-2.75 0.91667-11 1-23.583 2.25-2.5833 0.33333-4.1667 0.33333-2 0-5.1667-4.1667-1.1667 0-2.0833 1.1667 0 3.0833 0.66667 5.75 5.8333 6.8333 7.9167 6.8333 1 0 6.0833-2.1667 8.3333-3.6667 22.167-5.1667z"/>
 </g>
 <g transform="matrix(.39921 0 0 .39921 472.08 126.84)" aria-label="カン">
  <path d="m671.37-78.781q-4.5 22.125-19.875 30.438l0.5 1.0625q22.125-7.1875 26.562-32.562 7.3125-0.75 12.688-1 1.0625 0 1.0625 1.4375 0 4-1.5 11.312-1.0625 5.5625-3 9.125-1.5 2.625-2.375 2.625-0.9375 0-3.4375-1.1875l-7.0625-3.5-0.5625 1q4.125 3.625 6.1875 5.9375 1.1875 1.3125 1.1875 4.3125 0.8125 1.5625 2.9375 1.5625 5.125 0 8.1875-5.3125 3.25-5.6875 6.125-22.25 0.125-1.4375 0.5625-2 1.875-1.875 1.875-3.125t-2.8125-3.75q-2.75-2.125-3.75-2.125-0.875 0-3.0625 1.5-0.5625 0.375-1.4375 0.4375l-11 0.875 0.5-4.25q0.125-1.0625 0.5625-1.6875 1.1875-1.6875 1.1875-2.625 0-1.9375-8.4375-5.25-1.8125 0-3.1875 0.3125-0.625 0.6875-0.625 1.6875 2 1.25 3.3125 2.4375l0.3125 1q-0.1875 4.875-0.875 9l-9.4375 1.0625q-2.3125 0.25-3.9375 0.25-1.375 0-4.125-2.8125-0.8125 0-1.3125 0.875 0 2.0625 0.8125 4.1875 4.25 4.5625 5.5625 4.5625 0.625 0 2-0.625 2.9375-1.5625 9.6875-2.9375z"/>
  <path d="m706.44-92.406q6.6875 3.5 9.375 9.375 1.5 2.75 3.6875 2.75t3.125-1.3125q0.8125-1.1875 0.8125-3.125 0-2.4375-3.1875-5.25-4.375-3.625-13.25-4-0.5625 0.4375-0.5625 1.5625zm-0.75 34q0 2.1875 0.8125 4.3125 5.5 6.1875 7.1875 6.1875 1 0 1.9375-1.375 0.5625-0.8125 1.375-1.0625 22.5-9.5625 33.875-32.562l-0.9375-0.6875q-12.938 17.375-33.188 25.438-4.625 1.8125-5.9375 1.8125-1 0-3.5-3.0625-1.25 0-1.625 1z"/>
 </g>
 <g transform="matrix(.42701 0 0 .41874 527.56 145.06)" aria-label="ポン">
  <path d="m701.88-133.76q0 2.5 1.75 4.25t4.25 1.75 4.25-1.75 1.75-4.25-1.75-4.25-4.25-1.75-4.25 1.75-1.75 4.25zm6 3.75q-1.625 0-2.75-1.25-1-1.125-1-2.5 0-1.4375 1-2.5 1.125-1.25 2.75-1.25t2.75 1.25q1 1.0625 1 2.5 0 1.375-1 2.5-1.125 1.25-2.75 1.25zm-35.062 18.438q-2.9375 6.4375-9.5625 10.688-2.625 1.6875-2.625 3.6875 0 3.875 4.25 3.875 2.1875 0 4.5-2.875 3.5-4.875 4.75-14.562-0.125-0.8125-1.3125-0.8125zm24.812-2.0625q-1 0-1 1 6.125 6.1875 7.25 15.75 0.5 4 3.375 4 1.8125 0 3-1.6875 0.875-1.625 0.875-3.5625 0-8.5-13.5-15.5zm-30.75-7.625q-1.8125 0-4.4375-2.9375-0.9375 0-1.3125 0.6875 0 2.125 0.8125 4.4375 4.5 4.25 6.4375 4.25 0.5625 0 3.5-1.1875 3.375-1.5 11.75-2.375v24.687q-2.25-0.4375-9.4375-3.625l-0.5 1.0625q5.625 3.4375 6.4375 4.9375 1.1875 2.3125 1.1875 4.5625 0 1.25 2.625 1.25 2 0 4.0625-1.9375 2.1875-2.0625 2.1875-5.75-0.3125-5.6875-0.3125-9.75v-15.938q5.75-0.375 8.875-0.375 2.875 0 6.25 0.3125 3.125 0.4375 5.125 0.4375t2-2.25q0-1.1875-3.9375-3.6875-2.375-1.5625-2.9375-1.5625-0.875 0-3.5625 1.625-1.875 0.9375-3.625 1-2.5625 0-8 0.375 0-2.375 0.4375-5.5 1.1875-1.3125 1.1875-2.25 0-1.75-8.375-4.9375-2.1875 0-3.625 0.5625-0.5625 0.5-0.5625 1.5 2.5 1.4375 4 2.625l0.5 0.75v7.6875q-4.8125 0.5-9.5 0.9375-3 0.375-7.25 0.375z"/>
  <path d="m720.88-131.64q6.6875 3.5 9.375 9.375 1.5 2.75 3.6875 2.75t3.125-1.3125q0.8125-1.1875 0.8125-3.125 0-2.4375-3.1875-5.25-4.375-3.625-13.25-4-0.5625 0.4375-0.5625 1.5625zm-0.75 34q0 2.1875 0.8125 4.3125 5.5 6.1875 7.1875 6.1875 1 0 1.9375-1.375 0.5625-0.8125 1.375-1.0625 22.5-9.5625 33.875-32.562l-0.9375-0.6875q-12.938 17.375-33.188 25.437-4.625 1.8125-5.9375 1.8125-1 0-3.5-3.0625-1.25 0-1.625 1z"/>
 </g>
 <g transform="matrix(.41818 0 0 .44229 534.41 121.87)" aria-label="チー">
  <path d="m874.11-58.968q-6.25 0.625-12.188 1.375-3.4375 0.375-7.3125 0.375-1.8125 0-3.9375-2.75-1 0-1.3125 0.875 0 2.6875 0.875 4.1875 5.25 4.5625 7.0625 4.5625 0.5625 0 2.8125-1.125 4.3125-2.375 14.125-3.5-0.25 6.0625-3.5625 12.875-4.3125 8.0625-13.625 12.75l0.75 0.875q11.938-2.625 17.938-10.25 4.875-6.3125 5.125-16.625 4.0625-0.25 7.75-0.25 3.375 0 6.625 0.375 2.9375 0.625 4.6875 0.625 2.25 0 2.25-2.125 0-1.25-3.5625-4-2.125-1.375-3.4375-1.375-0.5625 0-2.125 1.25-0.75 0.25-2.125 0.375l-9.75 1.0625q0.25-4.75 0.25-5.875 0.8125-1 0.8125-1.625 0-0.8125-2.8125-2.25 5-0.75 8.125-2.125 2.6875-1.0625 2.6875-1.9375 0-2.125-4-4.8125-2.4375-1.4375-6-1.9375-1.1875 0-1.5 0.9375 1.25 0.8125 2.3125 1.9375v0.625q-8.875 4.3125-25.812 8.9375l0.3125 1.125q9.25-0.4375 17.062-1.6875 1.375 0.3125 1.5 1.25z"/>
  <path d="m905.92-53.656q3.5625 4.1875 4.75 4.1875 1 0 2.875-0.8125 2.9375-1.3125 9.3125-1.5 8.9375-0.25 15.25-0.25 5.5 0 10.062 0.375 4.25 0.25 6.0625 0.25 2.3125 0 2.3125-2.3125 0-2.375-2.375-3.625-2.0625-1.0625-3.9375-1.0625-1.9375 0-3.75 0.5-1.8125 0.4375-4.375 0.5625-9.5625 0-32.438 0.375-1.1875 0-3.0625-2.6875-1 0-1.375 0.625-0.5 1.25-0.5 2.75 0 0.8125 1.1875 2.625z"/>
 </g>
 <g transform="matrix(.404 0 0 .404 667.75 125.46)" aria-label="リーチ">
  <path d="m736.02-90.006q-2.5-0.5-4.8125-0.5-0.5625 0.4375-0.5625 1.25 1.6875 1.125 3.125 2.9375l0.375 1.0625v16q-0.625 3.1875-0.625 4.1875 0 1.4375 1.1875 3.3125 1.375 2 2.75 2 1.625 0 2.5625-0.9375 1-1 1-4.75-0.3125-3.125-0.3125-4v-9.9375q0-1.8125 0.4375-3 0.375-0.875 0.375-2.125 0-1.75-5.5-5.5zm20 2.3125v15.312q0 20.812-17 28.625l0.5625 1q12.438-2.5625 18.375-10.812 5.3125-7.1875 5.3125-21.375v-7.125q0-1.375 0.4375-2.4375 1.0625-1.5 1.0625-3 0-1.8125-7.1875-5.375-2.6875-0.4375-5.375-0.4375-0.5 0.5625-0.5 1.5625 2.0625 1.4375 3.8125 3.125z"/>
  <path d="m768.33-67.694q3.5625 4.1875 4.75 4.1875 1 0 2.875-0.8125 2.9375-1.3125 9.3125-1.5 8.9375-0.25 15.25-0.25 5.5 0 10.062 0.375 4.25 0.25 6.0625 0.25 2.3125 0 2.3125-2.3125 0-2.375-2.375-3.625-2.0625-1.0625-3.9375-1.0625-1.9375 0-3.75 0.5-1.8125 0.4375-4.375 0.5625-9.5625 0-32.438 0.375-1.1875 0-3.0625-2.6875-1 0-1.375 0.625-0.5 1.25-0.5 2.75 0 0.8125 1.1875 2.625z"/>
  <path d="m846.52-73.006q-6.25 0.625-12.188 1.375-3.4375 0.375-7.3125 0.375-1.8125 0-3.9375-2.75-1 0-1.3125 0.875 0 2.6875 0.875 4.1875 5.25 4.5625 7.0625 4.5625 0.5625 0 2.8125-1.125 4.3125-2.375 14.125-3.5-0.25 6.0625-3.5625 12.875-4.3125 8.0625-13.625 12.75l0.75 0.875q11.938-2.625 17.938-10.25 4.875-6.3125 5.125-16.625 4.0625-0.25 7.75-0.25 3.375 0 6.625 0.375 2.9375 0.625 4.6875 0.625 2.25 0 2.25-2.125 0-1.25-3.5625-4-2.125-1.375-3.4375-1.375-0.5625 0-2.125 1.25-0.75 0.25-2.125 0.375l-9.75 1.0625q0.25-4.75 0.25-5.875 0.8125-1 0.8125-1.625 0-0.8125-2.8125-2.25 5-0.75 8.125-2.125 2.6875-1.0625 2.6875-1.9375 0-2.125-4-4.8125-2.4375-1.4375-6-1.9375-1.1875 0-1.5 0.9375 1.25 0.8125 2.3125 1.9375v0.625q-8.875 4.3125-25.812 8.9375l0.3125 1.125q9.25-0.4375 17.062-1.6875 1.375 0.3125 1.5 1.25z"/>
 </g>
 <metadata>
  <rdf:RDF>
   <cc:License rdf:about="http://creativecommons.org/licenses/by/4.0/">
    <cc:permits rdf:resource="http://creativecommons.org/ns#Reproduction"/>
    <cc:permits rdf:resource="http://creativecommons.org/ns#Distribution"/>
    <cc:requires rdf:resource="http://creativecommons.org/ns#Notice"/>
    <cc:requires rdf:resource="http://creativecommons.org/ns#Attribution"/>
    <cc:permits rdf:resource="http://creativecommons.org/ns#DerivativeWorks"/>
   </cc:License>
   <cc:Work rdf:about="">
    <cc:license rdf:resource="http://creativecommons.org/licenses/by/4.0/"/>
    <dc:description>Inspire by the work of the MAME Team</dc:description>
    <dc:date>16/10/2021</dc:date>
   </cc:Work>
  </rdf:RDF>
 </metadata>
 <g transform="matrix(.56596 0 0 .56596 327.76 76.151)" aria-label="J">
  <path d="m748.31-107.82h12.031v42.125q0 8.7188-4.75 13.031-4.7188 4.3125-14.312 4.3125h-2.4375v-9.0938h1.875q3.75 0 5.6562-2.0938 1.9375-2.0938 1.9375-6.1562z"/>
 </g>
 <g transform="matrix(.41952 0 0 .43766 851.08 183.78)" aria-label="ロン">
  <path d="m555.97-215.58-0.375 1.0625q3.125 2.375 3.4375 3.1875l0.4375 7.75v16.375q0 1.5625-0.75 4.6875 0 1.5625 1.25 3.8125 1.3125 2.125 2.5625 2.125 1.5625 0 2.6875-1.75 0.625-1.125 0.8125-1.9375 12.75-1.3125 16.562-1.3125 2.625 0 6.0625 0.1875 3.5625 0.375 6 0.375 2.5 0 2.5-2.8125-0.8125-1.6875-3.0625-2.125 1.6875-9.5 3.75-19.938 0.125-0.8125 0.5-1.5625 1.5-1.4375 1.5-2.4375 0-1.75-2.9375-3.875-3.125-2.125-4.25-2.125-0.6875 0-3 1.8125-0.5 0.25-1.3125 0.25-12.625 0.875-23.125 2-2.5-2.625-6.375-4.1875-1.375 0-2.875 0.4375zm9.9375 30.812v-23.938q0.5625 0.5 1.8125 1 0.6875 0 9.75-1.4375 8.0625-1 11.438-1 1.5625 0 1.5625 1.125-0.9375 15.938-2.75 22.625-10.062 0-21.812 1.625z"/>
  <path d="m605.72-217.71q6.6875 3.5 9.375 9.375 1.5 2.75 3.6875 2.75t3.125-1.3125q0.8125-1.1875 0.8125-3.125 0-2.4375-3.1875-5.25-4.375-3.625-13.25-4-0.5625 0.4375-0.5625 1.5625zm-0.75 34q0 2.1875 0.8125 4.3125 5.5 6.1875 7.1875 6.1875 1 0 1.9375-1.375 0.5625-0.8125 1.375-1.0625 22.5-9.5625 33.875-32.562l-0.9375-0.6875q-12.938 17.375-33.188 25.438-4.625 1.8125-5.9375 1.8125-1 0-3.5-3.0625-1.25 0-1.625 1z"/>
 </g>
 <g transform="matrix(.30059 0 0 .30059 31.058 47.177)" aria-label="フリップ フロップ">
  <path d="m-54.492 110.72q-0.9375 0-3.3125 2.0625-0.9375 0.5-14.813 1.4375-10.75 1-12.938 1-1.625 0-4.5-3.3125-1 0-1.3125 0.875 0 3.0625 1 5.0625 5.0625 4.875 6.8125 4.875 1.0625 0 4.625-1.5625 8.0625-3.5625 22.125-4.1875l0.4375 0.4375q-6.3125 22.688-29.813 37.438l0.5625 1.0625q27.563-9.9375 36.25-34.25 0.5-1.6875 1.5-2.375 1.25-0.875 1.25-1.8125 0-1.5-3.1875-4-3.4375-2.75-4.6875-2.75z"/>
  <path d="m-32.242 110.54q-2.5-0.5-4.8125-0.5-0.5625 0.4375-0.5625 1.25 1.6875 1.125 3.125 2.9375l0.375 1.0625v16q-0.625 3.1875-0.625 4.1875 0 1.4375 1.1875 3.3125 1.375 2 2.75 2 1.625 0 2.5625-0.9375 1-1 1-4.75-0.3125-3.125-0.3125-4v-9.9375q0-1.8125 0.4375-3 0.375-0.875 0.375-2.125 0-1.75-5.5-5.5zm20 2.3125v15.312q0 20.812-17 28.625l0.5625 1q12.438-2.5625 18.375-10.812 5.3125-7.1875 5.3125-21.375v-7.125q0-1.375 0.4375-2.4375 1.0625-1.5 1.0625-3 0-1.8125-7.1875-5.375-2.6875-0.4375-5.375-0.4375-0.5 0.5625-0.5 1.5625 2.0625 1.4375 3.8125 3.125z"/>
  <path d="m6.4456 126.79q-0.5625 0-0.5625 0.75 2.625 3.875 3.3125 10.25 0.3125 3 2.6875 3 1.5 0 2.5625-1.25 0.9375-1.0625 0.9375-2.4375 0-3.5625-2.3125-6.0625-2.4375-2.8125-6.625-4.25zm6.4375 29 0.25 1.125q20.625-3.875 25.75-23.812 0.125-0.625 0.625-1.25 1.1875-1 1.1875-1.9375 0-2.125-5.3125-6.125-1.625-0.5-3.375-0.5-0.6875 0.3125-0.6875 1.125 1.125 1.5 2.125 2.75v1q-4.0625 21.062-20.562 27.625zm3.875-31.938q-0.625 0-0.625 0.6875 3.0625 3.8125 3.75 9.375 0.375 3.375 2.6875 3.375 1.5 0 2.5625-1.3125 0.8125-1.0625 0.8125-2.6875 0-2.9375-2.5625-5.625-2.6875-2.6875-6.625-3.8125z"/>
  <path d="m81.508 110.72q-0.9375 0-3.3125 2.0625-0.9375 0.5-14.812 1.4375-10.75 1-12.938 1-1.625 0-4.5-3.3125-1 0-1.3125 0.875 0 3.0625 1 5.0625 5.0625 4.875 6.8125 4.875 1.0625 0 4.625-1.5625 8.0625-3.5625 22.125-4.1875l0.4375 0.4375q-6.3125 22.688-29.812 37.438l0.5625 1.0625q27.562-9.9375 36.25-34.25 0.5-1.6875 1.5-2.375 1.25-0.875 1.25-1.8125 0-1.5-3.1875-4-3.4375-2.75-4.6875-2.75zm4.125-1.75q0 2.5 1.75 4.25t4.25 1.75 4.25-1.75 1.75-4.25-1.75-4.25-4.25-1.75-4.25 1.75-1.75 4.25zm6 3.75q-1.625 0-2.75-1.25-1-1.125-1-2.5 0-1.4375 1-2.5 1.125-1.25 2.75-1.25t2.75 1.25q1 1.0625 1 2.5 0 1.375-1 2.5-1.125 1.25-2.75 1.25z"/>
  <path d="m-54.492 162.2q-0.9375 0-3.3125 2.0625-0.9375 0.5-14.813 1.4375-10.75 1-12.938 1-1.625 0-4.5-3.3125-1 0-1.3125 0.875 0 3.0625 1 5.0625 5.0625 4.875 6.8125 4.875 1.0625 0 4.625-1.5625 8.0625-3.5625 22.125-4.1875l0.4375 0.4375q-6.3125 22.688-29.813 37.438l0.5625 1.0625q27.563-9.9375 36.25-34.25 0.5-1.6875 1.5-2.375 1.25-0.875 1.25-1.8125 0-1.5-3.1875-4-3.4375-2.75-4.6875-2.75z"/>
  <path d="m-42.117 165.02-0.375 1.0625q3.125 2.375 3.4375 3.1875l0.4375 7.75v16.375q0 1.5625-0.75 4.6875 0 1.5625 1.25 3.8125 1.3125 2.125 2.5625 2.125 1.5625 0 2.6875-1.75 0.625-1.125 0.8125-1.9375 12.75-1.3125 16.562-1.3125 2.625 0 6.0625 0.1875 3.5625 0.375 6 0.375 2.5 0 2.5-2.8125-0.8125-1.6875-3.0625-2.125 1.6875-9.5 3.75-19.938 0.125-0.8125 0.5-1.5625 1.5-1.4375 1.5-2.4375 0-1.75-2.9375-3.875-3.125-2.125-4.25-2.125-0.6875 0-3 1.8125-0.5 0.25-1.3125 0.25-12.625 0.875-23.125 2-2.5-2.625-6.375-4.1875-1.375 0-2.875 0.4375zm9.9375 30.812v-23.938q0.5625 0.5 1.8125 1 0.6875 0 9.75-1.4375 8.0625-1 11.438-1 1.5625 0 1.5625 1.125-0.9375 15.938-2.75 22.625-10.062 0-21.812 1.625z"/>
  <path d="m6.4456 178.27q-0.5625 0-0.5625 0.75 2.625 3.875 3.3125 10.25 0.3125 3 2.6875 3 1.5 0 2.5625-1.25 0.9375-1.0625 0.9375-2.4375 0-3.5625-2.3125-6.0625-2.4375-2.8125-6.625-4.25zm6.4375 29 0.25 1.125q20.625-3.875 25.75-23.812 0.125-0.625 0.625-1.25 1.1875-1 1.1875-1.9375 0-2.125-5.3125-6.125-1.625-0.5-3.375-0.5-0.6875 0.3125-0.6875 1.125 1.125 1.5 2.125 2.75v1q-4.0625 21.062-20.562 27.625zm3.875-31.938q-0.625 0-0.625 0.6875 3.0625 3.8125 3.75 9.375 0.375 3.375 2.6875 3.375 1.5 0 2.5625-1.3125 0.8125-1.0625 0.8125-2.6875 0-2.9375-2.5625-5.625-2.6875-2.6875-6.625-3.8125z"/>
  <path d="m81.508 162.2q-0.9375 0-3.3125 2.0625-0.9375 0.5-14.812 1.4375-10.75 1-12.938 1-1.625 0-4.5-3.3125-1 0-1.3125 0.875 0 3.0625 1 5.0625 5.0625 4.875 6.8125 4.875 1.0625 0 4.625-1.5625 8.0625-3.5625 22.125-4.1875l0.4375 0.4375q-6.3125 22.688-29.812 37.438l0.5625 1.0625q27.562-9.9375 36.25-34.25 0.5-1.6875 1.5-2.375 1.25-0.875 1.25-1.8125 0-1.5-3.1875-4-3.4375-2.75-4.6875-2.75zm4.125-1.75q0 2.5 1.75 4.25t4.25 1.75 4.25-1.75 1.75-4.25-1.75-4.25-4.25-1.75-4.25 1.75-1.75 4.25zm6 3.75q-1.625 0-2.75-1.25-1-1.125-1-2.5 0-1.4375 1-2.5 1.125-1.25 2.75-1.25t2.75 1.25q1 1.0625 1 2.5 0 1.375-1 2.5-1.125 1.25-2.75 1.25z"/>
 </g>
</svg>
