<?xml version="1.0" encoding="UTF-8"?>
<svg width="2748.8" height="531.89" version="1.1" viewBox="0 0 727.29 140.73" xml:space="preserve" xmlns="http://www.w3.org/2000/svg" xmlns:cc="http://creativecommons.org/ns#" xmlns:dc="http://purl.org/dc/elements/1.1/" xmlns:rdf="http://www.w3.org/1999/02/22-rdf-syntax-ns#" xmlns:xlink="http://www.w3.org/1999/xlink"><title>Miras para o MAME</title><defs><linearGradient id="linearGradient5729" x1="191.23" x2="35.125" y1="33.86" y2="187.83" gradientTransform="translate(113.38 55.242)" gradientUnits="userSpaceOnUse"><stop stop-color="#f2ec00" offset="0"/><stop stop-color="#da9c00" stop-opacity=".6" offset="1"/></linearGradient></defs><g transform="translate(279.21 -87.591)"><g transform="translate(63.903 101.07)"><path d="m-81.293 13.804a43.354 43.354 0 0 0-38.497 38.5h4.7286a38.657 38.657 0 0 1 33.768-33.774zm9.1629 0.0036v4.725a38.657 38.657 0 0 1 33.8 33.772h4.7001a43.354 43.354 0 0 0-38.5-38.496zm-47.659 47.659a43.354 43.354 0 0 0 38.497 38.5v-4.7271a38.657 38.657 0 0 1-33.768-33.773zm81.427 0a38.657 38.657 0 0 1-33.768 33.773v4.7271a43.354 43.354 0 0 0 38.497-38.5z" stop-color="#000000"/><circle cx="-76.71" cy="56.885" r="2.2602" fill="#f00" stop-color="#000000" stroke-linecap="round" stroke-linejoin="round" stroke-width=".8"/><g><rect transform="rotate(-90)" x="-113.77" y="-78.043" width="39.351" height="2.6652" stop-color="#000000"/><rect transform="rotate(-90)" x="-39.351" y="-78.043" width="39.351" height="2.6652" stop-color="#000000"/><rect x="-133.6" y="55.553" width="39.351" height="2.6652" stop-color="#000000"/><rect x="-59.175" y="55.553" width="39.351" height="2.6652" stop-color="#000000"/></g><g transform="matrix(1.0045 0 0 1.0045 -182.19 -13.742)" fill="none" stroke="#000" stroke-width=".69683"><path d="m98.774 70.315-11.223-0.023336"/><path d="m122.46 70.315-11.223-0.02334"/></g><g transform="matrix(0 -1.0045 1.0045 0 -147.33 162.36)" fill="none" stroke="#000" stroke-width=".69683"><path d="m98.774 70.315-11.223-0.023336"/><path d="m122.46 70.315-11.223-0.02334"/></g><path d="m-79.53 30.381a26.672 26.672 0 0 0-23.684 23.686h2.9091a23.783 23.783 0 0 1 20.775-20.778zm5.6372 2e-3v2.9069a23.783 23.783 0 0 1 20.794 20.777h2.8916a26.672 26.672 0 0 0-23.686-23.684zm-29.321 29.321a26.672 26.672 0 0 0 23.684 23.686v-2.9082a23.783 23.783 0 0 1-20.775-20.778zm50.095 0a23.783 23.783 0 0 1-20.775 20.778v2.9082a26.672 26.672 0 0 0 23.684-23.686z" fill="#d71f33" fill-opacity=".98431" stop-color="#000000" stroke-linecap="round" stroke-linejoin="round" stroke-width=".8"/></g><g transform="translate(-.76052)"><g transform="rotate(-45 137.76 132.89)"><path d="m92.288 84.37a43.354 43.354 0 0 0-38.497 38.5h4.7286a38.657 38.657 0 0 1 33.768-33.774zm9.1629 0.0036v4.725a38.657 38.657 0 0 1 33.8 33.772h4.7001a43.354 43.354 0 0 0-38.5-38.496zm-47.659 47.659a43.354 43.354 0 0 0 38.497 38.5v-4.7271a38.657 38.657 0 0 1-33.768-33.773zm81.427 0a38.657 38.657 0 0 1-33.768 33.773v4.7271a43.354 43.354 0 0 0 38.497-38.5z" stop-color="#000000"/><circle cx="96.871" cy="127.45" r="2.2602" fill="#f00" stop-color="#000000" stroke-linecap="round" stroke-linejoin="round" stroke-width=".8"/><g><rect transform="rotate(-90)" x="-184.34" y="95.538" width="39.351" height="2.6652" stop-color="#000000"/><rect transform="rotate(-90)" x="-109.92" y="95.538" width="39.351" height="2.6652" stop-color="#000000"/><rect x="39.986" y="126.12" width="39.351" height="2.6652" stop-color="#000000"/><rect x="114.41" y="126.12" width="39.351" height="2.6652" stop-color="#000000"/></g><g transform="matrix(1.0045 0 0 1.0045 -8.6084 56.823)" fill="none" stroke="#000" stroke-width=".69683"><path d="m98.774 70.315-11.223-0.023336"/><path d="m122.46 70.315-11.223-0.02334"/></g><g transform="matrix(0 -1.0045 1.0045 0 26.25 232.93)" fill="none" stroke="#000" stroke-width=".69683"><path d="m98.774 70.315-11.223-0.023336"/><path d="m122.46 70.315-11.223-0.02334"/></g><path d="m94.051 100.95a26.672 26.672 0 0 0-23.684 23.686h2.9091a23.783 23.783 0 0 1 20.775-20.778zm5.6372 2e-3v2.9069a23.783 23.783 0 0 1 20.794 20.777h2.8916a26.672 26.672 0 0 0-23.686-23.684zm-29.321 29.321a26.672 26.672 0 0 0 23.684 23.686v-2.9082a23.783 23.783 0 0 1-20.775-20.778zm50.095 0a23.783 23.783 0 0 1-20.775 20.778v2.9082a26.672 26.672 0 0 0 23.684-23.686z" fill="#d71f33" fill-opacity=".98431" stop-color="#000000" stroke-linecap="round" stroke-linejoin="round" stroke-width=".8"/></g><rect x="48.113" y="101.07" width="113.77" height="113.77" fill="none" stop-color="#000000" stroke="#000" stroke-linecap="round" stroke-linejoin="round" stroke-width=".001"/></g><g><path d="m232.88 227.55c-1.2538-0.36119-3.1263-2.3107-3.5358-3.6811-0.23111-0.77343-0.3359-3.5158-0.3359-8.7897 0-8.6356 0.24251-7.787-2.3215-8.1236-0.75107-0.0986-2.5507-0.47312-3.9992-0.83223-18.781-4.6563-33.289-19.708-36.833-38.212-0.31645-1.6524-0.63111-3.2756-0.69924-3.6072l-0.12387-0.60288-7.9864-0.0799c-7.4816-0.0749-8.0555-0.11597-9.0789-0.65021-3.1101-1.6235-4.0469-5.6335-1.9539-8.3634 1.6712-2.1797 1.9771-2.246 11.086-2.4007l8.0391-0.13656 0.64245-3.2774c3.3585-17.133 15.79-31.328 32.61-37.233 2.0146-0.70733 7.59-2.0066 9.7997-2.2836l0.6828-0.0856 0.13656-8.4667c0.12752-7.9067 0.17427-8.5389 0.70685-9.5591 1.6235-3.1101 5.6335-4.0469 8.3634-1.9539 2.1953 1.6831 2.246 1.9259 2.4007 11.495l0.13656 8.4488 3.2774 0.64339c15.631 3.0686 28.57 12.994 35.472 27.21 1.7104 3.5229 3.2312 8.0576 3.8694 11.537 0.74869 4.0822-0.36325 3.6258 9.058 3.7182 9.2275 0.0905 9.4986 0.14736 11.183 2.3439 2.093 2.73 1.1562 6.7399-1.9539 8.3634-1.0172 0.53099-1.657 0.5797-9.2851 0.70685l-8.1926 0.13656-0.22358 1.229c-1.0687 5.8748-2.2387 9.7257-4.2735 14.066-6.6098 14.098-20.128 24.633-35.243 27.467-1.7275 0.32387-3.2945 0.63269-3.4823 0.68628-0.26273 0.075-0.3414 1.87-0.3414 7.7899 0 8.7618-0.0989 9.367-1.8104 11.081-1.5862 1.5886-3.5359 2.0657-5.7889 1.4167zm-3.8717-42.181 0.13655-10.127 0.81935-1.3223c2.1836-3.524 7.3756-3.524 9.5591 7e-5l0.81935 1.3224 0.0813 9.9902c0.0447 5.4946 0.18218 10.091 0.30553 10.214 0.279 0.279 4.1184-0.61931 6.8508-1.6029 10.781-3.8808 19.631-12.869 23.22-23.582 0.96147-2.8698 1.6252-5.8819 1.3826-6.2745-0.11391-0.18431-3.6536-0.3112-10.158-0.36413l-9.9827-0.0812-1.3224-0.81936c-3.5241-2.1836-3.5241-7.3756 1e-5 -9.5591l1.3224-0.81935 10.059-0.0809 10.059-0.0808-1.9e-4 -0.60195c-1.1e-4 -0.33107-0.31808-1.7617-0.70661-3.1791-3.1445-11.472-11.455-20.77-22.561-25.241-2.7621-1.112-7.876-2.462-8.1788-2.1592-0.11443 0.11443-0.24477 4.5809-0.28964 9.9254l-0.0816 9.7174-0.81935 1.3224c-2.1836 3.524-7.3756 3.524-9.5591 0l-0.81936-1.3224-0.0816-9.7174c-0.0449-5.3446-0.17679-9.8126-0.29316-9.929-0.28848-0.28849-3.6906 0.45399-6.6998 1.4622-10.606 3.5535-19.738 12.459-23.5 22.92-0.94951 2.64-1.8354 6.3455-1.5785 6.6024 0.10992 0.10992 4.7568 0.23636 10.326 0.28097l10.127 0.0811 1.3224 0.81935c3.5241 2.1836 3.5241 7.3756 0 9.5591l-1.3224 0.81936-10.127 0.0811c-5.5696 0.0446-10.234 0.18823-10.365 0.31914-0.31096 0.31096 0.48719 3.8786 1.5297 6.8374 3.5353 10.034 11.527 18.381 21.507 22.465 2.7052 1.1069 7.3887 2.4035 8.3347 2.3074 0.53271-0.0541 0.54962-0.30652 0.6828-10.183z" fill="url(#linearGradient5729)" stroke="#000"/><path d="m376.36 227.55c-1.2538-0.36119-3.1263-2.3107-3.5358-3.6811-0.23111-0.77343-0.3359-3.5158-0.3359-8.7897 0-8.6356 0.24251-7.787-2.3215-8.1236-0.75107-0.0986-2.5507-0.47312-3.9992-0.83223-18.781-4.6563-33.289-19.708-36.833-38.212-0.31645-1.6524-0.63111-3.2756-0.69924-3.6072l-0.12387-0.60288-7.9864-0.0799c-7.4816-0.0749-8.0555-0.11597-9.0789-0.65021-3.1101-1.6235-4.0469-5.6335-1.9539-8.3634 1.6712-2.1797 1.9771-2.246 11.086-2.4007l8.0391-0.13656 0.64245-3.2774c3.3585-17.133 15.79-31.328 32.61-37.233 2.0146-0.70733 7.59-2.0066 9.7997-2.2836l0.6828-0.0856 0.13656-8.4667c0.12752-7.9067 0.17427-8.5389 0.70685-9.5591 1.6235-3.1101 5.6335-4.0469 8.3634-1.9539 2.1953 1.6831 2.246 1.9259 2.4007 11.495l0.13656 8.4488 3.2774 0.64339c15.631 3.0686 28.57 12.994 35.472 27.21 1.7104 3.5229 3.2312 8.0576 3.8694 11.537 0.74869 4.0822-0.36325 3.6258 9.058 3.7182 9.2275 0.0905 9.4986 0.14736 11.183 2.3439 2.093 2.73 1.1562 6.7399-1.9539 8.3634-1.0172 0.53099-1.657 0.5797-9.2851 0.70685l-8.1926 0.13656-0.22358 1.229c-1.0687 5.8748-2.2387 9.7257-4.2735 14.066-6.6098 14.098-20.128 24.633-35.243 27.467-1.7275 0.32387-3.2945 0.63269-3.4823 0.68628-0.26273 0.075-0.3414 1.87-0.3414 7.7899 0 8.7618-0.0989 9.367-1.8104 11.081-1.5862 1.5886-3.5359 2.0657-5.7889 1.4167zm-3.8717-42.181 0.13655-10.127 0.81935-1.3223c2.1836-3.524 7.3756-3.524 9.5591 7e-5l0.81935 1.3224 0.0813 9.9902c0.0447 5.4946 0.18218 10.091 0.30553 10.214 0.279 0.279 4.1184-0.61931 6.8508-1.6029 10.781-3.8808 19.631-12.869 23.22-23.582 0.96147-2.8698 1.6252-5.8819 1.3826-6.2745-0.11391-0.18431-3.6536-0.3112-10.158-0.36413l-9.9827-0.0812-1.3224-0.81936c-3.5241-2.1836-3.5241-7.3756 1e-5 -9.5591l1.3224-0.81935 10.059-0.0809 10.059-0.0808-1.9e-4 -0.60195c-1.1e-4 -0.33107-0.31808-1.7617-0.70661-3.1791-3.1445-11.472-11.455-20.77-22.561-25.241-2.7621-1.112-7.876-2.462-8.1788-2.1592-0.11443 0.11443-0.24477 4.5809-0.28964 9.9254l-0.0816 9.7174-0.81935 1.3224c-2.1836 3.524-7.3756 3.524-9.5591 0l-0.81936-1.3224-0.0816-9.7174c-0.0449-5.3446-0.17679-9.8126-0.29316-9.929-0.28848-0.28849-3.6906 0.45399-6.6998 1.4622-10.606 3.5535-19.738 12.459-23.5 22.92-0.94951 2.64-1.8354 6.3455-1.5785 6.6024 0.10992 0.10992 4.7568 0.23636 10.326 0.28097l10.127 0.0811 1.3224 0.81935c3.5241 2.1836 3.5241 7.3756 0 9.5591l-1.3224 0.81936-10.127 0.0811c-5.5696 0.0446-10.234 0.18823-10.365 0.31914-0.31096 0.31096 0.48719 3.8786 1.5297 6.8374 3.5353 10.034 11.527 18.381 21.507 22.465 2.7052 1.1069 7.3887 2.4035 8.3347 2.3074 0.53271-0.0541 0.54962-0.30652 0.6828-10.183z"/><g transform="translate(-174.45 107.22)" fill="#fee8f9" opacity=".8" stroke="#e52670" stroke-linecap="round" stroke-linejoin="round" stroke-width=".8"><path d="m49.118 0.39989v22.234a28.168 28.168 0 0 0-26.484 26.484h-22.234v3.2474h22.234a28.168 28.168 0 0 0 26.484 26.484v22.234h3.2474v-22.234a28.168 28.168 0 0 0 26.484-26.484h22.234v-3.2474h-22.222a28.168 28.168 0 0 0-26.496-26.496v-22.222zm3.2474 26.167a24.231 24.231 0 0 1 22.55 22.55h-8.353v3.2474h8.3426a24.231 24.231 0 0 1-22.54 22.54v-8.3426h-3.2474v8.3426a24.231 24.231 0 0 1-22.54-22.54h8.3432v-3.2474h-8.3432a24.231 24.231 0 0 1 22.54-22.54v8.3426h3.2474z" stop-color="#000000"/><path d="m49.118 39.504v9.6128h-9.6128v3.2479h9.6128v9.6128h3.2473v-9.6128h9.6128v-3.2479h-9.6128v-9.6128z" stop-color="#000000"/></g></g><g transform="translate(-638.7 -245.16)" fill="#e9e400" stroke="#000" stroke-linecap="round" stroke-linejoin="round" stroke-width=".8"><path d="m408.61 352.77v22.234a28.168 28.168 0 0 0-26.484 26.484h-22.234v3.2474h22.234a28.168 28.168 0 0 0 26.484 26.484v22.234h3.2474v-22.234a28.168 28.168 0 0 0 26.484-26.484h22.234v-3.2474h-22.222a28.168 28.168 0 0 0-26.496-26.496v-22.222zm3.2474 26.167a24.231 24.231 0 0 1 22.55 22.55h-8.353v3.2474h8.3426a24.231 24.231 0 0 1-22.54 22.54v-8.3426h-3.2474v8.3426a24.231 24.231 0 0 1-22.54-22.54h8.3432v-3.2474h-8.3432a24.231 24.231 0 0 1 22.54-22.54v8.3426h3.2474z" stop-color="#000000"/><path d="m408.61 391.88v9.6128h-9.6128v3.2479h9.6128v9.6128h3.2473v-9.6128h9.6128v-3.2479h-9.6128v-9.6128z" stop-color="#000000"/></g></g><metadata><rdf:RDF><cc:Work rdf:about=""><cc:license rdf:resource="http://creativecommons.org/publicdomain/zero/1.0/"/><dc:title>Miras para o MAME</dc:title><dc:date>29/09/2022</dc:date></cc:Work><cc:License rdf:about="http://creativecommons.org/publicdomain/zero/1.0/"><cc:permits rdf:resource="http://creativecommons.org/ns#Reproduction"/><cc:permits rdf:resource="http://creativecommons.org/ns#Distribution"/><cc:permits rdf:resource="http://creativecommons.org/ns#DerivativeWorks"/></cc:License></rdf:RDF></metadata></svg>
