<svg width="750" height="340" fill-rule="evenodd" version="1.1" viewBox="0 0 750.94 339.12" xml:space="preserve" xmlns="http://www.w3.org/2000/svg" xmlns:cc="http://creativecommons.org/ns#" xmlns:dc="http://purl.org/dc/elements/1.1/" xmlns:rdf="http://www.w3.org/1999/02/22-rdf-syntax-ns#"><title>Keyboard QWERTY US, 104 Keys</title><metadata><rdf:RDF><cc:Work rdf:about=""><dc:format>image/svg+xml</dc:format><dc:type rdf:resource="http://purl.org/dc/dcmitype/StillImage"/><dc:title>Keyboard QWERTY US, 104 Keys</dc:title><dc:date>03/11/2019</dc:date><dc:creator><cc:Agent><dc:title>Wellington T. Uemura</dc:title></cc:Agent></dc:creator><dc:rights><cc:Agent><dc:title>CC BY-SA 4.0</dc:title></cc:Agent></dc:rights><dc:source>https://commons.wikimedia.org/wiki/File:Qwerty.svg</dc:source><dc:language>ENGLISH</dc:language></cc:Work></rdf:RDF></metadata>
 <defs>
  <style type="text/css"/>
 <marker id="TriangleOutMu" overflow="visible" orient="auto"><path transform="scale(.4)" d="m5.77 0-8.65 5v-10l8.65 5z" fill="#2b2828" fill-rule="evenodd" stroke="#2b2828" stroke-width="1pt"/></marker><marker id="TriangleOutMY" overflow="visible" orient="auto"><path transform="scale(.4)" d="m5.77 0-8.65 5v-10l8.65 5z" fill="#2b2828" fill-rule="evenodd" stroke="#2b2828" stroke-width="1pt"/></marker><marker id="TriangleOutM1" overflow="visible" orient="auto"><path transform="scale(.4)" d="m5.77 0-8.65 5v-10l8.65 5z" fill="#2b2828" fill-rule="evenodd" stroke="#2b2828" stroke-width="1pt"/></marker><marker id="TriangleOutMF" overflow="visible" orient="auto"><path transform="scale(.4)" d="m5.77 0-8.65 5v-10l8.65 5z" fill="#2b2828" fill-rule="evenodd" stroke="#2b2828" stroke-width="1pt"/></marker>
  
  
  
  
  
  
  
  
  
  
  
  
  
  
  
  
  
  
  
  
  
  
  
  
  
  
  
  
  
  
  
  
  
  
  
  
  
  
  
  
  
  
  
  
  
  
  
  
  
  
  
  
  
  
  
  
  
  
  
  
  
  
  
  
  
  
  
  
  
  
  
  
  
  
  
  
  
  
  
  
  
  
  
  
  
  
  
  
  
  
  
  
  
  
  
  
  
  
  
  
  
  
  
  
  
  
  
  
  
  
  
  
  
  
  
  
  
  
  
  
  
  
  
  
  
  
  
  
  
  
  
  
  
  
  
  
  
  
  
  
  
  
  
  
  
  
  
  
  
  
  
  
  
  
  
  
  
  
  
  
  
  
  
  
  
  
  
  
  
  
  
  
  
  
  
  
  
  
  
  
  
  
  
  
  
  
  
  
  
  
  
  
  
  
  
  
  
  
  
  
  
  
  
  
  
  
  
  
  
  
  
  
  
  
  
  
  
  
  
  
  
  
  
  
  
  
  
  
  
  
  
  
  
  
  
  
  
  
  
  
  
  
  
  
  
  
  
  
  
  
  
  
  
  
  
  
  
  
  
  
  
  
  
  
  
  
  
  
  
  
  
  
  
  
  
  
  
  
  
  
  
  
  
  
  
  
  
  
 </defs>
 <path d="m36.218 15.699h678.85c12.106 0 21.418 8.7276 21.418 21.334v186.19c0 11.637-9.3121 22.304-21.418 22.304h-678.85c-13.037 0-23.28-10.667-23.28-22.304v-186.19c0-12.607 10.243-21.334 23.28-21.334z" fill="#f5f6f7" stroke-width="0"/><g fill="#9fcfe0" stroke-width="0"><path d="m39.284 83.632h20c1 0 3 1 3 3v17c0 2-2 3-3 3h-20c-2 0-3-1-3-3v-17c0-2 1-3 3-3z"/><path d="m69.284 83.632h20c2 0 3 1 3 3v17c0 2-1 3-3 3h-20c-2 0-3-1-3-3v-17c0-2 1-3 3-3z"/><path d="m98.284 83.632h20c2 0 3 1 3 3v17c0 2-1 3-3 3h-20c-1 0-2-1-2-3v-17c0-2 1-3 2-3z"/><path d="m128.28 83.632h20c2 0 3 1 3 3v17c0 2-1 3-3 3h-20c-2 0-3-1-3-3v-17c0-2 1-3 3-3z"/><path d="m158.28 83.632h20c2 0 3 1 3 3v17c0 2-1 3-3 3h-20c-1 0-3-1-3-3v-17c0-2 2-3 3-3z"/><path d="m188.28 83.632h19c2 0 3 1 3 3v17c0 2-1 3-3 3h-19c-1 0-3-1-3-3v-17c0-2 2-3 3-3z"/><path d="m217.28 83.632h20c2 0 3 1 3 3v17c0 2-1 3-3 3h-20c-1 0-3-1-3-3v-17c0-2 2-3 3-3z"/><path d="m247.28 83.632h20c2 0 3 1 3 3v17c0 2-1 3-3 3h-20c-1 0-3-1-3-3v-17c0-2 2-3 3-3z"/><path d="m277.28 83.632h19c2 0 3 1 3 3v17c0 2-1 3-3 3h-19c-1 0-3-1-3-3v-17c0-2 2-3 3-3z"/><path d="m306.28 83.632h20c2 0 3 1 3 3v17c0 2-1 3-3 3h-20c-1 0-3-1-3-3v-17c0-2 2-3 3-3z"/><path d="m336.28 83.632h20c2 0 3 1 3 3v17c0 2-1 3-3 3h-20c-1 0-3-1-3-3v-17c0-2 2-3 3-3z"/><path d="m366.28 83.632h20c1 0 2 1 2 3v17c0 2-1 3-2 3h-20c-1 0-3-1-3-3v-17c0-2 2-3 3-3z"/><path d="m395.28 83.632h20c2 0 3 1 3 3v17c0 2-1 3-3 3h-20c-1 0-2-1-2-3v-17c0-2 1-3 2-3z"/><path d="m87.284 110.63h19c2 0 3 1 3 3v18c0 1-1 3-3 3h-19c-1 0-3-2-3-3v-18c0-2 2-3 3-3z"/><path d="m116.28 110.63h20c2 0 3 1 3 3v18c0 1-1 3-3 3h-20c-1 0-3-2-3-3v-18c0-2 2-3 3-3z"/><path d="m146.28 110.63h20c2 0 3 1 3 3v18c0 1-1 3-3 3h-20c-1 0-3-2-3-3v-18c0-2 2-3 3-3z"/><path d="m176.28 110.63h19c2 0 3 1 3 3v18c0 1-1 3-3 3h-19c-1 0-3-2-3-3v-18c0-2 2-3 3-3z"/><path d="m205.28 110.63h20c2 0 3 1 3 3v18c0 1-1 3-3 3h-20c-1 0-2-2-2-3v-18c0-2 1-3 2-3z"/><path d="m235.28 110.63h20c2 0 3 1 3 3v18c0 1-1 3-3 3h-20c-1 0-2-2-2-3v-18c0-2 1-3 2-3z"/><path d="m265.28 110.63h20c2 0 3 1 3 3v18c0 1-1 3-3 3h-20c-1 0-2-2-2-3v-18c0-2 1-3 2-3z"/><path d="m294.28 110.63h20c2 0 3 1 3 3v18c0 1-1 3-3 3h-20c-1 0-2-2-2-3v-18c0-2 1-3 2-3z"/><path d="m324.28 110.63h20c2 0 3 1 3 3v18c0 1-1 3-3 3h-20c-1 0-2-2-2-3v-18c0-2 1-3 2-3z"/><path d="m354.28 110.63h20c2 0 3 1 3 3v18c0 1-1 3-3 3h-20c-1 0-2-2-2-3v-18c0-2 1-3 2-3z"/><path d="m384.28 110.63h19c2 0 3 1 3 3v18c0 1-1 3-3 3h-19c-1 0-2-2-2-3v-18c0-2 1-3 2-3z"/><path d="m413.28 110.63h20c2 0 3 1 3 3v18c0 1-1 3-3 3h-20c-1 0-2-2-2-3v-18c0-2 1-3 2-3z"/><path d="m95.284 138.64h19c1 0 3 1 3 2v19c0 1-2 2-3 2h-19c-2 0-3-1-3-2v-19c0-1 1-2 3-2z"/><path d="m124.28 138.64h20c1 0 3 1 3 2v19c0 1-2 2-3 2h-20c-2 0-3-1-3-2v-19c0-1 1-2 3-2z"/><path d="m154.28 138.64h20c2 0 3 1 3 2v19c0 1-1 2-3 2h-20c-2 0-3-1-3-2v-19c0-1 1-2 3-2z"/><path d="m184.28 138.64h19c2 0 3 1 3 2v19c0 1-1 2-3 2h-19c-2 0-3-1-3-2v-19c0-1 1-2 3-2z"/><path d="m213.28 138.64h20c2 0 3 1 3 2v19c0 1-1 2-3 2h-20c-2 0-3-1-3-2v-19c0-1 1-2 3-2z"/><path d="m243.28 138.64h20c2 0 3 1 3 2v19c0 1-1 2-3 2h-20c-1 0-3-1-3-2v-19c0-1 2-2 3-2z"/><path d="m273.28 138.64h19c2 0 3 1 3 2v19c0 1-1 2-3 2h-19c-1 0-3-1-3-2v-19c0-1 2-2 3-2z"/><path d="m302.28 138.64h20c2 0 3 1 3 2v19c0 1-1 2-3 2h-20c-1 0-3-1-3-2v-19c0-1 2-2 3-2z"/><path d="m332.28 138.64h20c2 0 3 1 3 2v19c0 1-1 2-3 2h-20c-1 0-3-1-3-2v-19c0-1 2-2 3-2z"/><path d="m362.28 138.64h20c2 0 3 1 3 2v19c0 1-1 2-3 2h-20c-1 0-3-1-3-2v-19c0-1 2-2 3-2z"/><path d="m391.28 138.64h20c2 0 3 1 3 2v19c0 1-1 2-3 2h-20c-1 0-3-1-3-2v-19c0-1 2-2 3-2z"/><path d="m105.28 165.64h21c1 0 2 2 2 3v17c0 2-1 3-2 3h-21c-1 0-2-1-2-3v-17c0-1 1-3 2-3z"/><path d="m135.28 165.64h21c1 0 2 2 2 3v17c0 2-1 3-2 3h-21c-1 0-2-1-2-3v-17c0-1 1-3 2-3z"/><path d="m165.28 165.64h21c1 0 2 2 2 3v17c0 2-1 3-2 3h-21c-1 0-2-1-2-3v-17c0-1 1-3 2-3z"/><path d="m225.28 165.64h20c1 0 2 2 2 3v17c0 2-1 3-2 3h-20c-2 0-3-1-3-3v-17c0-1 1-3 3-3z"/><path d="m255.28 165.64h20c1 0 2 2 2 3v17c0 2-1 3-2 3h-20c-2 0-3-1-3-3v-17c0-1 1-3 3-3z"/><path d="m285.28 165.64h19c1 0 2 2 2 3v17c0 2-1 3-2 3h-19c-2 0-3-1-3-3v-17c0-1 1-3 3-3z"/><path d="m314.28 165.64h20c1 0 2 2 2 3v17c0 2-1 3-2 3h-20c-2 0-3-1-3-3v-17c0-1 1-3 3-3z"/><path d="m344.28 165.64h20c1 0 2 2 2 3v17c0 2-1 3-2 3h-20c-2 0-3-1-3-3v-17c0-1 1-3 3-3z"/><path d="m374.28 165.64h19c1 0 2 2 2 3v17c0 2-1 3-2 3h-19c-2 0-3-1-3-3v-17c0-1 1-3 3-3z"/><path d="m157.22 192.64h-10.16c-1.8473 0-2.771 1-2.771 3v18c0 2 0.92365 3 2.771 3h181.96s0.92366-1 0.92366-3v-18c0-2-0.92366-3-0.92366-3h-16.626z"/><path d="m194.28 165.64h21c1 0 2 2 2 3v17c0 2-1 3-2 3h-21s-1-1-1-3v-17c0-1 1-3 1-3z"/></g><path d="m39.284 42.632h20c1 0 3 1 3 3v18c0 1-2 3-3 3h-20c-2 0-3-2-3-3v-18c0-2 1-3 3-3z" fill="#f2c480" stroke-width="0"/><g fill="#ffc1ea" stroke-width="0"><path d="m98.284 42.632h20c2 0 3 1 3 3v18c0 1-1 3-3 3h-20c-1 0-2-2-2-3v-18c0-2 1-3 2-3z"/><path d="m128.28 42.632h20c2 0 3 1 3 3v18c0 1-1 3-3 3h-20c-2 0-3-2-3-3v-18c0-2 1-3 3-3z"/><path d="m158.28 42.632h20c2 0 3 1 3 3v18c0 1-1 3-3 3h-20c-1 0-3-2-3-3v-18c0-2 2-3 3-3z"/><path d="m188.28 42.632h19c2 0 3 1 3 3v18c0 1-1 3-3 3h-19c-1 0-3-2-3-3v-18c0-2 2-3 3-3z"/><path d="m232.28 41.632h20c1 0 2 2 2 3v18c0 2-1 3-2 3h-20c-2 0-3-1-3-3v-18c0-1 1-3 3-3z"/><path d="m262.28 41.632h20c1 0 2 2 2 3v18c0 2-1 3-2 3h-20c-2 0-3-1-3-3v-18c0-1 1-3 3-3z"/><path d="m291.28 41.632h20c1 0 2 2 2 3v18c0 2-1 3-2 3h-20c-1 0-2-1-2-3v-18c0-1 1-3 2-3z"/><path d="m321.28 41.632h20c1 0 2 2 2 3v18c0 2-1 3-2 3h-20c-2 0-3-1-3-3v-18c0-1 1-3 3-3z"/><path d="m365.28 41.632h20c1 0 2 2 2 3v18c0 2-1 3-2 3h-20c-2 0-3-1-3-3v-18c0-1 1-3 3-3z"/><path d="m394.28 41.632h20c1 0 2 2 2 3v18c0 2-1 3-2 3h-20c-2 0-3-1-3-3v-18c0-1 1-3 3-3z"/><path d="m424.28 41.632h20c1 0 2 2 2 3v18c0 2-1 3-2 3h-20c-2 0-3-1-3-3v-18c0-1 1-3 3-3z"/><path d="m454.28 41.632h20c1 0 2 2 2 3v18c0 2-1 3-2 3h-20c-2 0-3-1-3-3v-18c0-1 1-3 3-3z"/></g><g stroke-width="0"><path d="m500.33 83.632h20c1 0 2 1 2 2v18c0 0.99998-1 2-2 2h-20c-2 0-3-1-3-2v-18c0-1 1-2 3-2z" fill="#f1ef9e"/><path d="m530.33 83.632h20c1 0 2 1 2 2v18c0 0.99998-1 2-2 2h-20c-2 0-3-1-3-2v-18c0-1 1-2 3-2z" fill="#a8d1b1"/><path d="m560.33 83.632h19c1 0 2 1 2 2v18c0 0.99998-1 2-2 2h-19c-2 0-3-1-3-2v-18c0-1 1-2 3-2z" fill="#a8d1b1"/><path d="m498.33 41.632h20c2 0 3 2 3 3v18c0 2-1 3-3 3h-20c-1 0-3-1-3-3v-18c0-1 2-3 3-3z" fill="#f2c480"/><path d="m528.33 41.632h20c2 0 3 2 3 3v18c0 2-1 3-3 3h-20c-1 0-3-1-3-3v-18c0-1 2-3 3-3z" fill="#cf98cf"/><path d="m558.33 41.632h19c2 0 3 2 3 3v18c0 2-1 3-3 3h-19c-1 0-3-1-3-3v-18c0-1 2-3 3-3z" fill="#f2c480"/><path d="m500.33 110.39h20c1 0 2 2 2 3v18c0 2-1 3-2 3h-20c-2 0-3-1-3-3v-18c0-1 1-3 3-3z" fill="#f1ef9e"/></g><g fill="#a8d1b1" stroke-width="0"><path d="m530.33 110.39h20c1 0 2 2 2 3v18c0 2-1 3-2 3h-20c-2 0-3-1-3-3v-18c0-1 1-3 3-3z"/><path d="m560.33 110.39h19c1 0 2 2 2 3v18c0 2-1 3-2 3h-19c-2 0-3-1-3-3v-18c0-1 1-3 3-3z"/><path d="m500.33 192.64h20c1 0 2 1 2 2v19c0 1-1 2-2 2h-20c-2 0-3-1-3-2v-19c0-1 1-2 3-2z"/><path d="m530.33 192.64h20c1 0 2 1 2 2v19c0 1-1 2-2 2h-20c-2 0-3-1-3-2v-19c0-1 1-2 3-2z"/><path d="m560.33 192.64h19c1 0 2 1 2 2v19c0 1-1 2-2 2h-19c-2 0-3-1-3-2v-19c0-1 1-2 3-2z"/><path d="m530.33 165.64h20c1 0 2 1 2 3v17c0 1-1 3-2 3h-20c-2 0-3-2-3-3v-17c0-2 1-3 3-3z"/></g><path d="m602.75 83.632h20c2 0 3 1 3 2v18c0 0.99998-1 2-3 2h-20c-1 0-3-1-3-2v-18c0-1 2-2 3-2z" fill="#cf98cf" stroke-width="0"/><g fill="#b0bde0" stroke-width="0"><path d="m632.75 83.632h19c2 0 3 1 3 2v18c0 0.99998-1 2-3 2h-19c-1 0-3-1-3-2v-18c0-1 2-2 3-2z"/><path d="m661.75 83.632h20c2 0 3 1 3 2v18c0 0.99998-1 2-3 2h-20c-1 0-3-1-3-2v-18c0-1 2-2 3-2z"/><path d="m602.75 110.39h20c2 0 3 2 3 3v18c0 2-1 3-3 3h-20c-1 0-3-1-3-3v-18c0-1 2-3 3-3z"/><path d="m632.75 110.39h19c2 0 3 2 3 3v18c0 2-1 3-3 3h-19c-1 0-3-1-3-3v-18c0-1 2-3 3-3z"/><path d="m661.75 110.39h20c2 0 3 2 3 3v18c0 2-1 3-3 3h-20c-1 0-3-1-3-3v-18c0-1 2-3 3-3z"/><path d="m602.75 138.39h20c2 0 3 1 3 3v18c0 2-1 3-3 3h-20c-1 0-3-1-3-3v-18c0-2 2-3 3-3z"/><path d="m632.75 138.39h19c2 0 3 1 3 3v18c0 2-1 3-3 3h-19c-1 0-3-1-3-3v-18c0-2 2-3 3-3z"/><path d="m661.75 138.39h20c2 0 3 1 3 3v18c0 2-1 3-3 3h-20c-1 0-3-1-3-3v-18c0-2 2-3 3-3z"/><path d="m602.75 165.64h20c2 0 3 1 3 3v17c0 1-1 3-3 3h-20c-1 0-3-2-3-3v-17c0-2 2-3 3-3z"/><path d="m632.75 165.64h19c2 0 3 1 3 3v17c0 1-1 3-3 3h-19c-1 0-3-2-3-3v-17c0-2 2-3 3-3z"/><path d="m661.75 165.64h20c2 0 3 1 3 3v17c0 1-1 3-3 3h-20c-1 0-3-2-3-3v-17c0-2 2-3 3-3z"/><path d="m661.75 192.64h20c2 0 3 1 3 2v19c0 1-1 2-3 2h-20c-1 0-3-1-3-2v-19c0-1 2-2 3-2z"/><path d="m691.75 83.632h20c2 0 3 1 3 2v18c0 0.99998-1 2-3 2h-20c-1 0-3-1-3-2v-18c0-1 2-2 3-2z"/></g><g stroke-width="0"><path d="m374.53 192.64h23.3c1.2263 0 2.4526 1 2.4526 3v18c0 2-1.2263 3-2.4526 3h-23.3c-2.4526 0-3.679-1-3.679-3v-18c0-2 1.2263-3 3.679-3z" fill="#f2c480"/><path d="m408.21 192.64h24.614c1.2307 0 2.4614 1 2.4614 3v18c0 2-1.2307 3-2.4614 3h-24.614c-2.4614 0-3.692-1-3.692-3v-18c0-2 1.2307-3 3.692-3z" fill="#f2c480"/><path d="m714.75 113.87c0-1.0324-1-3.0972-3-3.0972h-20c-1 0-3 2.0648-3 3.0972v45.425c0 2.0648 2 3.0972 3 3.0972h20c2 0 3-1.0324 3-3.0972v-45.425z" fill="#b0bde0"/><path d="m714.75 168.74c0-2.0844-1-3.1265-3-3.1265h-20c-1 0-3 1.0422-3 3.1265v44.814c0 1.0422 2 2.0844 3 2.0844h20c2 0 3-1.0422 3-2.0844v-44.814z" fill="#f1ef9e"/><path d="m39.284 134.63c-2 0-3-2-3-3v-18c0-2 1-3 3-3h38c2 0 3 1 3 3v18c0 1-1 3-3 3h-38z" fill="#a8d1b1"/><path d="m39.284 161.64c-1 0-3-1-3-2v-19c0-1 2-2 3-2h45c2 0 4 1 4 2v19c0 1-2 2-4 2h-45z" fill="#cf98cf"/></g><g transform="matrix(.77456 0 0 .77345 -218.09 -20.683)">
   <text x="400" y="192" fill="#2b2828" font-family="Arial" font-size="18px" style="line-height:0%">Q</text>

































  </g><g transform="matrix(.77456 0 0 .77345 -190.38 -20.683)">
   <text x="400" y="192" fill="#2b2828" font-family="Arial" font-size="18px" style="line-height:0%">W</text>

































  </g><g transform="matrix(.77456 0 0 .77345 -157.72 -20.683)">
   <text x="400" y="192" fill="#2b2828" font-family="Arial" font-size="18px" style="line-height:0%">E</text>

































  </g><g transform="matrix(.77456 0 0 .77345 -129.01 -20.683)">
   <text x="400" y="192" fill="#2b2828" font-family="Arial" font-size="18px" style="line-height:0%">R</text>

































  </g><g transform="matrix(.77456 0 0 .77345 -98.332 -20.683)">
   <text x="400" y="192" fill="#2b2828" font-family="Arial" font-size="18px" style="line-height:0%">T</text>

































  </g><g transform="matrix(.77456 0 0 .77345 -68.64 -20.683)">
   <text x="400" y="192" fill="#2b2828" font-family="Arial" font-size="18px" style="line-height:0%">Y</text>

































  </g><g transform="matrix(.77456 0 0 .77345 -38.948 -20.683)">
   <text x="400" y="192" fill="#2b2828" font-family="Arial" font-size="18px" style="line-height:0%">U</text>

































  </g><g transform="matrix(.77456 0 0 .77345 -6.2872 -20.683)">
   <text x="400" y="192" fill="#2b2828" font-family="Arial" font-size="18px" style="line-height:0%">I</text>

































  </g><g transform="matrix(.77456 0 0 .77345 19.446 -20.683)">
   <text x="400" y="192" fill="#2b2828" font-family="Arial" font-size="18px" style="line-height:0%">O</text>

































  </g><g transform="matrix(.77456 0 0 .77345 50.127 -20.683)">
   <text x="400" y="192" fill="#2b2828" font-family="Arial" font-size="18px" style="line-height:0%">P</text>

































  </g><g transform="matrix(.77456 0 0 .77345 -210.17 7.0155)">
   <text x="400" y="192" fill="#2b2828" font-family="Arial" font-size="18px" style="line-height:0%">A</text>

































  </g><g transform="matrix(.77456 0 0 .77345 -179.49 7.0155)">
   <text x="400" y="192" fill="#2b2828" font-family="Arial" font-size="18px" style="line-height:0%">S</text>

































  </g><g transform="matrix(.77456 0 0 .77345 -150.79 7.0155)">
   <text x="400" y="192" fill="#2b2828" font-family="Arial" font-size="18px" style="line-height:0%">D</text>

































  </g><g transform="matrix(.77456 0 0 .77345 -120.11 7.0155)">
   <text x="400" y="192" fill="#2b2828" font-family="Arial" font-size="18px" style="line-height:0%">F</text>

































  </g><g transform="matrix(.77456 0 0 .77345 -91.404 7.0155)">
   <text x="400" y="192" fill="#2b2828" font-family="Arial" font-size="18px" style="line-height:0%">G</text>

































  </g><g transform="matrix(.77456 0 0 .77345 -61.712 7.0155)">
   <text x="400" y="192" fill="#2b2828" font-family="Arial" font-size="18px" style="line-height:0%">H</text>

































  </g><g transform="matrix(.77456 0 0 .77345 -30.041 7.0155)">
   <text x="400" y="192" fill="#2b2828" font-family="Arial" font-size="18px" style="line-height:0%">J</text>

































  </g><g transform="matrix(.77456 0 0 .77345 -2.3284 7.0155)">
   <text x="400" y="192" fill="#2b2828" font-family="Arial" font-size="18px" style="line-height:0%">K</text>

































  </g><g transform="matrix(.77456 0 0 .77345 28.353 7.0155)">
   <text x="400" y="192" fill="#2b2828" font-family="Arial" font-size="18px" style="line-height:0%">L</text>

































  </g><g transform="matrix(.77456 0 0 .77345 -198.29 33.726)">
   <text x="400" y="192" fill="#2b2828" font-family="Arial" font-size="18px" style="line-height:0%">Z</text>

































  </g><g transform="matrix(.77456 0 0 .77345 -168.6 33.726)">
   <text x="400" y="192" fill="#2b2828" font-family="Arial" font-size="18px" style="line-height:0%">X</text>

































  </g><g transform="matrix(.77456 0 0 .77345 -138.91 33.726)">
   <text x="400" y="192" fill="#2b2828" font-family="Arial" font-size="18px" style="line-height:0%">C</text>

































  </g><g transform="matrix(.77456 0 0 .77345 -109.22 33.726)">
   <text x="400" y="192" fill="#2b2828" font-family="Arial" font-size="18px" style="line-height:0%">V</text>

































  </g><g transform="matrix(.77456 0 0 .77345 -79.527 33.726)">
   <text x="400" y="192" fill="#2b2828" font-family="Arial" font-size="18px" style="line-height:0%">B</text>

































  </g><g transform="matrix(.77456 0 0 .77345 -49.835 33.726)">
   <text x="400" y="192" fill="#2b2828" font-family="Arial" font-size="18px" style="line-height:0%">N</text>

































  </g><g transform="matrix(.77456 0 0 .77345 -21.133 33.726)">
   <text x="400" y="192" fill="#2b2828" font-family="Arial" font-size="18px" style="line-height:0%">M</text>

































  </g><g fill="none" stroke-width="0"><path d="m540.33 181.64v-10"/><path d="m540.33 198.64v11"/><path d="m564.33 203.64h10"/><path d="m515.33 203.64h-11"/></g><g transform="matrix(.77456 0 0 .77345 295.76 -55.3)">
   <text x="400" y="192" fill="#2b2828" font-family="Arial" font-size="9px" style="line-height:0%">Num</text>

































  </g><g transform="matrix(.77456 0 0 .77345 295.76 -47.394)">
   <text x="400" y="192" fill="#2b2828" font-family="Arial" font-size="9px" style="line-height:0%">Lock</text>

































  </g><g transform="matrix(.77456 0 0 .77345 293.63 -28.034)">
   <text x="400" y="192" fill="#2b2828" font-family="Arial" font-size="12px" style="line-height:0%">7</text>

































  </g><g transform="matrix(.77456 0 0 .77345 293.8 -.0067353)">
   <text x="400" y="192" fill="#2b2828" font-family="Arial" font-size="12px" style="line-height:0%">4</text>

































  </g><g transform="matrix(.77456 0 0 .77345 293.98 26.892)">
   <text x="400" y="192" fill="#2b2828" font-family="Arial" font-size="12px" style="line-height:0%">1</text>

































  </g><g transform="matrix(.77456 0 0 .77345 325.78 -55.274)">
   <text x="400" y="192" fill="#2b2828" font-family="Arial" font-size="12px" style="line-height:0%">/</text>

































  </g><g transform="matrix(.77456 0 0 .77345 324.51 -28.034)">
   <text x="400" y="192" fill="#2b2828" font-family="Arial" font-size="12px" style="line-height:0%">8</text>

































  </g><g transform="matrix(.77456 0 0 .77345 324.48 -.1087)">
   <text x="400" y="192" fill="#2b2828" font-family="Arial" font-size="12px" style="line-height:0%">5</text>

































  </g><g transform="matrix(.77456 0 0 .77345 324.6 26.892)">
   <text x="400" y="192" fill="#2b2828" font-family="Arial" font-size="12px" style="line-height:0%">2</text>

































  </g><g transform="matrix(.77456 0 0 .77345 353.94 -55.274)">
   <text x="400" y="194" fill="#2b2828" font-family="Arial" font-size="12px" style="line-height:0%">*</text>

































  </g><g transform="matrix(.77456 0 0 .77345 353.16 -28.034)">
   <text x="400" y="192" fill="#2b2828" font-family="Arial" font-size="12px" style="line-height:0%">9</text>

































  </g><g transform="matrix(.77456 0 0 .77345 353.18 -.1087)">
   <text x="400" y="192" fill="#2b2828" font-family="Arial" font-size="12px" style="line-height:0%">6</text>

































  </g><g transform="matrix(.77456 0 0 .77345 353.16 26.834)">
   <text x="400" y="192" fill="#2b2828" font-family="Arial" font-size="12px" style="line-height:0%">3</text>

































  </g><path d="m602.75 215.64c-1 0-3-1-3-2v-19c0-1 2-2 3-2h49c2 0 3 1 3 2v19c0 1-1 2-3 2h-49z" fill="#b0bde0" stroke-width="0"/><g transform="matrix(.77456 0 0 .77345 293.67 54.532)">
   <text x="400" y="192" fill="#2b2828" font-family="Arial" font-size="12px" style="line-height:0%">0</text>

































  </g><g transform="matrix(.77456 0 0 .77345 383.03 -56.262)">
   <text x="400" y="192" fill="#2b2828" font-family="Arial" font-size="12px" style="line-height:0%">-</text>

































  </g><g transform="matrix(.77456 0 0 .77345 381.86 -10.043)">
   <text x="400" y="194" fill="#2b2828" font-family="Arial" font-size="12px" style="line-height:0%">+</text>

































  </g><g transform="matrix(.77456 0 0 .77345 219.28 -95.821)">
   <text x="400" y="192" fill="#2b2828" font-family="Arial" font-size="9px" style="line-height:0%">Scroll</text>

































  </g><g transform="matrix(.77456 0 0 .77345 219.28 -87.914)">
   <text x="400" y="192" fill="#2b2828" font-family="Arial" font-size="9px" style="line-height:0%">Lock</text>

































  </g><g transform="matrix(.77456 0 0 .77345 188.6 -100.76)">
   <text x="400" y="192" fill="#2b2828" font-family="Arial" font-size="9px" style="line-height:0%">Print</text>

































  </g><g transform="matrix(.77456 0 0 .77345 188.6 -92.856)">
   <text x="400" y="192" fill="#2b2828" font-family="Arial" font-size="9px" style="line-height:0%">Scrn</text>

































  </g><g transform="matrix(.77456 0 0 .77345 188.6 -84.95)">
   <text x="400" y="192" fill="#2b2828" font-family="Arial" font-size="9px" style="line-height:0%">SysRq</text>

































  </g><path d="m495.33 57.632h26" fill="none" stroke-width="0"/><g transform="matrix(.77456 0 0 .77345 247.98 -99.774)">
   <text x="400" y="192" fill="#2b2828" font-family="Arial" font-size="9px" style="line-height:0%">Pause</text>

































  </g><g transform="matrix(.77456 0 0 .77345 248.97 -85.938)">
   <text x="400" y="192" fill="#2b2828" font-family="Arial" font-size="9px" style="line-height:0%">Break</text>

































  </g><path d="m555.33 56.632h25" fill="none" stroke-width="0"/><g transform="matrix(.77456 0 0 .77345 -206.21 -90.879)">
   <text x="400" y="192" fill="#2b2828" font-family="Arial" font-size="13px" style="line-height:0%">F1</text>

































  </g><g transform="matrix(.77456 0 0 .77345 -177.51 -90.879)">
   <text x="400" y="192" fill="#2b2828" font-family="Arial" font-size="13px" style="line-height:0%">F2</text>

































  </g><g transform="matrix(.77456 0 0 .77345 -147.82 -90.879)">
   <text x="400" y="192" fill="#2b2828" font-family="Arial" font-size="13px" style="line-height:0%">F3</text>

































  </g><g transform="matrix(.77456 0 0 .77345 -118.13 -90.879)">
   <text x="400" y="192" fill="#2b2828" font-family="Arial" font-size="13px" style="line-height:0%">F4</text>

































  </g><g transform="matrix(.77456 0 0 .77345 -73.589 -90.879)">
   <text x="400" y="192" fill="#2b2828" font-family="Arial" font-size="13px" style="line-height:0%">F5</text>

































  </g><g transform="matrix(.77456 0 0 .77345 -43.897 -90.879)">
   <text x="400" y="192" fill="#2b2828" font-family="Arial" font-size="13px" style="line-height:0%">F6</text>

































  </g><g transform="matrix(.77456 0 0 .77345 -14.205 -90.879)">
   <text x="400" y="192" fill="#2b2828" font-family="Arial" font-size="13px" style="line-height:0%">F7</text>

































  </g><g transform="matrix(.77456 0 0 .77345 15.487 -90.879)">
   <text x="400" y="192" fill="#2b2828" font-family="Arial" font-size="13px" style="line-height:0%">F8</text>

































  </g><g transform="matrix(.77456 0 0 .77345 59.035 -90.879)">
   <text x="400" y="192" fill="#2b2828" font-family="Arial" font-size="13px" style="line-height:0%">F9</text>

































  </g><g transform="matrix(.77456 0 0 .77345 85.757 -90.879)">
   <text x="400" y="192" fill="#2b2828" font-family="Arial" font-size="13px" style="line-height:0%">F10</text>

































  </g><g transform="matrix(.77456 0 0 .77345 116.44 -90.879)">
   <text x="400" y="192" fill="#2b2828" font-family="Arial" font-size="13px" style="line-height:0%">F11</text>

































  </g><g transform="matrix(.77456 0 0 .77345 145.14 -90.879)">
   <text x="400" y="192" fill="#2b2828" font-family="Arial" font-size="13px" style="line-height:0%">F12</text>

































  </g><g transform="matrix(.77456 0 0 .77345 -266.59 -91.868)">
   <text x="400" y="192" fill="#2b2828" font-family="Arial" font-size="9px" style="line-height:0%">Esc</text>

































  </g><g transform="matrix(.77456 0 0 .77345 220.27 -51.347)">
   <text x="400" y="192" fill="#2b2828" font-family="Arial" font-size="9px" style="line-height:0%">Home</text>

































  </g><g transform="matrix(.77456 0 0 .77345 224.23 -22.892)">
   <text x="400" y="192" fill="#2b2828" font-family="Arial" font-size="9px" style="line-height:0%">End</text>

































  </g><g transform="matrix(.77456 0 0 .77345 250.95 -26.845)">
   <text x="400" y="192" fill="#2b2828" font-family="Arial" font-size="9px" style="line-height:0%">Page</text>

































  </g><g transform="matrix(.77456 0 0 .77345 250.95 -18.938)">
   <text x="400" y="192" fill="#2b2828" font-family="Arial" font-size="9px" style="line-height:0%">Down</text>

































  </g><g transform="matrix(.77456 0 0 .77345 251.94 -56.289)">
   <text x="400" y="192" fill="#2b2828" font-family="Arial" font-size="9px" style="line-height:0%">Page</text>

































  </g><g transform="matrix(.77456 0 0 .77345 251.94 -48.382)">
   <text x="400" y="192" fill="#2b2828" font-family="Arial" font-size="9px" style="line-height:0%">Up</text>

































  </g><g transform="matrix(.77456 0 0 .77345 191.57 -51.347)">
   <text x="400" y="192" fill="#2b2828" font-family="Arial" font-size="9px" style="line-height:0%">Insert</text>

































  </g><g transform="matrix(.77456 0 0 .77345 190.58 -22.892)">
   <text x="400" y="192" fill="#2b2828" font-family="Arial" font-size="9px" style="line-height:0%">Delete</text>

































  </g><g transform="matrix(.77456 0 0 .77345 383.84 43.609)">
   <text x="400" y="192" fill="#2b2828" font-family="Arial" font-size="9px" style="line-height:0%">Enter</text>

































  </g><g transform="matrix(.77456 0 0 .77345 -240.85 -44.013)">
   <text x="400" y="192" fill="#2b2828" font-family="Arial" font-size="12px" style="line-height:0%">1</text>

































  </g><g transform="matrix(.77456 0 0 .77345 -210.15 -44.013)">
   <text x="400" y="192" fill="#2b2828" font-family="Arial" font-size="12px" style="line-height:0%">2</text>

































  </g><g transform="matrix(.77456 0 0 .77345 -181.03 -44.013)">
   <text x="400" y="192" fill="#2b2828" font-family="Arial" font-size="12px" style="line-height:0%">3</text>

































  </g><g transform="matrix(.77456 0 0 .77345 -151.34 -44.04)">
   <text x="400" y="192" fill="#2b2828" font-family="Arial" font-size="12px" style="line-height:0%">4</text>

































  </g><g transform="matrix(.77456 0 0 .77345 -120.69 -44.131)">
   <text x="400" y="192" fill="#2b2828" font-family="Arial" font-size="12px" style="line-height:0%">5</text>

































  </g><g transform="matrix(.77456 0 0 .77345 -92.393 -44.013)">
   <text x="400" y="192" fill="#2b2828" font-family="Arial" font-size="12px" style="line-height:0%">6</text>

































  </g><g transform="matrix(.77456 0 0 .77345 -61.662 -44.126)">
   <text x="400" y="192" fill="#2b2828" font-family="Arial" font-size="12px" style="line-height:0%">7</text>

































  </g><g transform="matrix(.77456 0 0 .77345 -31.997 -44.013)">
   <text x="400" y="192" fill="#2b2828" font-family="Arial" font-size="12px" style="line-height:0%">8</text>

































  </g><g transform="matrix(.77456 0 0 .77345 -2.3053 -44.013)">
   <text x="400" y="192" fill="#2b2828" font-family="Arial" font-size="12px" style="line-height:0%">9</text>

































  </g><g transform="matrix(.77456 0 0 .77345 27.231 -44.013)">
   <text x="400" y="192" fill="#2b2828" font-family="Arial" font-size="12px" style="line-height:0%">0</text>

































  </g><path d="m454.58 83.762c-0.92991 0-1.3949 1-1.3949 3l0.12774 16.85c0 0.99998 0.46495 3 1.3949 3l22.548-0.28632c0.46496 0 0.92991-2 0.92991-3l-0.12774-16.85c0-2-0.46495-3-0.92991-3z" fill="#f1ef9e" fill-rule="evenodd" stroke-width="0"/><path d="m402.28 188.64c-1 0-2-1-2-3v-17c0-1 1-3 2-3h73c2 0 3 2 3 3v17c0 2-1 3-3 3h-73z" fill="#e89fa5" stroke-width="0"/><g fill="#f1ef9e" stroke-width="0"><path d="m421.87 137.73h22.002c2.2002 0 3.3004 1.0405 3.3004 3.1214v17.688c0 2.081-1.1001 3.1214-3.3004 3.1214h-22.002c-1.1001 0-2.2002-1.0405-2.2002-3.1214v-17.688c0-2.081 1.1001-3.1214 2.2002-3.1214z"/><path d="m439.51 137.73h-0.96097c-1.9389 0-2.9084 1-2.9084 2v19.911c0 1 0.96947 2 2.9084 2h36.831c1.9389 0 2.9084-1 2.9084-2v-46.004c0-2-0.96946-3-2.9084-3h-30.053c-1.9389 0-2.9084 1-2.9084 3v21.093c0 2 0 3-2.9084 3z"/></g><g stroke-width="0"><path d="m442.28 192.64h33c2 0 3 1 3 3v18c0 2-1 3-3 3h-33c-2 0-3-1-3-3v-18c0-2 1-3 3-3z" fill="#e89fa5"/><path d="m39.235 192.64h29.509c0.98364 0 1.9673 1 1.9673 3v18c0 2-0.98364 3-1.9673 3h-29.509c-1.9673 0-2.9509-1-2.9509-3v-18c0-2 0.98364-3 2.9509-3z" fill="#e89fa5"/><path d="m77.93 192.64h23.383c2.4614 0 3.692 1 3.692 3v18c0 1-1.2307 3-3.692 3h-23.383c-1.2307 0-3.6921-2-3.6921-3v-18c0-2 2.4614-3 3.6921-3z" fill="#f2c480"/><path d="m111.22 192.64h25.987c1.0395 0 2.079 1 2.079 3v18c0 1-1.0395 3-2.079 3h-25.987c-1.0395 0-2.079-2-2.079-3v-18c0-2 1.0395-3 2.079-3z" fill="#e89fa5"/></g><g transform="matrix(.77456 0 0 .77345 143.16 59.448)">
   <text x="400" y="192" fill="#2b2828" font-family="Arial" font-size="9px" style="line-height:0%">Ctrl</text>

































  </g><g transform="matrix(.77456 0 0 .77345 -262.06 59.448)">
   <text x="400" y="192" fill="#2b2828" font-family="Arial" font-size="9px" style="line-height:0%">Ctrl</text>

































  </g><g transform="matrix(.77456 0 0 .77345 -190.49 58.459)">
   <text x="400" y="192" fill="#2b2828" font-family="Arial" font-size="9px" style="line-height:0%">Alt</text>

































  </g><g transform="matrix(.77456 0 0 .77345 -1.3931 -57.593)">
   <text x="400" y="194" fill="#2b2828" font-family="Arial" font-size="12px" style="line-height:0%">(</text>

































  </g><g transform="matrix(.77456 0 0 .77345 28.125 -57.593)">
   <text x="400" y="194" fill="#2b2828" font-family="Arial" font-size="12px" style="line-height:0%">)</text>

































  </g><g transform="matrix(.77456 0 0 .77345 -31.219 -57.388)">
   <text x="400" y="194" fill="#2b2828" font-family="Arial" font-size="12px" style="line-height:0%">*</text>

































  </g><g transform="matrix(.77456 0 0 .77345 -62.262 -56.246)">
   <text x="400" y="192" fill="#2b2828" font-family="Arial" font-size="12px" style="line-height:0%">&amp;</text>

































  </g><g transform="matrix(.77456 0 0 .77345 -92.028 -56.044)">
   <text x="400" y="192" fill="#2b2828" font-family="Arial" font-size="12px" style="line-height:0%">^</text>

































  </g><g transform="matrix(.77456 0 0 .77345 -122.22 -56.246)">
   <text x="400" y="192" fill="#2b2828" font-family="Arial" font-size="12px" style="line-height:0%">%</text>

































  </g><g transform="matrix(.71081 0 0 .70979 -125.83 -44.091)">
   <text x="400" y="192" fill="#2b2828" font-family="Arial" font-size="12px" style="line-height:0%">$</text>

































  </g><g transform="matrix(.77456 0 0 .77345 85.151 .10508)">
   <text x="400" y="192" fill="#2b2828" font-family="Arial" font-size="12px" style="line-height:0%">"</text>

































  </g><g transform="matrix(.83534 0 0 .83414 -264.3 -67.511)">
   <text x="400" y="192" fill="#2b2828" font-family="Arial" font-size="12px" style="line-height:0%">!</text>

































  </g><path d="m41.687 165.14h53.546c1.7849 0 3.5698 1 3.5698 3v18c0 2-1.7849 3-3.5698 3h-53.546c-3.5697 0-5.3546-1-5.3546-3v-18c0-2 1.7849-3 5.3546-3z" fill="#e89fa5" fill-rule="evenodd" stroke-width="0"/><g transform="matrix(.77456 0 0 .77345 -263.6 32.21)">
   <g fill="#2b2828"><path d="m412.14 186.32-2.6883-2.6883-2.6883 2.6883h1.3239v5.2349h2.7287v-5.2349h1.3239m-7.8222 1.0106 5.134-5.134 5.134 5.134h-2.759v5.2349h-4.7499v-5.2349h-2.759" fill="#2b2828"/></g>












  </g><g transform="matrix(.77456 0 0 .77345 -271.08 -43.203)">
   <text x="400" y="192" fill="#2b2828" font-family="Arial" font-size="12px" style="line-height:0%">`</text>

































  </g><g transform="matrix(.77456 0 0 .77345 -270.54 -28.59)">
   <text x="400" y="192" fill="#2b2828" font-family="Arial" font-size="9px" style="line-height:0%">Tab</text>

































  </g><g transform="matrix(.77456 0 0 .77345 -255.7 .097464)">
   <text x="400" y="192" fill="#2b2828" font-family="Arial" font-size="9px" style="line-height:0%">Caps</text>

































  </g><g transform="matrix(.77456 0 0 .77345 -255.7 8.0039)">
   <text x="400" y="192" fill="#2b2828" font-family="Arial" font-size="9px" style="line-height:0%">Lock</text>

































  </g><g transform="matrix(.77456 0 0 .77345 58.956 -45.156)">
   <text x="400" y="192" fill="#2b2828" font-family="Arial" font-size="12px" style="line-height:0%">-</text>

































  </g><g transform="matrix(.77456 0 0 .77345 57.939 -58.265)">
   <text x="400" y="192" fill="#2b2828" font-family="Arial" font-size="12px" style="line-height:0%">_</text>

































  </g><g transform="matrix(.77456 0 0 .77345 87.058 -44.586)">
   <text x="400" y="192" fill="#2b2828" font-family="Arial" font-size="12px" style="line-height:0%">=</text>

































  </g><g transform="matrix(.77456 0 0 .77345 87.058 -55.688)">
   <text x="400" y="192" fill="#2b2828" font-family="Arial" font-size="12px" style="line-height:0%">+</text>

































  </g><g transform="matrix(.77456 0 0 .77345 66.616 36.665)">
   <text x="400" y="192" fill="#2b2828" font-family="Arial" font-size="12px" style="line-height:0%">/</text>

































  </g><g transform="matrix(.77456 0 0 .77345 64.996 26.106)">
   <text x="400" y="192" fill="#2b2828" font-family="Arial" font-size="12px" style="line-height:0%">?</text>

































  </g><g transform="matrix(.77456 0 0 .77345 36.707 36.665)">
   <text x="400" y="192" fill="#2b2828" font-family="Arial" font-size="12px" style="line-height:0%">.</text>

































  </g><g transform="matrix(.77456 0 0 .77345 35.304 27.249)">
   <text x="400" y="192" fill="#2b2828" font-family="Arial" font-size="12px" style="line-height:0%">&gt;</text>

































  </g><g transform="matrix(.77456 0 0 .77345 6.0706 36.665)">
   <text x="400" y="192" fill="#2b2828" font-family="Arial" font-size="12px" style="line-height:0%">,</text>

































  </g><g transform="matrix(.77456 0 0 .77345 4.6229 27.249)">
   <text x="400" y="192" fill="#2b2828" font-family="Arial" font-size="12px" style="line-height:0%">&lt;</text>

































  </g><g fill="none" stroke-width="0"><path d="m666.75 145.17h10"/><path d="m642.75 127.39v-10"/><path d="m617.75 150.39h-10"/><path d="m642.75 171.64v10"/></g><g transform="matrix(.77456 0 0 .77345 293.8 36.69)">
   <text x="400" y="192" fill="#2b2828" font-family="Arial" font-size="9px" style="line-height:0%">End</text>

































  </g><g transform="matrix(.77456 0 0 .77345 293.8 -17.976)">
   <text x="400" y="192" fill="#2b2828" font-family="Arial" font-size="9px" style="line-height:0%">Home</text>

































  </g><g transform="matrix(.77456 0 0 .77345 353.18 -17.976)">
   <text x="400" y="192" fill="#2b2828" font-family="Arial" font-size="9px" style="line-height:0%">PgUp</text>

































  </g><g transform="matrix(.77456 0 0 .77345 353.18 36.69)">
   <text x="400" y="192" fill="#2b2828" font-family="Arial" font-size="9px" style="line-height:0%">PgDn</text>

































  </g><g transform="matrix(.77456 0 0 .77345 353.18 64.389)">
   <text x="400" y="192" fill="#2b2828" font-family="Arial" font-size="9px" style="line-height:0%">Del</text>

































  </g><g transform="matrix(.77456 0 0 .77345 354.75 51.541)">
   <text x="400" y="192" fill="#2b2828" font-family="Arial" font-size="9px" style="line-height:0%">.</text>

































  </g><g transform="matrix(.77456 0 0 .77345 294.79 64.389)">
   <text x="400" y="192" fill="#2b2828" font-family="Arial" font-size="9px" style="line-height:0%">Ins</text>

































  </g><g transform="matrix(.77456 0 0 .77345 -254.3 131.41)">
   <text x="400" y="192" fill="#2b2828" font-family="Arial" font-size="18px" style="line-height:0%">Character keys</text>

































  </g><g transform="matrix(.77456 0 0 .77345 -254.3 164.05)">
   <text x="400" y="192" fill="#2b2828" font-family="Arial" font-size="18px" style="line-height:0%">Modifier keys</text>

































  </g><g transform="matrix(.77456 0 0 .77345 316.85 164.73)">
   <text x="400" y="192" fill="#2b2828" font-family="Arial" font-size="18px" style="line-height:0%">Lock keys</text>

































  </g><g transform="matrix(.77456 0 0 .77345 127.53 130.56)">
   <text x="400" y="192" fill="#2b2828" font-family="Arial" font-size="18px" style="line-height:0%">Navigation keys</text>

































  </g><g transform="matrix(.77456 0 0 .77345 316.56 131.28)">
   <text x="400" y="192" fill="#2b2828" font-family="Arial" font-size="18px" style="line-height:0%">Numeric keypad</text>

































  </g><g transform="matrix(.77456 0 0 .77345 -68.58 130.69)">
   <text x="400" y="192" fill="#2b2828" font-family="Arial" font-size="18px" style="line-height:0%">Enter and editing keys</text>

































  </g><g transform="matrix(.77456 0 0 .77345 127.81 164.31)">
   <text x="400" y="192" fill="#2b2828" font-family="Arial" font-size="18px" style="line-height:0%">Function keys</text>

































  </g><path d="m606.75 58.632h7v-3h-7v3z" fill="#2b2828"/><path d="m606.75 58.632h7v-3h-7v3z" fill="none" stroke-width="0"/><g transform="matrix(.77456 0 0 .77345 305.66 -92.856)">
   <text x="400" y="192" fill="#2b2828" font-family="Arial" font-size="8px" style="line-height:0%">Num</text>

































  </g><g transform="matrix(.77456 0 0 .77345 305.66 -85.938)">
   <text x="400" y="192" fill="#2b2828" font-family="Arial" font-size="8px" style="line-height:0%">Lock</text>

































  </g><path d="m647.75 58.632h7v-3h-7v3z" fill="#2b2828"/><path d="m647.75 58.632h7v-3h-7v3z" fill="none" stroke-width="0"/><g transform="matrix(.77456 0 0 .77345 347.22 -92.856)">
   <text x="400" y="192" fill="#2b2828" font-family="Arial" font-size="8px" style="line-height:0%">Caps</text>

































  </g><g transform="matrix(.77456 0 0 .77345 347.22 -85.938)">
   <text x="400" y="192" fill="#2b2828" font-family="Arial" font-size="8px" style="line-height:0%">Lock</text>

































  </g><path d="m688.75 58.632h7v-3h-7v3z" fill="#2b2828"/><path d="m688.75 58.632h7v-3h-7v3z" fill="none" stroke-width="0"/><g transform="matrix(.77456 0 0 .77345 387.8 -92.856)">
   <text x="400" y="192" fill="#2b2828" font-family="Arial" font-size="8px" style="line-height:0%">Scroll</text>

































  </g><g transform="matrix(.77456 0 0 .77345 387.8 -85.938)">
   <text x="400" y="192" fill="#2b2828" font-family="Arial" font-size="8px" style="line-height:0%">Lock</text>

































  </g><path d="m336.96 192.64h27.064c1.1277 0 2.2554 1 2.2554 3v18c0 1-1.1277 3-2.2554 3h-27.064c-1.1277 0-2.2554-2-2.2554-3v-18c0-2 1.1277-3 2.2554-3z" fill="#e89fa5" stroke-width="0"/><g transform="matrix(.77456 0 0 .77345 31.969 58.459)">
   <text x="400" y="192" fill="#2b2828" font-family="Arial" font-size="9px" style="line-height:0%">Alt Gr</text>

































  </g><g transform="translate(-7.7155 -10.366)" fill="#2b2828" stroke="#2b2828"><path d="m82.103 127.42h-10.013" marker-end="url(#TriangleOutMu)" stroke-width="1.0003"/><path d="m69.086 125.42v4.005" stroke-width="1.0003"/></g><g transform="translate(-7.7155 -10.366)" fill="#2b2828" fill-rule="evenodd" stroke="#2b2828" stroke-width="1.0003"><path d="m69.086 135.43h10.013" marker-end="url(#TriangleOutMY)"/><path d="m82.103 133.43v4.005"/></g><g fill="none" stroke="#2b2828"><g stroke-width="1.0013px"><path d="m465.51 141.91v6.7732h-14.761" marker-end="url(#TriangleOutMF)"/><path d="m540.03 198.22v10.013" marker-end="url(#TriangleOutM1)"/><path d="m515 205.16h-10.013" marker-end="url(#TriangleOutM1)"/><path d="m565.06 205.16h10.013" marker-end="url(#TriangleOutM1)"/><path d="m540.03 183.14v-10.013" marker-end="url(#TriangleOutM1)"/><path d="m645.6 129.82v-10.013" marker-end="url(#TriangleOutM1)"/><path d="m645.6 173.12v10.013" marker-end="url(#TriangleOutM1)"/><path d="m665.63 153.85h10.013" marker-end="url(#TriangleOutM1)"/><path d="m620.57 153.85h-10.013" marker-end="url(#TriangleOutM1)"/></g><path d="m473.24 94.479h-12.516" marker-end="url(#TriangleOutM1)" stroke-width=".91402px"/>
</g><g fill-rule="evenodd"><path d="m409.45 295.28h20c1 0 3 1 3 3v18c0 1-2 3-3 3h-20c-2 0-3-2-3-3v-18c0-2 1-3 3-3z" fill="#ffc1ea" stroke-width="0"/><g transform="matrix(.77456 0 0 .77345 -67.699 164.07)"><text x="400" y="192" fill="#2b2828" font-family="Arial" font-size="18px" style="line-height:0%">System and GUI keys</text>























</g><g transform="matrix(.77456 0 0 .77345 142.16 32.213)"><g fill="#2b2828"><path d="m412.14 186.32-2.6883-2.6883-2.6883 2.6883h1.3239v5.2349h2.7287v-5.2349h1.3239m-7.8222 1.0106 5.134-5.134 5.134 5.134h-2.759v5.2349h-4.7499v-5.2349h-2.759" fill="#2b2828"/></g></g><g transform="matrix(.84 0 0 .8388 -207.17 -68.313)"><text x="400" y="192" fill="#2b2828" font-family="Arial" font-size="12px" style="line-height:0%">#</text>














</g><g transform="matrix(.77456 0 0 .77345 -271.04 -58.539)"><text x="400" y="194" fill="#2b2828" font-family="Arial" font-size="12px" style="line-height:0%">~</text>














</g><g transform="matrix(.77456 0 0 .77345 85.091 10.628)"><text x="400" y="192" fill="#2b2828" font-family="Arial" font-size="12px" style="line-height:0%">'</text>














</g><g transform="matrix(.67632 0 0 .67535 -172.22 -39.442)"><text x="400" y="194" fill="#2b2828" font-family="Arial" font-size="12px" style="line-height:0%">@</text>














</g><g transform="matrix(.77456 0 0 .77345 53.865 10.056)"><text x="400" y="192" fill="#2b2828" font-family="Arial" font-size="12px" style="line-height:0%">;</text>














</g><g transform="matrix(.77456 0 0 .77345 54.008 -2.8675)"><text x="400" y="194" fill="#2b2828" font-family="Arial" font-size="12px" style="line-height:0%">:</text>














</g><g transform="matrix(.77456 0 0 .77345 75.883 -17.491)"><text x="401.20703" y="192" fill="#2b2828" font-family="Arial" font-size="12px" style="line-height:0%">[</text>














</g><g transform="matrix(.77456 0 0 .77345 76.777 -30.699)"><text x="400" y="194" fill="#2b2828" font-family="Arial" font-size="12px" style="line-height:0%">{</text>














</g><g transform="matrix(.77456 0 0 .77345 105.17 -17.498)"><text x="401.20703" y="192" fill="#2b2828" font-family="Arial" font-size="12px" style="line-height:0%">]</text>














</g><g transform="matrix(.77456 0 0 .77345 106.06 -30.706)"><text x="400" y="194" fill="#2b2828" font-family="Arial" font-size="12px" style="line-height:0%">}</text>














</g><g transform="matrix(.77456 0 0 .77345 130.1 -44.155)"><text x="400" y="192" fill="#2b2828" font-family="Arial" font-size="12px" style="line-height:0%">\</text>














</g><g transform="matrix(.77456 0 0 .77345 130.19 -55.573)"><text x="400" y="192" fill="#2b2828" font-family="Arial" font-size="12px" style="line-height:0%">|</text>














</g></g><g fill-rule="evenodd" stroke-width="0"><path d="m598.25 295.4h20c1 0 3 1 3 3v18c0 1-2 3-3 3h-20c-2 0-3-2-3-3v-18c0-2 1-3 3-3z" fill="#cf98cf"/><path d="m27.421 295.4h20c1 0 3 1 3 3v18c0 1-2 3-3 3h-20c-2 0-3-2-3-3v-18c0-2 1-3 3-3z" fill="#e89fa5"/><path d="m212.02 295.4h20c1 0 3 1 3 3v18c0 1-2 3-3 3h-20c-2 0-3-2-3-3v-18c0-2 1-3 3-3z" fill="#f2c480"/><path d="m27.22 262.76h20c1 0 3 1 3 3v18c0 1-2 3-3 3h-20c-2 0-3-2-3-3v-18c0-2 1-3 3-3z" fill="#9fcfe0"/><path d="m212.04 262.77h20c1 0 3 1 3 3v18c0 1-2 3-3 3h-20c-2 0-3-2-3-3v-18c0-2 1-3 3-3z" fill="#f1ef9e"/><path d="m409.28 262.76h20c1 0 3 1 3 3v18c0 1-2 3-3 3h-20c-2 0-3-2-3-3v-18c0-2 1-3 3-3z" fill="#a8d1b1"/><path d="m597.98 262.76h20c1 0 3 1 3 3v18c0 1-2 3-3 3h-20c-2 0-3-2-3-3v-18c0-2 1-3 3-3z" fill="#b0bde0"/><path d="m425.25 83.73h20c2 0 3 1 3 3v17c0 2-1 3-3 3h-20c-1 0-2-1-2-3v-17c0-2 1-3 2-3z" fill="#9fcfe0"/></g><g transform="matrix(.77456 0 0 .77345 116.98 -44.155)" fill-rule="evenodd"><text x="400" y="192" fill="#2b2828" font-family="Arial" font-size="12px" style="line-height:0%">\</text>














</g><g transform="matrix(.66417 0 0 .66322 161.25 -35.768)" fill-rule="evenodd"><text x="400" y="192" fill="#2b2828" font-family="Arial" font-size="12px" style="line-height:0%">|</text>














</g></svg>
